<svg width="183" height="22" viewBox="0 0 183 22" fill="none" xmlns="http://www.w3.org/2000/svg">
<path d="M182.437 0V21.9956H133.541V0H182.437ZM18.4191 7.75165L21.1809 9.03066L18.5173 19.8443H15.4009L18.4191 7.75165ZM28.1524 9.40561C29.343 8.22078 30.9482 7.54848 32.6263 7.53193C34.6079 7.53193 36.3483 8.67538 36.345 10.6671C36.2932 11.4639 36.1692 12.2539 35.9747 13.0276L35.8496 13.4897L34.2882 19.8399H31.1401L32.6492 13.7575C32.8608 13.0446 33.0001 12.3121 33.0649 11.5712C33.064 11.1381 32.8789 10.7259 32.556 10.4379C32.2332 10.15 31.8031 10.0135 31.3736 10.0626C29.6658 10.0626 28.5429 11.2875 27.8782 13.6715L27.8087 13.9313L26.3258 19.8443H23.2039L24.6607 13.9073C24.8783 13.1766 25.0266 12.427 25.1037 11.6685C25.1479 11.2332 24.9955 10.801 24.6882 10.4901C24.3809 10.1793 23.9509 10.0225 23.516 10.0626C22.6048 10.05 21.7434 10.4613 21.1793 11.1691L21.063 11.3252L21.7396 8.57699C22.5988 7.87066 23.6839 7.49948 24.7949 7.53193C26.1939 7.39702 27.5305 8.14289 28.1524 9.40561ZM97.3202 6.80278L96.5869 9.74122C95.142 10.8305 94.2982 12.5417 94.3129 14.3533C94.234 15.434 94.7999 16.4594 95.7554 16.9671C96.6748 17.446 97.7007 17.6827 98.7365 17.6547C100.19 17.6209 101.624 17.3173 102.967 16.7594C101.558 18.7681 99.2264 19.9213 96.7779 19.8202C93.4007 19.8202 91.0677 17.7345 91.0677 14.455C91.0274 10.724 93.6615 7.50031 97.3202 6.80278ZM50.7573 9.40124C50.8136 9.599 50.8502 9.80187 50.8665 10.0069C50.8665 10.091 50.8752 10.1785 50.8752 10.2714C50.8743 10.5175 50.8568 10.7633 50.8228 11.0071C50.7861 11.2756 50.7327 11.5686 50.6569 11.9123L50.5958 12.1801L50.5453 12.3969C50.5101 12.5457 50.4718 12.7031 50.4303 12.8708L50.3656 13.13L48.7747 19.8202H45.6244C45.703 19.3746 46.9447 13.9336 47.0118 13.6398L47.0146 13.6274L43.1005 14.0538C42.0006 14.1795 40.7676 14.5052 40.7676 15.8345C40.7676 17.0381 42.0006 17.4382 42.8048 17.4382C43.6242 17.3958 44.4228 17.172 45.1437 16.7842L45.3811 16.6489L44.8704 19.0878C43.9596 19.5897 42.9329 19.8423 41.8937 19.8202C38.331 19.8202 37.4198 17.6896 37.4198 16.2609C37.4198 13.7404 39.2251 12.3008 42.6854 11.9493L42.9696 11.9232L45.7575 11.698C46.0287 11.6708 46.298 11.6274 46.5639 11.5679C48.8401 11.0454 48.073 9.59911 46.5639 9.35314L46.4976 9.34098L46.4297 9.33456L46.2353 9.31768L46.0402 9.3127L45.8487 9.31734L45.6539 9.33019H45.6299C45.1807 9.37307 44.7382 9.46668 44.3108 9.60899L43.9931 9.72482L42.4906 9.00552C43.2758 8.74347 44.0813 8.54676 44.8988 8.41739C45.0406 8.39553 45.188 8.37585 45.3353 8.35727C47.209 8.05418 49.1293 8.42392 50.7573 9.40124ZM77.7662 2.19727L78.6534 14.8605L76.2015 19.0845L75.1103 5.2319L75.1069 5.15533L71.6753 19.8202H68.2162L72.5667 2.19727H77.7662ZM114.842 7.1843L115.352 7.20835L114.574 10.3173C114.325 10.2823 114.074 10.2654 113.823 10.267C112.852 10.2483 111.901 10.5477 111.115 11.1197C110.234 11.8983 109.644 12.9516 109.438 14.1056L109.4 14.3544L108.061 19.8191H104.817L106.696 12.2872C107.427 9.36359 110.017 7.28871 113.024 7.216C113.822 7.19742 114.498 7.1843 114.842 7.1843ZM61.0013 7.1843L61.5109 7.20835L60.7329 10.3173C60.4842 10.2823 60.2333 10.2654 59.9822 10.267C59.0108 10.2483 58.0599 10.5477 57.2739 11.1197C56.3925 11.8983 55.8028 12.9516 55.5968 14.1056L55.5585 14.3544L54.2197 19.8191H50.9756L52.8546 12.2872C53.5862 9.36359 56.1757 7.28871 59.1834 7.216C59.9811 7.19742 60.6565 7.1843 61.0013 7.1843ZM4.36581 3.49704C3.98263 3.97425 3.78425 4.57397 3.80713 5.18599C3.94353 7.10887 6.64747 8.25451 6.84388 8.3365C7.18857 8.50685 7.54275 8.65695 7.90461 8.7861L8.26896 8.90822L9.9472 9.46355C13.3059 10.5742 14.5443 12.0948 14.5411 14.1707C14.5411 16.6806 12.1667 19.8191 7.13195 19.8191C4.11671 19.8191 1.07143 18.6184 0.0744185 15.604L0 15.3623L3.1055 13.8832C3.49396 16.0783 5.37734 16.9703 7.49313 16.9703C10.3848 16.9703 10.8758 15.2562 10.8758 14.5326C10.8758 13.2575 9.66099 12.7622 8.30878 12.3184L8.13911 12.2632L6.72058 11.8051C4.26761 11.0082 2.1769 9.82539 2.1769 7.26629C2.22226 5.71957 3.04607 4.30099 4.36581 3.49704ZM91.8163 2.19727L87.4646 19.8191H84.0329L87.7865 5.15319L79.3135 19.8191H76.2789L82.8522 8.49719L86.5873 2.19727H91.8163ZM123.241 6.68253C127.692 6.68253 128.871 9.8407 128.871 11.8467C128.871 12.3548 128.815 12.861 128.703 13.356L128.629 13.6515L119.752 13.6537C119.842 13.0215 120.001 12.4012 120.223 11.8035L120.365 11.4477H125.624V11.0967C125.637 10.48 125.387 9.88703 124.936 9.46609C124.486 9.04515 123.879 8.83594 123.265 8.89073C121.979 8.9088 120.811 9.62628 120.208 10.7531L120.121 10.9251L120.061 11.0497L119.969 11.2458L119.887 11.4477L119.759 11.7845C119.518 12.4627 119.357 13.1675 119.28 13.8843C119.264 14.0031 119.253 14.1226 119.247 14.2424L119.242 14.4222C119.173 15.2228 119.459 16.0066 120.023 16.5684C120.588 17.1302 121.372 17.412 122.164 17.3376C123.542 17.3249 124.807 16.5906 125.505 15.4122L125.606 15.2322L127.758 16.2576C126.665 18.4639 124.407 19.8481 121.949 19.8191C118.334 19.8191 115.948 17.7629 115.948 14.3533C115.948 11.2738 117.798 6.68253 123.241 6.68253ZM67.8692 2.84442L66.7977 7.20616H69.2594L68.4519 10.4529H65.9869L64.9165 14.749C64.7657 15.2203 64.6755 15.7088 64.6481 16.2029C64.6481 17.1551 65.6138 17.2305 66.0426 17.2305C66.2746 17.2305 66.4834 17.2193 66.7 17.2044L67.0345 17.1802L66.418 19.6628C65.8151 19.7614 65.2054 19.8115 64.5946 19.8126C63.8439 19.8126 61.297 19.7874 61.297 17.3059C61.3252 16.6867 61.4094 16.0716 61.5485 15.4682L61.6386 15.1076L62.0216 13.5465L63.5776 7.20616L64.6481 2.84442H67.8692ZM163.887 7.20507H159.631V8.86887H161.294L160.471 19.7524V19.7623H164.095L164.22 18.0985H163.062L163.887 7.20507ZM176.232 12.508H165.285L165.16 14.1718H165.17L164.747 19.7612H167.212L167.634 14.1718H169.341L168.919 19.7612H171.385L171.806 14.1718H173.642L173.219 19.7612H175.684L176.113 14.0625L176.232 12.508ZM146.673 12.508H144.21L143.665 19.7612H150.539L150.96 14.1718H152.909L152.487 19.7612H154.952L155.498 12.508H148.621L148.199 18.0974H146.252L146.673 12.508ZM142.539 12.508H140.076L139.528 19.7612H141.993L142.539 12.508ZM100.956 6.98534C103.115 7.62453 104.572 9.64262 104.501 11.8969C104.488 13.3789 104.1 14.8333 103.373 16.1242C101.657 16.9504 99.7513 17.3025 97.8538 17.1441C99.9805 16.673 101.279 14.3653 101.283 11.9724C101.351 11.1455 101.035 10.337 100.434 9.77564L100.301 9.65923L100.956 6.98534ZM99.6007 10.4835C99.5489 10.6955 98.4289 15.4858 98.3611 15.776L98.3579 15.7897H95.4859C95.4859 15.7897 96.6829 11.1 96.8051 10.6147C97.5962 9.93245 98.7495 9.87833 99.6007 10.4835ZM156.291 2.23443H140.867L140.153 11.6794H155.579L156.291 2.23443ZM168.531 2.23443H166.067L166.013 2.94718H165.269L165.144 4.60989H165.888L165.353 11.6794H176.307L176.84 4.60989H177.989L178.114 2.94718H176.965L177.019 2.23443H174.556L174.503 2.94718H168.477L168.531 2.23443ZM146.927 7.78882L146.759 10.0178H142.744L142.912 7.78882H146.927ZM153.408 7.78882L153.239 10.0178H149.224L149.391 7.78882H153.408ZM174.115 8.14519L173.968 10.0178H167.95L168.091 8.14519H174.115ZM100.92 5.31061L99.9052 9.42967C99.4839 9.25663 99.0313 9.17288 98.5761 9.1837C98.156 9.18014 97.7388 9.24719 97.3419 9.38149L97.1063 9.47011L98.1495 5.31607L100.92 5.31061ZM45.4597 6.88258C46.96 6.88258 49.2826 7.12717 50.3321 8.52403L50.4518 8.69724L50.4605 8.71255L50.4136 8.6874L50.1502 8.55571C47.239 7.17706 43.8324 8.039 42.0763 8.67348L41.9166 8.73222L40.7392 8.16924C42.1245 7.2229 43.7868 6.76981 45.4597 6.88258ZM9.07535 2.19836C11.8512 2.19836 14.2882 3.16887 15.5637 5.51539L15.6835 5.74678L12.7373 7.14713C12.4536 6.4475 11.6538 4.92581 8.89094 4.92581C6.82533 4.92581 5.81926 5.91622 5.81926 6.83339C5.81734 7.00544 5.84125 7.17679 5.89019 7.34171C5.03972 6.89649 4.43108 6.09525 4.22941 5.15538C4.27747 4.21724 4.77494 3.36015 5.56502 2.85426C6.68075 2.4067 7.87359 2.18382 9.07535 2.19836ZM174.376 4.60989L174.235 6.48248H168.211L168.352 4.60989H174.376ZM147.218 3.89824L147.053 6.12502H143.036L143.204 3.89824H147.218ZM153.701 3.89824L153.533 6.12502H149.517L149.685 3.89824H153.701ZM164.262 2.23443H161.798L161.536 5.69322H164.001L164.262 2.23443Z" fill="white" fill-opacity="0.6"/>
</svg>
