<svg width="15" height="16" viewBox="0 0 15 16" fill="none" xmlns="http://www.w3.org/2000/svg">
<path d="M5.93305 12.133C3.13305 11.7331 1.13305 9.13305 1.53305 6.26638C1.93305 3.46638 4.53305 1.46638 7.39972 1.86638C10.1997 2.26638 12.1997 4.86638 11.7997 7.73305C11.3997 10.5331 8.73305 12.5331 5.93305 12.133ZM14.3331 14.6664L10.9997 11.333C11.9331 10.3997 12.5331 9.26638 12.7331 7.86638C13.1997 4.46638 10.8664 1.39972 7.53305 0.866384C4.19972 0.399718 1.06639 2.73305 0.533052 6.13305C0.0663854 9.53305 2.39972 12.5997 5.73305 13.133C7.39972 13.3997 8.99972 12.9331 10.1997 11.9997V12.0664L13.5331 15.3997C13.7331 15.5997 14.0664 15.5997 14.2664 15.3997C14.4664 15.1997 14.5331 14.8664 14.3331 14.6664Z" fill="white" fill-opacity="0.9"/>
</svg>
