<svg width="41" height="48" viewBox="0 0 41 48" fill="none" xmlns="http://www.w3.org/2000/svg">
<path d="M19.2844 0.0240287C17.1421 0.117004 14.0853 1.24046 12.8247 1.79056C12.0808 2.17021 10.4146 3.07362 9.70053 3.65007C8.80792 4.37063 7.35155 5.46309 5.82471 7.04367C4.29788 8.62426 2.77104 10.6697 1.85494 12.2968C1.12206 13.5984 0.375074 16.7441 0.0931936 18.1542C-0.0399153 18.7663 -0.132308 20.9435 0.562989 24.7555C1.25829 28.5675 4.07863 32.2168 5.40189 33.5649L19.1199 47.8599C24.045 43.5055 34.2192 34.4249 35.5158 32.9373C37.1366 31.0778 40.0024 28.1723 40.6836 23.3841C41.2285 19.5535 40.5818 15.9771 40.1903 14.6677C38.8279 10.3675 36.15 7.36909 34.3883 5.60255C32.6266 3.83602 29.197 1.79056 26.6367 1.00027C24.0763 0.20998 21.9622 -0.0921906 19.2844 0.0240287Z" fill="#B76E0A"/>
<path d="M35.6241 32.7705C35.8051 32.6809 35.1714 31.785 34.1756 30.71L34.2661 30.7995L34.3567 30.8891L34.4472 30.9787L34.5377 31.0683L34.6282 31.1579L34.7188 31.2475L34.8093 31.3371L34.8998 31.5162L34.9904 31.6954V31.785L35.0809 31.9642L35.1714 32.0538L35.2619 32.1433L35.3525 32.2329L35.443 32.3225L35.5335 32.4121V32.5017V32.5913L35.6241 32.7705Z" fill="#9C5C00"/>
<path d="M8.91833 4.46047C10.2763 3.29584 14.5311 -0.287623 21.9545 0.0707233C17.247 -0.198037 12.5395 1.23535 8.91833 4.46047Z" fill="#B36B08"/>
<path d="M21.9544 0.161242C21.7733 0.250829 21.5922 0.161242 21.5017 0.161242C16.9753 -0.0179313 12.4488 1.41545 8.91815 4.55099C9.09921 4.37181 9.28027 4.19264 9.46133 4.10305C9.64239 3.83429 9.82344 3.65512 10.0045 3.56553L10.6382 3.1176C10.8193 3.02801 11.0909 2.84884 11.2719 2.75925L11.9056 2.40091C12.0867 2.31132 12.3583 2.13215 12.5393 2.04256L13.173 1.7738C13.3541 1.68421 13.6257 1.59463 13.8067 1.50504L14.4404 1.23628C14.6215 1.14669 14.8931 1.05711 15.1647 0.967521L15.8889 0.788348C16.07 0.698762 16.3415 0.698762 16.6131 0.609175L17.2468 0.340415C17.4279 0.340415 17.6995 0.250829 17.9711 0.250829L18.6953 0.161242C18.8764 0.161242 19.2385 0.0716553 19.4195 0.0716553H20.1438C20.3248 0.0716553 20.687 0.0716553 20.868 0.0716553H21.5922L21.9544 0.161242C21.9544 0.0716553 21.9544 0.161242 21.9544 0.161242Z" fill="#B36B08"/>
<path d="M21.9544 0.161242C21.4112 0.340415 20.868 0.161242 20.2343 0.161242C16.07 0.250829 12.0867 1.68421 8.91815 4.55099C9.09921 4.37181 9.28027 4.19264 9.46133 4.10305C9.64239 3.83429 9.82344 3.65512 10.0045 3.56553L10.6382 3.1176C10.8193 3.02801 11.0909 2.84884 11.2719 2.75925L11.9056 2.40091C12.0867 2.31132 12.3583 2.13215 12.5393 2.04256L13.173 1.7738C13.3541 1.68421 13.6257 1.59463 13.8067 1.50504L14.4404 1.23628C14.6215 1.14669 14.8931 1.05711 15.1647 0.967521L15.8889 0.788348C16.07 0.698762 16.3415 0.698762 16.6131 0.609175L17.2468 0.340415C17.4279 0.340415 17.6995 0.250829 17.9711 0.250829L18.6953 0.161242C18.8764 0.161242 19.2385 0.0716553 19.4195 0.0716553H20.1438C20.3248 0.0716553 20.687 0.0716553 20.868 0.0716553H21.5922L21.9544 0.161242Z" fill="#B06906"/>
<path d="M21.9544 0.161242C20.9585 0.250829 19.9627 0.0716553 19.0574 0.161242C15.3457 0.519588 11.8151 1.86339 8.91815 4.4614C9.09921 4.28223 9.28027 4.10305 9.46133 4.01347C9.64239 3.83429 9.82344 3.65512 10.0045 3.56553L10.6382 3.1176C10.8193 3.02801 11.0909 2.84884 11.2719 2.75925L11.9056 2.40091C12.0867 2.31132 12.3583 2.13215 12.5393 2.04256L13.173 1.7738C13.3541 1.68421 13.6257 1.59463 13.8067 1.50504L14.4404 1.23628C14.6215 1.14669 14.8931 1.05711 15.1647 0.967522L15.8889 0.788348C16.07 0.698762 16.3415 0.698762 16.6131 0.609175L17.2468 0.340415C17.4279 0.340415 17.6995 0.250829 17.9711 0.250829L18.6953 0.161242C18.8764 0.161242 19.2385 0.0716553 19.4195 0.0716553H20.1438C20.3248 0.0716553 20.687 0.0716553 20.868 0.0716553H21.5922L21.9544 0.161242Z" fill="#AC6605"/>
<path d="M21.9539 0.161242C18.0611 0.250829 18.0611 0.250829 17.699 0.340415C14.44 0.877935 11.362 2.22173 8.82715 4.4614C9.00821 4.28223 9.18927 4.10305 9.37032 4.01347C9.64191 3.83429 9.82297 3.65512 10.004 3.56553L10.6377 3.1176C10.8188 3.02801 11.0904 2.84884 11.2714 2.75925L11.9051 2.40091C12.0862 2.31132 12.3578 2.13215 12.5388 2.04256L13.1726 1.7738C13.3536 1.68421 13.6252 1.59463 13.8063 1.50504L14.44 1.23628C14.621 1.14669 14.8926 1.05711 15.1642 0.967522L15.8884 0.788348C16.0695 0.698762 16.3411 0.698762 16.6127 0.609175L17.2464 0.340415C17.4274 0.340415 17.699 0.250829 17.9706 0.250829L18.6948 0.161242C18.8759 0.161242 19.238 0.0716553 19.4191 0.0716553H20.1433C20.3244 0.0716553 20.6865 0.0716553 20.8675 0.0716553H21.5918L21.9539 0.161242Z" fill="#A86403"/>
<path d="M21.0491 0.0716553C19.7817 0.0716553 18.3332 0.0716553 16.3415 0.609175C13.6257 1.23628 11.0909 2.58008 8.91815 4.4614C9.09921 4.28223 9.28027 4.10305 9.46133 4.01347C9.64239 3.83429 9.82344 3.65512 10.0045 3.56553L10.6382 3.1176C10.8193 3.02801 11.0909 2.84884 11.2719 2.75925L11.9056 2.40091C12.0867 2.31132 12.3583 2.13215 12.5393 2.04256L13.173 1.7738C13.3541 1.68421 13.6257 1.59463 13.8067 1.50504L14.4404 1.23628C14.6215 1.14669 14.8931 1.05711 15.1647 0.967522L15.8889 0.788348C16.07 0.698762 16.3415 0.698762 16.6131 0.609175L17.2468 0.340415C17.4279 0.340415 17.6995 0.250829 17.9711 0.250829L18.6953 0.161242C18.8764 0.161242 19.2385 0.0716553 19.4195 0.0716553H20.1438C20.3248 0.0716553 20.687 0.0716553 20.868 0.0716553C20.868 0.0716553 20.9585 0.0716553 21.0491 0.0716553Z" fill="#A46101"/>
<path d="M18.1521 0.250977C17.609 0.340563 16.4321 0.519736 14.8026 1.05726C12.7204 1.77395 10.6382 2.84899 8.91815 4.46155C9.09921 4.28238 9.28027 4.1032 9.46133 4.01362C9.64239 3.83444 9.82344 3.65527 10.0045 3.56568L10.6382 3.11775C10.8193 3.02816 11.0909 2.84899 11.2719 2.7594L11.9056 2.40106C12.0867 2.31147 12.3583 2.1323 12.5393 2.04271L13.173 1.77395C13.3541 1.68436 13.6257 1.59478 13.8067 1.50519L14.4404 1.23643C14.6215 1.14684 14.8931 1.05726 15.1647 0.96767L15.8889 0.788496C16.07 0.69891 16.3415 0.69891 16.6131 0.609323L17.2468 0.340563C17.4279 0.340563 17.6995 0.250977 17.9711 0.250977C18.0616 0.250977 18.1521 0.250977 18.2427 0.250977C18.2427 0.250977 18.1521 0.250977 18.1521 0.250977Z" fill="#A05E00"/>
<path d="M14.8931 0.967163C14.1688 1.23592 13.7162 1.4151 12.992 1.68386C11.5435 2.40055 10.095 3.29642 8.91815 4.37145C9.09921 4.19228 9.28027 4.01311 9.46133 3.92352C9.64239 3.83394 9.82344 3.65476 10.0045 3.56518L10.6382 3.11724C10.8193 3.02766 11.0909 2.84848 11.2719 2.7589L11.9056 2.40055C12.0867 2.31096 12.3583 2.13179 12.5393 2.0422L13.173 1.77344C13.3541 1.68386 13.6257 1.59427 13.8067 1.50468L14.4404 1.23592L14.9836 0.967163H14.8931Z" fill="#9C5C00"/>
<path d="M7.83165 31.9639L18.7857 43.431C18.7857 43.6101 18.7857 43.7893 18.7857 43.9685L18.152 43.3414L17.6088 42.7143L16.9751 42.1767L16.4319 41.5496L15.8887 40.9225L15.3456 40.2954L14.8024 39.6683L14.2592 39.0412L13.6255 38.5933L13.0823 37.9662L12.5392 37.3391L11.9055 36.8015L11.3623 36.264L10.8191 35.7265L10.2759 35.189L9.73276 34.6515L9.18959 34.1139L8.64641 33.5764L8.10323 33.0389L7.56006 32.5014C7.65059 32.143 7.74112 32.0535 7.83165 31.9639Z" fill="#BB700C"/>
<path d="M7.56005 32.1428L18.7857 43.9683C18.7857 44.1474 18.7857 44.4162 18.7857 44.5954L7.19794 32.5012C7.28847 32.4116 7.379 32.322 7.56005 32.1428Z" fill="#B76E0A"/>
<path d="M7.19743 32.5013L18.7852 44.6851C18.7852 44.8643 18.7852 45.1331 18.7852 45.3122L6.92584 32.7701C7.01637 32.6805 7.1069 32.5909 7.19743 32.5013Z" fill="#B36B08"/>
<path d="M6.92625 32.7698L18.7856 45.2223C18.7856 45.4015 18.7856 45.5807 18.7856 45.7598L18.1519 45.0431L17.4276 44.3265L16.7034 43.6098L16.0697 42.8931L15.436 42.1764L14.8023 41.4597L14.1686 40.8326L13.5349 40.2055L12.9012 39.4888L12.2675 38.8617L11.6338 38.2346L11.0906 37.697L10.5474 37.0699L10.0042 36.4428L9.46107 35.9053L8.91789 35.2782L8.37472 34.7407L7.74101 34.1136L7.19784 33.5761L6.65466 33.0385C6.74519 32.9489 6.83572 32.8594 6.92625 32.7698Z" fill="#B06906"/>
<path d="M6.65463 33.0382L18.7856 45.7595C18.7856 45.9387 18.7856 46.1179 18.7856 46.2074L6.47357 33.2174C6.47357 33.1278 6.5641 33.0382 6.65463 33.0382Z" fill="#AC6605"/>
<path d="M6.47398 33.2175L18.8765 46.2076C18.8765 46.3868 18.8765 46.4764 18.8765 46.6555L6.20239 33.3967C6.29292 33.3071 6.38345 33.3071 6.47398 33.2175Z" fill="#A86403"/>
<path d="M6.20236 33.3967L18.8765 46.6555C18.8765 46.7451 18.8765 46.9243 18.8765 47.0139L6.0213 33.5759C6.11183 33.4863 6.20236 33.4863 6.20236 33.3967Z" fill="#A46101"/>
<path d="M6.11136 33.576L18.9665 47.014C18.9665 47.1036 18.9665 47.1932 18.9665 47.3724L5.9303 33.6656C6.02083 33.6656 6.02083 33.576 6.11136 33.576Z" fill="#A05E00"/>
<path d="M5.93025 33.6652L18.9665 47.2823C18.9665 47.6407 19.057 47.9094 19.1475 47.9094L18.2422 46.924L17.3369 46.0281L16.5222 45.1322L15.7074 44.326L14.9832 43.5197L14.2589 42.7134L13.5347 41.9967L12.8105 41.28L12.1768 40.5633L11.5431 39.8466L10.9094 39.2195L10.2757 38.5924L9.64195 37.9653L9.09877 37.3382L8.5556 36.7111L8.01242 36.084L7.46925 35.4569L6.92607 34.9194L6.3829 34.3819L5.83972 33.8443C5.65866 33.9339 5.74919 33.8443 5.93025 33.6652Z" fill="#9C5C00"/>
<path d="M21.9536 0.161154C33.6319 1.23619 38.3394 10.1949 39.5163 12.972C40.8742 16.2867 43.3185 24.9767 35.7141 32.8603C42.8659 26.0517 42.7753 14.3158 35.3519 6.61139C31.5497 2.57999 26.7517 0.429914 21.9536 0.161154C21.9536 0.161154 21.9536 0.0715675 21.9536 0.161154Z" fill="#D58014"/>
<path d="M37.072 8.58167C36.6194 8.04415 35.8951 7.05869 34.6277 5.80448C31.0065 2.3106 26.4801 0.429282 21.9536 0.160522C22.1347 0.160522 22.4968 0.160522 22.6778 0.250109C22.8589 0.250109 23.221 0.339696 23.4021 0.339696L24.1263 0.429282C24.3074 0.429282 24.6695 0.518869 24.8505 0.608456L25.5748 0.787629C25.7558 0.877216 26.118 0.966802 26.299 0.966802L27.0232 1.23556C27.2043 1.32515 27.4759 1.41474 27.7475 1.50432L28.4717 1.77308C28.5622 1.77308 28.8338 1.86267 29.0149 1.95226L29.6486 2.3106C29.8297 2.40019 30.1012 2.57936 30.2823 2.66895L30.916 3.02729C31.0971 3.11688 31.3687 3.29605 31.5497 3.47523L32.1834 3.92316C32.3645 4.10233 32.6361 4.28151 32.8171 4.37109L33.5414 4.81903C33.7224 4.9982 33.994 5.17737 34.1751 5.35655L34.7182 5.89407C34.8993 6.07324 35.1709 6.342 35.3519 6.52117L36.4383 7.6858C36.7099 8.04415 37.072 8.58167 37.3436 8.94001L38.1583 10.1942C38.3394 10.5526 38.7015 11.0901 38.8826 11.538L39.5163 12.8818C39.6973 13.3298 39.8784 13.8673 40.0595 14.3152L40.4216 15.7486C40.5121 16.1965 40.6026 16.7341 40.6932 17.182L40.8742 18.6154C40.8742 19.0633 40.9648 19.6008 40.9648 20.0488V21.4821C40.9648 21.9301 40.8742 22.4676 40.7837 22.9155L40.5121 24.2593C40.4216 24.7073 40.2405 25.2448 40.15 25.6031L39.6973 26.9469C39.5163 27.3053 39.3352 27.8428 39.0636 28.2011L38.3394 29.4554C38.0678 29.8137 37.7962 30.2616 37.5246 30.62L36.6194 31.695C36.3478 32.0534 35.8951 32.5013 35.6235 32.7701C42.2322 26.5886 42.6848 16.1965 37.072 8.58167Z" fill="#D58014"/>
<path d="M38.7921 11.4484C37.1625 8.31291 34.8088 5.62531 31.9118 3.6544C28.8338 1.59391 25.3937 0.339696 21.9536 0.160522C22.1347 0.160522 22.4968 0.160522 22.6778 0.250109C22.8589 0.250109 23.221 0.339696 23.4021 0.339696L24.1263 0.429282C24.3074 0.429282 24.6695 0.518869 24.8505 0.608456L25.5748 0.787629C25.7558 0.877216 26.118 0.966802 26.299 0.966802L27.0232 1.23556C27.2043 1.32515 27.4759 1.41474 27.7475 1.50432L28.4717 1.77308C28.5622 1.77308 28.8338 1.86267 29.0149 1.95226L29.6486 2.3106C29.8297 2.40019 30.1012 2.57936 30.2823 2.66895L30.916 3.02729C31.0971 3.11688 31.3687 3.29605 31.5497 3.47523L32.1834 3.92316C32.3645 4.10233 32.6361 4.28151 32.8171 4.37109L33.5414 4.81903C33.7224 4.9982 33.994 5.17737 34.1751 5.35655L34.7182 5.89407C34.8993 6.07324 35.1709 6.342 35.3519 6.52117L36.4383 7.6858C36.7099 8.04415 37.072 8.58167 37.3436 8.94001L38.1583 10.1942C38.3394 10.5526 38.7015 11.0901 38.8826 11.538L39.5163 12.8818C39.6973 13.3298 39.8784 13.8673 40.0595 14.3152L40.4216 15.7486C40.5121 16.1965 40.6026 16.7341 40.6932 17.182L40.8742 18.6154C40.8742 19.0633 40.9648 19.6008 40.9648 20.0488V21.4821C40.9648 21.9301 40.8742 22.4676 40.7837 22.9155L40.5121 24.2593C40.4216 24.7073 40.2405 25.2448 40.15 25.6031L39.6973 26.9469C39.5163 27.3053 39.3352 27.8428 39.0636 28.2011L38.3394 29.4554C38.0678 29.8137 37.7962 30.2616 37.5246 30.62L36.6194 31.695C36.3478 32.0534 35.8951 32.5013 35.6235 32.7701C41.4174 27.3053 42.4132 18.6154 38.7921 11.4484Z" fill="#D17E13"/>
<path d="M39.6068 13.2397C37.7057 8.58117 34.5372 4.9977 30.2823 2.57886C27.657 1.14547 24.8505 0.339195 21.9536 0.0704346C22.1347 0.0704346 22.4968 0.0704346 22.6778 0.160021C22.8589 0.160021 23.221 0.249608 23.4021 0.249608L24.1263 0.339195C24.3074 0.339195 24.6695 0.428781 24.8505 0.518368L25.5748 0.697541C25.7558 0.787128 26.118 0.876714 26.299 0.876714L27.0232 1.14547C27.2043 1.23506 27.4759 1.32465 27.7475 1.41423L28.4717 1.68299C28.5622 1.77258 28.8338 1.86217 29.0149 1.95175L29.6486 2.3101C29.8297 2.39969 30.1012 2.57886 30.2823 2.66845L30.916 3.02679C31.0971 3.11638 31.3687 3.29555 31.5497 3.47473L32.1834 3.92266C32.3645 4.10183 32.6361 4.28101 32.8171 4.37059L33.5414 4.81853C33.7224 4.9977 33.994 5.17687 34.1751 5.35605L34.7182 5.89357C34.8993 6.07274 35.1709 6.3415 35.3519 6.52067L36.4383 7.6853C36.7099 8.04365 37.072 8.58117 37.3436 8.93951L38.1583 10.1937C38.3394 10.5521 38.7015 11.0896 38.8826 11.5375L39.5163 12.8813C39.6973 13.3293 39.8784 13.8668 40.0595 14.3147L40.4216 15.7481C40.5121 16.196 40.6026 16.7335 40.6932 17.1815L40.8742 18.6149C40.8742 19.0628 40.9648 19.6003 40.9648 20.0483V21.4816C40.9648 21.9296 40.8742 22.4671 40.7837 22.915L40.5121 24.2588C40.4216 24.7068 40.2405 25.2443 40.15 25.6026L39.6973 26.9464C39.5163 27.3048 39.3352 27.8423 39.0636 28.2006L38.3394 29.4549C38.0678 29.8132 37.7962 30.2611 37.5246 30.6195L36.6194 31.6945C36.3478 32.0529 35.8951 32.5008 35.6235 32.7696C40.9648 27.7527 42.2322 20.0483 39.6068 13.2397Z" fill="#CE7C12"/>
<path d="M40.1504 14.7631C39.1546 11.4484 36.3482 5.35655 28.7437 1.86267C26.571 0.877216 24.2173 0.250109 21.8635 0.160522C22.0446 0.160522 22.4067 0.160522 22.5878 0.250109C22.7688 0.250109 23.1309 0.339696 23.312 0.339696L24.0362 0.429282C24.2173 0.429282 24.5794 0.518869 24.7605 0.608456L25.4847 0.787629C25.6658 0.877216 26.0279 0.966802 26.2089 0.966802L26.9332 1.23556C27.1142 1.32515 27.3858 1.41474 27.6574 1.50432L28.3816 1.77308C28.5627 1.77308 28.8343 1.86267 29.0153 1.95226L29.649 2.3106C29.8301 2.40019 30.1017 2.57936 30.2827 2.66895L30.9164 3.02729C31.0975 3.11688 31.3691 3.29605 31.5502 3.47523L32.1839 3.92316C32.3649 4.10233 32.6365 4.28151 32.8176 4.37109L33.5418 4.81903C33.7229 4.9982 33.9944 5.17737 34.1755 5.35655L34.7187 5.89407C34.8997 6.07324 35.1713 6.342 35.3524 6.52117L36.4387 7.6858C36.7103 8.04415 37.0724 8.58167 37.344 8.94001L38.1588 10.1942C38.3398 10.5526 38.702 11.0901 38.883 11.538L39.5167 12.8818C39.6978 13.3298 39.8788 13.8673 40.0599 14.3152L40.422 15.7486C40.5126 16.1965 40.6031 16.7341 40.6936 17.182L40.8747 18.6154C40.8747 19.0633 40.9652 19.6008 40.9652 20.0488V21.4821C40.9652 21.9301 40.8747 22.4676 40.7841 22.9155L40.5126 24.2593C40.422 24.7073 40.241 25.2448 40.1504 25.6031L39.6978 26.9469C39.5167 27.3053 39.3357 27.8428 39.0641 28.2011L38.3398 29.4554C38.0683 29.8137 37.7967 30.2616 37.5251 30.62L36.6198 31.695C36.3482 32.0534 35.8956 32.5013 35.624 32.7701C40.6031 28.1116 42.0515 21.1238 40.1504 14.7631Z" fill="#CA7A11"/>
<path d="M40.5121 16.1069C38.9731 9.38795 33.994 3.74399 27.4759 1.32515C25.6653 0.698042 23.8547 0.250109 21.9536 0.160522C22.1347 0.160522 22.4968 0.160522 22.6778 0.250109C22.8589 0.250109 23.221 0.339696 23.4021 0.339696L24.1263 0.429282C24.3074 0.429282 24.6695 0.518869 24.8505 0.608456L25.5748 0.787629C25.7558 0.877216 26.118 0.966802 26.299 0.966802L27.0232 1.23556C27.2043 1.32515 27.4759 1.41474 27.7475 1.50432L28.4717 1.77308C28.5622 1.77308 28.8338 1.86267 29.0149 1.95226L29.6486 2.3106C29.8297 2.40019 30.1012 2.57936 30.2823 2.66895L30.916 3.02729C31.0971 3.11688 31.3687 3.29605 31.5497 3.47523L32.1834 3.92316C32.3645 4.10233 32.6361 4.28151 32.8171 4.37109L33.5414 4.81903C33.7224 4.9982 33.994 5.17737 34.1751 5.35655L34.7182 5.89407C34.8993 6.07324 35.1709 6.342 35.3519 6.52117L36.4383 7.6858C36.7099 8.04415 37.072 8.58167 37.3436 8.94001L38.1583 10.1942C38.3394 10.5526 38.7015 11.0901 38.8826 11.538L39.5163 12.8818C39.6973 13.3298 39.8784 13.8673 40.0595 14.3152L40.4216 15.7486C40.5121 16.1965 40.6026 16.7341 40.6932 17.182L40.8742 18.6154C40.8742 19.0633 40.9648 19.6008 40.9648 20.0488V21.4821C40.9648 21.9301 40.8742 22.4676 40.7837 22.9155L40.5121 24.2593C40.4216 24.7073 40.2405 25.2448 40.15 25.6031L39.6973 26.9469C39.5163 27.3053 39.3352 27.8428 39.0636 28.2011L38.3394 29.4554C38.0678 29.8137 37.7962 30.2616 37.5246 30.62L36.6194 31.695C36.3478 32.0534 35.8951 32.5013 35.6235 32.7701C40.2405 28.4699 41.7795 22.1092 40.5121 16.1069Z" fill="#C67710"/>
<path d="M40.6932 17.3607C39.4258 9.56662 33.8129 3.11638 26.2085 0.876714C24.76 0.428781 23.4021 0.160021 21.9536 0.0704346C22.1347 0.0704346 22.4968 0.0704346 22.6778 0.160021C22.8589 0.160021 23.221 0.249608 23.4021 0.249608L24.1263 0.339195C24.3074 0.339195 24.6695 0.428781 24.8505 0.518368L25.5748 0.697541C25.7558 0.787128 26.118 0.876714 26.299 0.876714L27.0232 1.14547C27.2043 1.23506 27.4759 1.32465 27.7475 1.41423L28.4717 1.68299C28.5622 1.77258 28.8338 1.86217 29.0149 1.95175L29.6486 2.3101C29.8297 2.39969 30.1012 2.57886 30.2823 2.66845L30.916 3.02679C31.0971 3.11638 31.3687 3.29555 31.5497 3.47473L32.1834 3.92266C32.3645 4.10183 32.6361 4.28101 32.8171 4.37059L33.5414 4.81853C33.7224 4.9977 33.994 5.17687 34.1751 5.35605L34.7182 5.89357C34.8993 6.07274 35.1709 6.3415 35.3519 6.52067L36.4383 7.6853C36.7099 8.04365 37.072 8.58117 37.3436 8.93951L38.1583 10.1937C38.3394 10.5521 38.7015 11.0896 38.8826 11.5375L39.5163 12.8813C39.6973 13.3293 39.8784 13.8668 40.0595 14.3147L40.4216 15.7481C40.5121 16.196 40.6026 16.7335 40.6932 17.1815L40.8742 18.6149C40.8742 19.0628 40.9648 19.6003 40.9648 20.0483V21.4816C40.9648 21.9296 40.8742 22.4671 40.7837 22.915L40.5121 24.2588C40.4216 24.7068 40.2405 25.2443 40.15 25.6026L39.6973 26.9464C39.5163 27.3048 39.3352 27.8423 39.0636 28.2006L38.3394 29.4549C38.0678 29.8132 37.7962 30.2611 37.5246 30.6195L36.6194 31.6945C36.3478 32.0529 35.8951 32.5008 35.6235 32.7696C39.8784 28.7382 41.5985 23.0046 40.6932 17.3607Z" fill="#C3750E"/>
<path d="M40.8742 18.6154C40.0595 9.92547 33.5414 2.48977 25.0316 0.608456C24.0358 0.339696 23.04 0.250109 21.9536 0.160522C22.1347 0.160522 22.4968 0.160522 22.6778 0.250109C22.8589 0.250109 23.221 0.339696 23.4021 0.339696L24.1263 0.429282C24.3074 0.429282 24.6695 0.518869 24.8505 0.608456L25.5748 0.787629C25.7558 0.877216 26.118 0.966802 26.299 0.966802L27.0232 1.23556C27.2043 1.32515 27.4759 1.41474 27.7475 1.50432L28.4717 1.77308C28.5622 1.77308 28.8338 1.86267 29.0149 1.95226L29.6486 2.3106C29.8297 2.40019 30.1012 2.57936 30.2823 2.66895L30.916 3.02729C31.0971 3.11688 31.3687 3.29605 31.5497 3.47523L32.1834 3.92316C32.3645 4.10233 32.6361 4.28151 32.8171 4.37109L33.5414 4.81903C33.7224 4.9982 33.994 5.17737 34.1751 5.35655L34.7182 5.89407C34.8993 6.07324 35.1709 6.342 35.3519 6.52117L36.4383 7.6858C36.7099 8.04415 37.072 8.58167 37.3436 8.94001L38.1583 10.1942C38.3394 10.5526 38.7015 11.0901 38.8826 11.538L39.5163 12.8818C39.6973 13.3298 39.8784 13.8673 40.0595 14.3152L40.4216 15.7486C40.5121 16.1965 40.6026 16.7341 40.6932 17.182L40.8742 18.6154C40.8742 18.9737 40.9648 19.6008 40.9648 20.0488V21.4821C40.9648 21.9301 40.8742 22.4676 40.7837 22.9155L40.5121 24.2593C40.4216 24.7073 40.2405 25.2448 40.15 25.6031L39.6973 26.9469C39.5163 27.3053 39.3352 27.8428 39.0636 28.2011L38.3394 29.4554C38.0678 29.8137 37.7962 30.2616 37.5246 30.62L36.6194 31.695C36.3478 32.0534 35.8951 32.5013 35.6235 32.7701C39.6068 29.097 41.3269 23.8114 40.8742 18.6154Z" fill="#BF730D"/>
<path d="M40.9652 19.78C40.6936 10.1942 33.2702 1.86267 23.7646 0.339696C23.1309 0.250109 22.4972 0.160522 21.8635 0.160522C22.0446 0.160522 22.4067 0.160522 22.5878 0.250109C22.7688 0.250109 23.1309 0.339696 23.312 0.339696L24.0362 0.429282C24.2173 0.429282 24.5794 0.518869 24.7605 0.608456L25.4847 0.787629C25.6658 0.877216 26.0279 0.966802 26.2089 0.966802L26.9332 1.23556C27.1142 1.32515 27.3858 1.41474 27.6574 1.50432L28.3816 1.77308C28.5627 1.77308 28.8343 1.86267 29.0153 1.95226L29.649 2.3106C29.8301 2.40019 30.1017 2.57936 30.2827 2.66895L30.9164 3.02729C31.0975 3.11688 31.3691 3.29605 31.5502 3.47523L32.1839 3.92316C32.3649 4.10233 32.6365 4.28151 32.8176 4.37109L33.5418 4.81903C33.7229 4.9982 33.9944 5.17737 34.1755 5.35655L34.7187 5.89407C34.8997 6.07324 35.1713 6.342 35.3524 6.52117L36.4387 7.6858C36.7103 8.04415 37.0724 8.58167 37.344 8.94001L38.1588 10.1942C38.3398 10.5526 38.702 11.0901 38.883 11.538L39.5167 12.8818C39.6978 13.3298 39.8788 13.8673 40.0599 14.3152L40.422 15.7486C40.5126 16.1965 40.6031 16.7341 40.6936 17.182L40.8747 18.6154C40.8747 19.0633 40.9652 19.6008 40.9652 20.0488V21.4821C40.9652 21.9301 40.8747 22.4676 40.7841 22.9155L40.5126 24.2593C40.422 24.7073 40.241 25.2448 40.1504 25.6031L39.6978 26.9469C39.5167 27.3053 39.3357 27.8428 39.0641 28.2011L38.3398 29.4554C38.0683 29.8137 37.7967 30.2616 37.5251 30.62L36.6198 31.695C36.3482 32.0534 35.8956 32.5013 35.624 32.7701C39.3357 29.3658 41.0557 24.6177 40.9652 19.78Z" fill="#BB700C"/>
<path d="M40.8747 20.9446C41.2368 10.5526 33.1797 1.41474 22.5878 0.250109C22.3162 0.250109 22.1351 0.250109 21.8635 0.160522C22.0446 0.160522 22.4067 0.160522 22.5878 0.250109C22.7688 0.250109 23.1309 0.339696 23.312 0.339696L24.0362 0.429282C24.2173 0.429282 24.5794 0.518869 24.7605 0.608456L25.4847 0.787629C25.6658 0.877216 26.0279 0.966802 26.2089 0.966802L26.9332 1.23556C27.1142 1.32515 27.3858 1.41474 27.6574 1.50432L28.3816 1.77308C28.5627 1.77308 28.8343 1.86267 29.0153 1.95226L29.649 2.3106C29.8301 2.40019 30.1017 2.57936 30.2827 2.66895L30.9164 3.02729C31.0975 3.11688 31.3691 3.29605 31.5502 3.47523L32.1839 3.92316C32.3649 4.10233 32.6365 4.28151 32.8176 4.37109L33.5418 4.81903C33.7229 4.9982 33.9944 5.17737 34.1755 5.35655L34.7187 5.89407C34.8997 6.07324 35.1713 6.342 35.3524 6.52117L36.4387 7.6858C36.7103 8.04415 37.0724 8.58167 37.344 8.94001L38.1588 10.1942C38.3398 10.5526 38.702 11.0901 38.883 11.538L39.5167 12.8818C39.6978 13.3298 39.8788 13.8673 40.0599 14.3152L40.422 15.7486C40.5126 16.1965 40.6031 16.7341 40.6936 17.182L40.8747 18.6154C40.8747 19.0633 40.9652 19.6008 40.9652 20.0488V21.4821C40.9652 21.9301 40.8747 22.4676 40.7841 22.9155L40.5126 24.2593C40.422 24.7073 40.241 25.2448 40.1504 25.6031L39.6978 26.9469C39.5167 27.3053 39.3357 27.8428 39.0641 28.2011L38.3398 29.4554C38.0683 29.8137 37.7967 30.2616 37.5251 30.62L36.6198 31.695C36.3482 32.0534 35.8956 32.5013 35.624 32.7701C38.9736 29.6345 40.7841 25.3344 40.8747 20.9446Z" fill="#B76E0A"/>
<path d="M40.8742 22.1092C41.9606 11.0901 33.2698 1.05639 21.9536 0.160522H22.6778C22.8589 0.160522 23.221 0.250109 23.4021 0.250109L24.1263 0.339696C24.3074 0.339696 24.6695 0.429282 24.8505 0.518869L25.5748 0.698042C25.7558 0.787629 26.118 0.877216 26.299 0.877216L27.0233 1.14598C27.2043 1.23556 27.4759 1.32515 27.7475 1.41474L28.4717 1.6835C28.5622 1.77308 28.8338 1.86267 29.0149 1.95226L29.6486 2.3106C29.8297 2.40019 30.1012 2.57936 30.2823 2.66895L30.916 3.02729C31.0971 3.11688 31.3687 3.29605 31.5497 3.47523L32.1834 3.92316C32.3645 4.10233 32.6361 4.28151 32.8171 4.37109L33.5414 4.81903C33.7224 4.9982 33.994 5.17737 34.1751 5.35655L34.7182 5.89407C34.8993 6.07324 35.1709 6.342 35.3519 6.52117L36.4383 7.6858C36.7099 8.04415 37.072 8.58167 37.3436 8.94001L38.1583 10.1942C38.3394 10.5526 38.7015 11.0901 38.8826 11.538L39.5163 12.8818C39.6973 13.3298 39.8784 13.8673 40.0595 14.3152L40.4216 15.7486C40.5121 16.1965 40.6026 16.7341 40.6932 17.182L40.8742 18.6154C40.8742 19.0633 40.9648 19.6008 40.9648 20.0488V21.4821C40.9648 21.9301 40.8742 22.4676 40.7837 22.9155L40.5121 24.2593C40.4216 24.7073 40.2405 25.2448 40.15 25.6031L39.6973 26.9469C39.5163 27.3053 39.3352 27.8428 39.0636 28.2011L38.3394 29.4554C38.0678 29.8137 37.7962 30.2616 37.5246 30.62L36.6194 31.695C36.3478 32.0534 35.8951 32.5013 35.6235 32.7701C38.7015 29.9033 40.4216 26.0511 40.8742 22.1092Z" fill="#B36B08"/>
<path d="M29.9202 2.39969C27.2043 1.05589 24.8505 0.339194 21.9536 0.0704346L22.6778 0.160021C22.8589 0.160021 23.221 0.249608 23.4021 0.249608L24.1263 0.339194C24.3074 0.339194 24.6695 0.428781 24.8505 0.518368L25.5748 0.697541C25.7558 0.787128 26.118 0.876714 26.299 0.876714L27.0233 1.14547C27.2043 1.23506 27.4759 1.32465 27.7475 1.41423L28.4717 1.68299C28.5622 1.77258 28.8338 1.86217 29.0149 1.95175L29.6486 2.3101L30.1918 2.57886L29.9202 2.39969Z" fill="#B06906"/>
<path d="M40.6941 23.2736C41.5089 18.6151 40.2414 15.0317 39.7888 13.6879C39.9699 14.315 40.2414 15.1213 40.4225 15.6588C40.513 16.1067 40.6036 16.6442 40.6941 17.0922L40.8751 18.5255C40.8751 18.9735 40.9657 19.511 40.9657 19.9589V21.3923C40.9657 21.8402 40.8751 22.3778 40.7846 22.8257L40.513 24.1695C40.4225 24.6174 40.2414 25.155 40.1509 25.5133L39.6983 26.8571C39.5172 27.2154 39.3361 27.753 39.0646 28.1113L38.3403 29.3655C38.0687 29.7239 37.7972 30.1718 37.5256 30.5302L36.6203 31.6052C36.3487 31.9635 35.896 32.4115 35.6245 32.6802C38.4309 30.1718 40.0604 26.8571 40.6941 23.2736Z" fill="#B06906"/>
<path d="M26.299 0.966802C24.6695 0.518869 23.5831 0.339696 21.9536 0.160522H22.6778C22.8589 0.160522 23.221 0.250109 23.4021 0.250109L24.1263 0.339696C24.3074 0.339696 24.6695 0.429282 24.8505 0.518869L25.5748 0.698042C25.7558 0.787629 26.0274 0.877216 26.299 0.966802C26.3895 0.966802 26.5706 1.05639 26.7517 1.05639C26.6611 1.05639 26.4801 0.966802 26.299 0.966802Z" fill="#AC6605"/>
<path d="M40.4225 24.4382C41.2373 21.1235 40.8751 18.615 40.6941 17.2712L40.8751 18.7046L40.9657 20.0484V21.4818C40.9657 21.9297 40.8751 22.4673 40.7846 22.9152L40.513 24.259C40.4225 24.7069 40.2414 25.2445 40.1509 25.6028L39.6983 26.9466C39.5172 27.3049 39.3361 27.8425 39.0646 28.2008L38.3403 29.455C38.0687 29.8134 37.7972 30.2613 37.5256 30.6196L36.6203 31.6947C36.3487 32.053 35.896 32.501 35.6245 32.7697C38.0687 30.4405 39.6983 27.5737 40.4225 24.4382Z" fill="#AC6605"/>
<path d="M23.8547 0.338015C23.04 0.249269 22.4968 0.160522 21.9536 0.160522H22.6778C22.8589 0.160522 23.221 0.249269 23.4021 0.249269C23.4926 0.249269 23.6737 0.338015 23.8547 0.338015Z" fill="#A86403"/>
<path d="M40.1509 25.6024C40.9657 23.0043 40.9657 21.123 40.9657 20.1376L40.8751 21.571L40.7846 22.8252L40.513 24.169C40.4225 24.6169 40.2414 25.1544 40.1509 25.6024L39.6983 26.8566C39.5172 27.2149 39.3361 27.7524 39.0646 28.1108L38.3403 29.365C38.0687 29.7233 37.7972 30.1713 37.5256 30.5296L36.6203 31.6047C36.3487 31.963 35.896 32.4109 35.6245 32.6797C37.7972 30.7984 39.2456 28.29 40.1509 25.6024Z" fill="#A86403"/>
<path d="M39.6978 26.9476L39.7884 26.6788C40.4221 24.9767 40.4221 24.9767 40.7842 23.0953L40.5126 24.4391L40.241 25.6038L39.6978 26.9476C39.5168 27.3059 39.3357 27.8434 39.1546 28.2018L38.4304 29.456C38.1588 29.8143 37.8872 30.2623 37.6157 30.6206L36.7104 31.6957C36.4388 32.054 35.9861 32.5019 35.7145 32.7707C37.4346 31.0685 38.7925 29.0976 39.6978 26.9476Z" fill="#A46101"/>
<path d="M38.974 28.2914C39.6077 27.1267 39.8793 26.2309 40.0604 25.6934L39.6077 27.0372L39.0646 28.2018L38.3403 29.456C38.0687 29.8143 37.7972 30.2623 37.5256 30.6206L36.6203 31.6957C36.3487 32.054 35.896 32.5019 35.6245 32.7707C37.0729 31.4269 38.1593 29.9935 38.974 28.2914Z" fill="#A05E00"/>
<path d="M38.0687 29.9936C38.0687 29.9936 38.6119 29.0977 38.8835 28.6498L38.0687 29.8144L37.5256 30.5311L36.6203 31.6061C36.3487 31.9645 35.896 32.4124 35.6245 32.6812C36.5297 31.9645 37.3445 30.979 38.0687 29.9936Z" fill="#9C5C00"/>
<path d="M32.4557 35.6369L35.6242 32.7701L32.4557 35.6369Z" fill="#9B5C00"/>
<path d="M5.6588 33.9348C4.1198 32.2327 0.136516 27.6637 0.0459863 20.4968C-0.044543 13.2403 3.84821 9.20889 5.29668 7.68591C5.11562 7.86509 6.11144 9.1193 7.46938 10.5527C1.58498 16.1071 1.76604 25.6928 7.74097 31.9639C6.56409 33.0389 5.6588 33.9348 5.6588 33.9348Z" fill="#B76E0A"/>
<path d="M6.02094 8.76083C6.02094 8.85042 5.93041 8.85042 5.93041 8.94C1.13236 17.8987 1.67553 25.7823 7.55993 32.2325C6.47358 33.218 5.74935 33.9347 5.74935 34.0243C5.47776 33.6659 5.02512 33.218 4.663 32.8596C4.39141 32.5013 4.02929 31.9638 3.75771 31.6054L2.94294 30.3512C2.76188 29.9929 2.39977 29.4553 2.21871 29.0074L1.585 27.6636C1.40395 27.2157 1.22289 26.6782 1.04183 26.2302L0.679711 24.7968C0.589182 24.3489 0.498653 23.8114 0.408123 23.3635L0.227065 21.9301C0.227065 21.4821 0.136536 20.9446 0.136536 20.4967V19.0633C0.136536 18.6154 0.227065 18.0778 0.317594 17.6299L0.498653 16.1965C0.589182 15.7486 0.77024 15.2111 0.86077 14.8527L1.31342 13.5089C1.49447 13.1506 1.67553 12.6131 1.94712 12.2547L2.67136 11.0005C2.94294 10.6421 3.21453 10.1942 3.48612 9.83587L4.39141 8.76083C4.663 8.40248 5.11564 7.95455 5.38723 7.68579C5.2967 7.68579 5.47776 8.13372 6.02094 8.76083Z" fill="#B76E0A"/>
<path d="M5.65853 8.22331C5.65853 8.3129 5.568 8.3129 5.568 8.3129C4.21006 10.1046 1.76577 15.0319 2.12789 20.7654C2.58053 27.3053 6.11117 31.1575 7.19753 32.4117C6.29223 33.3076 5.65853 33.8451 5.65853 33.8451C5.38694 33.4867 4.93429 33.0388 4.57218 32.6805C4.30059 32.3221 3.93847 31.7846 3.66688 31.4262L2.85212 30.172C2.67106 29.8137 2.30895 29.2762 2.12789 28.8282L1.49418 27.4844C1.31312 27.0365 1.13207 26.499 0.951008 26.0511L0.588891 24.6177C0.498362 24.1697 0.407832 23.6322 0.317303 23.1843L0.136245 21.7509C0.136245 21.303 0.0457153 20.7654 0.0457153 20.3175V18.8841C0.0457153 18.4362 0.136245 17.8987 0.226774 17.4507L0.498362 16.1965C0.588891 15.7486 0.769949 15.2111 0.860478 14.8527L1.31312 13.5089C1.49418 13.1506 1.67524 12.6131 1.94683 12.2547L2.67106 11.0005C2.94265 10.6421 3.21424 10.1942 3.48583 9.83587L4.39112 8.76083C4.66271 8.40248 5.11535 7.95455 5.38694 7.68579C5.29641 7.68579 5.38694 7.95455 5.65853 8.22331Z" fill="#B36B08"/>
<path d="M5.47776 8.04414C5.47776 8.13372 5.2967 8.22331 5.2967 8.3129C2.85241 11.1797 1.40395 16.0173 1.67553 20.3175C2.03765 26.5886 4.93459 30.3512 7.01676 32.6805C6.29252 33.3972 5.74935 33.8451 5.74935 33.8451C5.47776 33.4867 5.02512 33.0388 4.663 32.6805C4.39141 32.3221 4.02929 31.7846 3.75771 31.4262L2.94294 30.172C2.76188 29.8137 2.39977 29.2762 2.21871 28.8282L1.585 27.4844C1.40395 27.0365 1.22289 26.499 1.04183 26.0511L0.679711 24.6177C0.589182 24.1697 0.498653 23.6322 0.408123 23.1843L0.227065 21.7509C0.227065 21.303 0.136536 20.7654 0.136536 20.3175V18.8841C0.136536 18.4362 0.227065 17.8987 0.317594 17.4507L0.498653 16.1965C0.589182 15.7486 0.77024 15.2111 0.86077 14.8527L1.31342 13.5089C1.49447 13.1506 1.67553 12.6131 1.94712 12.2547L2.67136 11.0005C2.94294 10.6421 3.21453 10.1942 3.48612 9.83587L4.39141 8.76083C4.663 8.40248 5.11564 7.95455 5.38723 7.68579C5.2967 7.68579 5.38723 7.86496 5.47776 8.04414Z" fill="#B06906"/>
<path d="M5.38694 7.95455C5.38694 8.04414 5.20588 8.13372 5.11535 8.22331C3.48583 10.015 0.860478 13.9569 1.2226 20.7654C1.40365 23.8114 2.39948 28.3803 6.65435 33.0388C6.02065 33.5763 5.65853 33.9347 5.65853 33.9347C5.38694 33.5763 4.93429 33.1284 4.57218 32.77C4.30059 32.4117 3.93847 31.8742 3.66689 31.5158L2.85212 30.2616C2.67106 29.9033 2.30895 29.3658 2.12789 28.9178L1.49418 27.574C1.31312 27.1261 1.13207 26.5886 0.951008 26.1406L0.588891 24.7073C0.498362 24.2593 0.407832 23.7218 0.317303 23.2739L0.136245 21.8405C0.136245 21.3925 0.0457153 20.855 0.0457153 20.4071V18.9737C0.0457153 18.5258 0.136245 17.9883 0.226774 17.5403L0.498362 16.1965C0.588891 15.7486 0.769949 15.2111 0.860479 14.8527L1.31312 13.5089C1.49418 13.1506 1.67524 12.6131 1.94683 12.2547L2.67106 11.0005C2.94265 10.6421 3.21424 10.1942 3.48583 9.83587L4.39112 8.76083C4.66271 8.40248 5.11535 7.95455 5.38694 7.68579C5.29641 7.68579 5.29641 7.77538 5.38694 7.95455Z" fill="#AC6605"/>
<path d="M5.38694 7.86496C5.38694 8.04414 5.11535 8.22331 4.93429 8.3129C3.30477 10.015 0.588891 13.9569 0.860479 20.6759C0.951008 23.7218 2.03736 28.4699 6.38276 33.218C5.93012 33.6659 5.65853 33.9347 5.65853 33.9347C5.38694 33.5763 4.93429 33.1284 4.57218 32.77C4.30059 32.4117 3.93847 31.8742 3.66689 31.5158L2.85212 30.2616C2.67106 29.9033 2.30895 29.3658 2.12789 28.9178L1.49418 27.574C1.31312 27.1261 1.13207 26.5886 0.951008 26.1406L0.588891 24.7073C0.498362 24.2593 0.407832 23.7218 0.317303 23.2739L0.136245 21.8405C0.136245 21.3925 0.0457153 20.855 0.0457153 20.4071V18.9737C0.0457153 18.5258 0.136245 17.9883 0.226774 17.5403L0.498362 16.1965C0.588891 15.7486 0.769949 15.2111 0.860479 14.8527L1.31312 13.5089C1.49418 13.1506 1.67524 12.6131 1.94683 12.2547L2.67106 11.0005C2.94265 10.6421 3.21424 10.1942 3.48583 9.83587L4.39112 8.76083C4.66271 8.40248 5.11535 7.95455 5.38694 7.68579C5.29641 7.68579 5.29641 7.77538 5.38694 7.86496Z" fill="#A86403"/>
<path d="M5.38723 7.77538C-1.2214 14.584 -0.859286 25.6031 6.29253 33.3972C5.93041 33.7555 5.74935 33.9347 5.74935 33.9347C5.47776 33.5763 5.02512 33.1284 4.663 32.77C4.39141 32.4117 4.02929 31.8742 3.75771 31.5158L2.94294 30.2616C2.76188 29.9033 2.39977 29.3658 2.21871 28.9178L1.585 27.574C1.40395 27.1261 1.22289 26.5886 1.04183 26.1406L0.679711 24.7073C0.589182 24.2593 0.498653 23.7218 0.408123 23.2739L0.227065 21.8405C0.227065 21.3925 0.136536 20.855 0.136536 20.4071V18.9737C0.136536 18.5258 0.227065 17.9883 0.317594 17.5403L0.498653 16.1965C0.589182 15.7486 0.77024 15.2111 0.86077 14.8527L1.31342 13.5089C1.49447 13.1506 1.67553 12.6131 1.94712 12.2547L2.67136 11.0005C2.94294 10.6421 3.21453 10.1942 3.48612 9.83587L4.39141 8.76083C4.663 8.40248 5.11564 7.95455 5.38723 7.68579C5.2967 7.68579 5.2967 7.68579 5.38723 7.77538Z" fill="#A46101"/>
<path d="M5.38723 7.77538C5.38723 7.86496 5.20617 7.95455 5.11564 8.04414C3.30506 9.83587 0.317594 13.8673 0.498653 20.6759C0.589182 23.901 1.67553 28.7386 6.11147 33.5763C5.83988 33.8451 5.74935 33.9347 5.74935 33.9347C5.47776 33.5763 5.02512 33.1284 4.663 32.77C4.39141 32.4117 4.02929 31.8742 3.75771 31.5158L2.94294 30.2616C2.76188 29.9033 2.39977 29.3658 2.21871 28.9178L1.585 27.574C1.40395 27.1261 1.22289 26.5886 1.04183 26.1406L0.679711 24.7073C0.589182 24.2593 0.498653 23.7218 0.408123 23.2739L0.227065 21.8405C0.227065 21.3925 0.136536 20.855 0.136536 20.4071V18.9737C0.136536 18.5258 0.227065 17.9883 0.317594 17.5403L0.498653 16.1965C0.589182 15.7486 0.77024 15.2111 0.86077 14.8527L1.31342 13.5089C1.49447 13.1506 1.67553 12.6131 1.94712 12.2547L2.67135 11.0005C2.94294 10.6421 3.21453 10.1942 3.48612 9.83587L4.39141 8.76083C4.663 8.40248 5.11564 7.95455 5.38723 7.68579C5.2967 7.68579 5.2967 7.68579 5.38723 7.77538Z" fill="#A05E00"/>
<path d="M5.29641 7.68579C-1.67434 14.7631 -1.40275 25.6927 5.93012 33.6659C5.74906 33.8451 5.65853 33.9347 5.65853 33.9347C5.38694 33.5763 4.93429 33.1284 4.57218 32.77C4.30059 32.4117 3.93847 31.8742 3.66689 31.5158L2.85212 30.2616C2.67106 29.9033 2.30895 29.3658 2.12789 28.9178L1.49418 27.574C1.31312 27.1261 1.13207 26.5886 0.951008 26.1406L0.588891 24.7073C0.498362 24.2593 0.407832 23.7218 0.317303 23.2739L0.136245 21.8405C0.136245 21.3925 0.0457153 20.855 0.0457153 20.4071V18.9737C0.0457153 18.5258 0.136245 17.9883 0.226774 17.5403L0.498362 16.1965C0.588891 15.7486 0.769949 15.2111 0.860479 14.8527L1.31312 13.5089C1.49418 13.1506 1.67524 12.6131 1.94683 12.2547L2.67106 11.0005C2.94265 10.6421 3.21424 10.1942 3.48583 9.83587L4.39112 8.76083C4.66271 8.40248 5.02482 7.95455 5.29641 7.68579C5.38694 7.68579 5.29641 7.68579 5.29641 7.68579Z" fill="#9C5C00"/>
<path d="M7.65035 10.4631C6.92612 9.83601 6.38294 9.20891 5.9303 8.76097L6.02083 8.67139C6.47347 9.11932 7.01665 9.74643 7.65035 10.4631Z" fill="#BB700C"/>
<path d="M6.02032 8.67119L5.92979 8.76077C5.83926 8.5816 5.74873 8.40243 5.6582 8.22325L5.74873 8.13367C5.83926 8.31284 5.92979 8.49201 6.02032 8.67119Z" fill="#B76E0A"/>
<path d="M5.7487 8.13352L5.65817 8.22311C5.56764 8.22311 5.56764 8.13352 5.47711 8.04393L5.56764 7.95435C5.65817 8.04393 5.65817 8.13352 5.7487 8.13352Z" fill="#B36B08"/>
<path d="M5.56808 7.95398L5.47755 8.04273L5.38702 7.95398L5.47755 7.86523C5.56808 7.86523 5.56808 7.95398 5.56808 7.95398Z" fill="#B06906"/>
<path d="M5.47755 7.86441L5.38702 7.95316V7.86441H5.47755C5.47755 7.77566 5.47755 7.77566 5.47755 7.86441Z" fill="#AC6605"/>
<path d="M5.47755 7.77432L5.38702 7.86307C5.38702 7.86307 5.38702 7.86307 5.38702 7.77432H5.47755C5.47755 7.68558 5.47755 7.68558 5.47755 7.77432Z" fill="#A86403"/>
<path d="M5.47755 7.68591L5.38702 7.7756C5.38702 7.7756 5.38702 7.7756 5.38702 7.68591H5.47755Z" fill="#A46101"/>
<path d="M5.47768 7.59595L5.38715 7.68563L5.47768 7.59595Z" fill="#A05E00"/>
<path d="M5.47799 7.59583L5.29694 7.68551C5.29694 7.68551 5.38746 7.59583 5.47799 7.59583Z" fill="#9C5C00"/>
<path d="M18.6948 3.02729L21.8633 0.160522C22.1349 0.160522 22.3159 0.160522 22.5875 0.250109L19.419 3.11688C19.1474 3.02729 18.9664 3.02729 18.6948 3.02729Z" fill="#B76E0A"/>
<path d="M19.4191 3.02729L22.5877 0.160522C22.9498 0.160522 23.4024 0.250109 23.7645 0.339696L20.596 3.20647C20.2339 3.11688 19.7812 3.11688 19.4191 3.02729Z" fill="#BB700C"/>
<path d="M20.5958 3.20625L23.7643 0.339478C24.1264 0.429064 24.5791 0.518651 24.9412 0.608237L21.7726 3.47501C21.4105 3.38542 20.9579 3.29584 20.5958 3.20625Z" fill="#BF730D"/>
<path d="M21.7733 3.47468L24.9418 0.60791C25.3039 0.697497 25.7565 0.787083 26.1187 0.966257L22.9501 3.83303C22.588 3.65386 22.2259 3.56427 21.7733 3.47468Z" fill="#C3750E"/>
<path d="M22.9499 3.74409L26.1184 0.877319C26.5711 0.966906 26.9332 1.14608 27.3858 1.32525L24.2173 4.19202C23.8552 4.01285 23.4025 3.92326 22.9499 3.74409Z" fill="#C67710"/>
<path d="M24.2166 4.19172L27.3851 1.32495C27.8378 1.50412 28.2904 1.6833 28.7431 1.86247L25.5746 4.72924C25.1219 4.55007 24.6693 4.3709 24.2166 4.19172Z" fill="#CA7A11"/>
<path d="M25.5753 4.72957L28.7438 1.86279C29.1964 2.04197 29.7396 2.31073 30.1922 2.57949L27.0237 5.44626C26.5711 5.1775 26.0279 4.99832 25.5753 4.72957Z" fill="#CE7C12"/>
<path d="M27.0239 5.44563L30.1924 2.57886C30.8262 2.9372 31.3693 3.29555 31.9125 3.6539L28.744 6.52067C28.2008 6.16232 27.5671 5.80398 27.0239 5.44563Z" fill="#D17E13"/>
<path d="M28.7438 6.52131L31.9124 3.65454C32.8177 4.28165 33.7229 4.99834 34.5377 5.80462L31.3692 8.67139C30.5544 7.86511 29.6491 7.14842 28.7438 6.52131Z" fill="#D58014"/>
<path d="M31.3691 8.67061L34.5377 5.80383C34.8093 6.07259 34.9903 6.25177 35.2619 6.52053C35.8956 7.14763 36.4388 7.77474 36.8914 8.49143L33.7229 11.3582C33.1797 10.6415 32.6366 10.0144 32.0934 9.3873C31.8218 9.11854 31.6407 8.93937 31.3691 8.67061Z" fill="#D88215"/>
<path d="M33.7224 11.3586L36.8909 8.49182C37.6152 9.47727 38.2489 10.4627 38.7015 11.4482L35.533 14.315C35.0804 13.2399 34.4466 12.2545 33.7224 11.3586Z" fill="#D58014"/>
<path d="M35.5333 14.3151L38.7018 11.4484C38.9734 12.0755 39.245 12.613 39.5166 13.2401L36.3481 16.1069C36.167 15.4798 35.8954 14.8527 35.5333 14.3151Z" fill="#D17E13"/>
<path d="M36.3477 16.1069L39.5162 13.2401C39.6973 13.7776 39.8784 14.2256 40.0594 14.7631L36.8909 17.6299C36.7098 17.0923 36.6193 16.5548 36.3477 16.1069Z" fill="#CE7C12"/>
<path d="M36.8919 17.6292L40.0604 14.7625C40.2415 15.2104 40.332 15.6583 40.4225 16.1063L37.254 18.973C37.1635 18.5251 37.073 18.0772 36.8919 17.6292Z" fill="#CA7A11"/>
<path d="M37.2532 18.9732L40.4217 16.1064C40.5122 16.5544 40.6028 16.9127 40.6933 17.3607L37.5248 20.2274C37.4342 19.7795 37.3437 19.4212 37.2532 18.9732Z" fill="#C67710"/>
<path d="M37.5253 20.2271L40.6938 17.3604C40.7843 17.8083 40.7843 18.1666 40.8748 18.6146L37.7063 21.4813C37.6158 21.0334 37.5253 20.6751 37.5253 20.2271Z" fill="#C3750E"/>
<path d="M37.6154 21.482L40.7839 18.6152C40.7839 18.9736 40.8744 19.4215 40.8744 19.7799L37.7059 22.6466C37.7059 22.2883 37.7059 21.8404 37.6154 21.482Z" fill="#BF730D"/>
<path d="M37.7064 22.6468L40.8749 19.78C40.8749 20.1384 40.8749 20.5863 40.8749 20.9447L37.7064 23.8114C37.7064 23.4531 37.7064 23.0051 37.7064 22.6468Z" fill="#BB700C"/>
<path d="M37.7059 23.8106L40.8744 20.9438C40.8744 21.3022 40.8744 21.7501 40.7839 22.1085L37.6154 24.9752C37.7059 24.5273 37.7059 24.169 37.7059 23.8106Z" fill="#B76E0A"/>
<path d="M37.6153 24.9754L40.7838 22.1086C40.7838 22.467 40.6933 22.9149 40.6028 23.2733L37.4343 26.14C37.5248 25.6921 37.6153 25.3338 37.6153 24.9754Z" fill="#B36B08"/>
<path d="M37.4347 26.1401L40.6032 23.2733C40.5127 23.6317 40.4221 24.0796 40.3316 24.4379L37.1631 27.3047C37.3441 26.8568 37.4347 26.4984 37.4347 26.1401Z" fill="#B06906"/>
<path d="M37.254 27.3049L40.4225 24.4381C40.332 24.886 40.2415 25.2444 40.0604 25.6027L36.8919 28.4695C37.073 28.1112 37.1635 27.6632 37.254 27.3049Z" fill="#AC6605"/>
<path d="M36.8914 28.4697L40.0599 25.6029C39.8788 26.0508 39.7883 26.4988 39.6072 26.8571L36.4387 29.7239C36.6198 29.3655 36.8008 28.9176 36.8914 28.4697Z" fill="#A86403"/>
<path d="M36.4391 29.7236L39.6076 26.8568C39.4265 27.3047 39.1549 27.8423 38.9739 28.2902L35.8054 31.157C36.0769 30.709 36.258 30.2611 36.4391 29.7236Z" fill="#A46101"/>
<path d="M35.8048 31.1577L38.9733 28.2909C38.7017 28.8284 38.3396 29.4555 37.9775 29.993L34.809 32.8598C35.1711 32.3223 35.5332 31.7848 35.8048 31.1577Z" fill="#A05E00"/>
<path d="M34.8095 32.8593L37.978 29.9926C37.3443 30.978 36.5295 31.9635 35.6242 32.7697L32.4557 35.6365C33.361 34.8302 34.0852 33.8448 34.8095 32.8593Z" fill="#9C5C00"/>
<path d="M18.4236 6.70038C18.4236 4.81906 18.5141 3.11692 18.6952 2.93774C23.4932 3.29609 28.3818 5.44617 32.0935 9.29839C39.5169 17.0028 39.6074 28.8283 32.4556 35.5473C32.2746 35.7264 31.0072 34.6514 29.6492 33.218C35.5336 27.6637 35.3526 18.0779 29.3776 11.8068C26.2996 8.76087 22.4069 7.05873 18.4236 6.70038Z" fill="#D58014"/>
<path d="M29.6488 33.3071C35.5332 27.7527 35.3521 18.167 29.3772 11.8959C26.3897 8.76035 22.4064 6.96862 18.5137 6.69986C18.5137 5.44565 18.5137 4.28102 18.6042 3.56433C18.6042 3.65392 18.6947 3.65392 18.7853 3.65392C21.6822 4.4602 27.0234 5.89358 31.7309 11.3584C33.9942 14.046 35.0805 16.8232 35.4426 17.719C36.3479 20.1379 36.3479 22.7359 37.1627 25.1547C37.7964 24.1693 38.4301 17.719 33.8131 11.448C39.4259 19.0628 38.9733 29.4549 32.3646 35.6363C32.2741 35.8155 31.0067 34.7405 29.6488 33.3071Z" fill="#D58014"/>
<path d="M29.6488 33.3068C35.5332 27.7524 35.3521 18.1666 29.3772 11.8956C26.3897 8.76003 22.4064 6.9683 18.5137 6.69954C18.5137 5.53491 18.5137 4.54946 18.6042 3.83276C18.6042 3.83276 18.6042 3.83276 18.6947 3.83276C29.4677 6.52036 35.9858 13.8665 36.8911 24.7064C36.9816 25.3336 36.9816 26.1398 37.0722 26.1398C37.2532 26.2294 38.9733 21.123 35.6237 14.2248C39.3354 21.4813 38.249 30.1712 32.4552 35.636C32.2741 35.8152 31.0067 34.7401 29.6488 33.3068Z" fill="#D17E13"/>
<path d="M29.6488 33.3064C35.5332 27.7521 35.3521 18.1663 29.3772 11.8952C26.3897 8.7597 22.4064 6.96797 18.5137 6.69921C18.5137 5.71376 18.5137 4.81789 18.6042 4.1012C18.7853 4.1012 18.9663 4.19078 19.1474 4.19078C25.3034 5.71376 35.8048 10.5514 36.7101 25.8707C36.7101 26.3187 36.8006 27.0354 36.8911 27.125C36.9816 27.125 37.0722 27.125 37.0722 27.125C37.0722 27.125 38.9733 23.1831 36.529 16.0162C39.1543 22.8248 37.8869 30.5293 32.5457 35.5461C32.2741 35.8149 31.0067 34.7398 29.6488 33.3064Z" fill="#CE7C12"/>
<path d="M29.6488 33.3076C35.5332 27.7532 35.3521 18.1674 29.3772 11.8964C26.3897 8.76085 22.4064 6.96912 18.5137 6.70036C18.5137 5.89408 18.5137 5.0878 18.6042 4.46069C23.8549 5.62532 36.0763 10.0151 36.3479 26.6782C36.3479 27.9324 36.3479 28.4699 36.6195 28.4699C36.6195 28.4699 38.8828 24.7969 36.9816 17.6299C38.8828 24.0802 37.4343 31.0679 32.5457 35.7264C32.2741 35.816 31.0067 34.741 29.6488 33.3076Z" fill="#CA7A11"/>
<path d="M29.6488 33.3078C35.5332 27.7534 35.3521 18.1676 29.3772 11.8966C26.3897 8.76103 22.4064 6.96929 18.5137 6.70053C18.5137 6.07343 18.5137 5.35673 18.5137 4.81921C18.6947 4.81921 18.8758 4.9088 19.0568 4.9088C25.4844 6.34219 36.2574 11.1799 35.8048 27.5742C35.8048 28.4701 35.7142 29.3659 35.9858 29.4555C36.2574 29.5451 38.7017 25.7825 37.3438 18.7947C38.7017 24.797 37.0722 31.1577 32.5457 35.4578C32.2741 35.8162 31.0067 34.7411 29.6488 33.3078Z" fill="#C67710"/>
<path d="M37.2537 24.2586C37.2537 24.2586 37.1632 24.169 36.9821 23.1835C36.7106 21.3918 35.7147 15.8374 31.822 11.3581C27.4766 6.43083 24.0365 5.2662 19.1479 3.56406C19.0574 3.56406 18.8763 3.56406 18.7858 3.38488C18.7858 3.38488 18.7858 3.2953 18.8763 3.20571C19.2384 2.93695 26.7523 3.56406 32.003 9.2976C38.2496 16.1062 37.5253 22.7356 37.4348 23.4523C37.4348 24.169 37.4348 24.2586 37.2537 24.2586C37.3443 24.2586 37.2537 24.2586 37.2537 24.2586Z" fill="#D88215"/>
<path d="M29.6488 33.3071C35.5332 27.7527 35.3521 18.167 29.3772 11.8959C26.3897 8.76037 22.4064 6.96864 18.5137 6.69988C18.5137 6.25195 18.5137 5.80401 18.5137 5.35608C18.6042 5.44567 18.8758 5.44567 18.9663 5.44567C21.9538 5.98319 36.6195 9.74583 35.0805 27.9319C34.99 29.4549 34.8089 30.6195 35.1711 30.7987C35.6237 31.0674 38.4301 27.3944 37.5248 20.2275C38.4301 25.8714 36.7101 31.605 32.4552 35.6364C32.2741 35.8155 31.0067 34.7405 29.6488 33.3071Z" fill="#C3750E"/>
<path d="M37.253 23.3631C37.1625 23.2736 37.1625 23.2736 36.8003 21.3922C35.6235 15.8379 32.7265 12.2544 31.9118 11.2689C28.7432 7.68548 25.6652 5.62498 20.9577 4.01243C19.8714 3.65408 19.8714 3.65408 19.6903 3.47491C19.7808 3.47491 26.3895 3.02697 32.9981 10.4627C37.0719 15.0316 38.0677 22.1089 37.434 23.3631C37.434 23.3631 37.434 23.4527 37.253 23.3631C37.3435 23.4527 37.3435 23.3631 37.253 23.3631Z" fill="#DC8515"/>
<path d="M37.2537 22.5562C37.2537 22.5562 37.1632 22.377 37.0727 21.8395C36.439 18.9727 35.8053 17.0914 34.2663 14.3142C33.542 13.06 32.003 10.7307 29.2872 8.40149C26.5713 6.16182 23.9459 4.90761 21.9543 4.19091C20.5058 3.65339 20.4153 3.65339 20.5058 3.56381C20.5963 3.02629 29.6493 4.54926 34.5379 12.6121C37.7969 17.8977 37.5253 22.1978 37.3443 22.6458L37.2537 22.5562Z" fill="#DF8716"/>
<path d="M37.2537 21.8402C37.1631 21.7506 37.1631 21.7506 36.801 20.3172C36.0768 17.5401 34.9904 15.5691 34.2662 14.3149C32.9083 12.0753 31.2787 10.1939 29.2871 8.40222C26.4807 5.98338 23.4027 4.72916 22.2258 4.28123C21.3205 3.92288 21.3205 3.8333 21.23 3.74371C21.3205 3.74371 27.0239 3.65413 32.9988 10.4627C36.801 14.7629 37.8874 20.9443 37.3442 22.0194C37.2537 21.9298 37.2537 21.8402 37.2537 21.8402Z" fill="#E38917"/>
<path d="M29.6488 33.307C35.5332 27.7526 35.3521 18.1668 29.3772 11.8958C26.3897 8.76022 22.4064 6.96849 18.5137 6.69973C18.5137 6.43097 18.5137 6.16221 18.5137 5.98303C18.6947 5.98303 18.8758 6.07262 19.0568 6.07262C26.7518 7.32683 37.0722 14.4042 34.1752 28.8276C32.8173 35.7258 35.9858 30.6194 36.3479 29.9027C38.068 26.3192 37.7964 22.6461 37.7964 21.4815C38.249 26.7671 36.529 31.9632 32.5457 35.7258C32.2741 35.8154 31.0067 34.7403 29.6488 33.307Z" fill="#BF730D"/>
<path d="M37.1632 21.123C36.9822 20.8542 36.9822 20.4959 36.8916 20.2271C35.8053 16.4645 34.1758 13.4185 32.0936 11.0893C29.2872 7.95375 26.8429 6.16202 22.7691 4.37028C21.8638 4.01194 21.8638 3.92235 21.7733 3.83276C21.7733 3.83276 27.205 4.01194 32.9084 10.3726C36.3485 14.3144 37.6159 19.9584 37.1632 21.2126C37.2538 21.2126 37.1632 21.2126 37.1632 21.123Z" fill="#E68B17"/>
<path d="M37.0724 20.5856C37.0724 20.496 37.0724 20.496 36.7102 19.6002C36.2576 18.2564 34.8997 14.225 32.0932 11.0894C29.5584 8.13307 27.2047 6.43092 23.4024 4.5496C22.4971 4.10167 22.4971 4.10167 22.4066 4.01208C22.4066 4.01208 27.4763 4.28085 32.908 10.4623C36.0765 14.1354 37.525 19.5106 37.1629 20.6752C37.1629 20.6752 37.1629 20.5856 37.0724 20.5856Z" fill="#E98D18"/>
<path d="M36.9819 19.958C36.8009 19.6893 36.7103 19.2413 36.6198 18.883C35.2619 14.8516 33.4513 12.4328 32.1839 10.9994C30.0112 8.58053 27.929 6.69921 24.0362 4.7283C23.0404 4.28037 23.0404 4.28037 22.9499 4.1012C22.9499 4.1012 27.6574 4.45954 32.9081 10.3723C35.805 13.687 37.2535 18.6142 37.0725 20.0476C37.0725 20.0476 37.0725 20.0476 36.9819 19.958Z" fill="#ED8F18"/>
<path d="M36.892 19.511C36.8014 19.3318 36.7109 18.9734 36.6204 18.7943C35.0814 14.6733 33.2708 12.1649 32.275 11.0898C30.1023 8.67098 28.1106 6.87925 24.1273 4.72917C23.9463 4.63958 23.5842 4.46041 23.5842 4.37082C23.6747 3.92289 29.7402 5.89379 33.814 11.5378C36.4393 15.2108 37.1636 18.9734 37.073 19.6005C36.9825 19.6005 36.892 19.511 36.892 19.511Z" fill="#F09119"/>
<path d="M36.8006 18.9737C36.8006 18.8841 36.7101 18.7946 36.7101 18.705C35.7142 16.2861 34.5374 13.5089 32.2741 11.0005C30.5541 9.02961 28.653 7.14829 24.6697 4.90863C24.217 4.63987 24.217 4.63987 23.9454 4.46069C23.9454 4.46069 28.1098 4.90863 32.9984 10.463C35.6237 13.4194 37.1627 17.8987 36.9816 19.1529C36.8911 19.0633 36.8006 19.0633 36.8006 18.9737Z" fill="#F29219"/>
<path d="M36.7101 18.5255C36.5291 18.2567 36.4385 17.8088 36.2575 17.54C34.7185 13.9565 32.9984 11.7169 32.2742 11.0002C30.9163 9.47722 29.1962 7.50631 25.2129 5.26665C24.4887 4.9083 24.4887 4.9083 24.3076 4.72913C24.3076 4.72913 28.2004 5.26665 32.9079 10.5523C35.4427 13.419 36.9817 17.8088 36.8007 18.7942C36.8007 18.6151 36.7101 18.5255 36.7101 18.5255Z" fill="#F4A03A"/>
<path d="M36.5296 18.078C35.8054 16.8238 35.3527 15.3904 34.538 14.1362C33.4516 12.2549 32.3653 11.0007 32.2747 11.0007C30.6452 9.02979 29.1062 7.41723 25.3945 5.26715C24.9419 4.99839 24.9419 4.99839 24.7608 4.81921C28.8346 4.99839 37.1633 14.3154 36.7107 18.2572C36.6201 18.2572 36.6201 18.1676 36.5296 18.078Z" fill="#F5A546"/>
<path d="M36.4382 17.6293C35.8045 16.4646 35.3519 15.2104 34.6276 14.0458C33.5413 12.1645 32.3644 10.9103 32.3644 10.9103C31.2781 9.65606 29.558 7.77474 26.3895 5.80384C25.3937 5.17673 25.3937 5.17673 25.1221 4.99756C25.1221 4.99756 28.5622 5.62466 32.9076 10.5519C34.9898 12.8812 36.6193 16.823 36.6193 17.898C36.5288 17.8084 36.4382 17.7189 36.4382 17.6293Z" fill="#F5AA4E"/>
<path d="M36.3478 17.271C35.6235 16.1063 35.1709 14.8521 34.4466 13.7771C33.7224 12.6124 32.7266 11.2686 32.3645 10.9999C31.0971 9.65609 29.6486 7.95394 26.3895 5.80386C25.7558 5.35593 25.7558 5.35593 25.4843 5.17676C25.4843 5.17676 28.5622 5.71428 32.9076 10.552C34.8993 12.7916 36.5288 16.4647 36.4383 17.5397C36.4383 17.3605 36.3478 17.3605 36.3478 17.271Z" fill="#F6AD56"/>
<path d="M36.1672 16.8235C35.624 15.9277 35.2619 14.9422 34.7187 14.0463C34.2661 13.4192 33.3608 11.8963 32.4555 10.8212C30.5544 8.67114 29.3775 7.5961 26.4806 5.62519C26.2995 5.53561 26.1184 5.35643 25.9374 5.26685C25.9374 5.26685 28.8343 5.80437 32.9081 10.4629C34.8092 12.6129 36.3482 16.1068 36.3482 17.0923C36.2577 17.0027 36.2577 16.9131 36.1672 16.8235Z" fill="#F6B05C"/>
<path d="M29.6488 33.3068C35.5332 27.7524 35.3521 18.1667 29.3772 11.8956C26.3897 8.76006 22.4064 6.96833 18.5137 6.69957C18.6947 6.69957 18.8758 6.69957 19.0568 6.60999C29.1961 7.8642 38.8828 18.9729 31.5499 31.7838C29.8298 34.7402 33.451 34.561 35.4426 31.6047C37.0722 29.2754 37.8869 26.2295 37.8869 22.5564C37.9775 27.3941 36.2574 32.1422 32.6362 35.5465C32.2741 35.8152 31.0067 34.7402 29.6488 33.3068Z" fill="#BB700C"/>
<path d="M36.0767 16.4648C33.2703 11.8063 33.2703 11.8063 32.4555 10.9105C31.0976 9.3875 30.0113 8.13329 27.0238 6.0728C26.7522 5.89362 26.4806 5.71445 26.2996 5.53528C29.4681 5.98321 36.2578 13.6877 36.3483 16.8232C36.1672 16.644 36.0767 16.5544 36.0767 16.4648Z" fill="#F7B362"/>
<path d="M35.9858 16.2858C34.8089 14.4941 33.9036 12.5232 32.4551 10.9106C31.7309 10.1043 31.0067 9.29806 30.1014 8.49178C28.9245 7.50633 27.6571 6.70005 26.5707 5.7146C29.5582 6.16253 36.0763 13.5086 36.0763 16.465C36.0763 16.3754 36.0763 16.2858 35.9858 16.2858Z" fill="#F7B667"/>
<path d="M35.7147 15.7479C33.2704 11.7166 33.2704 11.7166 32.4556 10.8207C31.5504 9.74564 31.0072 9.20812 30.1019 8.40185C29.1061 7.50598 27.9292 6.6997 26.8428 5.80383C29.6492 6.34135 35.8052 13.2395 35.8958 16.0167C35.8958 15.9271 35.8052 15.8375 35.7147 15.7479Z" fill="#F8B96C"/>
<path d="M35.5332 15.3896C33.27 11.8062 33.27 11.8062 31.5499 9.83526C30.2825 8.40187 28.653 7.32683 27.114 5.98303C29.7394 6.52055 35.6238 13.15 35.7143 15.6584C35.7143 15.5688 35.6238 15.4792 35.5332 15.3896Z" fill="#F8BB71"/>
<path d="M35.4428 15.1205C34.9901 14.4038 34.5375 13.5976 34.0848 12.9705C33.1795 11.6267 32.6364 10.9996 32.4553 10.91C31.4595 9.74534 31.0974 9.47658 30.1015 8.49113C29.2868 7.68485 28.291 7.05774 27.4762 6.25146C29.83 6.78898 35.4428 13.0601 35.6238 15.4789C35.6238 15.2997 35.5333 15.2101 35.4428 15.1205Z" fill="#F8BD76"/>
<path d="M35.1712 14.5835C32.6364 10.6417 32.6364 10.6417 27.8384 6.34155C30.0111 6.87907 35.2618 12.7918 35.5334 15.0315C35.4428 14.9419 35.2618 14.7627 35.1712 14.5835Z" fill="#F8BF7A"/>
<path d="M31.7313 35.2782C32.6366 34.8303 37.1631 32.0531 37.7063 23.8112C37.5252 28.2009 35.8051 32.5011 32.4556 35.6366C32.365 35.7262 32.0934 35.547 31.7313 35.2782Z" fill="#B76E0A"/>
<path d="M34.9907 14.2248C32.5464 10.5518 32.2748 10.283 28.1105 6.60999C30.0116 7.05792 35.0812 12.7019 35.3528 14.7624C35.2623 14.5832 35.0812 14.404 34.9907 14.2248Z" fill="#F8C17E"/>
<path d="M34.8993 13.9562C32.274 10.2832 32.1834 10.1936 28.4717 6.78931C30.1918 7.23724 34.8993 12.6124 35.1709 14.4042C35.0804 14.225 34.9898 14.0458 34.8993 13.9562Z" fill="#F9C382"/>
<path d="M32.0025 35.457C35.0805 33.2173 36.9816 29.6338 37.6153 24.8857C37.2532 28.9171 35.4426 32.6798 32.3646 35.6361C32.3646 35.7257 32.1836 35.6361 32.0025 35.457Z" fill="#B36B08"/>
<path d="M34.8998 13.9568C32.2745 10.2837 32.0934 10.1045 28.7438 7.05859C30.3734 7.50653 34.7188 12.4338 34.8998 13.9568C34.9904 13.9568 34.9904 13.9568 34.8998 13.9568Z" fill="#F9C585"/>
<path d="M31.0973 8.40266C25.3034 3.29623 19.6906 3.11705 18.6948 3.20664C18.6948 3.11705 18.7853 3.02747 18.7853 3.02747C23.3118 3.29623 27.8382 5.26713 31.4594 8.67142C31.2783 8.58184 31.1878 8.49225 31.0973 8.40266Z" fill="#D58014"/>
<path d="M34.2666 12.9715C32.3655 10.2839 31.5507 9.56717 29.0159 7.23792C30.4644 7.68585 34.4477 12.1652 34.7193 13.6882C34.6287 13.4194 34.4477 13.2402 34.2666 12.9715Z" fill="#F9C689"/>
<path d="M32.0935 35.5472C32.0935 35.2785 32.5461 35.1889 32.7272 35.0097C34.3567 33.6659 36.4389 30.9783 37.4347 26.1406C36.801 29.7241 35.1715 33.0388 32.3651 35.7264C32.3651 35.7264 32.2746 35.6368 32.0935 35.5472Z" fill="#B06906"/>
<path d="M28.3818 6.34217C25.1228 4.28168 22.2258 3.38581 18.6047 3.11705C18.6047 3.02747 18.6047 3.02747 18.6952 3.02747C22.1353 3.29623 25.666 4.46085 28.744 6.52134C28.6534 6.43176 28.4724 6.34217 28.3818 6.34217Z" fill="#D17E13"/>
<path d="M34.2663 12.8815C32.5462 10.5523 31.9125 9.8356 29.4682 7.50635C30.7356 7.95428 34.3568 11.9857 34.6284 13.3295C34.4473 13.1503 34.3568 12.9711 34.2663 12.8815Z" fill="#F9C88C"/>
<path d="M32.1836 35.636C35.8048 32.5005 36.7101 29.0962 37.2532 27.3044C36.529 30.44 34.8995 33.3963 32.4552 35.7256C32.3647 35.7256 32.2741 35.636 32.1836 35.636Z" fill="#AC6605"/>
<path d="M34.2658 12.7916C32.7268 10.7311 32.0931 10.0144 29.7394 7.77478C30.8257 8.13313 34.0848 11.8062 34.2658 12.8812C34.3564 12.8812 34.2658 12.8812 34.2658 12.7916Z" fill="#FACA90"/>
<path d="M26.6618 5.26663C25.5754 4.72911 22.6785 3.20614 18.6047 3.02696C18.6047 3.02696 18.6047 2.93738 18.6952 2.93738C21.5016 3.11655 24.3985 3.92283 27.0239 5.4458C26.9334 5.4458 26.7523 5.35622 26.6618 5.26663Z" fill="#CE7C12"/>
<path d="M32.2746 35.6362C34.9905 33.2173 36.0768 30.7985 36.8916 28.4692C36.0768 31.1568 34.5378 33.5757 32.3651 35.6362C32.3651 35.7258 32.3651 35.7258 32.2746 35.6362Z" fill="#A86403"/>
<path d="M33.4511 11.7163C32.3648 10.3725 31.55 9.4766 30.1016 8.04321C30.9163 8.40156 33.6322 11.2683 33.9943 12.433C33.9038 12.2538 33.6322 11.985 33.4511 11.7163Z" fill="#FACB93"/>
<path d="M25.4845 4.72961C23.0402 3.65457 21.2296 3.20664 18.6948 3.11705V3.02747C21.0485 3.11705 23.4023 3.74416 25.4845 4.72961C25.575 4.72961 25.575 4.72961 25.4845 4.72961Z" fill="#CA7A11"/>
<path d="M32.2746 35.6368C34.8094 33.3076 35.8052 30.9783 36.4389 29.7241C35.5337 31.8742 34.1757 33.9347 32.4557 35.6368C32.3651 35.6368 32.3651 35.7264 32.2746 35.6368Z" fill="#A46101"/>
<path d="M23.6739 4.01292C21.7728 3.38581 20.5959 3.20664 18.6948 3.02747C20.5959 3.11705 22.4065 3.56499 24.217 4.19209C24.036 4.10251 23.8549 4.10251 23.6739 4.01292Z" fill="#C67710"/>
<path d="M33.5418 11.7169C32.9081 11.0002 32.1838 10.0148 30.6448 8.49182C31.3691 8.85017 33.4512 11.1794 33.7228 11.9857C33.6323 11.8961 33.5418 11.8065 33.5418 11.7169Z" fill="#FACD96"/>
<path d="M32.3647 35.6366C34.3563 33.8448 35.3522 32.0531 35.8048 31.1572C34.99 32.8594 33.8132 34.2928 32.3647 35.6366Z" fill="#A05E00"/>
<path d="M22.497 3.65457C20.958 3.29623 20.2338 3.20664 18.6948 3.02747C20.1432 3.11705 21.5917 3.38581 22.9496 3.83375C22.8591 3.74416 22.5875 3.65457 22.497 3.65457Z" fill="#C3750E"/>
<path d="M32.727 10.6417C32.0933 9.83544 31.6407 9.47709 31.188 8.93958C31.7312 9.29792 32.6365 10.1938 33.2702 11.2688C32.9986 11.0897 32.8176 10.8209 32.727 10.6417Z" fill="#FACE99"/>
<path d="M32.3647 35.6365C33.7226 34.2927 33.7226 34.2927 34.809 32.7698C34.1753 33.8448 33.3605 34.8303 32.3647 35.6365C32.4552 35.6365 32.3647 35.6365 32.3647 35.6365Z" fill="#9C5C00"/>
<path d="M21.2296 3.38581C20.4148 3.20664 19.8716 3.11705 18.6948 3.02747C19.6906 3.11705 20.7769 3.20664 21.7728 3.4754C21.5917 3.38581 21.4106 3.38581 21.2296 3.38581Z" fill="#BF730D"/>
<path d="M19.9622 3.11621C19.6001 3.11621 19.0569 3.02747 18.6948 3.02747C19.3285 3.02747 19.9622 3.11621 20.5959 3.20496C20.4148 3.20496 20.1432 3.11621 19.9622 3.11621Z" fill="#BB700C"/>
<path d="M19.3285 3.02706L18.6948 2.93738C18.9664 3.02706 19.1474 3.02706 19.3285 3.02706C19.419 3.02706 19.3285 3.02706 19.3285 3.02706Z" fill="#B76E0A"/>
<path d="M29.5583 33.3971C29.9204 33.5763 30.192 33.845 30.4636 34.1138L30.3731 34.2034C30.1015 34.0242 29.8299 33.7554 29.5583 33.3971Z" fill="#BB700C"/>
<path d="M30.3737 34.2029H30.5547L30.6452 34.2925L30.7358 34.3821L30.8263 34.4716L30.9168 34.5612H31.0074V34.6508C30.7358 34.5612 30.5547 34.3821 30.3737 34.2029Z" fill="#BF730D"/>
<path d="M30.916 34.6506L31.0971 34.7402H31.1876L31.3687 34.8298L31.5497 34.9194H31.6403L31.8213 35.009L31.9118 35.0986L32.0024 35.1882L32.0929 35.2777C31.7308 35.3673 31.3687 35.0986 30.916 34.6506Z" fill="#BB700C"/>
<path d="M18.7858 43.4313L29.5587 33.4872C30.3735 34.2935 31.0977 34.9206 31.7314 35.3685L18.8763 47.1044C18.8763 46.2981 18.7858 44.9543 18.7858 43.4313Z" fill="#BB700C"/>
<path d="M18.8759 47.1047L31.6405 35.2793C31.731 35.3689 31.8215 35.4585 31.9121 35.4585L18.9664 47.5527C18.9664 47.4631 18.9664 47.2839 18.8759 47.1047Z" fill="#B76E0A"/>
<path d="M18.9669 47.5528L32.0031 35.4586C32.0936 35.4586 32.0936 35.5482 32.1841 35.5482L18.9669 47.732C18.9669 47.732 18.9669 47.6424 18.9669 47.5528Z" fill="#B36B08"/>
<path d="M18.9669 47.7315L32.0936 35.5477H32.1841L19.0574 47.8211C19.0574 47.8211 19.0574 47.8211 18.9669 47.7315Z" fill="#B06906"/>
<path d="M19.0569 47.8211L32.2742 35.5477C32.2742 35.5477 32.2742 35.5477 32.3647 35.5477L19.0569 47.8211C19.0569 47.9107 19.0569 47.9107 19.0569 47.8211Z" fill="#AC6605"/>
<path d="M19.0569 47.9103L32.2742 35.637C32.2742 35.637 32.2742 35.637 32.3647 35.637L19.0569 47.9103Z" fill="#A86403"/>
<path d="M19.0569 48.0004L32.2742 35.7271L19.0569 48.0004Z" fill="#A46101"/>
<path d="M5.65863 7.3283L8.82715 4.46152C10.0946 3.2969 11.4525 2.40103 12.901 1.77393L9.73245 4.6407C8.28398 5.2678 6.92604 6.25326 5.65863 7.3283Z" fill="#9C5C00"/>
<path d="M9.82367 4.64035L12.9922 1.77358C13.6259 1.50482 14.1691 1.23606 14.8028 1.05688L11.6343 3.92366C11.0005 4.10283 10.3668 4.37159 9.82367 4.64035Z" fill="#A05E00"/>
<path d="M11.6346 3.92431L14.8031 0.967953C15.3463 0.788779 15.7989 0.699193 16.3421 0.52002L13.1736 3.38679C12.6304 3.56596 12.0872 3.74514 11.6346 3.92431Z" fill="#A46101"/>
<path d="M13.1733 3.47635L16.3419 0.60958C16.7945 0.519994 17.2472 0.430407 17.6998 0.34082L14.5313 3.20759C14.0786 3.20759 13.626 3.38677 13.1733 3.47635Z" fill="#A86403"/>
<path d="M14.5311 3.20647L17.6996 0.339696C18.1522 0.250109 18.6049 0.160522 19.0575 0.160522L15.889 3.02729C15.3458 3.02729 14.9837 3.11688 14.5311 3.20647Z" fill="#AC6605"/>
<path d="M15.7987 3.02679L19.0578 0.160021C19.4199 0.0704346 19.8725 0.0704346 20.2346 0.0704346L17.0661 2.93721C16.6135 2.93721 16.2514 3.02679 15.7987 3.02679Z" fill="#B06906"/>
<path d="M17.0663 2.93721L20.2349 0.0704346C20.597 0.0704346 21.0496 0.0704346 21.4117 0.0704346L18.2432 2.93721C17.7906 2.93721 17.4285 2.93721 17.0663 2.93721Z" fill="#B36B08"/>
<path d="M18.2429 2.93721L21.4114 0.0704346C21.5925 0.0704346 21.7736 0.0704346 21.8641 0.0704346L18.6956 2.93721C18.5145 3.02679 18.424 2.93721 18.2429 2.93721Z" fill="#B76E0A"/>
<path d="M7.65092 10.4631C6.20245 9.02969 5.29716 7.68589 5.47822 7.50672C5.56875 7.41713 5.65928 7.32754 5.65928 7.32754C9.28045 4.10242 13.988 2.66904 18.6955 3.02738C18.5144 3.20656 18.4239 4.81912 18.4239 6.79002C14.5311 6.43168 10.5479 7.68589 7.65092 10.4631Z" fill="#D58014"/>
<path d="M18.6041 3.20656C18.3325 3.38573 17.9704 3.02738 17.7893 3.29614C17.7893 3.38573 17.6988 3.38573 18.5136 3.65449C18.423 4.37118 18.3325 5.53581 18.423 6.79002C14.5303 6.52126 10.547 7.68589 7.55953 10.4631C6.20159 9.02969 5.2963 7.68589 5.47736 7.50672C5.56789 7.41713 5.65842 7.32754 5.65842 7.32754C9.27959 4.10242 13.9871 2.66904 18.6946 3.02738C18.6946 3.02738 18.6946 3.11697 18.6041 3.20656Z" fill="#D58014"/>
<path d="M18.6955 3.11697C18.605 3.20656 18.5144 3.11697 18.4239 3.11697C17.6997 3.11697 16.9754 3.20656 16.8849 3.29614V3.38573C16.9754 3.47532 17.5186 3.65449 18.605 3.83366C18.5144 4.55036 18.5144 5.53581 18.5144 6.70044C14.6217 6.43168 10.6384 7.5963 7.65092 10.3735C6.20245 9.02969 5.29716 7.68589 5.47822 7.50672C5.56875 7.41713 5.65928 7.32754 5.65928 7.32754C9.28045 4.10242 13.988 2.66904 18.6955 3.02738C18.6955 3.02738 18.6955 3.02738 18.6955 3.11697Z" fill="#D17E13"/>
<path d="M18.6946 3.11652C18.6041 3.2061 18.3325 3.11652 18.242 3.11652C17.0651 3.11652 15.7977 3.29569 15.7072 3.47486C15.7072 3.56445 15.7072 3.56445 18.5136 4.19156C18.423 4.90825 18.423 5.80412 18.423 6.78957C14.5303 6.52081 10.547 7.68543 7.55953 10.4626C6.20159 9.02923 5.2963 7.68543 5.47736 7.50626C5.56789 7.41667 5.65842 7.32709 5.65842 7.32709C9.27959 4.10197 13.9871 2.66858 18.6946 3.11652C18.6946 3.02693 18.6946 3.02693 18.6946 3.11652Z" fill="#CE7C12"/>
<path d="M18.6946 3.02738C18.6041 3.11697 18.3325 3.02738 18.242 3.02738C16.5219 2.9378 14.6208 3.29614 14.5303 3.5649C14.5303 3.65449 14.5303 3.65449 18.5136 4.46077C18.5136 5.08788 18.423 5.89416 18.423 6.70044C14.5303 6.43168 10.547 7.5963 7.55953 10.3735C6.20159 9.02969 5.2963 7.68589 5.47736 7.50672C5.56789 7.41713 5.65842 7.32754 5.65842 7.32754C9.27959 4.10242 13.9871 2.66904 18.6946 3.02738Z" fill="#CA7A11"/>
<path d="M18.6946 3.02738C18.6041 3.02738 18.5136 3.02738 18.423 3.02738C15.7977 2.9378 13.3534 3.5649 13.2629 3.92325C13.2629 4.01284 13.1723 4.10242 13.8966 4.2816C15.4356 4.55036 16.9746 4.55036 18.423 4.9087C18.423 5.44622 18.423 6.07333 18.423 6.79002C14.5303 6.52126 10.547 7.68589 7.55953 10.4631C6.20159 9.02969 5.2963 7.68589 5.47736 7.50672C5.56789 7.41713 5.65842 7.32754 5.65842 7.32754C9.27959 4.10242 13.9871 2.66904 18.6946 3.02738Z" fill="#C67710"/>
<path d="M18.6946 3.02738C18.6041 3.11697 18.3325 3.02738 18.242 3.02738C14.4398 2.84821 10.4565 4.37118 12.2671 4.81912C14.2587 5.35664 16.3409 5.08788 18.423 5.35664C18.423 5.80457 18.423 6.2525 18.423 6.70044C14.5303 6.43168 10.547 7.5963 7.55953 10.3735C6.20159 9.02969 5.2963 7.68589 5.47736 7.50672C5.56789 7.41713 5.65842 7.32754 5.65842 7.32754C9.27959 4.10242 13.9871 2.66904 18.6946 3.02738Z" fill="#C3750E"/>
<path d="M18.6946 3.02738C18.6041 3.11697 18.3325 3.02738 18.242 3.02738C13.0818 2.75862 8.82694 5.17746 10.7281 5.80457C11.2712 5.98374 12.2671 5.98374 13.3534 5.89416C15.4356 5.80457 16.6125 5.80457 18.423 5.98374C18.423 6.2525 18.423 6.52126 18.423 6.70044C14.5303 6.43168 10.547 7.5963 7.55953 10.3735C6.20159 9.02969 5.2963 7.68589 5.47736 7.50672C5.56789 7.41713 5.65842 7.32754 5.65842 7.32754C9.27959 4.10242 13.9871 2.66904 18.6946 3.02738Z" fill="#BF730D"/>
<path d="M18.6955 3.02738C18.605 3.02738 18.605 3.02738 18.5144 3.02738C15.6175 2.84821 12.63 3.47532 10.5479 4.55036C7.37933 6.2525 8.10357 8.13382 8.64674 8.40258C9.00886 8.58176 9.64256 8.313 10.5479 8.04424C12.7206 7.14837 14.9838 6.43168 18.5144 6.70044V6.79002C14.6217 6.52126 10.6384 7.68589 7.65092 10.4631C6.20245 9.02969 5.29716 7.68589 5.47822 7.50672C5.56875 7.41713 5.65928 7.32754 5.65928 7.32754C9.28045 4.10242 13.988 2.66904 18.6955 3.02738Z" fill="#BB700C"/>
<path d="M18.6952 3.02738C18.6046 3.11697 18.333 3.02738 18.2425 3.02738C17.0656 2.9378 13.9876 2.9378 10.7286 4.37118C7.6506 5.71498 6.56424 7.68589 6.02107 8.67134C5.56842 8.04424 5.38736 7.5963 5.47789 7.50672C5.56842 7.41713 5.65895 7.32754 5.65895 7.32754C9.28012 4.10242 13.9876 2.66904 18.6952 3.02738Z" fill="#B76E0A"/>
<path d="M17.7897 2.93765C12.8106 2.84806 8.28414 4.81896 5.74932 8.13367C5.47774 7.86491 5.38721 7.59615 5.47774 7.50656C5.56826 7.41698 5.65879 7.32739 5.65879 7.32739C9.18943 4.19186 13.6254 2.75847 18.2424 2.93765C18.1518 2.93765 17.9708 2.93765 17.7897 2.93765Z" fill="#B36B08"/>
<path d="M16.8846 2.93774C10.9096 3.2065 7.46951 5.80452 5.5684 7.9546C5.47787 7.77542 5.38734 7.59625 5.47787 7.50666C5.5684 7.41708 5.65893 7.32749 5.65893 7.32749C8.82745 4.46072 12.9013 3.02733 16.9751 2.93774C16.9751 2.93774 16.9751 2.93774 16.8846 2.93774Z" fill="#B06906"/>
<path d="M15.6166 3.0282C11.4522 3.47613 8.10266 5.08869 5.47731 7.86588C5.47731 7.6867 5.38678 7.59712 5.47731 7.50753C5.56784 7.41794 5.65837 7.32836 5.65837 7.32836C8.5553 4.73034 12.0859 3.29696 15.7976 3.0282C15.7071 3.0282 15.6166 3.0282 15.6166 3.0282Z" fill="#AC6605"/>
<path d="M14.2586 3.20654C12.9912 3.4753 9.00795 4.192 5.47731 7.68587C5.47731 7.59629 5.38678 7.5067 5.47731 7.5067C5.56784 7.41711 5.65837 7.32753 5.65837 7.32753C8.19319 5.08786 11.2712 3.65448 14.5302 3.20654C14.4397 3.20654 14.3492 3.20654 14.2586 3.20654Z" fill="#A86403"/>
<path d="M12.9005 3.47595C11.0899 4.01347 8.19299 4.99892 5.47711 7.68652C5.47711 7.59694 5.47711 7.59694 5.47711 7.50735C5.56764 7.41776 5.65817 7.32818 5.65817 7.32818C7.83087 5.35727 10.3657 4.10306 13.0816 3.47595C13.0816 3.47595 12.991 3.47595 12.9005 3.47595Z" fill="#A46101"/>
<path d="M11.271 4.01267C8.91722 4.90854 7.2877 5.98358 5.47711 7.59613C5.47711 7.50655 5.47711 7.50655 5.47711 7.50655C5.56764 7.41696 5.65817 7.32738 5.65817 7.32738C7.46876 5.71482 9.4604 4.63978 11.6331 3.8335C11.5426 3.92308 11.3615 4.01267 11.271 4.01267Z" fill="#A05E00"/>
<path d="M9.55093 4.73033C7.9214 5.53661 6.83505 6.34289 5.47711 7.59711V7.50752C5.56764 7.41793 5.65817 7.32835 5.65817 7.32835C6.92558 6.16372 8.28352 5.26785 9.73199 4.64075C9.73199 4.64075 9.64146 4.73033 9.55093 4.73033Z" fill="#9C5C00"/>
<path d="M18.9944 7.42076C22.8872 7.68952 26.8705 9.48126 29.8579 12.6168C35.8328 18.8879 36.0139 28.4736 30.1295 34.028L30.039 34.1176C26.4178 37.4323 22.8872 40.747 19.266 44.0617C15.6448 40.2095 11.9331 36.3572 8.31196 32.5946C2.33703 26.3235 2.15597 16.7378 8.04037 11.1834L8.1309 11.0938C11.1184 8.40622 15.1017 7.152 18.9944 7.42076Z" fill="#C5770F"/>
<path d="M18.0894 13.3998L11.5374 30.5358H14.5374L16.0974 26.2398H23.2734L24.8334 30.5358H27.8334L21.2814 13.3998H18.0894ZM16.9374 23.9358L19.6494 16.4238H19.7454L22.4334 23.9358H16.9374Z" fill="#FAE14D"/>
</svg>
