<svg width="22" height="26" viewBox="0 0 22 26" fill="none" xmlns="http://www.w3.org/2000/svg">
<path d="M10.3475 0.0133819C9.19803 0.0637443 7.55783 0.67229 6.88141 0.970267C6.48228 1.17591 5.58823 1.66527 5.20507 1.97751C4.72612 2.36782 3.94467 2.95958 3.1254 3.81574C2.30614 4.6719 1.48687 5.77987 0.995315 6.66122C0.602068 7.36629 0.201256 9.07022 0.0500054 9.83405C-0.0214176 10.1656 -0.0709936 11.3449 0.302087 13.4098C0.675167 15.4746 2.18849 17.4514 2.89852 18.1816L10.2593 25.9248C12.9019 23.5662 18.3612 18.6475 19.0569 17.8417C19.9266 16.8344 21.4643 15.2606 21.8298 12.6669C22.1222 10.592 21.7752 8.65473 21.5651 7.94546C20.8341 5.6162 19.3972 3.99201 18.4519 3.03512C17.5066 2.07824 15.6664 0.970267 14.2926 0.542187C12.9188 0.114107 11.7844 -0.049571 10.3475 0.0133819Z" fill="#B76E0A"/>
<path d="M19.1151 17.7512C19.2123 17.7027 18.8722 17.2175 18.3379 16.6351L18.3865 16.6837L18.435 16.7322L18.4836 16.7807L18.5322 16.8292L18.5808 16.8778L18.6293 16.9263L18.6779 16.9748L18.7265 17.0719L18.7751 17.1689V17.2175L18.8236 17.3145L18.8722 17.363L18.9208 17.4116L18.9694 17.4601L19.018 17.5086L19.0665 17.5571V17.6057V17.6542L19.1151 17.7512Z" fill="#9C5C00"/>
<path d="M4.7854 2.41663C5.51404 1.78579 7.7971 -0.155285 11.7803 0.0388224C9.25438 -0.106758 6.72843 0.66967 4.7854 2.41663Z" fill="#B36B08"/>
<path d="M11.7803 0.0878334C11.6832 0.13636 11.586 0.0878334 11.5374 0.0878334C9.10865 -0.0092201 6.67986 0.767208 4.7854 2.46564C4.88255 2.36859 4.9797 2.27154 5.07686 2.22301C5.17401 2.07743 5.27116 1.98038 5.36831 1.93185L5.70834 1.68922C5.80549 1.64069 5.95122 1.54364 6.04837 1.49511L6.3884 1.301C6.48555 1.25248 6.63128 1.15542 6.72843 1.10689L7.06846 0.961315C7.16562 0.912788 7.31134 0.864261 7.40849 0.815735L7.74853 0.670154C7.84568 0.621628 7.99141 0.573101 8.13713 0.524574L8.52574 0.427521C8.62289 0.378994 8.76862 0.378994 8.91435 0.330467L9.25438 0.184887C9.35153 0.184887 9.49726 0.13636 9.64298 0.13636L10.0316 0.0878334C10.1287 0.0878334 10.323 0.0393066 10.4202 0.0393066H10.8088C10.906 0.0393066 11.1003 0.0393066 11.1974 0.0393066H11.586L11.7803 0.0878334C11.7803 0.0393066 11.7803 0.0878334 11.7803 0.0878334Z" fill="#B36B08"/>
<path d="M11.7803 0.0878334C11.4889 0.184887 11.1974 0.0878334 10.8574 0.0878334C8.62289 0.13636 6.48555 0.912788 4.7854 2.46564C4.88255 2.36859 4.9797 2.27154 5.07686 2.22301C5.17401 2.07743 5.27116 1.98038 5.36831 1.93185L5.70834 1.68922C5.80549 1.64069 5.95122 1.54364 6.04837 1.49511L6.3884 1.301C6.48555 1.25248 6.63128 1.15542 6.72843 1.10689L7.06846 0.961315C7.16562 0.912788 7.31134 0.864261 7.40849 0.815735L7.74853 0.670154C7.84568 0.621628 7.99141 0.573101 8.13713 0.524574L8.52574 0.427521C8.62289 0.378994 8.76862 0.378994 8.91435 0.330467L9.25438 0.184887C9.35153 0.184887 9.49726 0.13636 9.64298 0.13636L10.0316 0.0878334C10.1287 0.0878334 10.323 0.0393066 10.4202 0.0393066H10.8088C10.906 0.0393066 11.1003 0.0393066 11.1974 0.0393066H11.586L11.7803 0.0878334Z" fill="#B06906"/>
<path d="M11.7803 0.0878334C11.246 0.13636 10.7117 0.0393066 10.2259 0.0878334C8.23428 0.28194 6.33983 1.00984 4.7854 2.41712C4.88255 2.32006 4.9797 2.22301 5.07686 2.17448C5.17401 2.07743 5.27116 1.98038 5.36831 1.93185L5.70834 1.68922C5.80549 1.64069 5.95122 1.54364 6.04837 1.49511L6.3884 1.301C6.48555 1.25248 6.63128 1.15542 6.72843 1.1069L7.06846 0.961315C7.16562 0.912788 7.31134 0.864261 7.40849 0.815735L7.74853 0.670154C7.84568 0.621628 7.99141 0.573101 8.13713 0.524574L8.52574 0.427521C8.62289 0.378994 8.76862 0.378994 8.91435 0.330467L9.25438 0.184887C9.35153 0.184887 9.49726 0.13636 9.64298 0.13636L10.0316 0.0878334C10.1287 0.0878334 10.323 0.0393066 10.4202 0.0393066H10.8088C10.906 0.0393066 11.1003 0.0393066 11.1974 0.0393066H11.586L11.7803 0.0878334Z" fill="#AC6605"/>
<path d="M11.7801 0.0878334C9.69131 0.13636 9.69131 0.13636 9.497 0.184887C7.74827 0.476047 6.0967 1.20395 4.73657 2.41712C4.83372 2.32006 4.93088 2.22301 5.02803 2.17448C5.17375 2.07743 5.27091 1.98038 5.36806 1.93185L5.70809 1.68922C5.80524 1.64069 5.95097 1.54364 6.04812 1.49511L6.38815 1.301C6.4853 1.25248 6.63103 1.15542 6.72818 1.1069L7.06821 0.961315C7.16536 0.912788 7.31109 0.864261 7.40824 0.815735L7.74827 0.670154C7.84543 0.621628 7.99115 0.573101 8.13688 0.524574L8.52549 0.427521C8.62264 0.378994 8.76837 0.378994 8.91409 0.330467L9.25412 0.184887C9.35128 0.184887 9.497 0.13636 9.64273 0.13636L10.0313 0.0878334C10.1285 0.0878334 10.3228 0.0393066 10.4199 0.0393066H10.8086C10.9057 0.0393066 11.1 0.0393066 11.1972 0.0393066H11.5858L11.7801 0.0878334Z" fill="#A86403"/>
<path d="M11.2946 0.0393066C10.6145 0.0393066 9.83729 0.0393066 8.76862 0.330467C7.31134 0.670154 5.95122 1.39806 4.7854 2.41712C4.88255 2.32006 4.9797 2.22301 5.07686 2.17448C5.17401 2.07743 5.27116 1.98038 5.36831 1.93185L5.70834 1.68922C5.80549 1.64069 5.95122 1.54364 6.04837 1.49511L6.3884 1.301C6.48555 1.25248 6.63128 1.15542 6.72843 1.1069L7.06846 0.961315C7.16562 0.912788 7.31134 0.864261 7.4085 0.815735L7.74853 0.670154C7.84568 0.621628 7.99141 0.573101 8.13713 0.524574L8.52574 0.427521C8.62289 0.378994 8.76862 0.378994 8.91435 0.330467L9.25438 0.184887C9.35153 0.184887 9.49726 0.13636 9.64298 0.13636L10.0316 0.0878334C10.1287 0.0878334 10.323 0.0393066 10.4202 0.0393066H10.8088C10.906 0.0393066 11.1003 0.0393066 11.1974 0.0393066C11.1974 0.0393066 11.246 0.0393066 11.2946 0.0393066Z" fill="#A46101"/>
<path d="M9.74014 0.136353C9.44868 0.184879 8.81719 0.281933 7.94283 0.573093C6.82558 0.961307 5.70834 1.54363 4.7854 2.41711C4.88255 2.32006 4.9797 2.223 5.07686 2.17448C5.17401 2.07742 5.27116 1.98037 5.36831 1.93184L5.70834 1.68921C5.80549 1.64068 5.95122 1.54363 6.04837 1.4951L6.3884 1.30099C6.48555 1.25247 6.63128 1.15541 6.72843 1.10689L7.06846 0.961307C7.16562 0.91278 7.31134 0.864254 7.40849 0.815727L7.74853 0.670147C7.84568 0.62162 7.99141 0.573093 8.13713 0.524567L8.52574 0.427513C8.62289 0.378986 8.76862 0.378986 8.91435 0.33046L9.25438 0.184879C9.35153 0.184879 9.49726 0.136353 9.64298 0.136353C9.69156 0.136353 9.74014 0.136353 9.78871 0.136353C9.78871 0.136353 9.74014 0.136353 9.74014 0.136353Z" fill="#A05E00"/>
<path d="M7.99141 0.524292C7.6028 0.669872 7.35992 0.766926 6.97131 0.912506C6.1941 1.30072 5.41689 1.78599 4.7854 2.36831C4.88255 2.27125 4.9797 2.1742 5.07686 2.12567C5.17401 2.07715 5.27116 1.98009 5.36831 1.93157L5.70834 1.68893C5.80549 1.64041 5.95122 1.54335 6.04837 1.49483L6.3884 1.30072C6.48555 1.25219 6.63128 1.15514 6.72843 1.10661L7.06846 0.961033C7.16562 0.912506 7.31134 0.863979 7.4085 0.815452L7.74853 0.669872L8.03998 0.524292H7.99141Z" fill="#9C5C00"/>
<path d="M4.20237 17.3145L10.08 23.5259C10.08 23.6229 10.08 23.72 10.08 23.817L9.74001 23.4773L9.44856 23.1377L9.10853 22.8465L8.81707 22.5068L8.52562 22.1671L8.23416 21.8274L7.94271 21.4878L7.65125 21.1481L7.31122 20.9054L7.01977 20.5657L6.72831 20.2261L6.38828 19.9349L6.09683 19.6437L5.80537 19.3526L5.51392 19.0614L5.22246 18.7703L4.93101 18.4791L4.63955 18.1879L4.3481 17.8968L4.05664 17.6056C4.10522 17.4115 4.15379 17.363 4.20237 17.3145Z" fill="#BB700C"/>
<path d="M4.05661 17.4114L10.08 23.8169C10.08 23.914 10.08 24.0595 10.08 24.1566L3.8623 17.6055C3.91088 17.557 3.95946 17.5084 4.05661 17.4114Z" fill="#B76E0A"/>
<path d="M3.86204 17.6056L10.0797 24.2052C10.0797 24.3023 10.0797 24.4479 10.0797 24.5449L3.71631 17.7512C3.76488 17.7026 3.81346 17.6541 3.86204 17.6056Z" fill="#B36B08"/>
<path d="M3.71653 17.751L10.08 24.4962C10.08 24.5932 10.08 24.6903 10.08 24.7874L9.73993 24.3991L9.35133 24.0109L8.96272 23.6227L8.62269 23.2345L8.28266 22.8463L7.94263 22.4581L7.60259 22.1184L7.26256 21.7787L6.92253 21.3905L6.5825 21.0508L6.24247 20.7111L5.95102 20.4199L5.65956 20.0803L5.36811 19.7406L5.07665 19.4494L4.7852 19.1097L4.49374 18.8186L4.15371 18.4789L3.86226 18.1877L3.5708 17.8966C3.61938 17.848 3.66795 17.7995 3.71653 17.751Z" fill="#B06906"/>
<path d="M3.57078 17.8964L10.0799 24.7872C10.0799 24.8842 10.0799 24.9813 10.0799 25.0298L3.47363 17.9934C3.47363 17.9449 3.52221 17.8964 3.57078 17.8964Z" fill="#AC6605"/>
<path d="M3.47385 17.9935L10.1287 25.0299C10.1287 25.127 10.1287 25.1755 10.1287 25.2725L3.32812 18.0906C3.3767 18.0421 3.42528 18.0421 3.47385 17.9935Z" fill="#A86403"/>
<path d="M3.32811 18.0906L10.1287 25.2725C10.1287 25.3211 10.1287 25.4181 10.1287 25.4666L3.23096 18.1876C3.27953 18.1391 3.32811 18.1391 3.32811 18.0906Z" fill="#A46101"/>
<path d="M3.27928 18.1877L10.177 25.4668C10.177 25.5153 10.177 25.5638 10.177 25.6609L3.18213 18.2363C3.2307 18.2363 3.2307 18.1877 3.27928 18.1877Z" fill="#A05E00"/>
<path d="M3.1821 18.236L10.177 25.612C10.177 25.8061 10.2256 25.9517 10.2742 25.9517L9.78841 25.4179L9.30265 24.9327L8.86547 24.4474L8.42829 24.0106L8.03968 23.5739L7.65107 23.1372L7.26247 22.7489L6.87386 22.3607L6.53383 21.9725L6.1938 21.5843L5.85377 21.2446L5.51374 20.9049L5.17371 20.5652L4.88225 20.2256L4.5908 19.8859L4.29934 19.5462L4.00789 19.2065L3.71643 18.9153L3.42498 18.6242L3.13352 18.333C3.03637 18.3815 3.08495 18.333 3.1821 18.236Z" fill="#9C5C00"/>
<path d="M11.7798 0.0877296C18.0461 0.670051 20.572 5.52273 21.2035 7.02705C21.9321 8.82254 23.2437 13.5296 19.1633 17.8C23.0008 14.112 22.9522 7.75496 18.969 3.58166C16.9288 1.39795 14.3543 0.23331 11.7798 0.0877296C11.7798 0.0877296 11.7798 0.0392028 11.7798 0.0877296Z" fill="#D58014"/>
<path d="M19.8919 4.64892C19.6491 4.35776 19.2605 3.82396 18.5804 3.14459C16.6374 1.25204 14.2086 0.232983 11.7798 0.0874023C11.8769 0.0874023 12.0712 0.0874023 12.1684 0.135929C12.2655 0.135929 12.4598 0.184456 12.557 0.184456L12.9456 0.232983C13.0428 0.232983 13.2371 0.281509 13.3342 0.330036L13.7228 0.42709C13.82 0.475616 14.0143 0.524143 14.1114 0.524143L14.5 0.669723C14.5972 0.71825 14.7429 0.766777 14.8886 0.815304L15.2772 0.960884C15.3258 0.960884 15.4715 1.00941 15.5687 1.05794L15.9087 1.25204C16.0059 1.30057 16.1516 1.39762 16.2488 1.44615L16.5888 1.64026C16.6859 1.68878 16.8317 1.78584 16.9288 1.88289L17.2689 2.12553C17.366 2.22258 17.5117 2.31963 17.6089 2.36816L17.9975 2.61079C18.0946 2.70785 18.2404 2.8049 18.3375 2.90195L18.629 3.19311C18.7261 3.29017 18.8719 3.43575 18.969 3.5328L19.5519 4.16365C19.6976 4.35776 19.8919 4.64892 20.0377 4.84302L20.4749 5.5224C20.572 5.7165 20.7663 6.00767 20.8635 6.2503L21.2035 6.9782C21.3006 7.22083 21.3978 7.51199 21.495 7.75463L21.6893 8.53106C21.7378 8.77369 21.7864 9.06485 21.835 9.30748L21.9321 10.0839C21.9321 10.3265 21.9807 10.6177 21.9807 10.8603V11.6368C21.9807 11.8794 21.9321 12.1706 21.8836 12.4132L21.7378 13.1411C21.6893 13.3837 21.5921 13.6749 21.5435 13.869L21.3006 14.5969C21.2035 14.791 21.1063 15.0822 20.9606 15.2763L20.572 15.9556C20.4263 16.1498 20.2806 16.3924 20.1348 16.5865L19.6491 17.1688C19.5033 17.3629 19.2605 17.6056 19.1147 17.7511C22.6608 14.4028 22.9037 8.77369 19.8919 4.64892Z" fill="#D58014"/>
<path d="M20.8149 6.20177C19.9405 4.50334 18.6776 3.04753 17.1231 1.97995C15.4715 0.86383 13.6257 0.184456 11.7798 0.0874023C11.8769 0.0874023 12.0712 0.0874023 12.1684 0.135929C12.2655 0.135929 12.4598 0.184456 12.557 0.184456L12.9456 0.232983C13.0428 0.232983 13.2371 0.281509 13.3342 0.330036L13.7228 0.42709C13.82 0.475616 14.0143 0.524143 14.1114 0.524143L14.5 0.669723C14.5972 0.71825 14.7429 0.766777 14.8886 0.815304L15.2772 0.960884C15.3258 0.960884 15.4715 1.00941 15.5687 1.05794L15.9087 1.25204C16.0059 1.30057 16.1516 1.39762 16.2488 1.44615L16.5888 1.64026C16.6859 1.68878 16.8317 1.78584 16.9288 1.88289L17.2689 2.12553C17.366 2.22258 17.5117 2.31963 17.6089 2.36816L17.9975 2.61079C18.0946 2.70785 18.2404 2.8049 18.3375 2.90195L18.629 3.19311C18.7261 3.29017 18.8719 3.43575 18.969 3.5328L19.5519 4.16365C19.6976 4.35776 19.8919 4.64892 20.0377 4.84302L20.4749 5.5224C20.572 5.7165 20.7663 6.00767 20.8635 6.2503L21.2035 6.9782C21.3006 7.22083 21.3978 7.51199 21.495 7.75463L21.6893 8.53106C21.7378 8.77369 21.7864 9.06485 21.835 9.30748L21.9321 10.0839C21.9321 10.3265 21.9807 10.6177 21.9807 10.8603V11.6368C21.9807 11.8794 21.9321 12.1706 21.8836 12.4132L21.7378 13.1411C21.6893 13.3837 21.5921 13.6749 21.5435 13.869L21.3006 14.5969C21.2035 14.791 21.1063 15.0822 20.9606 15.2763L20.572 15.9556C20.4263 16.1498 20.2806 16.3924 20.1348 16.5865L19.6491 17.1688C19.5033 17.3629 19.2605 17.6056 19.1147 17.7511C22.2236 14.791 22.7579 10.0839 20.8149 6.20177Z" fill="#D17E13"/>
<path d="M21.2521 7.17201C20.232 4.64861 18.5318 2.70755 16.2488 1.39732C14.8401 0.620895 13.3342 0.184154 11.7798 0.0385742C11.8769 0.0385742 12.0712 0.0385742 12.1684 0.087101C12.2655 0.087101 12.4598 0.135628 12.557 0.135628L12.9456 0.184154C13.0428 0.184154 13.2371 0.232681 13.3342 0.281208L13.7228 0.378261C13.82 0.426788 14.0143 0.475315 14.1114 0.475315L14.5 0.620895C14.5972 0.669422 14.7429 0.717949 14.8886 0.766475L15.2772 0.912056C15.3258 0.960582 15.4715 1.00911 15.5687 1.05764L15.9087 1.25174C16.0059 1.30027 16.1516 1.39732 16.2488 1.44585L16.5888 1.63996C16.6859 1.68848 16.8317 1.78554 16.9288 1.88259L17.2689 2.12522C17.366 2.22228 17.5117 2.31933 17.6089 2.36786L17.9975 2.61049C18.0946 2.70755 18.2404 2.8046 18.3375 2.90165L18.629 3.19281C18.7261 3.28987 18.8719 3.43545 18.969 3.5325L19.5519 4.16335C19.6976 4.35745 19.8919 4.64861 20.0377 4.84272L20.4749 5.5221C20.572 5.7162 20.7663 6.00736 20.8635 6.25L21.2035 6.9779C21.3006 7.22053 21.3978 7.51169 21.495 7.75433L21.6893 8.53075C21.7378 8.77339 21.7864 9.06455 21.835 9.30718L21.9321 10.0836C21.9321 10.3262 21.9807 10.6174 21.9807 10.86V11.6365C21.9807 11.8791 21.9321 12.1703 21.8836 12.4129L21.7378 13.1408C21.6893 13.3834 21.5921 13.6746 21.5435 13.8687L21.3006 14.5966C21.2035 14.7907 21.1063 15.0819 20.9606 15.276L20.572 15.9553C20.4263 16.1495 20.2806 16.3921 20.1348 16.5862L19.6491 17.1685C19.5033 17.3626 19.2605 17.6053 19.1147 17.7508C21.9807 15.0333 22.6608 10.86 21.2521 7.17201Z" fill="#CE7C12"/>
<path d="M21.5438 7.99726C21.0094 6.20177 19.5036 2.90195 15.4232 1.00941C14.2574 0.475616 12.9944 0.135929 11.7314 0.0874023C11.8286 0.0874023 12.0229 0.0874023 12.1201 0.135929C12.2172 0.135929 12.4115 0.184456 12.5087 0.184456L12.8973 0.232983C12.9944 0.232983 13.1887 0.281509 13.2859 0.330036L13.6745 0.42709C13.7716 0.475616 13.9659 0.524143 14.0631 0.524143L14.4517 0.669723C14.5488 0.71825 14.6946 0.766777 14.8403 0.815304L15.2289 0.960884C15.3261 0.960884 15.4718 1.00941 15.5689 1.05794L15.909 1.25204C16.0061 1.30057 16.1518 1.39762 16.249 1.44615L16.589 1.64026C16.6862 1.68878 16.8319 1.78584 16.9291 1.88289L17.2691 2.12553C17.3662 2.22258 17.512 2.31963 17.6091 2.36816L17.9977 2.61079C18.0949 2.70785 18.2406 2.8049 18.3378 2.90195L18.6292 3.19311C18.7264 3.29017 18.8721 3.43575 18.9692 3.5328L19.5522 4.16365C19.6979 4.35776 19.8922 4.64892 20.0379 4.84302L20.4751 5.5224C20.5722 5.7165 20.7666 6.00767 20.8637 6.2503L21.2037 6.9782C21.3009 7.22083 21.398 7.51199 21.4952 7.75463L21.6895 8.53106C21.7381 8.77369 21.7866 9.06485 21.8352 9.30748L21.9324 10.0839C21.9324 10.3265 21.9809 10.6177 21.9809 10.8603V11.6368C21.9809 11.8794 21.9324 12.1706 21.8838 12.4132L21.7381 13.1411C21.6895 13.3837 21.5923 13.6749 21.5438 13.869L21.3009 14.5969C21.2037 14.791 21.1066 15.0822 20.9609 15.2763L20.5722 15.9556C20.4265 16.1498 20.2808 16.3924 20.1351 16.5865L19.6493 17.1688C19.5036 17.3629 19.2607 17.6056 19.115 17.7511C21.7866 15.2277 22.5639 11.4427 21.5438 7.99726Z" fill="#CA7A11"/>
<path d="M21.7378 8.72516C20.912 5.08566 18.2404 2.02847 14.7429 0.71825C13.7714 0.378563 12.7999 0.135929 11.7798 0.0874023C11.8769 0.0874023 12.0712 0.0874023 12.1684 0.135929C12.2655 0.135929 12.4598 0.184456 12.557 0.184456L12.9456 0.232983C13.0428 0.232983 13.2371 0.281509 13.3342 0.330036L13.7228 0.42709C13.82 0.475616 14.0143 0.524143 14.1114 0.524143L14.5 0.669723C14.5972 0.71825 14.7429 0.766777 14.8886 0.815304L15.2772 0.960884C15.3258 0.960884 15.4715 1.00941 15.5687 1.05794L15.9087 1.25204C16.0059 1.30057 16.1516 1.39762 16.2488 1.44615L16.5888 1.64026C16.6859 1.68878 16.8317 1.78584 16.9288 1.88289L17.2689 2.12553C17.366 2.22258 17.5117 2.31963 17.6089 2.36816L17.9975 2.61079C18.0946 2.70785 18.2404 2.8049 18.3375 2.90195L18.629 3.19311C18.7261 3.29017 18.8719 3.43575 18.969 3.5328L19.5519 4.16365C19.6976 4.35776 19.8919 4.64892 20.0377 4.84302L20.4749 5.5224C20.572 5.7165 20.7663 6.00767 20.8635 6.2503L21.2035 6.9782C21.3006 7.22083 21.3978 7.51199 21.495 7.75463L21.6893 8.53106C21.7378 8.77369 21.7864 9.06485 21.835 9.30748L21.9321 10.0839C21.9321 10.3265 21.9807 10.6177 21.9807 10.8603V11.6368C21.9807 11.8794 21.9321 12.1706 21.8836 12.4132L21.7378 13.1411C21.6893 13.3837 21.5921 13.6749 21.5435 13.869L21.3006 14.5969C21.2035 14.791 21.1063 15.0822 20.9606 15.2763L20.572 15.9556C20.4263 16.1498 20.2806 16.3924 20.1348 16.5865L19.6491 17.1688C19.5033 17.3629 19.2605 17.6056 19.1147 17.7511C21.5921 15.4219 22.4179 11.9765 21.7378 8.72516Z" fill="#C67710"/>
<path d="M21.835 9.40423C21.1549 5.18241 18.1432 1.68848 14.0628 0.475315C13.2856 0.232681 12.557 0.087101 11.7798 0.0385742C11.8769 0.0385742 12.0712 0.0385742 12.1684 0.087101C12.2655 0.087101 12.4598 0.135628 12.557 0.135628L12.9456 0.184154C13.0428 0.184154 13.2371 0.232681 13.3342 0.281208L13.7228 0.378261C13.82 0.426788 14.0143 0.475315 14.1114 0.475315L14.5 0.620895C14.5972 0.669422 14.7429 0.717949 14.8886 0.766475L15.2772 0.912056C15.3258 0.960582 15.4715 1.00911 15.5687 1.05764L15.9087 1.25174C16.0059 1.30027 16.1516 1.39732 16.2488 1.44585L16.5888 1.63996C16.6859 1.68848 16.8317 1.78554 16.9288 1.88259L17.2689 2.12522C17.366 2.22228 17.5117 2.31933 17.6089 2.36786L17.9975 2.61049C18.0946 2.70755 18.2404 2.8046 18.3375 2.90165L18.629 3.19281C18.7261 3.28987 18.8719 3.43545 18.969 3.5325L19.5519 4.16335C19.6976 4.35745 19.8919 4.64861 20.0377 4.84272L20.4749 5.5221C20.572 5.7162 20.7663 6.00736 20.8635 6.25L21.2035 6.9779C21.3006 7.22053 21.3978 7.51169 21.495 7.75433L21.6893 8.53075C21.7378 8.77339 21.7864 9.06455 21.835 9.30718L21.9321 10.0836C21.9321 10.3262 21.9807 10.6174 21.9807 10.86V11.6365C21.9807 11.8791 21.9321 12.1703 21.8836 12.4129L21.7378 13.1408C21.6893 13.3834 21.5921 13.6746 21.5435 13.8687L21.3006 14.5966C21.2035 14.7907 21.1063 15.0819 20.9606 15.276L20.572 15.9553C20.4263 16.1495 20.2806 16.3921 20.1348 16.5862L19.6491 17.1685C19.5033 17.3626 19.2605 17.6053 19.1147 17.7508C21.3978 15.5671 22.3207 12.4614 21.835 9.40423Z" fill="#C3750E"/>
<path d="M21.9321 10.0839C21.4949 5.37682 17.9975 1.3491 13.4314 0.330036C12.897 0.184456 12.3627 0.135929 11.7798 0.0874023C11.8769 0.0874023 12.0712 0.0874023 12.1684 0.135929C12.2655 0.135929 12.4598 0.184456 12.557 0.184456L12.9456 0.232983C13.0428 0.232983 13.2371 0.281509 13.3342 0.330036L13.7228 0.42709C13.82 0.475616 14.0143 0.524143 14.1114 0.524143L14.5 0.669723C14.5972 0.71825 14.7429 0.766777 14.8886 0.815304L15.2772 0.960884C15.3258 0.960884 15.4715 1.00941 15.5687 1.05794L15.9087 1.25204C16.0059 1.30057 16.1516 1.39762 16.2488 1.44615L16.5888 1.64026C16.6859 1.68878 16.8317 1.78584 16.9288 1.88289L17.2689 2.12553C17.366 2.22258 17.5117 2.31963 17.6089 2.36816L17.9975 2.61079C18.0946 2.70785 18.2404 2.8049 18.3375 2.90195L18.629 3.19311C18.7261 3.29017 18.8719 3.43575 18.969 3.5328L19.5519 4.16365C19.6976 4.35776 19.8919 4.64892 20.0377 4.84302L20.4749 5.5224C20.572 5.7165 20.7663 6.00767 20.8635 6.2503L21.2035 6.9782C21.3006 7.22083 21.3978 7.51199 21.495 7.75463L21.6893 8.53106C21.7378 8.77369 21.7864 9.06485 21.835 9.30748L21.9321 10.0839C21.9321 10.278 21.9807 10.6177 21.9807 10.8603V11.6368C21.9807 11.8794 21.9321 12.1706 21.8836 12.4132L21.7378 13.1411C21.6893 13.3837 21.5921 13.6749 21.5435 13.869L21.3006 14.5969C21.2035 14.791 21.1063 15.0822 20.9606 15.2763L20.572 15.9556C20.4263 16.1498 20.2806 16.3924 20.1348 16.5865L19.6491 17.1688C19.5033 17.3629 19.2605 17.6056 19.1147 17.7511C21.2521 15.7615 22.175 12.8985 21.9321 10.0839Z" fill="#BF730D"/>
<path d="M21.9809 10.7148C21.8352 5.5224 17.852 1.00941 12.7515 0.184456C12.4115 0.135929 12.0715 0.0874023 11.7314 0.0874023C11.8286 0.0874023 12.0229 0.0874023 12.1201 0.135929C12.2172 0.135929 12.4115 0.184456 12.5087 0.184456L12.8973 0.232983C12.9944 0.232983 13.1887 0.281509 13.2859 0.330036L13.6745 0.42709C13.7716 0.475616 13.9659 0.524143 14.0631 0.524143L14.4517 0.669723C14.5488 0.71825 14.6946 0.766777 14.8403 0.815304L15.2289 0.960884C15.3261 0.960884 15.4718 1.00941 15.5689 1.05794L15.909 1.25204C16.0061 1.30057 16.1518 1.39762 16.249 1.44615L16.589 1.64026C16.6862 1.68878 16.8319 1.78584 16.9291 1.88289L17.2691 2.12553C17.3662 2.22258 17.512 2.31963 17.6091 2.36816L17.9977 2.61079C18.0949 2.70785 18.2406 2.8049 18.3378 2.90195L18.6292 3.19311C18.7264 3.29017 18.8721 3.43575 18.9692 3.5328L19.5522 4.16365C19.6979 4.35776 19.8922 4.64892 20.0379 4.84302L20.4751 5.5224C20.5722 5.7165 20.7666 6.00767 20.8637 6.2503L21.2037 6.9782C21.3009 7.22083 21.398 7.51199 21.4952 7.75463L21.6895 8.53106C21.7381 8.77369 21.7866 9.06485 21.8352 9.30748L21.9324 10.0839C21.9324 10.3265 21.9809 10.6177 21.9809 10.8603V11.6368C21.9809 11.8794 21.9324 12.1706 21.8838 12.4132L21.7381 13.1411C21.6895 13.3837 21.5923 13.6749 21.5438 13.869L21.3009 14.5969C21.2037 14.791 21.1066 15.0822 20.9609 15.2763L20.5722 15.9556C20.4265 16.1498 20.2808 16.3924 20.1351 16.5865L19.6493 17.1688C19.5036 17.3629 19.2607 17.6056 19.115 17.7511C21.1066 15.9071 22.0295 13.3352 21.9809 10.7148Z" fill="#BB700C"/>
<path d="M21.9324 11.3456C22.1267 5.7165 17.8034 0.766777 12.1201 0.135929C11.9743 0.135929 11.8772 0.135929 11.7314 0.0874023C11.8286 0.0874023 12.0229 0.0874023 12.1201 0.135929C12.2172 0.135929 12.4115 0.184456 12.5087 0.184456L12.8973 0.232983C12.9944 0.232983 13.1887 0.281509 13.2859 0.330036L13.6745 0.42709C13.7716 0.475616 13.9659 0.524143 14.0631 0.524143L14.4517 0.669723C14.5488 0.71825 14.6946 0.766777 14.8403 0.815304L15.2289 0.960884C15.3261 0.960884 15.4718 1.00941 15.5689 1.05794L15.909 1.25204C16.0061 1.30057 16.1518 1.39762 16.249 1.44615L16.589 1.64026C16.6862 1.68878 16.8319 1.78584 16.9291 1.88289L17.2691 2.12553C17.3662 2.22258 17.512 2.31963 17.6091 2.36816L17.9977 2.61079C18.0949 2.70785 18.2406 2.8049 18.3378 2.90195L18.6292 3.19311C18.7264 3.29017 18.8721 3.43575 18.9692 3.5328L19.5522 4.16365C19.6979 4.35776 19.8922 4.64892 20.0379 4.84302L20.4751 5.5224C20.5722 5.7165 20.7666 6.00767 20.8637 6.2503L21.2037 6.9782C21.3009 7.22083 21.398 7.51199 21.4952 7.75463L21.6895 8.53106C21.7381 8.77369 21.7866 9.06485 21.8352 9.30748L21.9324 10.0839C21.9324 10.3265 21.9809 10.6177 21.9809 10.8603V11.6368C21.9809 11.8794 21.9324 12.1706 21.8838 12.4132L21.7381 13.1411C21.6895 13.3837 21.5923 13.6749 21.5438 13.869L21.3009 14.5969C21.2037 14.791 21.1066 15.0822 20.9609 15.2763L20.5722 15.9556C20.4265 16.1498 20.2808 16.3924 20.1351 16.5865L19.6493 17.1688C19.5036 17.3629 19.2607 17.6056 19.115 17.7511C20.9123 16.0527 21.8838 13.7234 21.9324 11.3456Z" fill="#B76E0A"/>
<path d="M21.9321 11.9765C22.515 6.00767 17.8518 0.57267 11.7798 0.0874023H12.1684C12.2655 0.0874023 12.4598 0.135929 12.557 0.135929L12.9456 0.184456C13.0428 0.184456 13.2371 0.232983 13.3342 0.281509L13.7228 0.378563C13.82 0.42709 14.0143 0.475616 14.1114 0.475616L14.5 0.621197C14.5972 0.669723 14.7429 0.71825 14.8886 0.766777L15.2772 0.912357C15.3258 0.960884 15.4715 1.00941 15.5687 1.05794L15.9087 1.25204C16.0059 1.30057 16.1516 1.39762 16.2488 1.44615L16.5888 1.64026C16.6859 1.68878 16.8317 1.78584 16.9288 1.88289L17.2689 2.12553C17.366 2.22258 17.5117 2.31963 17.6089 2.36816L17.9975 2.61079C18.0946 2.70785 18.2404 2.8049 18.3375 2.90195L18.629 3.19311C18.7261 3.29017 18.8719 3.43575 18.969 3.5328L19.5519 4.16365C19.6976 4.35776 19.8919 4.64892 20.0377 4.84302L20.4749 5.5224C20.572 5.7165 20.7663 6.00767 20.8635 6.2503L21.2035 6.9782C21.3006 7.22083 21.3978 7.51199 21.495 7.75463L21.6893 8.53106C21.7378 8.77369 21.7864 9.06485 21.835 9.30748L21.9321 10.0839C21.9321 10.3265 21.9807 10.6177 21.9807 10.8603V11.6368C21.9807 11.8794 21.9321 12.1706 21.8836 12.4132L21.7378 13.1411C21.6893 13.3837 21.5921 13.6749 21.5435 13.869L21.3006 14.5969C21.2035 14.791 21.1063 15.0822 20.9606 15.2763L20.572 15.9556C20.4263 16.1498 20.2806 16.3924 20.1348 16.5865L19.6491 17.1688C19.5033 17.3629 19.2605 17.6056 19.1147 17.7511C20.7663 16.1983 21.6893 14.1116 21.9321 11.9765Z" fill="#B36B08"/>
<path d="M16.0545 1.30027C14.5972 0.572368 13.3342 0.184154 11.7798 0.0385742L12.1684 0.087101C12.2655 0.087101 12.4598 0.135628 12.557 0.135628L12.9456 0.184154C13.0428 0.184154 13.2371 0.232681 13.3342 0.281208L13.7228 0.378261C13.82 0.426788 14.0143 0.475315 14.1114 0.475315L14.5 0.620895C14.5972 0.669422 14.7429 0.717949 14.8886 0.766475L15.2772 0.912056C15.3258 0.960582 15.4715 1.00911 15.5687 1.05764L15.9087 1.25174L16.2002 1.39732L16.0545 1.30027Z" fill="#B06906"/>
<path d="M21.8355 12.6072C22.2727 10.0838 21.5926 8.1427 21.3497 7.41479C21.4469 7.75448 21.5926 8.19122 21.6898 8.48238C21.7383 8.72502 21.7869 9.01618 21.8355 9.25881L21.9326 10.0352C21.9326 10.2779 21.9812 10.569 21.9812 10.8117V11.5881C21.9812 11.8307 21.9326 12.1219 21.8841 12.3645L21.7383 13.0924C21.6898 13.3351 21.5926 13.6262 21.544 13.8203L21.3011 14.5482C21.204 14.7423 21.1068 15.0335 20.9611 15.2276L20.5725 15.907C20.4268 16.1011 20.2811 16.3437 20.1353 16.5378L19.6496 17.1201C19.5038 17.3142 19.261 17.5569 19.1152 17.7025C20.6211 16.3437 21.4955 14.5482 21.8355 12.6072Z" fill="#B06906"/>
<path d="M14.1114 0.524143C13.2371 0.281509 12.6542 0.184456 11.7798 0.0874023H12.1684C12.2655 0.0874023 12.4598 0.135929 12.557 0.135929L12.9456 0.184456C13.0428 0.184456 13.2371 0.232983 13.3342 0.281509L13.7228 0.378563C13.82 0.42709 13.9657 0.475616 14.1114 0.524143C14.16 0.524143 14.2572 0.57267 14.3543 0.57267C14.3057 0.57267 14.2086 0.524143 14.1114 0.524143Z" fill="#AC6605"/>
<path d="M21.6898 13.238C22.1269 11.4425 21.9326 10.0837 21.8355 9.35583L21.9326 10.1323L21.9812 10.8602V11.6366C21.9812 11.8792 21.9326 12.1704 21.8841 12.413L21.7383 13.1409C21.6898 13.3836 21.5926 13.6747 21.544 13.8688L21.3011 14.5967C21.204 14.7908 21.1068 15.082 20.9611 15.2761L20.5725 15.9555C20.4268 16.1496 20.2811 16.3922 20.1353 16.5863L19.6496 17.1686C19.5038 17.3627 19.261 17.6054 19.1152 17.751C20.4268 16.4893 21.3011 14.9364 21.6898 13.238Z" fill="#AC6605"/>
<path d="M12.7999 0.183545C12.3627 0.135474 12.0712 0.0874023 11.7798 0.0874023H12.1684C12.2655 0.0874023 12.4598 0.135474 12.557 0.135474C12.6056 0.135474 12.7027 0.183545 12.7999 0.183545Z" fill="#A86403"/>
<path d="M21.544 13.8686C21.9812 12.4613 21.9812 11.4422 21.9812 10.9084L21.9326 11.6849L21.8841 12.3642L21.7383 13.0922C21.6898 13.3348 21.5926 13.6259 21.544 13.8686L21.3011 14.548C21.204 14.7421 21.1068 15.0332 20.9611 15.2273L20.5725 15.9067C20.4268 16.1008 20.2811 16.3434 20.1353 16.5375L19.6496 17.1199C19.5038 17.314 19.261 17.5566 19.1152 17.7022C20.2811 16.6831 21.0583 15.3244 21.544 13.8686Z" fill="#A86403"/>
<path d="M21.3009 14.5967L21.3495 14.4511C21.6895 13.5291 21.6895 13.5291 21.8838 12.51L21.7381 13.2379L21.5924 13.8688L21.3009 14.5967C21.2038 14.7908 21.1066 15.0819 21.0095 15.276L20.6208 15.9554C20.4751 16.1495 20.3294 16.3921 20.1837 16.5863L19.6979 17.1686C19.5522 17.3627 19.3093 17.6053 19.1636 17.7509C20.0865 16.8289 20.8152 15.7613 21.3009 14.5967Z" fill="#A46101"/>
<path d="M20.9125 15.3245C21.2526 14.6937 21.3983 14.2084 21.4955 13.9172L21.2526 14.6451L20.9611 15.276L20.5725 15.9554C20.4268 16.1495 20.2811 16.3921 20.1353 16.5862L19.6496 17.1685C19.5038 17.3626 19.261 17.6053 19.1152 17.7508C19.8924 17.0229 20.4754 16.2465 20.9125 15.3245Z" fill="#A05E00"/>
<path d="M20.4268 16.2467C20.4268 16.2467 20.7182 15.7614 20.864 15.5188L20.4268 16.1496L20.1353 16.5379L19.6496 17.1202C19.5038 17.3143 19.261 17.5569 19.1152 17.7025C19.601 17.3143 20.0382 16.7805 20.4268 16.2467Z" fill="#9C5C00"/>
<path d="M17.415 19.304L19.1152 17.7511L17.415 19.304Z" fill="#9B5C00"/>
<path d="M3.03646 18.382C2.21067 17.46 0.0733347 14.9852 0.0247589 11.103C-0.0238169 7.17235 2.06494 4.98865 2.84216 4.1637C2.74501 4.26075 3.27934 4.94012 4.00798 5.71655C0.850548 8.72521 0.947699 13.9176 4.1537 17.3144C3.52222 17.8968 3.03646 18.382 3.03646 18.382Z" fill="#B76E0A"/>
<path d="M3.23067 4.7459C3.23067 4.79442 3.1821 4.79442 3.1821 4.84295C0.607576 9.69562 0.899031 13.966 4.05646 17.4599C3.47355 17.9937 3.08494 18.3819 3.08494 18.4304C2.93922 18.2363 2.69634 17.9937 2.50203 17.7996C2.35631 17.6055 2.162 17.3143 2.01628 17.1202L1.57909 16.4408C1.48194 16.2467 1.28764 15.9556 1.19049 15.7129L0.850456 14.985C0.753304 14.7424 0.656152 14.4512 0.559001 14.2086L0.364697 13.4322C0.316121 13.1895 0.267546 12.8984 0.21897 12.6558L0.121818 11.8793C0.121818 11.6367 0.0732422 11.3455 0.0732422 11.1029V10.3265C0.0732422 10.0838 0.121818 9.79268 0.170394 9.55004L0.267546 8.77361C0.316121 8.53098 0.413273 8.23982 0.461849 8.04571L0.704728 7.31781C0.80188 7.12371 0.899031 6.83255 1.04476 6.63844L1.43337 5.95906C1.57909 5.76496 1.72482 5.52232 1.87055 5.32822L2.35631 4.7459C2.50203 4.55179 2.74491 4.30915 2.89064 4.16357C2.84206 4.16357 2.93922 4.40621 3.23067 4.7459Z" fill="#B76E0A"/>
<path d="M3.03636 4.45473C3.03636 4.50326 2.98778 4.50326 2.98778 4.50326C2.25915 5.4738 0.947599 8.14277 1.1419 11.2485C1.38478 14.7909 3.27924 16.8776 3.86215 17.557C3.37639 18.0422 3.03636 18.3334 3.03636 18.3334C2.89063 18.1393 2.64775 17.8966 2.45345 17.7025C2.30772 17.5084 2.11342 17.2173 1.96769 17.0232L1.53051 16.3438C1.43336 16.1497 1.23905 15.8585 1.1419 15.6159L0.801871 14.888C0.70472 14.6454 0.607568 14.3542 0.510417 14.1116L0.316113 13.3351C0.267537 13.0925 0.218962 12.8013 0.170386 12.5587L0.073234 11.7823C0.073234 11.5396 0.0246582 11.2485 0.0246582 11.0058V10.2294C0.0246582 9.98678 0.073234 9.69562 0.12181 9.45299L0.267537 8.77361C0.316113 8.53098 0.413265 8.23982 0.461841 8.04571L0.70472 7.31781C0.801871 7.12371 0.899023 6.83255 1.04475 6.63844L1.43336 5.95906C1.57908 5.76496 1.72481 5.52232 1.87054 5.32822L2.3563 4.7459C2.50203 4.55179 2.7449 4.30915 2.89063 4.16357C2.84206 4.16357 2.89063 4.30915 3.03636 4.45473Z" fill="#B36B08"/>
<path d="M2.93922 4.35768C2.93922 4.40621 2.84206 4.45473 2.84206 4.50326C1.53052 6.05612 0.753304 8.67656 0.899031 11.0058C1.09333 14.4027 2.64776 16.4408 3.76501 17.7025C3.3764 18.0907 3.08494 18.3334 3.08494 18.3334C2.93922 18.1393 2.69634 17.8966 2.50203 17.7025C2.35631 17.5084 2.162 17.2173 2.01628 17.0232L1.57909 16.3438C1.48194 16.1497 1.28764 15.8585 1.19049 15.6159L0.850456 14.888C0.753304 14.6454 0.656152 14.3542 0.559001 14.1116L0.364697 13.3351C0.316121 13.0925 0.267546 12.8013 0.21897 12.5587L0.121818 11.7823C0.121818 11.5396 0.0732422 11.2485 0.0732422 11.0058V10.2294C0.0732422 9.98678 0.121818 9.69562 0.170394 9.45299L0.267546 8.77361C0.316121 8.53098 0.413273 8.23982 0.461849 8.04571L0.704728 7.31781C0.80188 7.12371 0.899031 6.83255 1.04476 6.63844L1.43337 5.95906C1.57909 5.76496 1.72482 5.52232 1.87055 5.32822L2.35631 4.7459C2.50203 4.55179 2.74491 4.30915 2.89064 4.16357C2.84206 4.16357 2.89064 4.26063 2.93922 4.35768Z" fill="#B06906"/>
<path d="M2.89063 4.30915C2.89063 4.35768 2.79348 4.40621 2.7449 4.45473C1.87054 5.42527 0.461841 7.56045 0.656144 11.2485C0.753296 12.8984 1.28763 15.3733 3.57069 17.8966C3.23066 18.1878 3.03636 18.3819 3.03636 18.3819C2.89063 18.1878 2.64775 17.9452 2.45345 17.7511C2.30772 17.557 2.11342 17.2658 1.96769 17.0717L1.53051 16.3923C1.43336 16.1982 1.23905 15.907 1.1419 15.6644L0.801871 14.9365C0.70472 14.6939 0.607568 14.4027 0.510417 14.1601L0.316113 13.3837C0.267537 13.141 0.218962 12.8499 0.170386 12.6072L0.073234 11.8308C0.073234 11.5882 0.0246582 11.297 0.0246582 11.0544V10.2779C0.0246582 10.0353 0.073234 9.74415 0.12181 9.50152L0.267537 8.77361C0.316113 8.53098 0.413265 8.23982 0.461841 8.04571L0.70472 7.31781C0.801871 7.12371 0.899023 6.83255 1.04475 6.63844L1.43336 5.95906C1.57908 5.76496 1.72481 5.52232 1.87054 5.32822L2.3563 4.7459C2.50203 4.55179 2.7449 4.30915 2.89063 4.16357C2.84206 4.16357 2.84206 4.2121 2.89063 4.30915Z" fill="#AC6605"/>
<path d="M2.89063 4.26063C2.89063 4.35768 2.7449 4.45473 2.64775 4.50326C1.77339 5.42527 0.316113 7.56045 0.461841 11.2C0.510417 12.8499 1.09333 15.4218 3.42497 17.9937C3.18209 18.2363 3.03636 18.3819 3.03636 18.3819C2.89063 18.1878 2.64775 17.9452 2.45345 17.7511C2.30772 17.557 2.11342 17.2658 1.96769 17.0717L1.53051 16.3923C1.43336 16.1982 1.23905 15.907 1.1419 15.6644L0.801871 14.9365C0.70472 14.6939 0.607568 14.4027 0.510417 14.1601L0.316113 13.3837C0.267537 13.141 0.218962 12.8499 0.170386 12.6072L0.073234 11.8308C0.073234 11.5882 0.0246582 11.297 0.0246582 11.0544V10.2779C0.0246582 10.0353 0.073234 9.74415 0.12181 9.50152L0.267537 8.77361C0.316113 8.53098 0.413265 8.23982 0.461841 8.04571L0.70472 7.31781C0.801871 7.12371 0.899023 6.83255 1.04475 6.63844L1.43336 5.95906C1.57908 5.76496 1.72481 5.52232 1.87054 5.32822L2.3563 4.7459C2.50203 4.55179 2.7449 4.30915 2.89063 4.16357C2.84206 4.16357 2.84206 4.2121 2.89063 4.26063Z" fill="#A86403"/>
<path d="M2.89064 4.2121C-0.655395 7.90013 -0.461092 13.8689 3.3764 18.0907C3.1821 18.2849 3.08494 18.3819 3.08494 18.3819C2.93922 18.1878 2.69634 17.9452 2.50203 17.7511C2.35631 17.557 2.162 17.2658 2.01628 17.0717L1.57909 16.3923C1.48194 16.1982 1.28764 15.907 1.19049 15.6644L0.850456 14.9365C0.753304 14.6939 0.656152 14.4027 0.559001 14.1601L0.364697 13.3837C0.316121 13.141 0.267546 12.8499 0.21897 12.6072L0.121818 11.8308C0.121818 11.5882 0.0732422 11.297 0.0732422 11.0544V10.2779C0.0732422 10.0353 0.121818 9.74415 0.170394 9.50152L0.267546 8.77361C0.316121 8.53098 0.413273 8.23982 0.461849 8.04571L0.704728 7.31781C0.80188 7.12371 0.899031 6.83255 1.04476 6.63844L1.43337 5.95906C1.57909 5.76496 1.72482 5.52232 1.87055 5.32822L2.35631 4.7459C2.50203 4.55179 2.74491 4.30915 2.89064 4.16357C2.84206 4.16357 2.84206 4.16357 2.89064 4.2121Z" fill="#A46101"/>
<path d="M2.89064 4.2121C2.89064 4.26063 2.79349 4.30915 2.74491 4.35768C1.7734 5.32822 0.170394 7.51192 0.267546 11.2C0.316121 12.9469 0.899031 15.5674 3.27925 18.1878C3.13352 18.3334 3.08494 18.3819 3.08494 18.3819C2.93922 18.1878 2.69634 17.9452 2.50203 17.7511C2.35631 17.557 2.162 17.2658 2.01628 17.0717L1.57909 16.3923C1.48194 16.1982 1.28764 15.907 1.19049 15.6644L0.850455 14.9365C0.753304 14.6939 0.656152 14.4027 0.559 14.1601L0.364697 13.3837C0.316121 13.141 0.267546 12.8499 0.21897 12.6072L0.121818 11.8308C0.121818 11.5882 0.0732422 11.297 0.0732422 11.0544V10.2779C0.0732422 10.0353 0.121818 9.74415 0.170394 9.50152L0.267546 8.77361C0.316121 8.53098 0.413273 8.23982 0.461849 8.04571L0.704728 7.31781C0.80188 7.12371 0.899031 6.83255 1.04476 6.63844L1.43337 5.95906C1.57909 5.76496 1.72482 5.52232 1.87055 5.32822L2.35631 4.7459C2.50203 4.55179 2.74491 4.30915 2.89064 4.16357C2.84206 4.16357 2.84206 4.16357 2.89064 4.2121Z" fill="#A05E00"/>
<path d="M2.84206 4.16357C-0.898282 7.99719 -0.752555 13.9174 3.18209 18.2363C3.08494 18.3334 3.03636 18.3819 3.03636 18.3819C2.89063 18.1878 2.64775 17.9452 2.45345 17.7511C2.30772 17.557 2.11342 17.2658 1.96769 17.0717L1.53051 16.3923C1.43336 16.1982 1.23905 15.907 1.1419 15.6644L0.801872 14.9365C0.70472 14.6939 0.607568 14.4027 0.510417 14.1601L0.316113 13.3837C0.267537 13.141 0.218962 12.8499 0.170386 12.6072L0.073234 11.8308C0.073234 11.5882 0.0246582 11.297 0.0246582 11.0544V10.2779C0.0246582 10.0353 0.073234 9.74415 0.12181 9.50152L0.267537 8.77361C0.316113 8.53098 0.413265 8.23982 0.461841 8.04571L0.70472 7.31781C0.801872 7.12371 0.899023 6.83255 1.04475 6.63844L1.43336 5.95906C1.57908 5.76496 1.72481 5.52232 1.87054 5.32822L2.3563 4.7459C2.50203 4.55179 2.69633 4.30915 2.84206 4.16357C2.89063 4.16357 2.84206 4.16357 2.84206 4.16357Z" fill="#9C5C00"/>
<path d="M4.10507 5.66804C3.71646 5.32836 3.42501 4.98867 3.18213 4.74604L3.2307 4.69751C3.47358 4.94014 3.76504 5.27983 4.10507 5.66804Z" fill="#BB700C"/>
<path d="M3.23044 4.69741L3.18186 4.74594C3.13328 4.64888 3.08471 4.55183 3.03613 4.45478L3.08471 4.40625C3.13328 4.5033 3.18186 4.60036 3.23044 4.69741Z" fill="#B76E0A"/>
<path d="M3.08469 4.40614L3.03612 4.45466C2.98754 4.45466 2.98754 4.40614 2.93896 4.35761L2.98754 4.30908C3.03612 4.35761 3.03612 4.40614 3.08469 4.40614Z" fill="#B36B08"/>
<path d="M2.98778 4.30881L2.9392 4.35689L2.89062 4.30881L2.9392 4.26074C2.98778 4.26074 2.98778 4.30881 2.98778 4.30881Z" fill="#B06906"/>
<path d="M2.9392 4.26042L2.89062 4.30849V4.26042H2.9392C2.9392 4.21235 2.9392 4.21235 2.9392 4.26042Z" fill="#AC6605"/>
<path d="M2.9392 4.21159L2.89062 4.25966C2.89062 4.25966 2.89062 4.25966 2.89062 4.21159H2.9392C2.9392 4.16352 2.9392 4.16352 2.9392 4.21159Z" fill="#A86403"/>
<path d="M2.9392 4.1637L2.89062 4.21228C2.89062 4.21228 2.89062 4.21227 2.89062 4.1637H2.9392Z" fill="#A46101"/>
<path d="M2.9392 4.11487L2.89062 4.16345L2.9392 4.11487Z" fill="#A05E00"/>
<path d="M2.93944 4.11487L2.84229 4.16345C2.84229 4.16345 2.89086 4.11487 2.93944 4.11487Z" fill="#9C5C00"/>
<path d="M10.0312 1.64026L11.7314 0.0874023C11.8771 0.0874023 11.9743 0.0874023 12.12 0.135929L10.4199 1.68878C10.2741 1.64026 10.177 1.64026 10.0312 1.64026Z" fill="#B76E0A"/>
<path d="M10.4199 1.64026L12.1201 0.0874023C12.3144 0.0874023 12.5573 0.135929 12.7516 0.184456L11.0514 1.73731C10.8571 1.68878 10.6142 1.68878 10.4199 1.64026Z" fill="#BB700C"/>
<path d="M11.0513 1.73718L12.7514 0.184326C12.9457 0.232853 13.1886 0.28138 13.3829 0.329906L11.6828 1.88276C11.4885 1.83424 11.2456 1.78571 11.0513 1.73718Z" fill="#BF730D"/>
<path d="M11.6831 1.88257L13.3833 0.329712C13.5776 0.378239 13.8204 0.426765 14.0147 0.523819L12.3146 2.07667C12.1203 1.97962 11.926 1.93109 11.6831 1.88257Z" fill="#C3750E"/>
<path d="M12.3145 2.02856L14.0146 0.475708C14.2575 0.524235 14.4518 0.621288 14.6947 0.718342L12.9945 2.2712C12.8002 2.17414 12.5573 2.12562 12.3145 2.02856Z" fill="#C67710"/>
<path d="M12.9941 2.271L14.6943 0.71814C14.9372 0.815193 15.1801 0.912247 15.4229 1.0093L13.7228 2.56216C13.4799 2.4651 13.237 2.36805 12.9941 2.271Z" fill="#CA7A11"/>
<path d="M13.7231 2.56238L15.4233 1.00952C15.6662 1.10657 15.9576 1.25216 16.2005 1.39774L14.5004 2.95059C14.2575 2.80501 13.966 2.70796 13.7231 2.56238Z" fill="#CE7C12"/>
<path d="M14.5005 2.95019L16.2006 1.39734C16.5407 1.59145 16.8321 1.78555 17.1236 1.97966L15.4234 3.53252C15.132 3.33841 14.7919 3.1443 14.5005 2.95019Z" fill="#D17E13"/>
<path d="M15.4233 3.53284L17.1235 1.97998C17.6093 2.31967 18.095 2.70788 18.5322 3.14462L16.832 4.69748C16.3949 4.26074 15.9091 3.87252 15.4233 3.53284Z" fill="#D58014"/>
<path d="M16.832 4.69714L18.5322 3.14429C18.6779 3.28987 18.7751 3.38692 18.9208 3.5325C19.2608 3.87219 19.5523 4.21188 19.7952 4.60009L18.095 6.15295C17.8035 5.76473 17.5121 5.42504 17.2206 5.08536C17.0749 4.93978 16.9778 4.84272 16.832 4.69714Z" fill="#D88215"/>
<path d="M18.0947 6.15308L19.7949 4.60022C20.1835 5.13401 20.5235 5.66781 20.7664 6.2016L19.0662 7.75446C18.8234 7.17214 18.4833 6.63834 18.0947 6.15308Z" fill="#D58014"/>
<path d="M19.0664 7.75464L20.7666 6.20178C20.9123 6.54147 21.058 6.83263 21.2037 7.17232L19.5036 8.72517C19.4064 8.38549 19.2607 8.0458 19.0664 7.75464Z" fill="#D17E13"/>
<path d="M19.5034 8.7251L21.2036 7.17224C21.3007 7.4634 21.3979 7.70604 21.495 7.9972L19.7949 9.55005C19.6977 9.25889 19.6491 8.96773 19.5034 8.7251Z" fill="#CE7C12"/>
<path d="M19.7954 9.5498L21.4956 7.99695C21.5927 8.23958 21.6413 8.48222 21.6899 8.72485L19.9897 10.2777C19.9411 10.0351 19.8926 9.79244 19.7954 9.5498Z" fill="#CA7A11"/>
<path d="M19.9893 10.2777L21.6894 8.72485C21.738 8.96749 21.7866 9.16159 21.8351 9.40423L20.135 10.9571C20.0864 10.7145 20.0378 10.5203 19.9893 10.2777Z" fill="#C67710"/>
<path d="M20.1353 10.957L21.8354 9.40417C21.884 9.64681 21.884 9.84092 21.9326 10.0835L20.2324 11.6364C20.1838 11.3938 20.1353 11.1997 20.1353 10.957Z" fill="#C3750E"/>
<path d="M20.1836 11.6367L21.8837 10.0839C21.8837 10.278 21.9323 10.5206 21.9323 10.7147L20.2322 12.2676C20.2322 12.0735 20.2322 11.8308 20.1836 11.6367Z" fill="#BF730D"/>
<path d="M20.2324 12.2676L21.9326 10.7147C21.9326 10.9088 21.9326 11.1515 21.9326 11.3456L20.2324 12.8984C20.2324 12.7043 20.2324 12.4617 20.2324 12.2676Z" fill="#BB700C"/>
<path d="M20.2322 12.8981L21.9323 11.3452C21.9323 11.5393 21.9323 11.782 21.8837 11.9761L20.1836 13.5289C20.2322 13.2863 20.2322 13.0922 20.2322 12.8981Z" fill="#B76E0A"/>
<path d="M20.1836 13.5289L21.8837 11.9761C21.8837 12.1702 21.8352 12.4128 21.7866 12.6069L20.0864 14.1598C20.135 13.9171 20.1836 13.723 20.1836 13.5289Z" fill="#B36B08"/>
<path d="M20.0866 14.1599L21.7868 12.6071C21.7382 12.8012 21.6896 13.0438 21.6411 13.2379L19.9409 14.7908C20.0381 14.5481 20.0866 14.354 20.0866 14.1599Z" fill="#B06906"/>
<path d="M19.9897 14.7908L21.6899 13.2379C21.6413 13.4805 21.5927 13.6747 21.4956 13.8688L19.7954 15.4216C19.8926 15.2275 19.9411 14.9849 19.9897 14.7908Z" fill="#AC6605"/>
<path d="M19.7951 15.4218L21.4953 13.8689C21.3981 14.1115 21.3496 14.3542 21.2524 14.5483L19.5522 16.1011C19.6494 15.907 19.7465 15.6644 19.7951 15.4218Z" fill="#A86403"/>
<path d="M19.5524 16.101L21.2526 14.5481C21.1554 14.7907 21.0097 15.0819 20.9126 15.3245L19.2124 16.8774C19.3581 16.6347 19.4553 16.3921 19.5524 16.101Z" fill="#A46101"/>
<path d="M19.2121 16.8778L20.9122 15.325C20.7665 15.6161 20.5722 15.9558 20.3779 16.247L18.6777 17.7998C18.872 17.5087 19.0663 17.2175 19.2121 16.8778Z" fill="#A05E00"/>
<path d="M18.678 17.7994L20.3782 16.2466C20.0381 16.7804 19.601 17.3142 19.1152 17.7509L17.415 19.3038C17.9008 18.867 18.2894 18.3332 18.678 17.7994Z" fill="#9C5C00"/>
<path d="M9.88574 3.6298C9.88574 2.61074 9.93432 1.68873 10.0315 1.59167C12.606 1.78578 15.2291 2.95042 17.2207 5.03707C21.2039 9.21037 21.2525 15.6159 17.415 19.2554C17.3178 19.3525 16.6378 18.7701 15.9091 17.9937C19.0666 14.9851 18.9694 9.7927 15.7634 6.39582C14.1118 4.74591 12.0231 3.8239 9.88574 3.6298Z" fill="#D58014"/>
<path d="M15.9089 18.0419C19.0663 15.0332 18.9692 9.84089 15.7632 6.44402C14.1602 4.74558 12.0228 3.77505 9.93408 3.62947C9.93408 2.95009 9.93408 2.31924 9.98266 1.93103C9.98266 1.97956 10.0312 1.97956 10.0798 1.97956C11.6342 2.4163 14.5002 3.19273 17.0262 6.15286C18.2405 7.60866 18.8235 9.11299 19.0178 9.59826C19.5035 10.9085 19.5035 12.3158 19.9407 13.626C20.2807 13.0922 20.6208 9.59825 18.1434 6.20138C21.1551 10.3262 20.9122 15.9553 17.3662 19.3036C17.3176 19.4007 16.6375 18.8183 15.9089 18.0419Z" fill="#D58014"/>
<path d="M15.9089 18.0418C19.0663 15.0332 18.9692 9.84082 15.7632 6.44394C14.1602 4.74551 12.0228 3.77497 9.93408 3.62939C9.93408 2.99855 9.93408 2.46475 9.98266 2.07654C9.98266 2.07654 9.98266 2.07654 10.0312 2.07654C15.8118 3.53234 19.3092 7.51153 19.795 13.3833C19.8436 13.723 19.8436 14.1597 19.8921 14.1597C19.9893 14.2082 20.9122 11.4422 19.1149 7.70564C21.1065 11.6363 20.5236 16.3434 17.4148 19.3035C17.3176 19.4006 16.6375 18.8183 15.9089 18.0418Z" fill="#D17E13"/>
<path d="M15.9089 18.0416C19.0663 15.033 18.9692 9.84062 15.7632 6.44375C14.1602 4.74531 12.0228 3.77478 9.93408 3.6292C9.93408 3.09541 9.93408 2.61014 9.98266 2.22192C10.0798 2.22192 10.177 2.27045 10.2741 2.27045C13.5773 3.09541 19.2121 5.71585 19.6978 14.0139C19.6978 14.2566 19.7464 14.6448 19.795 14.6933C19.8436 14.6933 19.8921 14.6933 19.8921 14.6933C19.8921 14.6933 20.9122 12.5581 19.6007 8.67598C21.0094 12.364 20.3293 16.5373 17.4633 19.2548C17.3176 19.4004 16.6375 18.8181 15.9089 18.0416Z" fill="#CE7C12"/>
<path d="M15.9089 18.0422C19.0663 15.0336 18.9692 9.84122 15.7632 6.44434C14.1602 4.74591 12.0228 3.77537 9.93408 3.62979C9.93408 3.19305 9.93408 2.75631 9.98266 2.41663C12.8001 3.04747 19.3578 5.42528 19.5035 14.4513C19.5035 15.1306 19.5035 15.4218 19.6493 15.4218C19.6493 15.4218 20.8636 13.4322 19.8436 9.55006C20.8636 13.044 20.0864 16.8291 17.4633 19.3525C17.3176 19.401 16.6375 18.8187 15.9089 18.0422Z" fill="#CA7A11"/>
<path d="M15.9089 18.0423C19.0663 15.0337 18.9692 9.84132 15.7632 6.44445C14.1602 4.74602 12.0228 3.77548 9.93408 3.6299C9.93408 3.29021 9.93408 2.902 9.93408 2.61084C10.0312 2.61084 10.1284 2.65937 10.2255 2.65937C13.6744 3.43579 19.4549 6.05624 19.2121 14.9366C19.2121 15.4219 19.1635 15.9072 19.3092 15.9557C19.4549 16.0042 20.7665 13.9661 20.0379 10.181C20.7665 13.4323 19.8921 16.8777 17.4633 19.207C17.3176 19.4011 16.6375 18.8188 15.9089 18.0423Z" fill="#C67710"/>
<path d="M19.9895 13.1405C19.9895 13.1405 19.941 13.092 19.8438 12.5582C19.6981 11.5877 19.1638 8.57902 17.075 6.15268C14.7434 3.48371 12.8975 2.85286 10.2744 1.93085C10.2258 1.93085 10.1287 1.93085 10.0801 1.8338C10.0801 1.8338 10.0801 1.78527 10.1287 1.73675C10.323 1.59117 14.3548 1.93085 17.1721 5.03657C20.5239 8.7246 20.1353 12.3156 20.0867 12.7038C20.0867 13.092 20.0867 13.1405 19.9895 13.1405C20.0381 13.1405 19.9895 13.1405 19.9895 13.1405Z" fill="#D88215"/>
<path d="M15.9089 18.042C19.0663 15.0333 18.9692 9.84094 15.7632 6.44406C14.1602 4.74563 12.0228 3.77509 9.93408 3.62951C9.93408 3.38688 9.93408 3.14425 9.93408 2.90161C9.98266 2.95014 10.1284 2.95014 10.177 2.95014C11.78 3.2413 19.6493 5.27942 18.8235 15.1304C18.7749 15.9553 18.6777 16.5862 18.872 16.6832C19.1149 16.8288 20.6208 14.8392 20.135 10.9571C20.6208 14.0142 19.6978 17.1199 17.4148 19.3037C17.3176 19.4007 16.6375 18.8184 15.9089 18.042Z" fill="#C3750E"/>
<path d="M19.9891 12.6555C19.9406 12.607 19.9406 12.607 19.7463 11.5879C19.1148 8.57926 17.5603 6.63819 17.1232 6.10439C15.423 4.16332 13.7714 3.04721 11.2455 2.17373C10.6626 1.97962 10.6626 1.97962 10.5654 1.88257C10.614 1.88257 14.16 1.63993 17.7061 5.66765C19.892 8.14252 20.4263 11.9761 20.0863 12.6555C20.0863 12.6555 20.0863 12.704 19.9891 12.6555C20.0377 12.704 20.0377 12.6555 19.9891 12.6555Z" fill="#DC8515"/>
<path d="M19.9895 12.2184C19.9895 12.2184 19.941 12.1214 19.8924 11.8302C19.5524 10.2774 19.2123 9.25832 18.3865 7.75399C17.9979 7.07461 17.1722 5.81292 15.7149 4.55122C14.2576 3.33805 12.8489 2.65868 11.7802 2.27046C11.003 1.9793 10.9544 1.9793 11.003 1.93078C11.0516 1.63962 15.9092 2.46457 18.5323 6.83198C20.281 9.69506 20.1353 12.0243 20.0381 12.267L19.9895 12.2184Z" fill="#DF8716"/>
<path d="M19.9895 11.8306C19.9409 11.7821 19.9409 11.7821 19.7466 11.0057C19.358 9.50135 18.7751 8.43376 18.3865 7.75439C17.6579 6.54122 16.7835 5.52216 15.7149 4.55162C14.209 3.2414 12.5574 2.56202 11.9259 2.31939C11.4402 2.12528 11.4402 2.07676 11.3916 2.02823C11.4402 2.02823 14.5005 1.9797 17.7065 5.66774C19.7466 7.99702 20.3296 11.3454 20.0381 11.9277C19.9895 11.8792 19.9895 11.8306 19.9895 11.8306Z" fill="#E38917"/>
<path d="M15.9089 18.0419C19.0663 15.0332 18.9692 9.84085 15.7632 6.44398C14.1602 4.74554 12.0228 3.77501 9.93408 3.62942C9.93408 3.48384 9.93408 3.33826 9.93408 3.24121C10.0312 3.24121 10.1284 3.28974 10.2255 3.28974C14.3545 3.96911 19.8921 7.80272 18.3377 15.6155C17.6091 19.3521 19.3092 16.5861 19.5035 16.1979C20.4265 14.2568 20.2807 12.2672 20.2807 11.6363C20.5236 14.4994 19.6007 17.314 17.4633 19.3521C17.3176 19.4006 16.6375 18.8183 15.9089 18.0419Z" fill="#BF730D"/>
<path d="M19.941 11.4422C19.8438 11.2966 19.8438 11.1025 19.7953 10.9569C19.2124 8.91881 18.338 7.2689 17.2208 6.0072C15.7149 4.30877 14.4034 3.33823 12.2174 2.3677C11.7317 2.17359 11.7317 2.12506 11.6831 2.07654C11.6831 2.07654 14.5977 2.17359 17.6579 5.61899C19.5038 7.75417 20.1839 10.8114 19.941 11.4907C19.9896 11.4907 19.941 11.4907 19.941 11.4422Z" fill="#E68B17"/>
<path d="M19.8922 11.151C19.8922 11.1025 19.8922 11.1025 19.6979 10.6172C19.4551 9.88934 18.7264 7.70563 17.2206 6.0072C15.8604 4.40581 14.5975 3.48381 12.5573 2.46474C12.0715 2.22211 12.0715 2.22211 12.0229 2.17358C12.0229 2.17358 14.7432 2.31916 17.6577 5.66751C19.3579 7.65711 20.1351 10.5687 19.9408 11.1996C19.9408 11.1996 19.9408 11.151 19.8922 11.151Z" fill="#E98D18"/>
<path d="M19.8437 10.8112C19.7466 10.6656 19.698 10.4229 19.6494 10.2288C18.9208 8.04513 17.9493 6.73491 17.2692 5.95848C16.1034 4.64826 14.9861 3.6292 12.8974 2.56161C12.363 2.31898 12.363 2.31898 12.3145 2.22192C12.3145 2.22192 14.8404 2.41603 17.6578 5.6188C19.2122 7.41429 19.9894 10.0833 19.8923 10.8597C19.8923 10.8597 19.8923 10.8597 19.8437 10.8112Z" fill="#ED8F18"/>
<path d="M19.7954 10.5689C19.7469 10.4719 19.6983 10.2778 19.6497 10.1807C18.8239 7.94847 17.8524 6.58972 17.3181 6.0074C16.1522 4.69718 15.0836 3.72664 12.9462 2.562C12.8491 2.51348 12.6548 2.41642 12.6548 2.3679C12.7034 2.12526 15.9579 3.19285 18.1439 6.25003C19.5526 8.23963 19.9412 10.2778 19.8926 10.6174C19.844 10.6174 19.7954 10.5689 19.7954 10.5689Z" fill="#F09119"/>
<path d="M19.7464 10.278C19.7464 10.2294 19.6978 10.1809 19.6978 10.1324C19.1635 8.82216 18.532 7.31783 17.3176 5.95908C16.3947 4.89149 15.3746 3.87243 13.2372 2.65926C12.9944 2.51368 12.9944 2.51368 12.8486 2.41663C12.8486 2.41663 15.0831 2.65926 17.7062 5.66792C19.1149 7.2693 19.9407 9.69564 19.8436 10.375C19.795 10.3265 19.7464 10.3265 19.7464 10.278Z" fill="#F29219"/>
<path d="M19.6979 10.0351C19.6007 9.88955 19.5521 9.64692 19.455 9.50134C18.6292 7.56027 17.7062 6.3471 17.3176 5.95888C16.589 5.13393 15.6661 4.06634 13.5287 2.85317C13.1401 2.65907 13.1401 2.65907 13.043 2.56201C13.043 2.56201 15.1317 2.85317 17.6577 5.71625C19.0178 7.26911 19.8436 9.64692 19.7464 10.1807C19.7464 10.0837 19.6979 10.0351 19.6979 10.0351Z" fill="#F4A03A"/>
<path d="M19.601 9.7928C19.2124 9.11342 18.9695 8.337 18.5323 7.65762C17.9494 6.63856 17.3665 5.95919 17.3179 5.95919C16.4436 4.8916 15.6178 4.01812 13.6262 2.85347C13.3833 2.70789 13.3833 2.70789 13.2861 2.61084C15.472 2.70789 19.941 7.75467 19.6981 9.88985C19.6496 9.88985 19.6496 9.84133 19.601 9.7928Z" fill="#F5A546"/>
<path d="M19.552 9.54967C19.2119 8.91882 18.969 8.23945 18.5804 7.6086C17.9975 6.58954 17.366 5.91016 17.366 5.91016C16.7831 5.23079 15.8602 4.21173 14.16 3.14414C13.6257 2.80445 13.6257 2.80445 13.48 2.7074C13.48 2.7074 15.3259 3.04708 17.6575 5.71606C18.7747 6.97775 19.6491 9.11293 19.6491 9.69525C19.6005 9.64672 19.552 9.5982 19.552 9.54967Z" fill="#F5AA4E"/>
<path d="M19.5034 9.35555C19.1148 8.72471 18.8719 8.04533 18.4833 7.46301C18.0947 6.83216 17.5604 6.10426 17.3661 5.95868C16.686 5.23078 15.9088 4.30877 14.1601 3.14413C13.82 2.9015 13.82 2.9015 13.6743 2.80444C13.6743 2.80444 15.3259 3.0956 17.6575 5.71605C18.7262 6.92922 19.6006 8.91881 19.552 9.50113C19.552 9.40408 19.5034 9.40408 19.5034 9.35555Z" fill="#F6AD56"/>
<path d="M19.4066 9.11322C19.1151 8.62795 18.9208 8.09416 18.6293 7.60889C18.3865 7.2692 17.9007 6.44425 17.4149 5.86193C16.3948 4.69729 15.7634 4.11497 14.2089 3.04738C14.1118 2.99885 14.0146 2.9018 13.9175 2.85327C13.9175 2.85327 15.4719 3.14443 17.6578 5.66782C18.6779 6.83246 19.5037 8.72501 19.5037 9.2588C19.4551 9.21027 19.4551 9.16175 19.4066 9.11322Z" fill="#F6B05C"/>
<path d="M15.9089 18.0418C19.0663 15.0331 18.9692 9.84076 15.7632 6.44389C14.1602 4.74545 12.0228 3.77492 9.93408 3.62934C10.0312 3.62934 10.1284 3.62934 10.2255 3.58081C15.666 4.26019 20.8636 10.2775 16.929 17.2168C16.0061 18.8182 17.9491 18.7212 19.0178 17.1198C19.8921 15.8581 20.3293 14.2082 20.3293 12.2186C20.3779 14.839 19.4549 17.4109 17.5119 19.2549C17.3176 19.4005 16.6375 18.8182 15.9089 18.0418Z" fill="#BB700C"/>
<path d="M19.358 8.91892C17.8522 6.39553 17.8522 6.39553 17.415 5.91026C16.6863 5.08531 16.1034 4.40593 14.5004 3.28982C14.3547 3.19276 14.209 3.09571 14.1118 2.99866C15.812 3.24129 19.4552 7.41459 19.5037 9.11303C19.4066 9.01597 19.358 8.96745 19.358 8.91892Z" fill="#F7B362"/>
<path d="M19.3092 8.82198C18.6777 7.85145 18.192 6.78386 17.4148 5.91038C17.0261 5.47364 16.6375 5.03689 16.1518 4.60015C15.5203 4.06636 14.8402 3.62962 14.2573 3.09583C15.8603 3.33846 19.3578 7.31765 19.3578 8.91903C19.3578 8.87051 19.3578 8.82198 19.3092 8.82198Z" fill="#F7B667"/>
<path d="M19.1638 8.53063C17.8522 6.34693 17.8522 6.34693 17.415 5.86166C16.9293 5.27934 16.6378 4.98818 16.1521 4.55144C15.6177 4.06617 14.9862 3.62943 14.4033 3.14417C15.9092 3.43533 19.2123 7.17188 19.2609 8.67621C19.2609 8.62769 19.2123 8.57916 19.1638 8.53063Z" fill="#F8B96C"/>
<path d="M19.0664 8.33652C17.852 6.39545 17.852 6.39545 16.929 5.32786C16.249 4.55143 15.3746 3.96911 14.5488 3.24121C15.9575 3.53237 19.115 7.12335 19.1635 8.4821C19.1635 8.43357 19.115 8.38505 19.0664 8.33652Z" fill="#F8BB71"/>
<path d="M19.0178 8.19074C18.775 7.80253 18.5321 7.36579 18.2892 7.0261C17.8034 6.2982 17.512 5.95851 17.4148 5.90999C16.8805 5.27914 16.6862 5.13356 16.1519 4.59977C15.7147 4.16302 15.1803 3.82334 14.7432 3.3866C16.0061 3.67776 19.0178 7.07463 19.115 8.38485C19.115 8.2878 19.0664 8.23927 19.0178 8.19074Z" fill="#F8BD76"/>
<path d="M18.8721 7.89989C17.512 5.76471 17.512 5.76471 14.9375 3.43542C16.1033 3.72659 18.9207 6.92935 19.0664 8.14252C19.0179 8.09399 18.9207 7.99694 18.8721 7.89989Z" fill="#F8BF7A"/>
<path d="M17.0264 19.1096C17.5121 18.867 19.9409 17.3627 20.2324 12.8982C20.1352 15.276 19.2123 17.6053 17.415 19.3037C17.3664 19.3523 17.2207 19.2552 17.0264 19.1096Z" fill="#B76E0A"/>
<path d="M18.7753 7.70558C17.4637 5.71599 17.318 5.57041 15.0835 3.58081C16.1036 3.82344 18.8238 6.88063 18.9696 7.99674C18.921 7.89969 18.8238 7.80264 18.7753 7.70558Z" fill="#F8C17E"/>
<path d="M18.7262 7.56012C17.3175 5.57052 17.269 5.52199 15.2773 3.67798C16.2003 3.92061 18.7262 6.83222 18.872 7.80275C18.8234 7.7057 18.7748 7.60864 18.7262 7.56012Z" fill="#F9C382"/>
<path d="M17.1719 19.2065C18.8235 17.9933 19.8435 16.0523 20.1836 13.4803C19.9893 15.6641 19.0178 17.7022 17.3662 19.3036C17.3662 19.3521 17.269 19.3036 17.1719 19.2065Z" fill="#B36B08"/>
<path d="M18.7265 7.56041C17.3178 5.57082 17.2206 5.47376 15.4233 3.82385C16.2977 4.06649 18.6293 6.73546 18.7265 7.56041C18.7751 7.56041 18.7751 7.56041 18.7265 7.56041Z" fill="#F9C585"/>
<path d="M16.6861 4.55186C13.5773 1.78584 10.5656 1.68879 10.0312 1.73731C10.0312 1.68879 10.0798 1.64026 10.0798 1.64026C12.5086 1.78584 14.9374 2.85343 16.8804 4.69744C16.7833 4.64892 16.7347 4.60039 16.6861 4.55186Z" fill="#D58014"/>
<path d="M18.3867 7.02661C17.3666 5.57081 16.9295 5.18259 15.5693 3.9209C16.3465 4.16353 18.4839 6.58987 18.6296 7.41482C18.581 7.26924 18.4839 7.17219 18.3867 7.02661Z" fill="#F9C689"/>
<path d="M17.2207 19.2553C17.2207 19.1098 17.4636 19.0612 17.5607 18.9642C18.4351 18.2363 19.5523 16.7805 20.0867 14.16C19.7466 16.1011 18.8723 17.8966 17.3664 19.3524C17.3664 19.3524 17.3179 19.3039 17.2207 19.2553Z" fill="#B06906"/>
<path d="M15.2291 3.43575C13.4804 2.31963 11.9259 1.83437 9.98291 1.68879C9.98291 1.64026 9.98291 1.64026 10.0315 1.64026C11.8774 1.78584 13.7718 2.41669 15.4234 3.5328C15.3748 3.48427 15.2777 3.43575 15.2291 3.43575Z" fill="#D17E13"/>
<path d="M18.3865 6.97789C17.4636 5.71619 17.1236 5.32798 15.812 4.06628C16.4921 4.30892 18.4351 6.49262 18.5808 7.22052C18.4837 7.12347 18.4351 7.02642 18.3865 6.97789Z" fill="#F9C88C"/>
<path d="M17.269 19.3035C19.2121 17.6051 19.6978 15.7611 19.9893 14.7905C19.6007 16.489 18.7263 18.0903 17.4148 19.352C17.3662 19.352 17.3176 19.3035 17.269 19.3035Z" fill="#AC6605"/>
<path d="M18.3863 6.92929C17.5605 5.81317 17.2205 5.42496 15.9575 4.21179C16.5404 4.4059 18.2892 6.3955 18.3863 6.97782C18.4349 6.97782 18.3863 6.97782 18.3863 6.92929Z" fill="#FACA90"/>
<path d="M14.3062 2.85313C13.7232 2.56197 12.1688 1.73701 9.98291 1.63996C9.98291 1.63996 9.98291 1.59143 10.0315 1.59143C11.5373 1.68848 13.0918 2.12522 14.5005 2.95018C14.4519 2.95018 14.3547 2.90165 14.3062 2.85313Z" fill="#CE7C12"/>
<path d="M17.3179 19.3035C18.7751 17.9933 19.3581 16.6831 19.7952 15.4214C19.3581 16.8772 18.5323 18.1874 17.3664 19.3035C17.3664 19.3521 17.3664 19.3521 17.3179 19.3035Z" fill="#A86403"/>
<path d="M17.9492 6.34677C17.3663 5.61887 16.9291 5.13361 16.1519 4.35718C16.589 4.55128 18.0463 6.10414 18.2406 6.73499C18.192 6.63793 18.0463 6.49235 17.9492 6.34677Z" fill="#FACB93"/>
<path d="M13.6744 2.56227C12.3629 1.97995 11.3914 1.73731 10.0312 1.68879V1.64026C11.2942 1.68879 12.5572 2.02847 13.6744 2.56227C13.723 2.56227 13.723 2.56227 13.6744 2.56227Z" fill="#CA7A11"/>
<path d="M17.3179 19.3038C18.678 18.0421 19.2123 16.7804 19.5524 16.1011C19.0666 17.2657 18.338 18.3818 17.415 19.3038C17.3664 19.3038 17.3664 19.3524 17.3179 19.3038Z" fill="#A46101"/>
<path d="M12.7029 2.17405C11.6828 1.83437 11.0513 1.73731 10.0312 1.64026C11.0513 1.68879 12.0229 1.93142 12.9944 2.27111C12.8972 2.22258 12.8001 2.22258 12.7029 2.17405Z" fill="#C67710"/>
<path d="M17.9978 6.34706C17.6578 5.95885 17.2691 5.42505 16.4434 4.6001C16.832 4.7942 17.9492 6.0559 18.0949 6.49264C18.0464 6.44411 17.9978 6.39559 17.9978 6.34706Z" fill="#FACD96"/>
<path d="M17.3662 19.3038C18.4349 18.3332 18.9692 17.3627 19.2121 16.8774C18.7749 17.7994 18.1434 18.5759 17.3662 19.3038Z" fill="#A05E00"/>
<path d="M12.0714 1.97995C11.2456 1.78584 10.857 1.73731 10.0312 1.64026C10.8085 1.68879 11.5857 1.83437 12.3143 2.077C12.2657 2.02847 12.12 1.97995 12.0714 1.97995Z" fill="#C3750E"/>
<path d="M17.5607 5.76466C17.2206 5.32792 16.9777 5.13381 16.7349 4.84265C17.0263 5.03676 17.5121 5.52203 17.8521 6.10435C17.7064 6.00729 17.6092 5.86171 17.5607 5.76466Z" fill="#FACE99"/>
<path d="M17.3662 19.3037C18.0948 18.5758 18.0948 18.5758 18.6778 17.7509C18.3377 18.3332 17.9005 18.867 17.3662 19.3037C17.4148 19.3037 17.3662 19.3037 17.3662 19.3037Z" fill="#9C5C00"/>
<path d="M11.3914 1.83437C10.9542 1.73731 10.6627 1.68879 10.0312 1.64026C10.5656 1.68879 11.1485 1.73731 11.6828 1.88289C11.5857 1.83437 11.4885 1.83437 11.3914 1.83437Z" fill="#BF730D"/>
<path d="M10.7113 1.68833C10.517 1.68833 10.2256 1.64026 10.0312 1.64026C10.3713 1.64026 10.7113 1.68833 11.0513 1.7364C10.9542 1.7364 10.8085 1.68833 10.7113 1.68833Z" fill="#BB700C"/>
<path d="M10.3713 1.64001L10.0312 1.59143C10.177 1.64001 10.2741 1.64001 10.3713 1.64001C10.4199 1.64001 10.3713 1.64001 10.3713 1.64001Z" fill="#B76E0A"/>
<path d="M15.8604 18.0907C16.0547 18.1878 16.2004 18.3333 16.3461 18.4789L16.2975 18.5274C16.1518 18.4304 16.0061 18.2848 15.8604 18.0907Z" fill="#BB700C"/>
<path d="M16.2979 18.5272H16.395L16.4436 18.5757L16.4922 18.6243L16.5407 18.6728L16.5893 18.7213H16.6379V18.7699C16.4922 18.7213 16.395 18.6243 16.2979 18.5272Z" fill="#BF730D"/>
<path d="M16.5889 18.7697L16.686 18.8182H16.7346L16.8317 18.8667L16.9289 18.9152H16.9775L17.0746 18.9638L17.1232 19.0123L17.1718 19.0608L17.2204 19.1093C17.0261 19.1579 16.8317 19.0123 16.5889 18.7697Z" fill="#BB700C"/>
<path d="M10.0801 23.526L15.8606 18.1395C16.2978 18.5763 16.6864 18.916 17.0264 19.1586L10.1287 25.5156C10.1287 25.0789 10.0801 24.351 10.0801 23.526Z" fill="#BB700C"/>
<path d="M10.1284 25.5159L16.9776 19.1104C17.0262 19.1589 17.0748 19.2074 17.1233 19.2074L10.177 25.7585C10.177 25.71 10.177 25.6129 10.1284 25.5159Z" fill="#B76E0A"/>
<path d="M10.1772 25.7585L17.1722 19.2074C17.2207 19.2074 17.2207 19.2559 17.2693 19.2559L10.1772 25.8556C10.1772 25.8556 10.1772 25.807 10.1772 25.7585Z" fill="#B36B08"/>
<path d="M10.1772 25.8554L17.2207 19.2557H17.2693L10.2258 25.9039C10.2258 25.9039 10.2258 25.9039 10.1772 25.8554Z" fill="#B06906"/>
<path d="M10.2256 25.9039L17.3177 19.2557C17.3177 19.2557 17.3177 19.2557 17.3662 19.2557L10.2256 25.9039C10.2256 25.9524 10.2256 25.9524 10.2256 25.9039Z" fill="#AC6605"/>
<path d="M10.2256 25.9521L17.3177 19.304C17.3177 19.304 17.3177 19.304 17.3662 19.304L10.2256 25.9521Z" fill="#A86403"/>
<path d="M10.2256 26.0009L17.3177 19.3528L10.2256 26.0009Z" fill="#A46101"/>
<path d="M3.03638 3.96947L4.73653 2.41662C5.41659 1.78577 6.14523 1.3005 6.92244 0.960815L5.22229 2.51367C4.44508 2.85336 3.71644 3.38715 3.03638 3.96947Z" fill="#9C5C00"/>
<path d="M5.27124 2.51346L6.97139 0.960602C7.31143 0.815021 7.60288 0.669441 7.94291 0.572388L6.24276 2.12524C5.90273 2.2223 5.5627 2.36788 5.27124 2.51346Z" fill="#A05E00"/>
<path d="M6.24292 2.12563L7.94307 0.52425C8.23453 0.427196 8.47741 0.37867 8.76886 0.281616L7.06871 1.83447C6.77725 1.93153 6.4858 2.02858 6.24292 2.12563Z" fill="#A46101"/>
<path d="M7.0686 1.88288L8.76876 0.330028C9.01164 0.281502 9.25452 0.232975 9.4974 0.184448L7.79724 1.7373C7.55436 1.7373 7.31148 1.83436 7.0686 1.88288Z" fill="#A86403"/>
<path d="M7.79712 1.73731L9.49727 0.184456C9.74015 0.135929 9.98303 0.0874023 10.2259 0.0874023L8.52576 1.64026C8.2343 1.64026 8.04 1.68878 7.79712 1.73731Z" fill="#AC6605"/>
<path d="M8.47729 1.63996L10.226 0.087101C10.4203 0.0385742 10.6632 0.0385742 10.8575 0.0385742L9.15736 1.59143C8.91448 1.59143 8.72017 1.63996 8.47729 1.63996Z" fill="#B06906"/>
<path d="M9.15747 1.59143L10.8576 0.0385742C11.0519 0.0385742 11.2948 0.0385742 11.4891 0.0385742L9.78896 1.59143C9.54608 1.59143 9.35177 1.59143 9.15747 1.59143Z" fill="#B36B08"/>
<path d="M9.78882 1.59143L11.489 0.0385742C11.5861 0.0385742 11.6833 0.0385742 11.7319 0.0385742L10.0317 1.59143C9.93455 1.63996 9.88597 1.59143 9.78882 1.59143Z" fill="#B76E0A"/>
<path d="M4.10538 5.66804C3.32817 4.89161 2.84241 4.16371 2.93956 4.06666C2.98814 4.01813 3.03672 3.96961 3.03672 3.96961C4.97975 2.22264 7.50569 1.44622 10.0316 1.64032C9.93448 1.73738 9.88591 2.61086 9.88591 3.67845C7.79715 3.48434 5.65981 4.16371 4.10538 5.66804Z" fill="#D58014"/>
<path d="M9.9826 1.73738C9.83687 1.83443 9.64257 1.64032 9.54542 1.7859C9.54542 1.83443 9.49684 1.83443 9.93403 1.98001C9.88545 2.36822 9.83687 2.99907 9.88545 3.67845C7.79669 3.53287 5.65935 4.16371 4.05635 5.66804C3.32771 4.89161 2.84195 4.16371 2.93911 4.06666C2.98768 4.01813 3.03626 3.96961 3.03626 3.96961C4.97929 2.22264 7.50523 1.44622 10.0312 1.64032C10.0312 1.64032 10.0312 1.68885 9.9826 1.73738Z" fill="#D58014"/>
<path d="M10.0316 1.68885C9.98306 1.73738 9.93448 1.68885 9.88591 1.68885C9.4973 1.68885 9.1087 1.73738 9.06012 1.7859V1.83443C9.1087 1.88296 9.40015 1.98001 9.98306 2.07706C9.93448 2.46528 9.93448 2.99907 9.93448 3.62992C7.84572 3.48434 5.70839 4.11519 4.10538 5.61951C3.32817 4.89161 2.84241 4.16371 2.93956 4.06666C2.98814 4.01813 3.03672 3.96961 3.03672 3.96961C4.97975 2.22264 7.50569 1.44622 10.0316 1.64032C10.0316 1.64032 10.0316 1.64032 10.0316 1.68885Z" fill="#D17E13"/>
<path d="M10.0312 1.68855C9.9826 1.73708 9.83687 1.68855 9.7883 1.68855C9.15681 1.68855 8.47675 1.7856 8.42817 1.88266C8.42817 1.93118 8.42817 1.93118 9.93403 2.27087C9.88545 2.65909 9.88545 3.14435 9.88545 3.67815C7.79669 3.53257 5.65935 4.16341 4.05635 5.66774C3.32771 4.89132 2.84195 4.16341 2.93911 4.06636C2.98768 4.01783 3.03626 3.96931 3.03626 3.96931C4.97929 2.22235 7.50523 1.44592 10.0312 1.68855C10.0312 1.64002 10.0312 1.64002 10.0312 1.68855Z" fill="#CE7C12"/>
<path d="M10.0312 1.64032C9.9826 1.68885 9.83687 1.64032 9.7883 1.64032C8.86536 1.5918 7.84526 1.7859 7.79669 1.93148C7.79669 1.98001 7.79669 1.98001 9.93403 2.41675C9.93403 2.75644 9.88545 3.19318 9.88545 3.62992C7.79669 3.48434 5.65935 4.11519 4.05635 5.61951C3.32771 4.89161 2.84195 4.16371 2.93911 4.06666C2.98768 4.01813 3.03626 3.96961 3.03626 3.96961C4.97929 2.22264 7.50523 1.44622 10.0312 1.64032Z" fill="#CA7A11"/>
<path d="M10.0312 1.64032C9.9826 1.64032 9.93403 1.64032 9.88545 1.64032C8.47675 1.5918 7.1652 1.93148 7.11663 2.12559C7.11663 2.17412 7.06805 2.22264 7.45666 2.3197C8.28245 2.46528 9.10824 2.46528 9.88545 2.65938C9.88545 2.95054 9.88545 3.29023 9.88545 3.67845C7.79669 3.53287 5.65935 4.16371 4.05635 5.66804C3.32771 4.89161 2.84195 4.16371 2.93911 4.06666C2.98768 4.01813 3.03626 3.96961 3.03626 3.96961C4.97929 2.22264 7.50523 1.44622 10.0312 1.64032Z" fill="#C67710"/>
<path d="M10.0312 1.64032C9.9826 1.68885 9.83687 1.64032 9.7883 1.64032C7.74811 1.54327 5.61078 2.36822 6.58229 2.61086C7.65096 2.90202 8.76821 2.75644 9.88545 2.90202C9.88545 3.14465 9.88545 3.38728 9.88545 3.62992C7.79669 3.48434 5.65935 4.11519 4.05635 5.61951C3.32771 4.89161 2.84195 4.16371 2.93911 4.06666C2.98768 4.01813 3.03626 3.96961 3.03626 3.96961C4.97929 2.22264 7.50523 1.44622 10.0312 1.64032Z" fill="#C3750E"/>
<path d="M10.0312 1.64032C9.9826 1.68885 9.83687 1.64032 9.7883 1.64032C7.01948 1.49474 4.73641 2.80496 5.7565 3.14465C6.04796 3.2417 6.58229 3.2417 7.1652 3.19318C8.28245 3.14465 8.91393 3.14465 9.88545 3.2417C9.88545 3.38728 9.88545 3.53287 9.88545 3.62992C7.79669 3.48434 5.65935 4.11519 4.05635 5.61951C3.32771 4.89161 2.84195 4.16371 2.93911 4.06666C2.98768 4.01813 3.03626 3.96961 3.03626 3.96961C4.97929 2.22264 7.50523 1.44622 10.0312 1.64032Z" fill="#BF730D"/>
<path d="M10.0316 1.64032C9.98306 1.64032 9.98306 1.64032 9.93448 1.64032C8.38006 1.54327 6.77706 1.88296 5.65981 2.46528C3.95966 3.38728 4.34826 4.40635 4.63972 4.55193C4.83402 4.64898 5.17405 4.5034 5.65981 4.35782C6.82563 3.87255 8.04003 3.48434 9.93448 3.62992V3.67845C7.84572 3.53287 5.70839 4.16371 4.10538 5.66804C3.32817 4.89161 2.84241 4.16371 2.93956 4.06666C2.98814 4.01813 3.03672 3.96961 3.03672 3.96961C4.97975 2.22264 7.50569 1.44622 10.0316 1.64032Z" fill="#BB700C"/>
<path d="M10.0315 1.64032C9.98289 1.68885 9.83716 1.64032 9.78858 1.64032C9.1571 1.5918 7.50552 1.5918 5.75679 2.36822C4.10521 3.09612 3.5223 4.16371 3.23085 4.69751C2.98797 4.35782 2.89081 4.11519 2.93939 4.06666C2.98797 4.01813 3.03654 3.96961 3.03654 3.96961C4.97957 2.22264 7.50552 1.44622 10.0315 1.64032Z" fill="#B76E0A"/>
<path d="M9.54567 1.5917C6.874 1.54317 4.44521 2.61076 3.08509 4.40625C2.93936 4.26067 2.89078 4.11509 2.93936 4.06656C2.98793 4.01803 3.03651 3.96951 3.03651 3.96951C4.93097 2.27107 7.31118 1.49464 9.78855 1.5917C9.73998 1.5917 9.64282 1.5917 9.54567 1.5917Z" fill="#B36B08"/>
<path d="M9.05986 1.59167C5.85386 1.73726 4.00798 3.14453 2.98789 4.30917C2.93931 4.21212 2.89073 4.11507 2.93931 4.06654C2.98789 4.01801 3.03646 3.96949 3.03646 3.96949C4.73662 2.41663 6.92253 1.6402 9.10844 1.59167C9.10844 1.59167 9.10844 1.59167 9.05986 1.59167Z" fill="#B06906"/>
<path d="M8.37956 1.64075C6.14508 1.88338 4.34777 2.75686 2.93907 4.26119C2.93907 4.16414 2.89049 4.11561 2.93907 4.06708C2.98765 4.01856 3.03622 3.97003 3.03622 3.97003C4.59065 2.56276 6.48511 1.78633 8.47671 1.64075C8.42814 1.64075 8.37956 1.64075 8.37956 1.64075Z" fill="#AC6605"/>
<path d="M7.65093 1.7373C6.97086 1.88288 4.83353 2.2711 2.93907 4.16364C2.93907 4.11511 2.89049 4.06659 2.93907 4.06659C2.98765 4.01806 3.03622 3.96953 3.03622 3.96953C4.39634 2.75637 6.04792 1.97994 7.79665 1.7373C7.74808 1.7373 7.6995 1.7373 7.65093 1.7373Z" fill="#A86403"/>
<path d="M6.92218 1.8833C5.95067 2.17446 4.39624 2.70826 2.93896 4.16406C2.93896 4.11553 2.93896 4.11553 2.93896 4.067C2.98754 4.01848 3.03612 3.96995 3.03612 3.96995C4.20194 2.90236 5.56206 2.22299 7.01933 1.8833C7.01933 1.8833 6.97076 1.8833 6.92218 1.8833Z" fill="#A46101"/>
<path d="M6.04782 2.17408C4.78485 2.65935 3.91048 3.24167 2.93896 4.11515C2.93896 4.06662 2.93896 4.06662 2.93896 4.06662C2.98754 4.0181 3.03612 3.96957 3.03612 3.96957C4.00763 3.09609 5.0763 2.51377 6.24212 2.07703C6.19355 2.12555 6.09639 2.17408 6.04782 2.17408Z" fill="#A05E00"/>
<path d="M5.12488 2.56269C4.25051 2.99943 3.6676 3.43617 2.93896 4.11554V4.06702C2.98754 4.01849 3.03612 3.96996 3.03612 3.96996C3.71618 3.33911 4.44482 2.85385 5.22203 2.51416C5.22203 2.51416 5.17345 2.56269 5.12488 2.56269Z" fill="#9C5C00"/>
<path d="M10.192 4.02003C12.2807 4.16561 14.4181 5.13615 16.0211 6.83458C19.2271 10.2315 19.3242 15.4238 16.1668 18.4325L16.1182 18.481C14.1752 20.2765 12.2807 22.072 10.3377 23.8675C8.39466 21.7808 6.40305 19.6942 4.46002 17.656C1.25402 14.2592 1.15686 9.06681 4.31429 6.05816L4.36287 6.00963C5.96587 4.55383 8.10321 3.87445 10.192 4.02003Z" fill="#C5770F"/>
<path d="M9.822 7.00302L6 16.999H7.75L8.66 14.493H12.846L13.756 16.999H15.506L11.684 7.00302H9.822ZM9.15 13.149L10.732 8.76702H10.788L12.356 13.149H9.15Z" fill="white"/>
</svg>
