<svg width="41" height="48" viewBox="0 0 41 48" fill="none" xmlns="http://www.w3.org/2000/svg">
<path d="M19.2844 0.0240287C17.1421 0.117004 14.0853 1.24046 12.8247 1.79056C12.0808 2.17021 10.4146 3.07362 9.70053 3.65007C8.80792 4.37063 7.35155 5.46309 5.82471 7.04367C4.29788 8.62426 2.77104 10.6697 1.85494 12.2968C1.12206 13.5984 0.375074 16.7441 0.0931936 18.1542C-0.0399153 18.7663 -0.132308 20.9435 0.562989 24.7555C1.25829 28.5675 4.07863 32.2168 5.40189 33.5649L19.1199 47.8599C24.045 43.5055 34.2192 34.4249 35.5158 32.9373C37.1366 31.0778 40.0024 28.1723 40.6836 23.3841C41.2285 19.5535 40.5818 15.9771 40.1903 14.6677C38.8279 10.3675 36.15 7.36909 34.3883 5.60255C32.6266 3.83602 29.197 1.79056 26.6367 1.00027C24.0763 0.20998 21.9622 -0.0921906 19.2844 0.0240287Z" fill="#B76E0A"/>
<path d="M35.624 32.7703C35.8051 32.6807 35.1714 31.7849 34.1755 30.7098L34.2661 30.7994L34.3566 30.889L34.4471 30.9786L34.5377 31.0682L34.6282 31.1578L34.7187 31.2474L34.8092 31.3369L34.8998 31.5161L34.9903 31.6953V31.7849L35.0808 31.964L35.1714 32.0536L35.2619 32.1432L35.3524 32.2328L35.4429 32.3224L35.5335 32.412V32.5016V32.5912L35.624 32.7703Z" fill="#9C5C00"/>
<path d="M8.91821 4.46035C10.2762 3.29572 14.531 -0.287745 21.9544 0.0706012C17.2469 -0.198159 12.5394 1.23523 8.91821 4.46035Z" fill="#B36B08"/>
<path d="M21.9544 0.16112C21.7734 0.250706 21.5923 0.16112 21.5018 0.16112C16.9753 -0.0180534 12.4489 1.41533 8.91821 4.55086C9.09927 4.37169 9.28033 4.19252 9.46139 4.10293C9.64245 3.83417 9.82351 3.655 10.0046 3.56541L10.6383 3.11748C10.8193 3.02789 11.0909 2.84872 11.272 2.75913L11.9057 2.40079C12.0867 2.3112 12.3583 2.13203 12.5394 2.04244L13.1731 1.77368C13.3541 1.68409 13.6257 1.59451 13.8068 1.50492L14.4405 1.23616C14.6216 1.14657 14.8931 1.05699 15.1647 0.967399L15.889 0.788226C16.07 0.69864 16.3416 0.69864 16.6132 0.609053L17.2469 0.340293C17.428 0.340293 17.6995 0.250706 17.9711 0.250706L18.6954 0.16112C18.8764 0.16112 19.2385 0.0715332 19.4196 0.0715332H20.1438C20.3249 0.0715332 20.687 0.0715332 20.8681 0.0715332H21.5923L21.9544 0.16112C21.9544 0.0715332 21.9544 0.16112 21.9544 0.16112Z" fill="#B36B08"/>
<path d="M21.9544 0.16112C21.4112 0.340293 20.8681 0.16112 20.2344 0.16112C16.07 0.250706 12.0867 1.68409 8.91821 4.55086C9.09927 4.37169 9.28033 4.19252 9.46139 4.10293C9.64245 3.83417 9.82351 3.655 10.0046 3.56541L10.6383 3.11748C10.8193 3.02789 11.0909 2.84872 11.272 2.75913L11.9057 2.40079C12.0867 2.3112 12.3583 2.13203 12.5394 2.04244L13.1731 1.77368C13.3541 1.68409 13.6257 1.59451 13.8068 1.50492L14.4405 1.23616C14.6216 1.14657 14.8931 1.05699 15.1647 0.967399L15.889 0.788226C16.07 0.69864 16.3416 0.69864 16.6132 0.609053L17.2469 0.340293C17.428 0.340293 17.6995 0.250706 17.9711 0.250706L18.6954 0.16112C18.8764 0.16112 19.2385 0.0715332 19.4196 0.0715332H20.1438C20.3249 0.0715332 20.687 0.0715332 20.8681 0.0715332H21.5923L21.9544 0.16112Z" fill="#B06906"/>
<path d="M21.9544 0.16112C20.9586 0.250706 19.9628 0.0715332 19.0575 0.16112C15.3458 0.519466 11.8151 1.86327 8.91821 4.46128C9.09927 4.2821 9.28033 4.10293 9.46139 4.01335C9.64245 3.83417 9.82351 3.655 10.0046 3.56541L10.6383 3.11748C10.8193 3.02789 11.0909 2.84872 11.272 2.75913L11.9057 2.40079C12.0867 2.3112 12.3583 2.13203 12.5394 2.04244L13.1731 1.77368C13.3541 1.68409 13.6257 1.59451 13.8068 1.50492L14.4405 1.23616C14.6216 1.14657 14.8931 1.05699 15.1647 0.9674L15.889 0.788226C16.07 0.69864 16.3416 0.69864 16.6132 0.609053L17.2469 0.340293C17.428 0.340293 17.6995 0.250706 17.9711 0.250706L18.6954 0.16112C18.8764 0.16112 19.2385 0.0715332 19.4196 0.0715332H20.1438C20.3249 0.0715332 20.687 0.0715332 20.8681 0.0715332H21.5923L21.9544 0.16112Z" fill="#AC6605"/>
<path d="M21.9539 0.16112C18.0611 0.250706 18.0611 0.250706 17.699 0.340293C14.44 0.877813 11.362 2.22161 8.82715 4.46128C9.00821 4.2821 9.18927 4.10293 9.37032 4.01335C9.64191 3.83417 9.82297 3.655 10.004 3.56541L10.6377 3.11748C10.8188 3.02789 11.0904 2.84872 11.2714 2.75913L11.9051 2.40079C12.0862 2.3112 12.3578 2.13203 12.5388 2.04244L13.1726 1.77368C13.3536 1.68409 13.6252 1.59451 13.8063 1.50492L14.44 1.23616C14.621 1.14657 14.8926 1.05699 15.1642 0.9674L15.8884 0.788226C16.0695 0.69864 16.3411 0.69864 16.6127 0.609053L17.2464 0.340293C17.4274 0.340293 17.699 0.250706 17.9706 0.250706L18.6948 0.16112C18.8759 0.16112 19.238 0.0715332 19.4191 0.0715332H20.1433C20.3244 0.0715332 20.6865 0.0715332 20.8675 0.0715332H21.5918L21.9539 0.16112Z" fill="#A86403"/>
<path d="M21.0491 0.0715332C19.7817 0.0715332 18.3333 0.0715332 16.3416 0.609053C13.6257 1.23616 11.0909 2.57996 8.91821 4.46128C9.09927 4.2821 9.28033 4.10293 9.46139 4.01335C9.64245 3.83417 9.82351 3.655 10.0046 3.56541L10.6383 3.11748C10.8193 3.02789 11.0909 2.84872 11.272 2.75913L11.9057 2.40079C12.0867 2.3112 12.3583 2.13203 12.5394 2.04244L13.1731 1.77368C13.3541 1.68409 13.6257 1.59451 13.8068 1.50492L14.4405 1.23616C14.6216 1.14657 14.8931 1.05699 15.1647 0.9674L15.889 0.788226C16.07 0.69864 16.3416 0.69864 16.6132 0.609053L17.2469 0.340293C17.428 0.340293 17.6995 0.250706 17.9711 0.250706L18.6954 0.16112C18.8764 0.16112 19.2385 0.0715332 19.4196 0.0715332H20.1438C20.3249 0.0715332 20.687 0.0715332 20.8681 0.0715332C20.8681 0.0715332 20.9586 0.0715332 21.0491 0.0715332Z" fill="#A46101"/>
<path d="M18.1522 0.250732C17.609 0.340319 16.4321 0.519492 14.8026 1.05701C12.7204 1.77371 10.6383 2.84875 8.91821 4.4613C9.09927 4.28213 9.28033 4.10296 9.46139 4.01337C9.64245 3.8342 9.82351 3.65502 10.0046 3.56544L10.6383 3.1175C10.8193 3.02792 11.0909 2.84874 11.272 2.75916L11.9057 2.40081C12.0867 2.31122 12.3583 2.13205 12.5394 2.04247L13.1731 1.77371C13.3541 1.68412 13.6257 1.59453 13.8068 1.50495L14.4405 1.23619C14.6216 1.1466 14.8931 1.05701 15.1647 0.967426L15.889 0.788252C16.07 0.698666 16.3416 0.698666 16.6132 0.609079L17.2469 0.340319C17.428 0.340319 17.6995 0.250732 17.9711 0.250732C18.0617 0.250732 18.1522 0.250732 18.2427 0.250732C18.2427 0.250732 18.1522 0.250732 18.1522 0.250732Z" fill="#A05E00"/>
<path d="M14.8931 0.967041C14.1689 1.2358 13.7163 1.41497 12.992 1.68373C11.5436 2.40043 10.0951 3.29629 8.91821 4.37133C9.09927 4.19216 9.28033 4.01299 9.46139 3.9234C9.64245 3.83381 9.82351 3.65464 10.0046 3.56505L10.6383 3.11712C10.8193 3.02753 11.0909 2.84836 11.272 2.75877L11.9057 2.40043C12.0867 2.31084 12.3583 2.13167 12.5394 2.04208L13.1731 1.77332C13.3541 1.68373 13.6257 1.59415 13.8068 1.50456L14.4405 1.2358L14.9837 0.967041H14.8931Z" fill="#9C5C00"/>
<path d="M7.83165 31.9637L18.7857 43.4308C18.7857 43.61 18.7857 43.7892 18.7857 43.9684L18.152 43.3412L17.6088 42.7141L16.9751 42.1766L16.4319 41.5495L15.8887 40.9224L15.3456 40.2953L14.8024 39.6682L14.2592 39.0411L13.6255 38.5932L13.0823 37.966L12.5392 37.3389L11.9055 36.8014L11.3623 36.2639L10.8191 35.7264L10.2759 35.1889L9.73276 34.6513L9.18959 34.1138L8.64641 33.5763L8.10323 33.0388L7.56006 32.5013C7.65059 32.1429 7.74112 32.0533 7.83165 31.9637Z" fill="#BB700C"/>
<path d="M7.55987 32.1427L18.7855 43.9681C18.7855 44.1473 18.7855 44.4161 18.7855 44.5952L7.19775 32.501C7.28828 32.4115 7.37881 32.3219 7.55987 32.1427Z" fill="#B76E0A"/>
<path d="M7.19737 32.5012L18.7851 44.685C18.7851 44.8642 18.7851 45.1329 18.7851 45.3121L6.92578 32.77C7.01631 32.6804 7.10684 32.5908 7.19737 32.5012Z" fill="#B36B08"/>
<path d="M6.92613 32.7697L18.7855 45.2222C18.7855 45.4014 18.7855 45.5805 18.7855 45.7597L18.1518 45.043L17.4275 44.3263L16.7033 43.6096L16.0696 42.8929L15.4359 42.1762L14.8022 41.4596L14.1685 40.8324L13.5348 40.2053L12.9011 39.4886L12.2674 38.8615L11.6336 38.2344L11.0905 37.6969L10.5473 37.0698L10.0041 36.4427L9.46095 35.9052L8.91777 35.2781L8.3746 34.7406L7.74089 34.1135L7.19772 33.5759L6.65454 33.0384C6.74507 32.9488 6.8356 32.8592 6.92613 32.7697Z" fill="#B06906"/>
<path d="M6.65469 33.0381L18.7856 45.7594C18.7856 45.9386 18.7856 46.1177 18.7856 46.2073L6.47363 33.2173C6.47363 33.1277 6.56416 33.0381 6.65469 33.0381Z" fill="#AC6605"/>
<path d="M6.47398 33.2174L18.8765 46.2075C18.8765 46.3866 18.8765 46.4762 18.8765 46.6554L6.20239 33.3966C6.29292 33.307 6.38345 33.307 6.47398 33.2174Z" fill="#A86403"/>
<path d="M6.2023 33.3966L18.8764 46.6554C18.8764 46.745 18.8764 46.9242 18.8764 47.0138L6.02124 33.5758C6.11177 33.4862 6.2023 33.4862 6.2023 33.3966Z" fill="#A46101"/>
<path d="M6.11123 33.5759L18.9664 47.0139C18.9664 47.1035 18.9664 47.1931 18.9664 47.3723L5.93018 33.6655C6.02071 33.6655 6.0207 33.5759 6.11123 33.5759Z" fill="#A05E00"/>
<path d="M5.93019 33.665L18.9664 47.2822C18.9664 47.6406 19.0569 47.9093 19.1475 47.9093L18.2422 46.9239L17.3369 46.028L16.5221 45.1321L15.7073 44.3258L14.9831 43.5196L14.2589 42.7133L13.5346 41.9966L12.8104 41.2799L12.1767 40.5632L11.543 39.8465L10.9093 39.2194L10.2756 38.5923L9.64189 37.9652L9.09871 37.3381L8.55554 36.711L8.01236 36.0839L7.46919 35.4568L6.92601 34.9193L6.38283 34.3817L5.83966 33.8442C5.6586 33.9338 5.74913 33.8442 5.93019 33.665Z" fill="#9C5C00"/>
<path d="M21.9536 0.161154C33.6319 1.23619 38.3394 10.1949 39.5163 12.972C40.8742 16.2867 43.3185 24.9767 35.7141 32.8603C42.8659 26.0517 42.7753 14.3158 35.3519 6.61139C31.5497 2.57999 26.7517 0.429914 21.9536 0.161154C21.9536 0.161154 21.9536 0.0715675 21.9536 0.161154Z" fill="#D58014"/>
<path d="M37.072 8.58154C36.6194 8.04402 35.8951 7.05857 34.6277 5.80436C31.0065 2.31048 26.4801 0.42916 21.9536 0.1604C22.1347 0.1604 22.4968 0.1604 22.6778 0.249987C22.8589 0.249987 23.221 0.339574 23.4021 0.339574L24.1263 0.42916C24.3074 0.42916 24.6695 0.518747 24.8505 0.608334L25.5748 0.787507C25.7558 0.877093 26.118 0.96668 26.299 0.96668L27.0232 1.23544C27.2043 1.32503 27.4759 1.41461 27.7475 1.5042L28.4717 1.77296C28.5622 1.77296 28.8338 1.86255 29.0149 1.95213L29.6486 2.31048C29.8297 2.40007 30.1012 2.57924 30.2823 2.66883L30.916 3.02717C31.0971 3.11676 31.3687 3.29593 31.5497 3.47511L32.1834 3.92304C32.3645 4.10221 32.6361 4.28139 32.8171 4.37097L33.5414 4.81891C33.7224 4.99808 33.994 5.17725 34.1751 5.35643L34.7182 5.89395C34.8993 6.07312 35.1709 6.34188 35.3519 6.52105L36.4383 7.68568C36.7099 8.04402 37.072 8.58154 37.3436 8.93989L38.1583 10.1941C38.3394 10.5525 38.7015 11.09 38.8826 11.5379L39.5163 12.8817C39.6973 13.3296 39.8784 13.8672 40.0595 14.3151L40.4216 15.7485C40.5121 16.1964 40.6026 16.7339 40.6932 17.1819L40.8742 18.6152C40.8742 19.0632 40.9648 19.6007 40.9648 20.0486V21.482C40.9648 21.93 40.8742 22.4675 40.7837 22.9154L40.5121 24.2592C40.4216 24.7071 40.2405 25.2447 40.15 25.603L39.6973 26.9468C39.5163 27.3052 39.3352 27.8427 39.0636 28.201L38.3394 29.4552C38.0678 29.8136 37.7962 30.2615 37.5246 30.6199L36.6194 31.6949C36.3478 32.0532 35.8951 32.5012 35.6235 32.7699C42.2322 26.5885 42.6848 16.1964 37.072 8.58154Z" fill="#D58014"/>
<path d="M38.7921 11.4483C37.1625 8.31278 34.8088 5.62519 31.9118 3.65428C28.8338 1.59379 25.3937 0.339574 21.9536 0.1604C22.1347 0.1604 22.4968 0.1604 22.6778 0.249987C22.8589 0.249987 23.221 0.339574 23.4021 0.339574L24.1263 0.42916C24.3074 0.42916 24.6695 0.518747 24.8505 0.608334L25.5748 0.787507C25.7558 0.877093 26.118 0.96668 26.299 0.96668L27.0232 1.23544C27.2043 1.32503 27.4759 1.41461 27.7475 1.5042L28.4717 1.77296C28.5622 1.77296 28.8338 1.86255 29.0149 1.95213L29.6486 2.31048C29.8297 2.40007 30.1012 2.57924 30.2823 2.66883L30.916 3.02717C31.0971 3.11676 31.3687 3.29593 31.5497 3.47511L32.1834 3.92304C32.3645 4.10221 32.6361 4.28139 32.8171 4.37097L33.5414 4.81891C33.7224 4.99808 33.994 5.17725 34.1751 5.35643L34.7182 5.89395C34.8993 6.07312 35.1709 6.34188 35.3519 6.52105L36.4383 7.68568C36.7099 8.04402 37.072 8.58154 37.3436 8.93989L38.1583 10.1941C38.3394 10.5525 38.7015 11.09 38.8826 11.5379L39.5163 12.8817C39.6973 13.3296 39.8784 13.8672 40.0595 14.3151L40.4216 15.7485C40.5121 16.1964 40.6026 16.7339 40.6932 17.1819L40.8742 18.6152C40.8742 19.0632 40.9648 19.6007 40.9648 20.0486V21.482C40.9648 21.93 40.8742 22.4675 40.7837 22.9154L40.5121 24.2592C40.4216 24.7071 40.2405 25.2447 40.15 25.603L39.6973 26.9468C39.5163 27.3052 39.3352 27.8427 39.0636 28.201L38.3394 29.4552C38.0678 29.8136 37.7962 30.2615 37.5246 30.6199L36.6194 31.6949C36.3478 32.0532 35.8951 32.5012 35.6235 32.7699C41.4174 27.3052 42.4132 18.6152 38.7921 11.4483Z" fill="#D17E13"/>
<path d="M39.6068 13.2395C37.7057 8.58104 34.5372 4.99758 30.2823 2.57874C27.657 1.14535 24.8505 0.339072 21.9536 0.0703125C22.1347 0.0703125 22.4968 0.0703125 22.6778 0.159899C22.8589 0.159899 23.221 0.249486 23.4021 0.249486L24.1263 0.339072C24.3074 0.339072 24.6695 0.428659 24.8505 0.518246L25.5748 0.697419C25.7558 0.787006 26.118 0.876592 26.299 0.876592L27.0232 1.14535C27.2043 1.23494 27.4759 1.32453 27.7475 1.41411L28.4717 1.68287C28.5622 1.77246 28.8338 1.86205 29.0149 1.95163L29.6486 2.30998C29.8297 2.39957 30.1012 2.57874 30.2823 2.66833L30.916 3.02667C31.0971 3.11626 31.3687 3.29543 31.5497 3.4746L32.1834 3.92254C32.3645 4.10171 32.6361 4.28088 32.8171 4.37047L33.5414 4.8184C33.7224 4.99758 33.994 5.17675 34.1751 5.35592L34.7182 5.89344C34.8993 6.07262 35.1709 6.34138 35.3519 6.52055L36.4383 7.68518C36.7099 8.04352 37.072 8.58104 37.3436 8.93939L38.1583 10.1936C38.3394 10.5519 38.7015 11.0895 38.8826 11.5374L39.5163 12.8812C39.6973 13.3291 39.8784 13.8667 40.0595 14.3146L40.4216 15.748C40.5121 16.1959 40.6026 16.7334 40.6932 17.1814L40.8742 18.6147C40.8742 19.0627 40.9648 19.6002 40.9648 20.0481V21.4815C40.9648 21.9295 40.8742 22.467 40.7837 22.9149L40.5121 24.2587C40.4216 24.7066 40.2405 25.2442 40.15 25.6025L39.6973 26.9463C39.5163 27.3047 39.3352 27.8422 39.0636 28.2005L38.3394 29.4547C38.0678 29.8131 37.7962 30.261 37.5246 30.6194L36.6194 31.6944C36.3478 32.0527 35.8951 32.5007 35.6235 32.7694C40.9648 27.7526 42.2322 20.0481 39.6068 13.2395Z" fill="#CE7C12"/>
<path d="M40.1504 14.763C39.1546 11.4483 36.3482 5.35643 28.7437 1.86255C26.571 0.877093 24.2173 0.249987 21.8635 0.1604C22.0446 0.1604 22.4067 0.1604 22.5878 0.249987C22.7688 0.249987 23.1309 0.339574 23.312 0.339574L24.0362 0.42916C24.2173 0.42916 24.5794 0.518747 24.7605 0.608334L25.4847 0.787507C25.6658 0.877093 26.0279 0.96668 26.2089 0.96668L26.9332 1.23544C27.1142 1.32503 27.3858 1.41461 27.6574 1.5042L28.3816 1.77296C28.5627 1.77296 28.8343 1.86255 29.0153 1.95213L29.649 2.31048C29.8301 2.40007 30.1017 2.57924 30.2827 2.66883L30.9164 3.02717C31.0975 3.11676 31.3691 3.29593 31.5502 3.47511L32.1839 3.92304C32.3649 4.10221 32.6365 4.28139 32.8176 4.37097L33.5418 4.81891C33.7229 4.99808 33.9944 5.17725 34.1755 5.35643L34.7187 5.89395C34.8997 6.07312 35.1713 6.34188 35.3524 6.52105L36.4387 7.68568C36.7103 8.04402 37.0724 8.58154 37.344 8.93989L38.1588 10.1941C38.3398 10.5525 38.702 11.09 38.883 11.5379L39.5167 12.8817C39.6978 13.3296 39.8788 13.8672 40.0599 14.3151L40.422 15.7485C40.5126 16.1964 40.6031 16.7339 40.6936 17.1819L40.8747 18.6152C40.8747 19.0632 40.9652 19.6007 40.9652 20.0486V21.482C40.9652 21.93 40.8747 22.4675 40.7841 22.9154L40.5126 24.2592C40.422 24.7071 40.241 25.2447 40.1504 25.603L39.6978 26.9468C39.5167 27.3052 39.3357 27.8427 39.0641 28.201L38.3398 29.4552C38.0683 29.8136 37.7967 30.2615 37.5251 30.6199L36.6198 31.6949C36.3482 32.0532 35.8956 32.5012 35.624 32.7699C40.6031 28.1114 42.0515 21.1237 40.1504 14.763Z" fill="#CA7A11"/>
<path d="M40.5121 16.1068C38.9731 9.38782 33.994 3.74387 27.4759 1.32503C25.6653 0.69792 23.8547 0.249987 21.9536 0.1604C22.1347 0.1604 22.4968 0.1604 22.6778 0.249987C22.8589 0.249987 23.221 0.339574 23.4021 0.339574L24.1263 0.42916C24.3074 0.42916 24.6695 0.518747 24.8505 0.608334L25.5748 0.787507C25.7558 0.877093 26.118 0.96668 26.299 0.96668L27.0232 1.23544C27.2043 1.32503 27.4759 1.41461 27.7475 1.5042L28.4717 1.77296C28.5622 1.77296 28.8338 1.86255 29.0149 1.95213L29.6486 2.31048C29.8297 2.40007 30.1012 2.57924 30.2823 2.66883L30.916 3.02717C31.0971 3.11676 31.3687 3.29593 31.5497 3.47511L32.1834 3.92304C32.3645 4.10221 32.6361 4.28139 32.8171 4.37097L33.5414 4.81891C33.7224 4.99808 33.994 5.17725 34.1751 5.35643L34.7182 5.89395C34.8993 6.07312 35.1709 6.34188 35.3519 6.52105L36.4383 7.68568C36.7099 8.04402 37.072 8.58154 37.3436 8.93989L38.1583 10.1941C38.3394 10.5525 38.7015 11.09 38.8826 11.5379L39.5163 12.8817C39.6973 13.3296 39.8784 13.8672 40.0595 14.3151L40.4216 15.7485C40.5121 16.1964 40.6026 16.7339 40.6932 17.1819L40.8742 18.6152C40.8742 19.0632 40.9648 19.6007 40.9648 20.0486V21.482C40.9648 21.93 40.8742 22.4675 40.7837 22.9154L40.5121 24.2592C40.4216 24.7071 40.2405 25.2447 40.15 25.603L39.6973 26.9468C39.5163 27.3052 39.3352 27.8427 39.0636 28.201L38.3394 29.4552C38.0678 29.8136 37.7962 30.2615 37.5246 30.6199L36.6194 31.6949C36.3478 32.0532 35.8951 32.5012 35.6235 32.7699C40.2405 28.4698 41.7795 22.1091 40.5121 16.1068Z" fill="#C67710"/>
<path d="M40.6932 17.3605C39.4258 9.5665 33.8129 3.11626 26.2085 0.876592C24.76 0.428659 23.4021 0.159899 21.9536 0.0703125C22.1347 0.0703125 22.4968 0.0703125 22.6778 0.159899C22.8589 0.159899 23.221 0.249486 23.4021 0.249486L24.1263 0.339072C24.3074 0.339072 24.6695 0.428659 24.8505 0.518246L25.5748 0.697419C25.7558 0.787006 26.118 0.876592 26.299 0.876592L27.0232 1.14535C27.2043 1.23494 27.4759 1.32453 27.7475 1.41411L28.4717 1.68287C28.5622 1.77246 28.8338 1.86205 29.0149 1.95163L29.6486 2.30998C29.8297 2.39957 30.1012 2.57874 30.2823 2.66833L30.916 3.02667C31.0971 3.11626 31.3687 3.29543 31.5497 3.4746L32.1834 3.92254C32.3645 4.10171 32.6361 4.28088 32.8171 4.37047L33.5414 4.8184C33.7224 4.99758 33.994 5.17675 34.1751 5.35592L34.7182 5.89344C34.8993 6.07262 35.1709 6.34138 35.3519 6.52055L36.4383 7.68518C36.7099 8.04352 37.072 8.58104 37.3436 8.93939L38.1583 10.1936C38.3394 10.5519 38.7015 11.0895 38.8826 11.5374L39.5163 12.8812C39.6973 13.3291 39.8784 13.8667 40.0595 14.3146L40.4216 15.748C40.5121 16.1959 40.6026 16.7334 40.6932 17.1814L40.8742 18.6147C40.8742 19.0627 40.9648 19.6002 40.9648 20.0481V21.4815C40.9648 21.9295 40.8742 22.467 40.7837 22.9149L40.5121 24.2587C40.4216 24.7066 40.2405 25.2442 40.15 25.6025L39.6973 26.9463C39.5163 27.3047 39.3352 27.8422 39.0636 28.2005L38.3394 29.4547C38.0678 29.8131 37.7962 30.261 37.5246 30.6194L36.6194 31.6944C36.3478 32.0527 35.8951 32.5007 35.6235 32.7694C39.8784 28.738 41.5985 23.0045 40.6932 17.3605Z" fill="#C3750E"/>
<path d="M40.8742 18.6152C40.0595 9.92534 33.5414 2.48965 25.0316 0.608334C24.0358 0.339574 23.04 0.249987 21.9536 0.1604C22.1347 0.1604 22.4968 0.1604 22.6778 0.249987C22.8589 0.249987 23.221 0.339574 23.4021 0.339574L24.1263 0.42916C24.3074 0.42916 24.6695 0.518747 24.8505 0.608334L25.5748 0.787507C25.7558 0.877093 26.118 0.96668 26.299 0.96668L27.0232 1.23544C27.2043 1.32503 27.4759 1.41461 27.7475 1.5042L28.4717 1.77296C28.5622 1.77296 28.8338 1.86255 29.0149 1.95213L29.6486 2.31048C29.8297 2.40007 30.1012 2.57924 30.2823 2.66883L30.916 3.02717C31.0971 3.11676 31.3687 3.29593 31.5497 3.47511L32.1834 3.92304C32.3645 4.10221 32.6361 4.28139 32.8171 4.37097L33.5414 4.81891C33.7224 4.99808 33.994 5.17725 34.1751 5.35643L34.7182 5.89395C34.8993 6.07312 35.1709 6.34188 35.3519 6.52105L36.4383 7.68568C36.7099 8.04402 37.072 8.58154 37.3436 8.93989L38.1583 10.1941C38.3394 10.5525 38.7015 11.09 38.8826 11.5379L39.5163 12.8817C39.6973 13.3296 39.8784 13.8672 40.0595 14.3151L40.4216 15.7485C40.5121 16.1964 40.6026 16.7339 40.6932 17.1819L40.8742 18.6152C40.8742 18.9736 40.9648 19.6007 40.9648 20.0486V21.482C40.9648 21.93 40.8742 22.4675 40.7837 22.9154L40.5121 24.2592C40.4216 24.7071 40.2405 25.2447 40.15 25.603L39.6973 26.9468C39.5163 27.3052 39.3352 27.8427 39.0636 28.201L38.3394 29.4552C38.0678 29.8136 37.7962 30.2615 37.5246 30.6199L36.6194 31.6949C36.3478 32.0532 35.8951 32.5012 35.6235 32.7699C39.6068 29.0969 41.3269 23.8113 40.8742 18.6152Z" fill="#BF730D"/>
<path d="M40.9652 19.7799C40.6936 10.1941 33.2702 1.86255 23.7646 0.339574C23.1309 0.249987 22.4972 0.1604 21.8635 0.1604C22.0446 0.1604 22.4067 0.1604 22.5878 0.249987C22.7688 0.249987 23.1309 0.339574 23.312 0.339574L24.0362 0.42916C24.2173 0.42916 24.5794 0.518747 24.7605 0.608334L25.4847 0.787507C25.6658 0.877093 26.0279 0.96668 26.2089 0.96668L26.9332 1.23544C27.1142 1.32503 27.3858 1.41461 27.6574 1.5042L28.3816 1.77296C28.5627 1.77296 28.8343 1.86255 29.0153 1.95213L29.649 2.31048C29.8301 2.40007 30.1017 2.57924 30.2827 2.66883L30.9164 3.02717C31.0975 3.11676 31.3691 3.29593 31.5502 3.47511L32.1839 3.92304C32.3649 4.10221 32.6365 4.28139 32.8176 4.37097L33.5418 4.81891C33.7229 4.99808 33.9944 5.17725 34.1755 5.35643L34.7187 5.89395C34.8997 6.07312 35.1713 6.34188 35.3524 6.52105L36.4387 7.68568C36.7103 8.04402 37.0724 8.58154 37.344 8.93989L38.1588 10.1941C38.3398 10.5525 38.702 11.09 38.883 11.5379L39.5167 12.8817C39.6978 13.3296 39.8788 13.8672 40.0599 14.3151L40.422 15.7485C40.5126 16.1964 40.6031 16.7339 40.6936 17.1819L40.8747 18.6152C40.8747 19.0632 40.9652 19.6007 40.9652 20.0486V21.482C40.9652 21.93 40.8747 22.4675 40.7841 22.9154L40.5126 24.2592C40.422 24.7071 40.241 25.2447 40.1504 25.603L39.6978 26.9468C39.5167 27.3052 39.3357 27.8427 39.0641 28.201L38.3398 29.4552C38.0683 29.8136 37.7967 30.2615 37.5251 30.6199L36.6198 31.6949C36.3482 32.0532 35.8956 32.5012 35.624 32.7699C39.3357 29.3656 41.0557 24.6176 40.9652 19.7799Z" fill="#BB700C"/>
<path d="M40.8747 20.9445C41.2368 10.5524 33.1797 1.41461 22.5878 0.249987C22.3162 0.249987 22.1351 0.249987 21.8635 0.1604C22.0446 0.1604 22.4067 0.1604 22.5878 0.249987C22.7688 0.249987 23.1309 0.339574 23.312 0.339574L24.0362 0.42916C24.2173 0.42916 24.5794 0.518747 24.7605 0.608334L25.4847 0.787507C25.6658 0.877093 26.0279 0.96668 26.2089 0.96668L26.9332 1.23544C27.1142 1.32503 27.3858 1.41461 27.6574 1.5042L28.3816 1.77296C28.5627 1.77296 28.8343 1.86255 29.0153 1.95213L29.649 2.31048C29.8301 2.40007 30.1017 2.57924 30.2827 2.66883L30.9164 3.02717C31.0975 3.11676 31.3691 3.29593 31.5502 3.47511L32.1839 3.92304C32.3649 4.10221 32.6365 4.28139 32.8176 4.37097L33.5418 4.81891C33.7229 4.99808 33.9944 5.17725 34.1755 5.35643L34.7187 5.89395C34.8997 6.07312 35.1713 6.34188 35.3524 6.52105L36.4387 7.68568C36.7103 8.04402 37.0724 8.58154 37.344 8.93989L38.1588 10.1941C38.3398 10.5525 38.702 11.09 38.883 11.5379L39.5167 12.8817C39.6978 13.3296 39.8788 13.8672 40.0599 14.3151L40.422 15.7485C40.5126 16.1964 40.6031 16.7339 40.6936 17.1819L40.8747 18.6152C40.8747 19.0632 40.9652 19.6007 40.9652 20.0486V21.482C40.9652 21.93 40.8747 22.4675 40.7841 22.9154L40.5126 24.2592C40.422 24.7071 40.241 25.2447 40.1504 25.603L39.6978 26.9468C39.5167 27.3052 39.3357 27.8427 39.0641 28.201L38.3398 29.4552C38.0683 29.8136 37.7967 30.2615 37.5251 30.6199L36.6198 31.6949C36.3482 32.0532 35.8956 32.5012 35.624 32.7699C38.9736 29.6344 40.7841 25.3342 40.8747 20.9445Z" fill="#B76E0A"/>
<path d="M40.8742 22.1091C41.9606 11.09 33.2698 1.05627 21.9536 0.1604H22.6778C22.8589 0.1604 23.221 0.249987 23.4021 0.249987L24.1263 0.339574C24.3074 0.339574 24.6695 0.42916 24.8505 0.518747L25.5748 0.69792C25.7558 0.787507 26.118 0.877093 26.299 0.877093L27.0233 1.14585C27.2043 1.23544 27.4759 1.32503 27.7475 1.41461L28.4717 1.68337C28.5622 1.77296 28.8338 1.86255 29.0149 1.95213L29.6486 2.31048C29.8297 2.40007 30.1012 2.57924 30.2823 2.66883L30.916 3.02717C31.0971 3.11676 31.3687 3.29593 31.5497 3.47511L32.1834 3.92304C32.3645 4.10221 32.6361 4.28139 32.8171 4.37097L33.5414 4.81891C33.7224 4.99808 33.994 5.17725 34.1751 5.35643L34.7182 5.89395C34.8993 6.07312 35.1709 6.34188 35.3519 6.52105L36.4383 7.68568C36.7099 8.04402 37.072 8.58154 37.3436 8.93989L38.1583 10.1941C38.3394 10.5525 38.7015 11.09 38.8826 11.5379L39.5163 12.8817C39.6973 13.3296 39.8784 13.8672 40.0595 14.3151L40.4216 15.7485C40.5121 16.1964 40.6026 16.7339 40.6932 17.1819L40.8742 18.6152C40.8742 19.0632 40.9648 19.6007 40.9648 20.0486V21.482C40.9648 21.93 40.8742 22.4675 40.7837 22.9154L40.5121 24.2592C40.4216 24.7071 40.2405 25.2447 40.15 25.603L39.6973 26.9468C39.5163 27.3052 39.3352 27.8427 39.0636 28.201L38.3394 29.4552C38.0678 29.8136 37.7962 30.2615 37.5246 30.6199L36.6194 31.6949C36.3478 32.0532 35.8951 32.5012 35.6235 32.7699C38.7015 29.9032 40.4216 26.0509 40.8742 22.1091Z" fill="#B36B08"/>
<path d="M29.9202 2.39956C27.2043 1.05577 24.8505 0.339072 21.9536 0.0703125L22.6778 0.159899C22.8589 0.159899 23.221 0.249486 23.4021 0.249486L24.1263 0.339072C24.3074 0.339072 24.6695 0.428659 24.8505 0.518246L25.5748 0.697419C25.7558 0.787006 26.118 0.876592 26.299 0.876592L27.0233 1.14535C27.2043 1.23494 27.4759 1.32453 27.7475 1.41411L28.4717 1.68287C28.5622 1.77246 28.8338 1.86205 29.0149 1.95163L29.6486 2.30998L30.1918 2.57874L29.9202 2.39956Z" fill="#B06906"/>
<path d="M40.6941 23.2735C41.5089 18.615 40.2415 15.0315 39.7889 13.6877C39.9699 14.3149 40.2415 15.1211 40.4226 15.6586C40.5131 16.1066 40.6036 16.6441 40.6941 17.092L40.8752 18.5254C40.8752 18.9734 40.9657 19.5109 40.9657 19.9588V21.3922C40.9657 21.8401 40.8752 22.3776 40.7847 22.8256L40.5131 24.1694C40.4226 24.6173 40.2415 25.1548 40.151 25.5132L39.6983 26.857C39.5173 27.2153 39.3362 27.7528 39.0646 28.1112L38.3404 29.3654C38.0688 29.7238 37.7972 30.1717 37.5256 30.53L36.6203 31.6051C36.3487 31.9634 35.8961 32.4114 35.6245 32.6801C38.4309 30.1717 40.0604 26.857 40.6941 23.2735Z" fill="#B06906"/>
<path d="M26.299 0.96668C24.6695 0.518747 23.5831 0.339574 21.9536 0.1604H22.6778C22.8589 0.1604 23.221 0.249987 23.4021 0.249987L24.1263 0.339574C24.3074 0.339574 24.6695 0.42916 24.8505 0.518747L25.5748 0.69792C25.7558 0.787507 26.0274 0.877093 26.299 0.96668C26.3895 0.96668 26.5706 1.05627 26.7517 1.05627C26.6611 1.05627 26.4801 0.96668 26.299 0.96668Z" fill="#AC6605"/>
<path d="M40.4226 24.4379C41.2373 21.1232 40.8752 18.6148 40.6941 17.271L40.8752 18.7044L40.9657 20.0482V21.4816C40.9657 21.9295 40.8752 22.467 40.7847 22.915L40.5131 24.2588C40.4226 24.7067 40.2415 25.2442 40.151 25.6026L39.6983 26.9464C39.5173 27.3047 39.3362 27.8422 39.0646 28.2006L38.3404 29.4548C38.0688 29.8131 37.7972 30.2611 37.5256 30.6194L36.6203 31.6944C36.3487 32.0528 35.8961 32.5007 35.6245 32.7695C38.0688 30.4402 39.6983 27.5735 40.4226 24.4379Z" fill="#AC6605"/>
<path d="M23.8547 0.337893C23.04 0.249147 22.4968 0.1604 21.9536 0.1604H22.6778C22.8589 0.1604 23.221 0.249147 23.4021 0.249147C23.4926 0.249147 23.6737 0.337893 23.8547 0.337893Z" fill="#A86403"/>
<path d="M40.151 25.6022C40.9657 23.0042 40.9657 21.1229 40.9657 20.1375L40.8752 21.5708L40.7847 22.825L40.5131 24.1688C40.4226 24.6168 40.2415 25.1543 40.151 25.6022L39.6983 26.8564C39.5173 27.2148 39.3362 27.7523 39.0646 28.1107L38.3404 29.3649C38.0688 29.7232 37.7972 30.1712 37.5256 30.5295L36.6203 31.6045C36.3487 31.9629 35.8961 32.4108 35.6245 32.6796C37.7972 30.7983 39.2457 28.2898 40.151 25.6022Z" fill="#A86403"/>
<path d="M39.6979 26.9467L39.7884 26.6779C40.4221 24.9758 40.4221 24.9758 40.7842 23.0945L40.5127 24.4383L40.2411 25.6029L39.6979 26.9467C39.5168 27.3051 39.3358 27.8426 39.1547 28.2009L38.4305 29.4551C38.1589 29.8135 37.8873 30.2614 37.6157 30.6198L36.7104 31.6948C36.4388 32.0531 35.9862 32.5011 35.7146 32.7698C37.4347 31.0677 38.7926 29.0968 39.6979 26.9467Z" fill="#A46101"/>
<path d="M38.9741 28.2905C39.6078 27.1259 39.8794 26.23 40.0604 25.6925L39.6078 27.0363L39.0646 28.2009L38.3404 29.4551C38.0688 29.8135 37.7972 30.2614 37.5256 30.6198L36.6203 31.6948C36.3487 32.0532 35.8961 32.5011 35.6245 32.7698C37.073 31.4261 38.1593 29.9927 38.9741 28.2905Z" fill="#A05E00"/>
<path d="M38.0688 29.9927C38.0688 29.9927 38.612 29.0969 38.8836 28.6489L38.0688 29.8136L37.5256 30.5302L36.6203 31.6053C36.3487 31.9636 35.8961 32.4116 35.6245 32.6803C36.5298 31.9636 37.3446 30.9782 38.0688 29.9927Z" fill="#9C5C00"/>
<path d="M32.4558 35.6368L35.6243 32.77L32.4558 35.6368Z" fill="#9B5C00"/>
<path d="M5.6588 33.9347C4.1198 32.2325 0.136516 27.6636 0.0459863 20.4967C-0.044543 13.2402 3.84821 9.20876 5.29668 7.68579C5.11562 7.86496 6.11144 9.11918 7.46938 10.5526C1.58498 16.1069 1.76604 25.6927 7.74097 31.9638C6.56409 33.0388 5.6588 33.9347 5.6588 33.9347Z" fill="#B76E0A"/>
<path d="M6.02088 8.76059C6.02088 8.85017 5.93035 8.85017 5.93035 8.93976C1.1323 17.8984 1.67547 25.782 7.55987 32.2323C6.47352 33.2177 5.74929 33.9344 5.74929 34.024C5.4777 33.6657 5.02505 33.2177 4.66294 32.8594C4.39135 32.501 4.02923 31.9635 3.75764 31.6052L2.94288 30.351C2.76182 29.9926 2.39971 29.4551 2.21865 29.0072L1.58494 27.6634C1.40388 27.2154 1.22283 26.6779 1.04177 26.23L0.67965 24.7966C0.589121 24.3487 0.498592 23.8111 0.408062 23.3632L0.227004 21.9298C0.227004 21.4819 0.136475 20.9444 0.136475 20.4964V19.063C0.136475 18.6151 0.227004 18.0776 0.317533 17.6297L0.498592 16.1963C0.589121 15.7483 0.770179 15.2108 0.860709 14.8525L1.31335 13.5087C1.49441 13.1503 1.67547 12.6128 1.94706 12.2545L2.67129 11.0003C2.94288 10.6419 3.21447 10.194 3.48606 9.83563L4.39135 8.76059C4.66294 8.40224 5.11558 7.95431 5.38717 7.68555C5.29664 7.68555 5.4777 8.13348 6.02088 8.76059Z" fill="#B76E0A"/>
<path d="M5.65847 8.22307C5.65847 8.31265 5.56794 8.31265 5.56794 8.31265C4.21 10.1044 1.76571 15.0317 2.12783 20.7652C2.58047 27.305 6.11111 31.1572 7.19746 32.4115C6.29217 33.3073 5.65847 33.8448 5.65847 33.8448C5.38688 33.4865 4.93423 33.0386 4.57212 32.6802C4.30053 32.3219 3.93841 31.7843 3.66682 31.426L2.85206 30.1718C2.671 29.8134 2.30889 29.2759 2.12783 28.828L1.49412 27.4842C1.31306 27.0363 1.13201 26.4987 0.950947 26.0508L0.58883 24.6174C0.498301 24.1695 0.407771 23.632 0.317242 23.184L0.136184 21.7506C0.136184 21.3027 0.0456543 20.7652 0.0456543 20.3173V18.8839C0.0456543 18.4359 0.136184 17.8984 0.226713 17.4505L0.4983 16.1963C0.58883 15.7483 0.769888 15.2108 0.860417 14.8525L1.31306 13.5087C1.49412 13.1503 1.67518 12.6128 1.94677 12.2545L2.671 11.0003C2.94259 10.6419 3.21418 10.194 3.48577 9.83563L4.39106 8.76059C4.66265 8.40224 5.11529 7.95431 5.38688 7.68555C5.29635 7.68555 5.38688 7.95431 5.65847 8.22307Z" fill="#B36B08"/>
<path d="M5.4777 8.04389C5.4777 8.13348 5.29664 8.22307 5.29664 8.31265C2.85235 11.1794 1.40388 16.0171 1.67547 20.3173C2.03759 26.5883 4.93453 30.351 7.0167 32.6802C6.29246 33.3969 5.74929 33.8448 5.74929 33.8448C5.4777 33.4865 5.02505 33.0386 4.66294 32.6802C4.39135 32.3219 4.02923 31.7843 3.75764 31.426L2.94288 30.1718C2.76182 29.8134 2.39971 29.2759 2.21865 28.828L1.58494 27.4842C1.40388 27.0363 1.22283 26.4987 1.04177 26.0508L0.67965 24.6174C0.589121 24.1695 0.498592 23.632 0.408062 23.184L0.227004 21.7506C0.227004 21.3027 0.136475 20.7652 0.136475 20.3173V18.8839C0.136475 18.4359 0.227004 17.8984 0.317533 17.4505L0.498592 16.1963C0.589121 15.7483 0.770179 15.2108 0.860709 14.8525L1.31335 13.5087C1.49441 13.1503 1.67547 12.6128 1.94706 12.2545L2.67129 11.0003C2.94288 10.6419 3.21447 10.194 3.48606 9.83563L4.39135 8.76059C4.66294 8.40224 5.11558 7.95431 5.38717 7.68555C5.29664 7.68555 5.38717 7.86472 5.4777 8.04389Z" fill="#B06906"/>
<path d="M5.38688 7.95431C5.38688 8.04389 5.20582 8.13348 5.11529 8.22307C3.48577 10.0148 0.860417 13.9566 1.22253 20.7652C1.40359 23.8111 2.39942 28.3801 6.65429 33.0386C6.02058 33.5761 5.65847 33.9344 5.65847 33.9344C5.38688 33.5761 4.93423 33.1281 4.57212 32.7698C4.30053 32.4115 3.93841 31.8739 3.66682 31.5156L2.85206 30.2614C2.671 29.903 2.30889 29.3655 2.12783 28.9176L1.49412 27.5738C1.31306 27.1258 1.13201 26.5883 0.950947 26.1404L0.58883 24.707C0.498301 24.2591 0.407771 23.7216 0.317242 23.2736L0.136184 21.8402C0.136184 21.3923 0.0456543 20.8548 0.0456543 20.4068V18.9735C0.0456543 18.5255 0.136184 17.988 0.226713 17.5401L0.498301 16.1963C0.58883 15.7483 0.769888 15.2108 0.860417 14.8525L1.31306 13.5087C1.49412 13.1503 1.67518 12.6128 1.94677 12.2545L2.671 11.0003C2.94259 10.6419 3.21418 10.194 3.48577 9.83563L4.39106 8.76059C4.66265 8.40224 5.11529 7.95431 5.38688 7.68555C5.29635 7.68555 5.29635 7.77513 5.38688 7.95431Z" fill="#AC6605"/>
<path d="M5.38688 7.86472C5.38688 8.04389 5.11529 8.22307 4.93423 8.31265C3.30471 10.0148 0.58883 13.9566 0.860417 20.6756C0.950947 23.7216 2.0373 28.4696 6.3827 33.2177C5.93006 33.6657 5.65847 33.9344 5.65847 33.9344C5.38688 33.5761 4.93423 33.1281 4.57212 32.7698C4.30053 32.4115 3.93841 31.8739 3.66682 31.5156L2.85206 30.2614C2.671 29.903 2.30889 29.3655 2.12783 28.9176L1.49412 27.5738C1.31306 27.1258 1.13201 26.5883 0.950947 26.1404L0.58883 24.707C0.498301 24.2591 0.407771 23.7216 0.317242 23.2736L0.136184 21.8402C0.136184 21.3923 0.0456543 20.8548 0.0456543 20.4068V18.9735C0.0456543 18.5255 0.136184 17.988 0.226713 17.5401L0.498301 16.1963C0.58883 15.7483 0.769888 15.2108 0.860417 14.8525L1.31306 13.5087C1.49412 13.1503 1.67518 12.6128 1.94677 12.2545L2.671 11.0003C2.94259 10.6419 3.21418 10.194 3.48577 9.83563L4.39106 8.76059C4.66265 8.40224 5.11529 7.95431 5.38688 7.68555C5.29635 7.68555 5.29635 7.77513 5.38688 7.86472Z" fill="#A86403"/>
<path d="M5.38717 7.77513C-1.22146 14.5837 -0.859347 25.6029 6.29246 33.3969C5.93035 33.7553 5.74929 33.9344 5.74929 33.9344C5.4777 33.5761 5.02505 33.1281 4.66294 32.7698C4.39135 32.4115 4.02923 31.8739 3.75764 31.5156L2.94288 30.2614C2.76182 29.903 2.39971 29.3655 2.21865 28.9176L1.58494 27.5738C1.40388 27.1258 1.22283 26.5883 1.04177 26.1404L0.67965 24.707C0.589121 24.2591 0.498592 23.7216 0.408062 23.2736L0.227004 21.8402C0.227004 21.3923 0.136475 20.8548 0.136475 20.4068V18.9735C0.136475 18.5255 0.227004 17.988 0.317533 17.5401L0.498592 16.1963C0.589121 15.7483 0.770179 15.2108 0.860709 14.8525L1.31335 13.5087C1.49441 13.1503 1.67547 12.6128 1.94706 12.2545L2.67129 11.0003C2.94288 10.6419 3.21447 10.194 3.48606 9.83563L4.39135 8.76059C4.66294 8.40224 5.11558 7.95431 5.38717 7.68555C5.29664 7.68555 5.29664 7.68555 5.38717 7.77513Z" fill="#A46101"/>
<path d="M5.38717 7.77513C5.38717 7.86472 5.20611 7.95431 5.11558 8.04389C3.305 9.83563 0.317533 13.867 0.498592 20.6756C0.589121 23.9007 1.67547 28.7384 6.1114 33.5761C5.83982 33.8448 5.74929 33.9344 5.74929 33.9344C5.4777 33.5761 5.02505 33.1281 4.66294 32.7698C4.39135 32.4115 4.02923 31.8739 3.75764 31.5156L2.94288 30.2614C2.76182 29.903 2.39971 29.3655 2.21865 28.9176L1.58494 27.5738C1.40388 27.1258 1.22283 26.5883 1.04177 26.1404L0.67965 24.707C0.589121 24.2591 0.498592 23.7216 0.408062 23.2736L0.227004 21.8402C0.227004 21.3923 0.136475 20.8548 0.136475 20.4068V18.9735C0.136475 18.5255 0.227004 17.988 0.317533 17.5401L0.498592 16.1963C0.589121 15.7483 0.770179 15.2108 0.860709 14.8525L1.31335 13.5087C1.49441 13.1503 1.67547 12.6128 1.94706 12.2545L2.67129 11.0003C2.94288 10.6419 3.21447 10.194 3.48606 9.83563L4.39135 8.76059C4.66294 8.40224 5.11558 7.95431 5.38717 7.68555C5.29664 7.68555 5.29664 7.68555 5.38717 7.77513Z" fill="#A05E00"/>
<path d="M5.29635 7.68555C-1.6744 14.7629 -1.40281 25.6925 5.93006 33.6657C5.749 33.8448 5.65847 33.9344 5.65847 33.9344C5.38688 33.5761 4.93423 33.1281 4.57212 32.7698C4.30053 32.4115 3.93841 31.8739 3.66682 31.5156L2.85206 30.2614C2.671 29.903 2.30889 29.3655 2.12783 28.9176L1.49412 27.5738C1.31306 27.1258 1.13201 26.5883 0.950947 26.1404L0.58883 24.707C0.498301 24.2591 0.407771 23.7216 0.317242 23.2736L0.136184 21.8402C0.136184 21.3923 0.0456543 20.8548 0.0456543 20.4068V18.9735C0.0456543 18.5255 0.136184 17.988 0.226713 17.5401L0.498301 16.1963C0.58883 15.7483 0.769888 15.2108 0.860418 14.8525L1.31306 13.5087C1.49412 13.1503 1.67518 12.6128 1.94677 12.2545L2.671 11.0003C2.94259 10.6419 3.21418 10.194 3.48577 9.83563L4.39106 8.76059C4.66265 8.40224 5.02476 7.95431 5.29635 7.68555C5.38688 7.68555 5.29635 7.68555 5.29635 7.68555Z" fill="#9C5C00"/>
<path d="M7.65023 10.4631C6.926 9.83601 6.38282 9.20891 5.93018 8.76097L6.0207 8.67139C6.47335 9.11932 7.01653 9.74643 7.65023 10.4631Z" fill="#BB700C"/>
<path d="M6.02032 8.67106L5.92979 8.76065C5.83926 8.58148 5.74873 8.4023 5.6582 8.22313L5.74873 8.13354C5.83926 8.31272 5.92979 8.49189 6.02032 8.67106Z" fill="#B76E0A"/>
<path d="M5.74864 8.13352L5.65811 8.22311C5.56758 8.22311 5.56758 8.13352 5.47705 8.04393L5.56758 7.95435C5.65811 8.04393 5.65811 8.13352 5.74864 8.13352Z" fill="#B36B08"/>
<path d="M5.56802 7.95374L5.47749 8.04248L5.38696 7.95374L5.47749 7.86499C5.56802 7.86499 5.56802 7.95374 5.56802 7.95374Z" fill="#B06906"/>
<path d="M5.47749 7.86441L5.38696 7.95316V7.86441H5.47749C5.47749 7.77566 5.47749 7.77566 5.47749 7.86441Z" fill="#AC6605"/>
<path d="M5.47749 7.77432L5.38696 7.86307C5.38696 7.86307 5.38696 7.86307 5.38696 7.77432H5.47749C5.47749 7.68558 5.47749 7.68558 5.47749 7.77432Z" fill="#A86403"/>
<path d="M5.47749 7.68579L5.38696 7.77547C5.38696 7.77547 5.38696 7.77547 5.38696 7.68579H5.47749Z" fill="#A46101"/>
<path d="M5.47774 7.5957L5.38721 7.68539L5.47774 7.5957Z" fill="#A05E00"/>
<path d="M5.47793 7.5957L5.29688 7.68539C5.29688 7.68539 5.3874 7.5957 5.47793 7.5957Z" fill="#9C5C00"/>
<path d="M18.6948 3.02717L21.8633 0.1604C22.1349 0.1604 22.316 0.1604 22.5876 0.249987L19.4191 3.11676C19.1475 3.02717 18.9664 3.02717 18.6948 3.02717Z" fill="#B76E0A"/>
<path d="M19.4192 3.02717L22.5877 0.1604C22.9498 0.1604 23.4025 0.249987 23.7646 0.339574L20.5961 3.20635C20.234 3.11676 19.7813 3.11676 19.4192 3.02717Z" fill="#BB700C"/>
<path d="M20.5957 3.20613L23.7642 0.339355C24.1263 0.428942 24.579 0.518529 24.9411 0.608115L21.7726 3.47489C21.4105 3.3853 20.9578 3.29571 20.5957 3.20613Z" fill="#BF730D"/>
<path d="M21.7734 3.47468L24.942 0.60791C25.3041 0.697497 25.7567 0.787083 26.1188 0.966257L22.9503 3.83303C22.5882 3.65386 22.2261 3.56427 21.7734 3.47468Z" fill="#C3750E"/>
<path d="M22.95 3.74397L26.1185 0.877197C26.5711 0.966784 26.9332 1.14596 27.3859 1.32513L24.2174 4.1919C23.8552 4.01273 23.4026 3.92314 22.95 3.74397Z" fill="#C67710"/>
<path d="M24.2166 4.19172L27.3851 1.32495C27.8377 1.50412 28.2904 1.6833 28.743 1.86247L25.5745 4.72924C25.1218 4.55007 24.6692 4.3709 24.2166 4.19172Z" fill="#CA7A11"/>
<path d="M25.5752 4.72932L28.7437 1.86255C29.1964 2.04172 29.7395 2.31048 30.1922 2.57924L27.0237 5.44601C26.571 5.17725 26.0278 4.99808 25.5752 4.72932Z" fill="#CE7C12"/>
<path d="M27.0239 5.44563L30.1924 2.57886C30.8262 2.9372 31.3693 3.29555 31.9125 3.6539L28.744 6.52067C28.2008 6.16232 27.5671 5.80398 27.0239 5.44563Z" fill="#D17E13"/>
<path d="M28.7439 6.52107L31.9124 3.6543C32.8177 4.2814 33.723 4.9981 34.5378 5.80438L31.3692 8.67115C30.5545 7.86487 29.6492 7.14817 28.7439 6.52107Z" fill="#D58014"/>
<path d="M31.3691 8.67048L34.5377 5.80371C34.8093 6.07247 34.9903 6.25164 35.2619 6.5204C35.8956 7.14751 36.4388 7.77462 36.8914 8.49131L33.7229 11.3581C33.1797 10.6414 32.6366 10.0143 32.0934 9.38718C31.8218 9.11842 31.6407 8.93924 31.3691 8.67048Z" fill="#D88215"/>
<path d="M33.7224 11.3585L36.8909 8.4917C37.6152 9.47715 38.2489 10.4626 38.7015 11.4481L35.533 14.3148C35.0804 13.2398 34.4466 12.2543 33.7224 11.3585Z" fill="#D58014"/>
<path d="M35.5334 14.315L38.702 11.4482C38.9736 12.0753 39.2451 12.6129 39.5167 13.24L36.3482 16.1067C36.1671 15.4796 35.8956 14.8525 35.5334 14.315Z" fill="#D17E13"/>
<path d="M36.3479 16.1068L39.5164 13.24C39.6975 13.7775 39.8785 14.2254 40.0596 14.763L36.8911 17.6297C36.71 17.0922 36.6195 16.5547 36.3479 16.1068Z" fill="#CE7C12"/>
<path d="M36.8921 17.6292L40.0606 14.7625C40.2417 15.2104 40.3322 15.6583 40.4227 16.1063L37.2542 18.973C37.1637 18.5251 37.0731 18.0772 36.8921 17.6292Z" fill="#CA7A11"/>
<path d="M37.2532 18.9732L40.4217 16.1064C40.5122 16.5544 40.6028 16.9127 40.6933 17.3607L37.5248 20.2274C37.4342 19.7795 37.3437 19.4212 37.2532 18.9732Z" fill="#C67710"/>
<path d="M37.5254 20.2271L40.6939 17.3604C40.7844 17.8083 40.7844 18.1666 40.875 18.6146L37.7064 21.4813C37.6159 21.0334 37.5254 20.6751 37.5254 20.2271Z" fill="#C3750E"/>
<path d="M37.6155 21.482L40.784 18.6152C40.784 18.9736 40.8745 19.4215 40.8745 19.7799L37.706 22.6466C37.706 22.2883 37.706 21.8404 37.6155 21.482Z" fill="#BF730D"/>
<path d="M37.7065 22.6466L40.8751 19.7798C40.8751 20.1381 40.8751 20.5861 40.8751 20.9444L37.7065 23.8112C37.7065 23.4528 37.7065 23.0049 37.7065 22.6466Z" fill="#BB700C"/>
<path d="M37.706 23.8106L40.8745 20.9438C40.8745 21.3022 40.8745 21.7501 40.784 22.1085L37.6155 24.9752C37.706 24.5273 37.706 24.169 37.706 23.8106Z" fill="#B76E0A"/>
<path d="M37.6154 24.9752L40.7839 22.1084C40.7839 22.4667 40.6934 22.9147 40.6028 23.273L37.4343 26.1398C37.5249 25.6919 37.6154 25.3335 37.6154 24.9752Z" fill="#B36B08"/>
<path d="M37.4347 26.14L40.6032 23.2732C40.5127 23.6315 40.4221 24.0795 40.3316 24.4378L37.1631 27.3046C37.3441 26.8567 37.4347 26.4983 37.4347 26.14Z" fill="#B06906"/>
<path d="M37.2542 27.3048L40.4227 24.438C40.3322 24.8859 40.2417 25.2443 40.0606 25.6026L36.8921 28.4694C37.0731 28.111 37.1637 27.6631 37.2542 27.3048Z" fill="#AC6605"/>
<path d="M36.8914 28.4696L40.0599 25.6028C39.8788 26.0507 39.7883 26.4986 39.6072 26.857L36.4387 29.7238C36.6198 29.3654 36.8008 28.9175 36.8914 28.4696Z" fill="#A86403"/>
<path d="M36.4391 29.7235L39.6077 26.8567C39.4266 27.3046 39.155 27.8421 38.9739 28.2901L35.8054 31.1568C36.077 30.7089 36.2581 30.261 36.4391 29.7235Z" fill="#A46101"/>
<path d="M35.8049 31.1575L38.9734 28.2908C38.7018 28.8283 38.3397 29.4554 37.9776 29.9929L34.8091 32.8597C35.1712 32.3222 35.5333 31.7847 35.8049 31.1575Z" fill="#A05E00"/>
<path d="M34.8096 32.8592L37.9781 29.9924C37.3444 30.9779 36.5296 31.9633 35.6243 32.7696L32.4558 35.6364C33.3611 34.8301 34.0853 33.8447 34.8096 32.8592Z" fill="#9C5C00"/>
<path d="M18.4236 6.70038C18.4236 4.81906 18.5141 3.11692 18.6952 2.93774C23.4932 3.29609 28.3818 5.44617 32.0935 9.29839C39.5169 17.0028 39.6074 28.8283 32.4556 35.5473C32.2746 35.7264 31.0072 34.6514 29.6492 33.218C35.5336 27.6637 35.3526 18.0779 29.3776 11.8068C26.2996 8.76087 22.4069 7.05873 18.4236 6.70038Z" fill="#D58014"/>
<path d="M29.6488 33.307C35.5332 27.7526 35.3521 18.1668 29.3772 11.8958C26.3897 8.76023 22.4064 6.9685 18.5137 6.69974C18.5137 5.44553 18.5137 4.2809 18.6042 3.56421C18.6042 3.6538 18.6947 3.6538 18.7853 3.6538C21.6822 4.46008 27.0234 5.89346 31.7309 11.3582C33.9942 14.0458 35.0805 16.823 35.4426 17.7189C36.3479 20.1377 36.3479 22.7357 37.1627 25.1546C37.7964 24.1691 38.4301 17.7189 33.8131 11.4478C39.4259 19.0627 38.9733 29.4547 32.3646 35.6362C32.2741 35.8154 31.0067 34.7404 29.6488 33.307Z" fill="#D58014"/>
<path d="M29.6488 33.3068C35.5332 27.7524 35.3521 18.1666 29.3772 11.8956C26.3897 8.76003 22.4064 6.9683 18.5137 6.69954C18.5137 5.53491 18.5137 4.54946 18.6042 3.83276C18.6042 3.83276 18.6042 3.83276 18.6947 3.83276C29.4677 6.52036 35.9858 13.8665 36.8911 24.7064C36.9816 25.3336 36.9816 26.1398 37.0722 26.1398C37.2532 26.2294 38.9733 21.123 35.6237 14.2248C39.3354 21.4813 38.249 30.1712 32.4552 35.636C32.2741 35.8152 31.0067 34.7401 29.6488 33.3068Z" fill="#D17E13"/>
<path d="M29.6488 33.3063C35.5332 27.7519 35.3521 18.1662 29.3772 11.8951C26.3897 8.75958 22.4064 6.96785 18.5137 6.69909C18.5137 5.71363 18.5137 4.81777 18.6042 4.10107C18.7853 4.10107 18.9663 4.19066 19.1474 4.19066C25.3034 5.71363 35.8048 10.5513 36.7101 25.8706C36.7101 26.3186 36.8006 27.0353 36.8911 27.1248C36.9816 27.1248 37.0722 27.1248 37.0722 27.1248C37.0722 27.1248 38.9733 23.183 36.529 16.0161C39.1543 22.8247 37.8869 30.5291 32.5457 35.546C32.2741 35.8147 31.0067 34.7397 29.6488 33.3063Z" fill="#CE7C12"/>
<path d="M29.6488 33.3073C35.5332 27.753 35.3521 18.1672 29.3772 11.8961C26.3897 8.76061 22.4064 6.96887 18.5137 6.70011C18.5137 5.89384 18.5137 5.08756 18.6042 4.46045C23.8549 5.62508 36.0763 10.0148 36.3479 26.6779C36.3479 27.9321 36.3479 28.4697 36.6195 28.4697C36.6195 28.4697 38.8828 24.7966 36.9816 17.6297C38.8828 24.0799 37.4343 31.0677 32.5457 35.7262C32.2741 35.8158 31.0067 34.7407 29.6488 33.3073Z" fill="#CA7A11"/>
<path d="M29.6488 33.3076C35.5332 27.7533 35.3521 18.1675 29.3772 11.8964C26.3897 8.7609 22.4064 6.96917 18.5137 6.70041C18.5137 6.0733 18.5137 5.35661 18.5137 4.81909C18.6947 4.81909 18.8758 4.90868 19.0568 4.90868C25.4844 6.34206 36.2574 11.1797 35.8048 27.5741C35.8048 28.47 35.7142 29.3658 35.9858 29.4554C36.2574 29.545 38.7017 25.7824 37.3438 18.7946C38.7017 24.7969 37.0722 31.1576 32.5457 35.4577C32.2741 35.8161 31.0067 34.741 29.6488 33.3076Z" fill="#C67710"/>
<path d="M37.2536 24.2584C37.2536 24.2584 37.1631 24.1689 36.982 23.1834C36.7104 21.3917 35.7146 15.8373 31.8219 11.358C27.4764 6.43071 24.0363 5.26608 19.1478 3.56393C19.0572 3.56393 18.8762 3.56393 18.7856 3.38476C18.7856 3.38476 18.7856 3.29517 18.8762 3.20559C19.2383 2.93683 26.7522 3.56393 32.0029 9.29748C38.2494 16.1061 37.5252 22.7355 37.4347 23.4522C37.4347 24.1689 37.4347 24.2584 37.2536 24.2584C37.3441 24.2584 37.2536 24.2584 37.2536 24.2584Z" fill="#D88215"/>
<path d="M29.6488 33.307C35.5332 27.7526 35.3521 18.1668 29.3772 11.8958C26.3897 8.76025 22.4064 6.96852 18.5137 6.69976C18.5137 6.25182 18.5137 5.80389 18.5137 5.35596C18.6042 5.44554 18.8758 5.44554 18.9663 5.44554C21.9538 5.98306 36.6195 9.7457 35.0805 27.9318C34.99 29.4548 34.8089 30.6194 35.1711 30.7986C35.6237 31.0673 38.4301 27.3943 37.5248 20.2273C38.4301 25.8713 36.7101 31.6048 32.4552 35.6362C32.2741 35.8154 31.0067 34.7404 29.6488 33.307Z" fill="#C3750E"/>
<path d="M37.2529 23.3629C37.1623 23.2733 37.1623 23.2733 36.8002 21.392C35.6233 15.8376 32.7264 12.2542 31.9116 11.2687C28.7431 7.68523 25.6651 5.62474 20.9576 4.01218C19.8712 3.65383 19.8712 3.65383 19.6902 3.47466C19.7807 3.47466 26.3894 3.02673 32.998 10.4624C37.0718 15.0313 38.0676 22.1087 37.4339 23.3629C37.4339 23.3629 37.4339 23.4525 37.2529 23.3629C37.3434 23.4525 37.3434 23.3629 37.2529 23.3629Z" fill="#DC8515"/>
<path d="M37.2539 22.5561C37.2539 22.5561 37.1633 22.3769 37.0728 21.8394C36.4391 18.9726 35.8054 17.0913 34.2664 14.3141C33.5422 13.0599 32.0032 10.7306 29.2873 8.40136C26.5714 6.1617 23.9461 4.90748 21.9544 4.19079C20.5059 3.65327 20.4154 3.65327 20.5059 3.56368C20.5965 3.02616 29.6494 4.54914 34.538 12.6119C37.797 17.8975 37.5254 22.1977 37.3444 22.6456L37.2539 22.5561Z" fill="#DF8716"/>
<path d="M37.2537 21.84C37.1631 21.7504 37.1631 21.7504 36.801 20.317C36.0768 17.5398 34.9904 15.5689 34.2662 14.3147C32.9083 12.075 31.2787 10.1937 29.2871 8.40197C26.4807 5.98313 23.4027 4.72892 22.2258 4.28099C21.3205 3.92264 21.3205 3.83305 21.23 3.74347C21.3205 3.74347 27.0239 3.65388 32.9988 10.4625C36.801 14.7626 37.8874 20.9441 37.3442 22.0191C37.2537 21.9296 37.2537 21.84 37.2537 21.84Z" fill="#E38917"/>
<path d="M29.6488 33.3068C35.5332 27.7525 35.3521 18.1667 29.3772 11.8956C26.3897 8.7601 22.4064 6.96836 18.5137 6.6996C18.5137 6.43084 18.5137 6.16208 18.5137 5.98291C18.6947 5.98291 18.8758 6.0725 19.0568 6.0725C26.7518 7.32671 37.0722 14.4041 34.1752 28.8275C32.8173 35.7257 35.9858 30.6192 36.3479 29.9025C38.068 26.3191 37.7964 22.646 37.7964 21.4814C38.249 26.767 36.529 31.963 32.5457 35.7257C32.2741 35.8153 31.0067 34.7402 29.6488 33.3068Z" fill="#BF730D"/>
<path d="M37.1632 21.123C36.9821 20.8542 36.9821 20.4959 36.8916 20.2271C35.8052 16.4645 34.1757 13.4185 32.0935 11.0893C29.2871 7.95375 26.8428 6.16202 22.769 4.37028C21.8637 4.01194 21.8637 3.92235 21.7732 3.83276C21.7732 3.83276 27.2049 4.01194 32.9083 10.3726C36.3484 14.3144 37.6158 19.9584 37.1632 21.2126C37.2537 21.2126 37.1632 21.2126 37.1632 21.123Z" fill="#E68B17"/>
<path d="M37.0725 20.5855C37.0725 20.4959 37.0725 20.4959 36.7104 19.6C36.2577 18.2562 34.8998 14.2248 32.0934 11.0893C29.5585 8.13295 27.2048 6.4308 23.4026 4.54948C22.4973 4.10155 22.4973 4.10155 22.4067 4.01196C22.4067 4.01196 27.4764 4.28072 32.9081 10.4622C36.0767 14.1353 37.5251 19.5104 37.163 20.6751C37.163 20.6751 37.163 20.5855 37.0725 20.5855Z" fill="#E98D18"/>
<path d="M36.982 19.9579C36.8009 19.6891 36.7104 19.2412 36.6199 18.8829C35.2619 14.8515 33.4513 12.4326 32.1839 10.9992C30.0112 8.58041 27.9291 6.69909 24.0363 4.72818C23.0405 4.28025 23.0405 4.28025 22.95 4.10107C22.95 4.10107 27.6575 4.45942 32.9082 10.3721C35.8051 13.6868 37.2536 18.6141 37.0725 20.0475C37.0725 20.0475 37.0725 20.0475 36.982 19.9579Z" fill="#ED8F18"/>
<path d="M36.892 19.511C36.8015 19.3318 36.711 18.9734 36.6204 18.7943C35.0814 14.6733 33.2709 12.1649 32.275 11.0898C30.1023 8.67098 28.1107 6.87925 24.1274 4.72917C23.9463 4.63958 23.5842 4.46041 23.5842 4.37082C23.6748 3.92289 29.7402 5.89379 33.814 11.5378C36.4394 15.2108 37.1636 18.9734 37.0731 19.6005C36.9826 19.6005 36.892 19.511 36.892 19.511Z" fill="#F09119"/>
<path d="M36.8005 18.9735C36.8005 18.8839 36.7099 18.7943 36.7099 18.7047C35.7141 16.2859 34.5372 13.5087 32.274 11.0003C30.5539 9.02937 28.6528 7.14805 24.6695 4.90838C24.2169 4.63962 24.2169 4.63962 23.9453 4.46045C23.9453 4.46045 28.1097 4.90838 32.9982 10.4628C35.6236 13.4191 37.1626 17.8984 36.9815 19.1527C36.891 19.0631 36.8005 19.0631 36.8005 18.9735Z" fill="#F29219"/>
<path d="M36.7101 18.5253C36.5291 18.2566 36.4385 17.8087 36.2575 17.5399C34.7185 13.9564 32.9984 11.7168 32.2742 11.0001C30.9163 9.4771 29.1962 7.50619 25.2129 5.26652C24.4887 4.90818 24.4887 4.90818 24.3076 4.729C24.3076 4.729 28.2004 5.26652 32.9079 10.5521C35.4427 13.4189 36.9817 17.8087 36.8007 18.7941C36.8007 18.6149 36.7101 18.5253 36.7101 18.5253Z" fill="#F4A03A"/>
<path d="M36.5295 18.0779C35.8053 16.8237 35.3527 15.3903 34.5379 14.1361C33.4515 12.2548 32.3652 11.0006 32.2747 11.0006C30.6451 9.02966 29.1061 7.4171 25.3944 5.26702C24.9418 4.99827 24.9418 4.99827 24.7607 4.81909C28.8346 4.99827 37.1632 14.3153 36.7106 18.2571C36.6201 18.2571 36.6201 18.1675 36.5295 18.0779Z" fill="#F5A546"/>
<path d="M36.4382 17.629C35.8045 16.4644 35.3519 15.2102 34.6276 14.0456C33.5413 12.1642 32.3644 10.91 32.3644 10.91C31.2781 9.65582 29.558 7.7745 26.3895 5.80359C25.3937 5.17649 25.3937 5.17649 25.1221 4.99731C25.1221 4.99731 28.5622 5.62442 32.9076 10.5517C34.9898 12.8809 36.6193 16.8228 36.6193 17.8978C36.5288 17.8082 36.4382 17.7186 36.4382 17.629Z" fill="#F5AA4E"/>
<path d="M36.3476 17.271C35.6234 16.1063 35.1708 14.8521 34.4465 13.7771C33.7223 12.6124 32.7265 11.2686 32.3644 10.9999C31.0969 9.65609 29.6485 7.95394 26.3894 5.80386C25.7557 5.35593 25.7557 5.35593 25.4841 5.17676C25.4841 5.17676 28.5621 5.71428 32.9075 10.552C34.8992 12.7916 36.5287 16.4647 36.4382 17.5397C36.4382 17.3605 36.3476 17.3605 36.3476 17.271Z" fill="#F6AD56"/>
<path d="M36.1673 16.8235C35.6241 15.9277 35.262 14.9422 34.7188 14.0463C34.2662 13.4192 33.3609 11.8963 32.4556 10.8212C30.5545 8.67114 29.3776 7.5961 26.4807 5.62519C26.2996 5.53561 26.1186 5.35643 25.9375 5.26685C25.9375 5.26685 28.8344 5.80437 32.9083 10.4629C34.8094 12.6129 36.3484 16.1068 36.3484 17.0923C36.2578 17.0027 36.2578 16.9131 36.1673 16.8235Z" fill="#F6B05C"/>
<path d="M29.6488 33.3067C35.5332 27.7523 35.3521 18.1665 29.3772 11.8955C26.3897 8.75994 22.4064 6.96821 18.5137 6.69945C18.6947 6.69945 18.8758 6.69945 19.0568 6.60986C29.1961 7.86408 38.8828 18.9728 31.5499 31.7837C29.8298 34.7401 33.451 34.5609 35.4426 31.6045C37.0722 29.2753 37.8869 26.2293 37.8869 22.5563C37.9775 27.394 36.2574 32.1421 32.6362 35.5463C32.2741 35.8151 31.0067 34.7401 29.6488 33.3067Z" fill="#BB700C"/>
<path d="M36.0767 16.4647C33.2703 11.8062 33.2703 11.8062 32.4555 10.9104C31.0976 9.38738 30.0113 8.13317 27.0238 6.07268C26.7522 5.8935 26.4806 5.71433 26.2996 5.53516C29.4681 5.98309 36.2578 13.6875 36.3483 16.8231C36.1672 16.6439 36.0767 16.5543 36.0767 16.4647Z" fill="#F7B362"/>
<path d="M35.9858 16.2856C34.809 14.4938 33.9037 12.5229 32.4552 10.9104C31.731 10.1041 31.0067 9.29782 30.1014 8.49154C28.9246 7.50609 27.6572 6.69981 26.5708 5.71436C29.5583 6.16229 36.0764 13.5084 36.0764 16.4648C36.0764 16.3752 36.0764 16.2856 35.9858 16.2856Z" fill="#F7B667"/>
<path d="M35.7146 15.7478C33.2704 11.7164 33.2703 11.7164 32.4556 10.8206C31.5503 9.74552 31.0071 9.208 30.1018 8.40172C29.106 7.50586 27.9291 6.69958 26.8428 5.80371C29.6492 6.34123 35.8052 13.2394 35.8957 16.0166C35.8957 15.927 35.8052 15.8374 35.7146 15.7478Z" fill="#F8B96C"/>
<path d="M35.5332 15.3895C33.27 11.806 33.27 11.806 31.5499 9.83513C30.2825 8.40175 28.653 7.32671 27.114 5.98291C29.7394 6.52043 35.6238 13.1498 35.7143 15.6583C35.7143 15.5687 35.6238 15.4791 35.5332 15.3895Z" fill="#F8BB71"/>
<path d="M35.4429 15.1205C34.9902 14.4038 34.5376 13.5976 34.085 12.9705C33.1797 11.6267 32.6365 10.9996 32.4554 10.91C31.4596 9.74534 31.0975 9.47658 30.1017 8.49113C29.2869 7.68485 28.2911 7.05774 27.4763 6.25146C29.8301 6.78898 35.4429 13.0601 35.624 15.4789C35.624 15.2997 35.5334 15.2101 35.4429 15.1205Z" fill="#F8BD76"/>
<path d="M35.1712 14.5835C32.6364 10.6417 32.6364 10.6417 27.8384 6.34155C30.0111 6.87907 35.2618 12.7918 35.5334 15.0315C35.4428 14.9419 35.2618 14.7627 35.1712 14.5835Z" fill="#F8BF7A"/>
<path d="M31.7314 35.2781C32.6367 34.8302 37.1632 32.053 37.7064 23.811C37.5253 28.2008 35.8053 32.5009 32.4557 35.6365C32.3651 35.7261 32.0936 35.5469 31.7314 35.2781Z" fill="#B76E0A"/>
<path d="M34.9906 14.2247C32.5463 10.5517 32.2747 10.2829 28.1104 6.60986C30.0115 7.0578 35.0811 12.7018 35.3527 14.7622C35.2622 14.5831 35.0811 14.4039 34.9906 14.2247Z" fill="#F8C17E"/>
<path d="M34.8993 13.956C32.2739 10.2829 32.1834 10.1934 28.4717 6.78906C30.1917 7.237 34.8993 12.6122 35.1708 14.4039C35.0803 14.2248 34.9898 14.0456 34.8993 13.956Z" fill="#F9C382"/>
<path d="M32.0024 35.457C35.0804 33.2173 36.9815 29.6338 37.6153 24.8857C37.2531 28.9171 35.4426 32.6798 32.3646 35.6361C32.3646 35.7257 32.1835 35.6361 32.0024 35.457Z" fill="#B36B08"/>
<path d="M34.8999 13.9568C32.2745 10.2837 32.0935 10.1045 28.7439 7.05859C30.3734 7.50653 34.7188 12.4338 34.8999 13.9568C34.9904 13.9568 34.9904 13.9568 34.8999 13.9568Z" fill="#F9C585"/>
<path d="M31.0973 8.40254C25.3035 3.2961 19.6906 3.11693 18.6948 3.20652C18.6948 3.11693 18.7854 3.02734 18.7854 3.02734C23.3118 3.2961 27.8383 5.26701 31.4594 8.6713C31.2784 8.58171 31.1879 8.49213 31.0973 8.40254Z" fill="#D58014"/>
<path d="M34.2666 12.9713C32.3655 10.2837 31.5507 9.56705 29.0159 7.23779C30.4643 7.68573 34.4476 12.1651 34.7192 13.688C34.6287 13.4193 34.4476 13.2401 34.2666 12.9713Z" fill="#F9C689"/>
<path d="M32.0935 35.5471C32.0935 35.2783 32.5461 35.1888 32.7272 35.0096C34.3567 33.6658 36.4389 30.9782 37.4347 26.1405C36.801 29.724 35.1715 33.0387 32.3651 35.7263C32.3651 35.7263 32.2746 35.6367 32.0935 35.5471Z" fill="#B06906"/>
<path d="M28.3819 6.34205C25.1228 4.28156 22.2259 3.38569 18.6047 3.11693C18.6047 3.02734 18.6047 3.02734 18.6953 3.02734C22.1354 3.2961 25.666 4.46073 28.744 6.52122C28.6535 6.43164 28.4724 6.34205 28.3819 6.34205Z" fill="#D17E13"/>
<path d="M34.2663 12.8813C32.5463 10.552 31.9126 9.83536 29.4683 7.5061C30.7357 7.95404 34.3568 11.9854 34.6284 13.3292C34.4474 13.1501 34.3568 12.9709 34.2663 12.8813Z" fill="#F9C88C"/>
<path d="M32.1836 35.6359C35.8048 32.5003 36.7101 29.0961 37.2532 27.3043C36.529 30.4399 34.8995 33.3962 32.4552 35.7255C32.3647 35.7255 32.2741 35.6359 32.1836 35.6359Z" fill="#AC6605"/>
<path d="M34.2657 12.7915C32.7267 10.731 32.093 10.0143 29.7393 7.77466C30.8256 8.133 34.0847 11.8061 34.2657 12.8811C34.3562 12.8811 34.2657 12.8811 34.2657 12.7915Z" fill="#FACA90"/>
<path d="M26.6618 5.26651C25.5755 4.72899 22.6786 3.20602 18.6047 3.02684C18.6047 3.02684 18.6047 2.93726 18.6953 2.93726C21.5017 3.11643 24.3986 3.92271 27.024 5.44568C26.9334 5.44568 26.7524 5.35609 26.6618 5.26651Z" fill="#CE7C12"/>
<path d="M32.2747 35.636C34.9905 33.2172 36.0769 30.7984 36.8917 28.4691C36.0769 31.1567 34.5379 33.5756 32.3652 35.636C32.3652 35.7256 32.3652 35.7256 32.2747 35.636Z" fill="#A86403"/>
<path d="M33.4511 11.716C32.3648 10.3722 31.55 9.47635 30.1016 8.04297C30.9163 8.40132 33.6322 11.2681 33.9943 12.4327C33.9038 12.2535 33.6322 11.9848 33.4511 11.716Z" fill="#FACB93"/>
<path d="M25.4845 4.72949C23.0402 3.65445 21.2296 3.20652 18.6948 3.11693V3.02734C21.0486 3.11693 23.4023 3.74404 25.4845 4.72949C25.575 4.72949 25.575 4.72949 25.4845 4.72949Z" fill="#CA7A11"/>
<path d="M32.2747 35.6367C34.8095 33.3075 35.8053 30.9782 36.439 29.724C35.5337 31.8741 34.1758 33.9346 32.4557 35.6367C32.3652 35.6367 32.3652 35.7263 32.2747 35.6367Z" fill="#A46101"/>
<path d="M23.6739 4.0128C21.7728 3.38569 20.5959 3.20652 18.6948 3.02734C20.5959 3.11693 22.4065 3.56486 24.2171 4.19197C24.0361 4.10238 23.855 4.10238 23.6739 4.0128Z" fill="#C67710"/>
<path d="M33.5417 11.7168C32.908 11.0001 32.1838 10.0147 30.6448 8.4917C31.369 8.85005 33.4512 11.1793 33.7228 11.9856C33.6322 11.896 33.5417 11.8064 33.5417 11.7168Z" fill="#FACD96"/>
<path d="M32.3647 35.6364C34.3564 33.8447 35.3522 32.053 35.8049 31.1571C34.9901 32.8593 33.8132 34.2926 32.3647 35.6364Z" fill="#A05E00"/>
<path d="M22.4971 3.65445C20.9581 3.2961 20.2338 3.20652 18.6948 3.02734C20.1433 3.11693 21.5918 3.38569 22.9497 3.83362C22.8592 3.74404 22.5876 3.65445 22.4971 3.65445Z" fill="#C3750E"/>
<path d="M32.727 10.6416C32.0933 9.83532 31.6406 9.47697 31.188 8.93945C31.7312 9.2978 32.6365 10.1937 33.2702 11.2687C32.9986 11.0895 32.8175 10.8208 32.727 10.6416Z" fill="#FACE99"/>
<path d="M32.3647 35.6364C33.7227 34.2926 33.7227 34.2926 34.809 32.7697C34.1753 33.8447 33.3606 34.8301 32.3647 35.6364C32.4553 35.6364 32.3647 35.6364 32.3647 35.6364Z" fill="#9C5C00"/>
<path d="M21.2296 3.38569C20.4149 3.20652 19.8717 3.11693 18.6948 3.02734C19.6906 3.11693 20.777 3.20652 21.7728 3.47528C21.5918 3.38569 21.4107 3.38569 21.2296 3.38569Z" fill="#BF730D"/>
<path d="M19.9622 3.11609C19.6001 3.11609 19.0569 3.02734 18.6948 3.02734C19.3285 3.02734 19.9622 3.11609 20.5959 3.20484C20.4149 3.20484 20.1433 3.11609 19.9622 3.11609Z" fill="#BB700C"/>
<path d="M19.3285 3.02694L18.6948 2.93726C18.9664 3.02694 19.1475 3.02694 19.3285 3.02694C19.4191 3.02694 19.3285 3.02694 19.3285 3.02694Z" fill="#B76E0A"/>
<path d="M29.5583 33.397C29.9205 33.5761 30.1921 33.8449 30.4636 34.1137L30.3731 34.2033C30.1015 34.0241 29.8299 33.7553 29.5583 33.397Z" fill="#BB700C"/>
<path d="M30.3738 34.2028H30.5548L30.6454 34.2923L30.7359 34.3819L30.8264 34.4715L30.917 34.5611H31.0075V34.6507C30.7359 34.5611 30.5548 34.3819 30.3738 34.2028Z" fill="#BF730D"/>
<path d="M30.916 34.6505L31.0971 34.7401H31.1876L31.3687 34.8297L31.5497 34.9193H31.6403L31.8213 35.0089L31.9118 35.0984L32.0024 35.188L32.0929 35.2776C31.7308 35.3672 31.3687 35.0984 30.916 34.6505Z" fill="#BB700C"/>
<path d="M18.7859 43.4312L29.5589 33.4871C30.3736 34.2933 31.0979 34.9204 31.7316 35.3684L18.8764 47.1042C18.8764 46.2979 18.7859 44.9542 18.7859 43.4312Z" fill="#BB700C"/>
<path d="M18.876 47.1046L31.6406 35.2792C31.7311 35.3688 31.8217 35.4583 31.9122 35.4583L18.9665 47.5525C18.9665 47.463 18.9665 47.2838 18.876 47.1046Z" fill="#B76E0A"/>
<path d="M18.967 47.5527L32.0033 35.4585C32.0938 35.4585 32.0938 35.5481 32.1843 35.5481L18.967 47.7319C18.967 47.7319 18.967 47.6423 18.967 47.5527Z" fill="#B36B08"/>
<path d="M18.967 47.7314L32.0938 35.5476H32.1843L19.0576 47.821C19.0576 47.821 19.0576 47.821 18.967 47.7314Z" fill="#B06906"/>
<path d="M19.0571 47.821L32.2744 35.5476C32.2744 35.5476 32.2744 35.5476 32.3649 35.5476L19.0571 47.821C19.0571 47.9106 19.0571 47.9106 19.0571 47.821Z" fill="#AC6605"/>
<path d="M19.0571 47.9102L32.2744 35.6368C32.2744 35.6368 32.2744 35.6368 32.3649 35.6368L19.0571 47.9102Z" fill="#A86403"/>
<path d="M19.0571 48.0003L32.2744 35.7269L19.0571 48.0003Z" fill="#A46101"/>
<path d="M5.65869 7.32756L8.82721 4.46079C10.0946 3.29617 11.4526 2.4003 12.901 1.77319L9.73251 4.63997C8.28404 5.26707 6.9261 6.25253 5.65869 7.32756Z" fill="#9C5C00"/>
<path d="M9.82373 4.63962L12.9923 1.77285C13.626 1.50409 14.1691 1.23533 14.8028 1.05615L11.6343 3.92292C11.0006 4.1021 10.3669 4.37086 9.82373 4.63962Z" fill="#A05E00"/>
<path d="M11.6345 3.92358L14.803 0.96722C15.3462 0.788047 15.7989 0.69846 16.342 0.519287L13.1735 3.38606C12.6303 3.56523 12.0872 3.74441 11.6345 3.92358Z" fill="#A46101"/>
<path d="M13.1733 3.47538L16.3419 0.608604C16.7945 0.519017 17.2472 0.42943 17.6998 0.339844L14.5313 3.20662C14.0786 3.20662 13.626 3.38579 13.1733 3.47538Z" fill="#A86403"/>
<path d="M14.5312 3.20635L17.6998 0.339574C18.1524 0.249987 18.6051 0.1604 19.0577 0.1604L15.8892 3.02717C15.346 3.02717 14.9839 3.11676 14.5312 3.20635Z" fill="#AC6605"/>
<path d="M15.7988 3.02667L19.0579 0.159899C19.42 0.0703125 19.8726 0.0703125 20.2348 0.0703125L17.0662 2.93708C16.6136 2.93708 16.2515 3.02667 15.7988 3.02667Z" fill="#B06906"/>
<path d="M17.0664 2.93708L20.2349 0.0703125C20.597 0.0703125 21.0497 0.0703125 21.4118 0.0703125L18.2433 2.93708C17.7906 2.93708 17.4285 2.93708 17.0664 2.93708Z" fill="#B36B08"/>
<path d="M18.2429 2.93708L21.4114 0.0703125C21.5925 0.0703125 21.7736 0.0703125 21.8641 0.0703125L18.6956 2.93708C18.5145 3.02667 18.424 2.93708 18.2429 2.93708Z" fill="#B76E0A"/>
<path d="M7.65098 10.4631C6.20251 9.02969 5.29722 7.68589 5.47828 7.50672C5.56881 7.41713 5.65934 7.32754 5.65934 7.32754C9.28051 4.10242 13.988 2.66904 18.6955 3.02738C18.5145 3.20656 18.424 4.81912 18.424 6.79002C14.5312 6.43168 10.5479 7.68589 7.65098 10.4631Z" fill="#D58014"/>
<path d="M18.6041 3.20656C18.3325 3.38573 17.9704 3.02738 17.7893 3.29614C17.7893 3.38573 17.6988 3.38573 18.5136 3.65449C18.423 4.37118 18.3325 5.53581 18.423 6.79002C14.5303 6.52126 10.547 7.68589 7.55953 10.4631C6.20159 9.02969 5.2963 7.68589 5.47736 7.50672C5.56789 7.41713 5.65842 7.32754 5.65842 7.32754C9.27959 4.10242 13.9871 2.66904 18.6946 3.02738C18.6946 3.02738 18.6946 3.11697 18.6041 3.20656Z" fill="#D58014"/>
<path d="M18.6955 3.11697C18.605 3.20656 18.5145 3.11697 18.424 3.11697C17.6997 3.11697 16.9755 3.20656 16.885 3.29614V3.38573C16.9755 3.47532 17.5187 3.65449 18.605 3.83366C18.5145 4.55036 18.5145 5.53581 18.5145 6.70044C14.6217 6.43168 10.6384 7.5963 7.65098 10.3735C6.20251 9.02969 5.29722 7.68589 5.47828 7.50672C5.56881 7.41713 5.65934 7.32754 5.65934 7.32754C9.28051 4.10242 13.988 2.66904 18.6955 3.02738C18.6955 3.02738 18.6955 3.02738 18.6955 3.11697Z" fill="#D17E13"/>
<path d="M18.6946 3.11652C18.6041 3.2061 18.3325 3.11652 18.242 3.11652C17.0651 3.11652 15.7977 3.29569 15.7072 3.47486C15.7072 3.56445 15.7072 3.56445 18.5136 4.19156C18.423 4.90825 18.423 5.80412 18.423 6.78957C14.5303 6.52081 10.547 7.68543 7.55953 10.4626C6.20159 9.02923 5.2963 7.68543 5.47736 7.50626C5.56789 7.41667 5.65842 7.32709 5.65842 7.32709C9.27959 4.10197 13.9871 2.66858 18.6946 3.11652C18.6946 3.02693 18.6946 3.02693 18.6946 3.11652Z" fill="#CE7C12"/>
<path d="M18.6946 3.02738C18.6041 3.11697 18.3325 3.02738 18.242 3.02738C16.5219 2.9378 14.6208 3.29614 14.5303 3.5649C14.5303 3.65449 14.5303 3.65449 18.5136 4.46077C18.5136 5.08788 18.423 5.89416 18.423 6.70044C14.5303 6.43168 10.547 7.5963 7.55953 10.3735C6.20159 9.02969 5.2963 7.68589 5.47736 7.50672C5.56789 7.41713 5.65842 7.32754 5.65842 7.32754C9.27959 4.10242 13.9871 2.66904 18.6946 3.02738Z" fill="#CA7A11"/>
<path d="M18.6946 3.02738C18.6041 3.02738 18.5136 3.02738 18.423 3.02738C15.7977 2.9378 13.3534 3.5649 13.2629 3.92325C13.2629 4.01284 13.1723 4.10242 13.8966 4.2816C15.4356 4.55036 16.9746 4.55036 18.423 4.9087C18.423 5.44622 18.423 6.07333 18.423 6.79002C14.5303 6.52126 10.547 7.68589 7.55953 10.4631C6.20159 9.02969 5.2963 7.68589 5.47736 7.50672C5.56789 7.41713 5.65842 7.32754 5.65842 7.32754C9.27959 4.10242 13.9871 2.66904 18.6946 3.02738Z" fill="#C67710"/>
<path d="M18.6946 3.02738C18.6041 3.11697 18.3325 3.02738 18.242 3.02738C14.4398 2.84821 10.4565 4.37118 12.2671 4.81912C14.2587 5.35664 16.3409 5.08788 18.423 5.35664C18.423 5.80457 18.423 6.2525 18.423 6.70044C14.5303 6.43168 10.547 7.5963 7.55953 10.3735C6.20159 9.02969 5.2963 7.68589 5.47736 7.50672C5.56789 7.41713 5.65842 7.32754 5.65842 7.32754C9.27959 4.10242 13.9871 2.66904 18.6946 3.02738Z" fill="#C3750E"/>
<path d="M18.6946 3.02738C18.6041 3.11697 18.3325 3.02738 18.242 3.02738C13.0818 2.75862 8.82694 5.17746 10.7281 5.80457C11.2712 5.98374 12.2671 5.98374 13.3534 5.89416C15.4356 5.80457 16.6125 5.80457 18.423 5.98374C18.423 6.2525 18.423 6.52126 18.423 6.70044C14.5303 6.43168 10.547 7.5963 7.55953 10.3735C6.20159 9.02969 5.2963 7.68589 5.47736 7.50672C5.56789 7.41713 5.65842 7.32754 5.65842 7.32754C9.27959 4.10242 13.9871 2.66904 18.6946 3.02738Z" fill="#BF730D"/>
<path d="M18.6955 3.02738C18.605 3.02738 18.605 3.02738 18.5145 3.02738C15.6176 2.84821 12.6301 3.47532 10.5479 4.55036C7.37939 6.2525 8.10363 8.13382 8.6468 8.40258C9.00892 8.58176 9.64262 8.313 10.5479 8.04424C12.7206 7.14837 14.9838 6.43168 18.5145 6.70044V6.79002C14.6217 6.52126 10.6384 7.68589 7.65098 10.4631C6.20251 9.02969 5.29722 7.68589 5.47828 7.50672C5.56881 7.41713 5.65934 7.32754 5.65934 7.32754C9.28051 4.10242 13.988 2.66904 18.6955 3.02738Z" fill="#BB700C"/>
<path d="M18.6952 3.02738C18.6047 3.11697 18.3331 3.02738 18.2426 3.02738C17.0657 2.9378 13.9877 2.9378 10.7287 4.37118C7.65066 5.71498 6.56431 7.68589 6.02113 8.67134C5.56848 8.04424 5.38743 7.5963 5.47795 7.50672C5.56848 7.41713 5.65901 7.32754 5.65901 7.32754C9.28018 4.10242 13.9877 2.66904 18.6952 3.02738Z" fill="#B76E0A"/>
<path d="M17.7898 2.93752C12.8107 2.84794 8.2842 4.81884 5.74938 8.13355C5.4778 7.86479 5.38727 7.59603 5.4778 7.50644C5.56833 7.41685 5.65885 7.32727 5.65885 7.32727C9.1895 4.19174 13.6254 2.75835 18.2424 2.93752C18.1519 2.93752 17.9708 2.93752 17.7898 2.93752Z" fill="#B36B08"/>
<path d="M16.8846 2.9375C10.9097 3.20626 7.46957 5.80427 5.56846 7.95435C5.47793 7.77518 5.3874 7.596 5.47793 7.50642C5.56846 7.41683 5.65899 7.32725 5.65899 7.32725C8.82751 4.46047 12.9013 3.02709 16.9751 2.9375C16.9751 2.9375 16.9751 2.9375 16.8846 2.9375Z" fill="#B06906"/>
<path d="M15.6165 3.02808C11.4522 3.47601 8.1026 5.08857 5.47725 7.86575C5.47725 7.68658 5.38672 7.59699 5.47725 7.50741C5.56778 7.41782 5.65831 7.32823 5.65831 7.32823C8.55524 4.73022 12.0859 3.29684 15.7976 3.02808C15.7071 3.02808 15.6165 3.02808 15.6165 3.02808Z" fill="#AC6605"/>
<path d="M14.2586 3.20654C12.9912 3.4753 9.00789 4.192 5.47725 7.68587C5.47725 7.59629 5.38672 7.5067 5.47725 7.5067C5.56778 7.41711 5.65831 7.32753 5.65831 7.32753C8.19312 5.08786 11.2711 3.65448 14.5302 3.20654C14.4396 3.20654 14.3491 3.20654 14.2586 3.20654Z" fill="#A86403"/>
<path d="M12.9004 3.47583C11.0899 4.01335 8.19293 4.9988 5.47705 7.6864C5.47705 7.59681 5.47705 7.59682 5.47705 7.50723C5.56758 7.41764 5.65811 7.32806 5.65811 7.32806C7.83081 5.35715 10.3656 4.10294 13.0815 3.47583C13.0815 3.47583 12.991 3.47583 12.9004 3.47583Z" fill="#A46101"/>
<path d="M11.2709 4.01267C8.91716 4.90854 7.28764 5.98358 5.47705 7.59613C5.47705 7.50655 5.47705 7.50655 5.47705 7.50655C5.56758 7.41696 5.65811 7.32738 5.65811 7.32738C7.46869 5.71482 9.46034 4.63978 11.633 3.8335C11.5425 3.92308 11.3615 4.01267 11.2709 4.01267Z" fill="#A05E00"/>
<path d="M9.55087 4.73021C7.92134 5.53649 6.83499 6.34277 5.47705 7.59698V7.5074C5.56758 7.41781 5.65811 7.32822 5.65811 7.32822C6.92552 6.1636 8.28346 5.26773 9.73193 4.64062C9.73193 4.64062 9.6414 4.73021 9.55087 4.73021Z" fill="#9C5C00"/>
<path d="M18.9944 7.42064C22.8872 7.6894 26.8705 9.48113 29.8579 12.6167C35.8328 18.8877 36.0139 28.4735 30.1295 34.0279L30.039 34.1175C26.4178 37.4322 22.8872 40.7469 19.266 44.0616C15.6448 40.2093 11.9331 36.3571 8.31196 32.5945C2.33703 26.3234 2.15597 16.7377 8.04037 11.1833L8.1309 11.0937C11.1184 8.4061 15.1017 7.15188 18.9944 7.42064Z" fill="#C5770F"/>
<path d="M13.8775 15.3996V32.5356H16.6855V24.9516H25.0615V22.5516H16.6855V17.7996H25.5655V15.3996H13.8775Z" fill="#FAE14D"/>
</svg>
