<svg width="26" height="23" viewBox="0 0 26 23" fill="none" xmlns="http://www.w3.org/2000/svg">
<g clip-path="url(#clip0_7430_178681)">
<path d="M1.81598 9.92804L7.07469 15.3812L12.228 20.8437C12.228 20.9265 12.228 21.1024 12.228 21.1851L11.6355 20.5562L11.143 20.0216L10.6065 19.4424L10.0733 18.9211L9.55259 18.364L8.96005 17.789L8.42137 17.1961L7.86474 16.6031L7.42868 16.0917L6.89217 15.5539L6.35566 15.0162L5.81915 14.4784L5.28265 13.9406L4.74614 13.4029L4.20963 12.8651L3.71439 12.2032L3.17788 11.6654L2.64138 11.0863L2.10487 10.5072L1.56836 9.92804C1.69217 9.92804 1.73344 9.92804 1.81598 9.92804Z" fill="#479260"/>
<path d="M1.58011 9.93665L12.2159 21.1386C12.2159 21.2214 12.2279 21.3898 12.2279 21.4726L1.34668 9.95461C1.42922 9.95461 1.49757 9.93665 1.58011 9.93665Z" fill="#458F5E"/>
<path d="M1.34568 9.95752C1.46949 9.95752 12.2301 21.443 12.2301 21.443C12.2301 21.5257 12.2301 21.6498 12.2301 21.7326L1.11328 9.97246C1.19582 9.97246 1.22187 9.95752 1.34568 9.95752Z" fill="#438C5C"/>
<path d="M1.11432 9.96936L12.2279 21.67C12.2279 21.7528 12.2279 21.8568 12.2279 21.9396L0.866699 9.96936C0.949239 9.96936 1.03178 9.96936 1.11432 9.96936Z" fill="#41895A"/>
<path d="M0.86675 9.96936L12.228 21.9216C12.228 22.0043 12.2459 22.1318 12.2459 22.1732L0.6604 9.96936C0.74294 10.0107 0.82548 10.0107 0.86675 9.96936Z" fill="#408658"/>
<path d="M0.7017 10.0108L12.2573 22.1727C12.2573 22.2554 12.2573 22.3962 12.2573 22.4789L4.48906 14.2672L0.536621 10.0108C0.577891 10.0108 0.619161 10.0108 0.7017 10.0108Z" fill="#3E8356"/>
<path d="M0.536417 10.0108L1.15546 10.6313L1.73324 11.2518L2.31102 11.8723L2.8888 12.4928L3.46658 13.1133L4.04435 13.7338L4.62213 14.3543L5.19991 14.9748L5.77769 15.554L6.35546 16.1745L6.93324 16.795L7.51102 17.4155L8.0888 18.036L8.66658 18.6565L9.24435 19.277L9.82213 19.8975L10.4412 20.518L11.0602 21.1385L11.6793 21.8004L12.2983 22.4622C12.2983 22.5036 12.2983 22.5863 12.2983 22.6277L0.371338 10.0108C0.412608 10.0108 0.453878 10.0108 0.536417 10.0108Z" fill="#3C8054"/>
<path d="M0.371368 10.0108L12.2571 22.545C12.2571 22.5863 12.2571 22.6277 12.2571 22.7104L0.247559 10.0108C0.288828 10.0108 0.330098 10.0108 0.371368 10.0108Z" fill="#3A7D52"/>
<path d="M0.247619 10.0107L12.2571 22.7104C12.2571 22.8758 12.3356 22.9458 12.2818 22.9458L11.6794 22.2967L11.019 21.5935L10.3587 20.8902L9.73968 20.2284L9.07937 19.5665L8.46032 18.9046L7.84127 18.2427L7.22222 17.6222L6.64445 17.0017L6.06667 16.3812L5.48889 15.7607L4.91111 15.1402L4.33333 14.5197L3.71429 13.8578L3.09524 13.2373L2.47619 12.6168L1.85714 11.955L1.2381 11.2931L0.619048 10.6312L0 9.96936C0 9.96936 0.12381 10.0107 0.247619 10.0107Z" fill="#387A4F"/>
<path d="M20.9237 1.03417L6.35547 0L20.9237 1.03417Z" fill="#458F5E"/>
<path d="M20.9237 1.03417L6.35547 0L7.1396 0.0413669L7.88245 0.124101L8.62531 0.165468L9.36817 0.206835L10.111 0.248202L10.8126 0.330935L11.5142 0.372302L12.2158 0.413669L12.9586 0.455036L13.6602 0.496403L14.3618 0.579137L15.0634 0.620504L15.765 0.661871L16.4666 0.703238L17.2094 0.744604L17.911 0.827338L18.6539 0.868705L19.3967 0.910072L20.1809 0.951439L20.9237 1.03417Z" fill="#438C5C"/>
<path d="M20.9237 1.03417L6.35547 0L20.9237 1.03417Z" fill="#41895A"/>
<path d="M20.9237 1.03417L6.35547 0L20.9237 1.03417Z" fill="#408658"/>
<path d="M20.9237 1.03417L6.35547 0L7.1396 0.0413669L7.88245 0.124101L8.62531 0.165468L9.36817 0.206835L10.111 0.248202L10.8126 0.330935L11.5142 0.372302L12.2571 0.413669L12.9586 0.455036L13.6602 0.496403L14.3618 0.579137L15.0634 0.620504L15.765 0.661871L16.5079 0.703238L17.9523 0.827338L18.6539 0.868705L19.3967 0.910072L20.1809 0.951439L20.9237 1.03417Z" fill="#3E8356"/>
<path d="M25.9587 10.3417L20.9238 1.03418L25.9587 10.3417Z" fill="#53A56E"/>
<path d="M25.9587 10.3417L20.9238 1.03418L26 10.3417H25.9587Z" fill="#51A26C"/>
<path d="M26 10.3417L20.9238 1.03418L26 10.3417Z" fill="#50A06A"/>
<path d="M26 10.3417L20.9238 1.03418L26 10.3417Z" fill="#4E9D68"/>
<path d="M26 10.3417L25.7111 9.80396L25.4222 9.30756L25.1334 8.81116L24.8857 8.31476L24.6381 7.85972L24.3905 7.36332L24.1429 6.90828L23.8953 6.45324L23.6476 6.03958L23.4 5.58454L23.1524 5.1295L22.946 4.71583L22.6984 4.2608L22.4508 3.80576L22.2032 3.35073L21.9556 2.93706L21.708 2.44065L21.4603 1.98562L21.2127 1.53058L20.9238 1.03418L26 10.3417Z" fill="#4C9A66"/>
<path d="M26 10.3417L20.9238 1.03418L26 10.3417Z" fill="#4B9764"/>
<path d="M26 10.3417L20.9238 1.03418L26 10.3417Z" fill="#499562"/>
<path d="M26 10.3417L25.7111 9.80396L25.4222 9.30756L25.1334 8.81116L24.8857 8.31476L24.6381 7.81835L24.3905 7.36332L24.1429 6.90828L23.8953 6.45324L23.6476 6.03958L23.4 5.58454L23.1524 5.1295L22.946 4.71583L22.6984 4.2608L22.4508 3.80576L22.2032 3.35073L21.9556 2.89569L21.708 2.44065L21.4603 1.98562L21.2127 1.48922L20.9238 1.03418L26 10.3417Z" fill="#479260"/>
<path d="M26 10.3417L20.9238 1.03418L26 10.3417Z" fill="#458F5E"/>
<path d="M26 10.3417L20.9238 1.03418L21.2127 1.53058L21.4603 1.98562L21.708 2.44065L21.9556 2.89569L22.2032 3.35073L22.4508 3.80576L22.6984 4.2608L22.946 4.71583L23.1524 5.1295L23.4 5.58454L23.6476 5.99821L23.8953 6.45324L24.1429 6.90828L24.3905 7.36332L24.6381 7.81835L24.8857 8.31476L25.1334 8.81116L25.4222 9.26619L25.7111 9.80396L26 10.3004V10.3417Z" fill="#438C5C"/>
<path d="M5.69519 3.14391L1.81582 9.92808C1.60948 9.92808 1.40313 9.96945 1.19678 9.96945L5.4063 2.60614C5.48884 2.77161 5.57138 2.93708 5.69519 3.14391Z" fill="#479260"/>
<path d="M5.40625 2.60616L1.19672 9.96947C1.04133 9.99067 0.859894 10.0086 0.736084 10.0086L5.1999 2.15112C5.24117 2.27522 5.32371 2.44069 5.40625 2.60616Z" fill="#458F5E"/>
<path d="M5.19989 2.15109L0.742746 10.0108C0.660207 10.0108 0.536397 10.0108 0.453857 10.0108L5.07608 1.90289C5.07608 1.98563 5.11735 2.06836 5.19989 2.15109Z" fill="#438C5C"/>
<path d="M5.07612 1.90289L0.453898 10.0108C0.412628 10.0108 0.330088 10.0108 0.288818 10.0108L4.99358 1.73743C4.99358 1.77879 5.03485 1.82016 5.07612 1.90289Z" fill="#41895A"/>
<path d="M4.9936 1.73744L4.79415 2.15628L4.52481 2.58753L4.29138 3.01878L4.04 3.43206L3.80658 3.86331L3.57315 4.25863L3.46542 4.45628L3.35768 4.67191L3.12426 5.04925L2.9447 5.4266L2.71127 5.78597L2.47614 6.20507L2.26979 6.61874L2.02217 7.03241L1.77455 7.44608L1.52693 7.85975L1.27931 8.27341L1.04138 8.69691L0.825347 9.10075L0.577727 9.55579L0.330108 10.0108C0.288839 10.0108 0.247569 10.0108 0.206299 10.0108L4.95233 1.61334C4.95233 1.65471 5.00962 1.6891 4.9936 1.73744Z" fill="#408658"/>
<path d="M4.95235 1.61333L0.206319 10.0108C0.165049 10.0108 0.165049 10.0108 0.123779 10.0108L4.91986 1.5094C4.9466 1.54211 4.95235 1.57196 4.95235 1.61333Z" fill="#3E8356"/>
<path d="M4.91984 1.50943L0.125645 10.0086L0.0717773 9.99068L4.91106 1.48926L4.91984 1.50943Z" fill="#3C8054"/>
<path d="M4.91109 1.48923L0.0718003 10.0086L0.0358887 9.99064L4.86982 1.40649C4.91109 1.44786 4.91109 1.44786 4.91109 1.48923Z" fill="#3A7D52"/>
<path d="M4.86982 1.4065L0.0358954 9.99065C-0.00537443 9.99065 -1.64771e-05 9.96945 -1.64771e-05 9.92808L0.288872 9.43168L0.536491 8.97664L0.82538 8.5216L1.073 8.06657L1.32062 7.61153L1.56824 7.19786L2.06348 6.37053L2.51744 5.54319L2.97141 4.71585L3.21903 4.30218L3.46665 3.88851L3.92062 3.06117L4.16824 2.6475L4.41586 2.23384L4.66348 1.7788L4.91987 1.32971C4.8786 1.37108 4.86982 1.36513 4.86982 1.4065Z" fill="#387A4F"/>
<path d="M12.2158 20.8903C16.0704 17.1781 18.3328 14.986 22.4095 11.3759C23.0285 11.5 23.6063 11.6241 23.9777 11.6655L12.2571 22.545C12.2158 22.1727 12.2158 21.5522 12.2158 20.8903Z" fill="#479260"/>
<path d="M12.257 22.545L23.9776 11.6241C24.0601 11.6241 24.1427 11.6241 24.2252 11.6655L12.257 22.7844C12.257 22.7431 12.2457 22.6586 12.257 22.545Z" fill="#458F5E"/>
<path d="M12.2458 22.7844L24.2254 11.6655C24.2666 11.6655 24.3079 11.6655 24.3492 11.6655L12.2817 22.8922C12.2405 22.8922 12.2458 22.8257 12.2458 22.7844Z" fill="#438C5C"/>
<path d="M12.2637 22.8922L24.3078 11.7068C24.3491 11.7068 24.3491 11.7068 24.3903 11.7068L12.2996 22.9461C12.2583 22.9461 12.2637 22.8922 12.2637 22.8922Z" fill="#41895A"/>
<path d="M18.4064 4.01255C19.727 6.4532 21.0477 8.93521 22.4096 11.3759C19.0254 14.5611 15.6 17.705 12.2159 20.8902C8.74925 17.2086 5.28258 13.5683 1.81592 9.92802C3.09528 7.65284 4.37465 5.37766 5.69528 3.10248C9.94608 3.43341 14.1556 3.72298 18.4064 4.01255Z" fill="#4C9A66"/>
<path d="M9.40578 6.004V16H11.0438V11.576H15.9298V10.176H11.0438V7.404H16.2238V6.004H9.40578Z" fill="white"/>
<path d="M19.4792 2.35792L20.9237 1.03418L25.9586 10.3417L24.5142 11.6655L19.4792 2.35792Z" fill="#57AC72"/>
<path d="M4.86963 1.36563C5.44993 0.832315 5.77528 0.53331 6.35557 0L20.9238 1.03417L19.3923 2.44375L4.86963 1.36563Z" fill="#499462"/>
<path d="M18.4064 4.01255L5.69532 3.14384C5.69532 3.14384 5.67411 3.12653 5.65405 3.10248L18.4064 4.01255Z" fill="#479260"/>
<path d="M18.4227 4.02499L12.1202 3.62968L5.67408 3.10858C5.62021 3.01874 5.53043 2.87499 5.47656 2.74921L18.6127 3.64027C18.5302 3.76438 18.464 3.94225 18.4227 4.02499Z" fill="#499562"/>
<path d="M18.6021 3.71951L5.48881 2.77156C5.44052 2.67733 5.365 2.56473 5.32373 2.48199L18.7817 3.41404C18.7404 3.49678 18.6434 3.63678 18.6021 3.71951Z" fill="#4B9764"/>
<path d="M18.7777 3.43347L5.32376 2.48203C5.28249 2.39929 5.24122 2.31656 5.19995 2.23383L18.9015 3.18526C18.8603 3.268 18.819 3.35073 18.7777 3.43347Z" fill="#4C9A66"/>
<path d="M18.9016 3.18525L5.19997 2.23381C5.1587 2.15108 5.11743 2.10971 5.11743 2.02698L19.0254 3.01978C18.9841 3.06115 18.9428 3.14388 18.9016 3.18525Z" fill="#4E9D68"/>
<path d="M19.0254 3.01978L5.11739 2.04844C5.07612 2.00707 5.07618 1.90288 5.03491 1.86151L19.1079 2.85432C19.0667 2.89568 19.0667 2.93705 19.0254 3.01978Z" fill="#50A06A"/>
<path d="M19.1079 2.85433L5.03492 1.86153C5.03492 1.82016 4.99365 1.77879 4.99365 1.73743L19.1905 2.73023C19.1492 2.7716 19.1492 2.81297 19.1079 2.85433Z" fill="#51A26C"/>
<path d="M19.1905 2.73019L4.99366 1.73738C4.99366 1.69601 4.95239 1.65465 4.95239 1.61328L19.273 2.60609C19.2318 2.64745 19.2318 2.68882 19.1905 2.73019Z" fill="#53A56E"/>
<path d="M19.273 2.6475L4.95241 1.61333C4.91114 1.53059 4.91114 1.44786 4.86987 1.40649L19.3969 2.44067C19.3556 2.48203 19.3143 2.56477 19.273 2.6475Z" fill="#54A86F"/>
<path d="M19.3969 2.44059L4.86987 1.40642C4.86987 1.40642 4.86987 1.40642 4.86987 1.36505L19.3969 2.44059C19.3969 2.39922 19.3969 2.44059 19.3969 2.44059Z" fill="#53A56E"/>
<path d="M19.4381 2.3993L4.86987 1.40649L19.4381 2.3993Z" fill="#51A26C"/>
<path d="M19.4381 2.39922L4.86987 1.36505L19.4381 2.39922Z" fill="#50A06A"/>
<path d="M19.4381 2.39922L4.86987 1.36505L19.4381 2.39922C19.4381 2.35786 19.4381 2.35786 19.4381 2.39922Z" fill="#4E9D68"/>
<path d="M19.4381 2.35786L4.86987 1.36505L19.4381 2.35786Z" fill="#4C9A66"/>
<path d="M19.4381 2.35786L4.86987 1.36505L19.4381 2.35786Z" fill="#4B9764"/>
<path d="M19.438 2.35787L4.90186 1.34762L4.91981 1.32965L19.4793 2.35787H19.438Z" fill="#479260"/>
<path d="M19.4794 2.3579L4.91113 1.32373L19.4794 2.3579Z" fill="#458F5E"/>
<path d="M22.4094 11.3759L18.4062 4.01256C18.4062 4.01256 18.4062 4.01256 18.4062 3.97119L22.4094 11.3759Z" fill="#479260"/>
<path d="M22.3909 11.3742L18.3867 4.04298C18.428 3.96025 18.4889 3.84714 18.5301 3.7644L22.6984 11.4586C22.6158 11.4173 22.4734 11.4156 22.3909 11.3742Z" fill="#499562"/>
<path d="M22.6983 11.4587L18.53 3.76441C18.5713 3.72304 18.6126 3.6403 18.6538 3.59894L22.9459 11.5C22.8634 11.4587 22.7808 11.4587 22.6983 11.4587Z" fill="#4B9764"/>
<path d="M22.9461 11.5L18.6541 3.5989C18.6953 3.55753 18.7459 3.47337 18.7459 3.43201L23.1631 11.5539C23.1218 11.5125 22.9874 11.5 22.9461 11.5Z" fill="#4C9A66"/>
<path d="M23.1524 11.5414L18.7366 3.43347C18.7778 3.3921 18.8124 3.31169 18.8537 3.27032L23.3606 11.5899C23.3193 11.5485 23.1937 11.5414 23.1524 11.5414Z" fill="#4E9D68"/>
<path d="M23.3175 11.5414L18.8357 3.27031C18.877 3.22895 18.8842 3.1859 18.9255 3.14453L23.4862 11.5898C23.4037 11.5898 23.3588 11.5827 23.3175 11.5414Z" fill="#50A06A"/>
<path d="M23.4861 11.6078L18.9253 3.14451C18.9253 3.10314 18.9612 3.0906 18.9792 3.07263L23.5938 11.6078C23.5525 11.6078 23.4861 11.6078 23.4861 11.6078Z" fill="#51A26C"/>
<path d="M23.5759 11.6078L18.9792 3.07265C18.9792 3.03128 18.9972 3.03671 19.0254 3.01978L23.6889 11.6241C23.6476 11.6241 23.6172 11.6492 23.5759 11.6078Z" fill="#53A56E"/>
<path d="M23.6889 11.6241L19.0254 3.01981L19.0511 2.9469L23.7735 11.6438C23.7322 11.6438 23.6889 11.6241 23.6889 11.6241Z" fill="#54A86F"/>
<path d="M23.7554 11.6437L19.051 2.94685L19.069 2.89294L23.8539 11.6654C23.7914 11.6437 23.7967 11.6437 23.7554 11.6437Z" fill="#56AA71"/>
<path d="M23.8453 11.6617L19.0667 2.89568C19.0667 2.89568 19.0666 2.85431 19.1079 2.85431L23.8812 11.6617H23.8453Z" fill="#57AD73"/>
<path d="M23.8812 11.6617L19.1079 2.85432C19.1079 2.85432 19.0995 2.78516 19.1408 2.78516L24.0248 11.6617C23.9835 11.6617 23.9224 11.6617 23.8812 11.6617Z" fill="#59AF74"/>
<path d="M23.8952 11.6654L19.1492 2.85429C19.1492 2.85429 19.1492 2.81293 19.1904 2.81293L23.9365 11.6654C23.9365 11.6654 23.9365 11.6654 23.8952 11.6654Z" fill="#5AB176"/>
<path d="M23.9365 11.6655L19.1492 2.81297C19.1492 2.81297 19.1409 2.80315 19.1492 2.77161L23.9365 11.6655C23.9778 11.6655 23.9778 11.6655 23.9365 11.6655Z" fill="#5BB478"/>
<path d="M23.9777 11.6654L19.1492 2.77156C19.1492 2.77156 19.1588 2.76283 19.1588 2.71326L21.6008 7.18748L23.9777 11.6654Z" fill="#5DB679"/>
<path d="M23.9711 11.6797L19.1589 2.73124C19.1589 2.73124 19.3248 2.48071 19.3564 2.47968L21.8523 7.04374L24.3661 11.7156L23.9711 11.6797Z" fill="#5EB97B"/>
<path d="M24.0603 11.6655L19.1904 2.73022L24.0603 11.6655Z" fill="#5FBA7C"/>
<path d="M24.0603 11.6655L19.1904 2.73022L24.0603 11.6655Z" fill="#79C38B"/>
<path d="M24.1015 11.6655L19.2317 2.68884L24.1015 11.6655Z" fill="#83C692"/>
<path d="M24.1015 11.6655L19.2317 2.68884L24.1015 11.6655Z" fill="#8AC997"/>
<path d="M24.1428 11.6654L19.2317 2.64746L24.1428 11.6654Z" fill="#90CB9B"/>
<path d="M24.1428 11.6654L19.2317 2.64746L24.1428 11.6654Z" fill="#95CD9F"/>
<path d="M24.1428 11.6654L19.2729 2.64746L24.1428 11.6654C24.1841 11.6654 24.1841 11.6654 24.1428 11.6654Z" fill="#99CFA2"/>
<path d="M24.1841 11.6655L19.2729 2.60614L24.1841 11.6655Z" fill="#9DD1A5"/>
<path d="M24.1841 11.6655L19.2729 2.60614L24.1841 11.6655Z" fill="#A1D2A8"/>
<path d="M24.2253 11.6655L19.2729 2.60614L24.2253 11.6655Z" fill="#A5D4AB"/>
<path d="M24.2253 11.6655L19.3142 2.56476L24.2253 11.6655Z" fill="#A8D5AE"/>
<path d="M24.2253 11.6655L19.2729 2.56476L24.2253 11.6655C24.2666 11.6655 24.2253 11.6655 24.2253 11.6655Z" fill="#ABD7B0"/>
<path d="M24.2666 11.6655L19.3142 2.56476L24.2666 11.6655Z" fill="#AED8B3"/>
<path d="M24.2666 11.6655L19.3142 2.52338L24.2666 11.6655Z" fill="#B1D9B5"/>
<path d="M24.2666 11.6655L19.3142 2.52338L24.2666 11.6655C24.3079 11.6655 24.3079 11.6655 24.2666 11.6655Z" fill="#B3DAB8"/>
<path d="M24.3659 11.7155L19.3555 2.48191C19.3555 2.48191 19.4227 2.37177 19.464 2.37177L24.5204 11.6654L24.3659 11.7155C24.3659 11.7569 24.3659 11.7569 24.3659 11.7155Z" fill="#6DC288"/>
<path d="M24.3904 11.7068L19.3555 2.48199L24.3904 11.7068Z" fill="#B1D9B5"/>
<path d="M24.3904 11.7069L19.3967 2.44067L24.3904 11.7069Z" fill="#AED8B3"/>
<path d="M24.3904 11.7069L19.3967 2.44067L24.3904 11.7069Z" fill="#ABD7B0"/>
<path d="M24.3904 11.7069L19.3967 2.44067L24.3904 11.7069Z" fill="#A8D5AE"/>
<path d="M24.4316 11.6655L19.3967 2.44067L24.4316 11.6655Z" fill="#A1D2A8"/>
<path d="M24.4316 11.6655L19.3967 2.44067L24.4316 11.6655Z" fill="#9DD1A5"/>
<path d="M24.4316 11.6655L19.3967 2.44067L24.4316 11.6655Z" fill="#99CFA2"/>
<path d="M24.4316 11.6654L19.3967 2.39923L24.4316 11.6654Z" fill="#95CD9F"/>
<path d="M24.4316 11.6654L19.3967 2.39923L24.4316 11.6654Z" fill="#90CB9B"/>
<path d="M24.4316 11.6654L19.3967 2.39923L24.4316 11.6654Z" fill="#8AC997"/>
<path d="M24.4316 11.6654L19.438 2.39923L24.4316 11.6654C24.4729 11.6654 24.4729 11.6654 24.4316 11.6654Z" fill="#83C692"/>
<path d="M24.4729 11.6654L19.438 2.39923L24.4729 11.6654Z" fill="#79C38B"/>
<path d="M24.4729 11.6654L19.438 2.39923L24.4729 11.6654Z" fill="#5FBA7C"/>
<path d="M24.4729 11.6654L19.438 2.39923L24.4729 11.6654Z" fill="#5EB97B"/>
<path d="M24.4729 11.6654L19.438 2.39923L24.4729 11.6654Z" fill="#5DB679"/>
<path d="M24.4729 11.6655L19.438 2.35791L24.4729 11.6655Z" fill="#5BB478"/>
<path d="M24.4729 11.6655L19.438 2.35791L24.4729 11.6655C24.5142 11.6655 24.5142 11.6655 24.4729 11.6655Z" fill="#5AB176"/>
<path d="M24.5142 11.6655L19.438 2.35791L24.5142 11.6655Z" fill="#59AF74"/>
<path d="M24.5142 11.6655L19.438 2.35791L24.5142 11.6655Z" fill="#57AD73"/>
<path d="M24.5142 11.6655L19.438 2.35791H19.4793L24.5142 11.6655Z" fill="#56AA71"/>
<path d="M24.5142 11.6655L19.4792 2.35791L24.5142 11.6655Z" fill="#54A86F"/>
<path d="M24.5142 11.6655L19.4792 2.35791L24.5142 11.6655Z" fill="#53A56E"/>
</g>
<defs>
<clipPath id="clip0_7430_178681">
<rect width="26" height="23" fill="white"/>
</clipPath>
</defs>
</svg>
