<svg width="24" height="24" viewBox="0 0 24 24" fill="none" xmlns="http://www.w3.org/2000/svg">
<g opacity="0.9">
<mask id="path-1-outside-1_5227_97021" maskUnits="userSpaceOnUse" x="1" y="0.0478516" width="22" height="24" fill="black">
<rect fill="white" x="1" y="0.0478516" width="22" height="24"/>
<path fill-rule="evenodd" clip-rule="evenodd" d="M6 1.04785C3.79086 1.04785 2 2.83871 2 5.04785L2 15.7551C2 17.9643 3.79086 19.7551 6 19.7551H9.14039L11.3166 21.7892C11.701 22.1485 12.298 22.1485 12.6823 21.7892L14.8586 19.7551H18C20.2091 19.7551 22 17.9643 22 15.7551L22 5.04785C22 2.83871 20.2091 1.04785 18 1.04785L6 1.04785Z"/>
</mask>
<path fill-rule="evenodd" clip-rule="evenodd" d="M6 1.04785C3.79086 1.04785 2 2.83871 2 5.04785L2 15.7551C2 17.9643 3.79086 19.7551 6 19.7551H9.14039L11.3166 21.7892C11.701 22.1485 12.298 22.1485 12.6823 21.7892L14.8586 19.7551H18C20.2091 19.7551 22 17.9643 22 15.7551L22 5.04785C22 2.83871 20.2091 1.04785 18 1.04785L6 1.04785Z" fill="#E94141"/>
<path d="M9.14039 19.7551L9.82323 19.0245L9.53496 18.7551H9.14039V19.7551ZM11.3166 21.7892L10.6338 22.5198L11.3166 21.7892ZM12.6823 21.7892L11.9995 21.0586L12.6823 21.7892ZM14.8586 19.7551V18.7551H14.464L14.1758 19.0245L14.8586 19.7551ZM3 5.04785C3 3.391 4.34315 2.04785 6 2.04785V0.0478516C3.23858 0.0478516 1 2.28643 1 5.04785H3ZM3 15.7551L3 5.04785H1L1 15.7551H3ZM6 18.7551C4.34315 18.7551 3 17.412 3 15.7551H1C1 18.5165 3.23858 20.7551 6 20.7551L6 18.7551ZM9.14039 18.7551H6L6 20.7551H9.14039V18.7551ZM11.9995 21.0586L9.82323 19.0245L8.45754 20.4857L10.6338 22.5198L11.9995 21.0586ZM11.9995 21.0586L10.6338 22.5198C11.4025 23.2383 12.5965 23.2383 13.3652 22.5198L11.9995 21.0586ZM14.1758 19.0245L11.9995 21.0586L13.3652 22.5198L15.5414 20.4857L14.1758 19.0245ZM18 18.7551H14.8586V20.7551H18V18.7551ZM21 15.7551C21 17.412 19.6569 18.7551 18 18.7551V20.7551C20.7614 20.7551 23 18.5165 23 15.7551H21ZM21 5.04785L21 15.7551H23L23 5.04785H21ZM18 2.04785C19.6569 2.04785 21 3.391 21 5.04785H23C23 2.28643 20.7614 0.0478516 18 0.0478516V2.04785ZM6 2.04785L18 2.04785V0.0478516L6 0.0478516V2.04785Z" fill="white" mask="url(#path-1-outside-1_5227_97021)"/>
</g>
<path d="M11.5042 5.808C10.4262 5.808 9.54424 6.046 8.84424 6.536C8.08824 7.04 7.72424 7.74 7.72424 8.622C7.72424 9.504 8.10224 10.176 8.87224 10.638C9.16624 10.806 9.93624 11.086 11.1682 11.478C12.2742 11.814 12.9182 12.038 13.1142 12.136C13.7302 12.444 14.0522 12.864 14.0522 13.396C14.0522 13.816 13.8282 14.138 13.4082 14.39C12.9882 14.628 12.4002 14.754 11.6722 14.754C10.8462 14.754 10.2442 14.6 9.85224 14.32C9.41824 13.998 9.15224 13.452 9.04024 12.696H7.41624C7.48624 13.97 7.94824 14.894 8.78824 15.482C9.47424 15.958 10.4402 16.196 11.6722 16.196C12.9462 16.196 13.9402 15.93 14.6402 15.426C15.3402 14.908 15.6902 14.194 15.6902 13.298C15.6902 12.374 15.2562 11.66 14.3882 11.142C13.9962 10.918 13.1282 10.582 11.7702 10.162C10.8462 9.868 10.2722 9.658 10.0622 9.546C9.58624 9.294 9.36224 8.944 9.36224 8.524C9.36224 8.048 9.55824 7.698 9.97824 7.488C10.3142 7.306 10.7902 7.222 11.4202 7.222C12.1482 7.222 12.7082 7.348 13.0722 7.628C13.4362 7.894 13.7022 8.342 13.8422 8.958H15.4662C15.3682 7.866 14.9622 7.054 14.2622 6.536C13.6042 6.046 12.6802 5.808 11.5042 5.808Z" fill="white"/>
</svg>
