<svg width="40" height="40" viewBox="0 0 40 40" fill="none" xmlns="http://www.w3.org/2000/svg">
<g opacity="0.9">
<mask id="path-1-outside-1_5227_97084" maskUnits="userSpaceOnUse" x="2.33398" y="0.746094" width="36" height="38" fill="black">
<rect fill="white" x="2.33398" y="0.746094" width="36" height="38"/>
<path fill-rule="evenodd" clip-rule="evenodd" d="M9.33398 1.74609C6.02028 1.74609 3.33398 4.43239 3.33398 7.74609L3.33398 26.9249C3.33398 30.2386 6.02028 32.9249 9.33399 32.9249H15.2346L19.317 36.7405C19.7013 37.0998 20.2983 37.0998 20.6826 36.7405L24.765 32.9249H30.6673C33.981 32.9249 36.6673 30.2386 36.6673 26.9249L36.6673 7.74609C36.6673 4.43239 33.981 1.74609 30.6673 1.74609L9.33398 1.74609Z"/>
</mask>
<path fill-rule="evenodd" clip-rule="evenodd" d="M9.33398 1.74609C6.02028 1.74609 3.33398 4.43239 3.33398 7.74609L3.33398 26.9249C3.33398 30.2386 6.02028 32.9249 9.33399 32.9249H15.2346L19.317 36.7405C19.7013 37.0998 20.2983 37.0998 20.6826 36.7405L24.765 32.9249H30.6673C33.981 32.9249 36.6673 30.2386 36.6673 26.9249L36.6673 7.74609C36.6673 4.43239 33.981 1.74609 30.6673 1.74609L9.33398 1.74609Z" fill="#E94141"/>
<path d="M15.2346 32.9249L15.9175 32.1943L15.6292 31.9249H15.2346V32.9249ZM19.317 36.7405L18.6341 37.4711H18.6341L19.317 36.7405ZM20.6826 36.7405L21.3655 37.4711L21.3655 37.4711L20.6826 36.7405ZM24.765 32.9249V31.9249H24.3704L24.0821 32.1943L24.765 32.9249ZM4.33398 7.74609C4.33398 4.98467 6.57256 2.74609 9.33398 2.74609V0.746094C5.46799 0.746094 2.33398 3.8801 2.33398 7.74609H4.33398ZM4.33398 26.9249L4.33398 7.74609H2.33398L2.33398 26.9249H4.33398ZM9.33399 31.9249C6.57256 31.9249 4.33398 29.6863 4.33398 26.9249H2.33398C2.33398 30.7909 5.46799 33.9249 9.33399 33.9249L9.33399 31.9249ZM15.2346 31.9249L9.33399 31.9249L9.33399 33.9249H15.2346V31.9249ZM19.9998 36.0099L15.9175 32.1943L14.5518 33.6554L18.6341 37.4711L19.9998 36.0099ZM19.9998 36.0099L19.9998 36.0099L18.6341 37.4711C19.4028 38.1896 20.5968 38.1896 21.3655 37.4711L19.9998 36.0099ZM24.0821 32.1943L19.9998 36.0099L21.3655 37.4711L25.4478 33.6554L24.0821 32.1943ZM30.6673 31.9249H24.765V33.9249L30.6673 33.9249V31.9249ZM35.6673 26.9249C35.6673 29.6863 33.4287 31.9249 30.6673 31.9249V33.9249C34.5333 33.9249 37.6673 30.7909 37.6673 26.9249L35.6673 26.9249ZM35.6673 7.74609L35.6673 26.9249L37.6673 26.9249L37.6673 7.74609H35.6673ZM30.6673 2.74609C33.4287 2.74609 35.6673 4.98467 35.6673 7.74609H37.6673C37.6673 3.8801 34.5333 0.746094 30.6673 0.746094V2.74609ZM9.33398 2.74609L30.6673 2.74609V0.746094L9.33398 0.746094V2.74609Z" fill="white" mask="url(#path-1-outside-1_5227_97084)"/>
</g>
<path d="M19.1713 8.528C17.3233 8.528 15.8113 8.936 14.6113 9.776C13.3153 10.64 12.6913 11.84 12.6913 13.352C12.6913 14.864 13.3393 16.016 14.6593 16.808C15.1633 17.096 16.4833 17.576 18.5953 18.248C20.4913 18.824 21.5953 19.208 21.9313 19.376C22.9873 19.904 23.5393 20.624 23.5393 21.536C23.5393 22.256 23.1553 22.808 22.4353 23.24C21.7153 23.648 20.7073 23.864 19.4593 23.864C18.0433 23.864 17.0113 23.6 16.3393 23.12C15.5953 22.568 15.1393 21.632 14.9473 20.336H12.1633C12.2833 22.52 13.0753 24.104 14.5153 25.112C15.6913 25.928 17.3473 26.336 19.4593 26.336C21.6433 26.336 23.3473 25.88 24.5473 25.016C25.7473 24.128 26.3473 22.904 26.3473 21.368C26.3473 19.784 25.6033 18.56 24.1153 17.672C23.4433 17.288 21.9553 16.712 19.6273 15.992C18.0433 15.488 17.0593 15.128 16.6993 14.936C15.8833 14.504 15.4993 13.904 15.4993 13.184C15.4993 12.368 15.8353 11.768 16.5553 11.408C17.1313 11.096 17.9473 10.952 19.0273 10.952C20.2753 10.952 21.2353 11.168 21.8593 11.648C22.4833 12.104 22.9393 12.872 23.1793 13.928H25.9633C25.7953 12.056 25.0993 10.664 23.8993 9.776C22.7713 8.936 21.1873 8.528 19.1713 8.528Z" fill="#FAE14D"/>
</svg>
