<svg width="59" height="47" viewBox="0 0 59 47" fill="none" xmlns="http://www.w3.org/2000/svg">
<path fill-rule="evenodd" clip-rule="evenodd" d="M0 46.5V0H58.125V46.5H0ZM3.875 42.625H54.25V3.875H3.875V42.625ZM42.625 11.625C42.625 12.6527 43.0333 13.6383 43.76 14.365C44.4867 15.0917 45.4723 15.5 46.5 15.5C47.5277 15.5 48.5133 15.0917 49.24 14.365C49.9667 13.6383 50.375 12.6527 50.375 11.625C50.375 10.5973 49.9667 9.61167 49.24 8.88496C48.5133 8.15826 47.5277 7.75 46.5 7.75C45.4723 7.75 44.4867 8.15826 43.76 8.88496C43.0333 9.61167 42.625 10.5973 42.625 11.625ZM52.5 29.8425C52.5 29.6763 52.4572 29.5129 52.3757 29.368C52.2943 29.2231 52.177 29.1016 52.035 29.0152L41.5938 22.6524C41.3943 22.5308 41.1575 22.4854 40.9272 22.5245C40.6968 22.5637 40.4884 22.6848 40.3403 22.8656L35.7387 28.4727L35.6767 28.5424C35.4953 28.7243 35.2491 28.8267 34.9922 28.827C34.7353 28.8274 34.4888 28.7257 34.3069 28.5444L18.9987 13.2827C18.8223 13.1071 18.5852 13.006 18.3364 13.0003C18.0877 12.9945 17.8461 13.0845 17.6618 13.2517L6.31775 23.5844C6.21756 23.675 6.1375 23.7856 6.08277 23.9091C6.02803 24.0326 5.99984 24.1662 6 24.3012V40.3418H52.5V29.8425Z" fill="#F3F3F3"/>
</svg>
