<svg width="40" height="40" viewBox="0 0 40 40" fill="none" xmlns="http://www.w3.org/2000/svg">
<g opacity="0.9">
<mask id="path-1-outside-1_5823_77849" maskUnits="userSpaceOnUse" x="2.33398" y="0.746094" width="36" height="38" fill="black">
<rect fill="white" x="2.33398" y="0.746094" width="36" height="38"/>
<path fill-rule="evenodd" clip-rule="evenodd" d="M9.33398 1.74609C6.02028 1.74609 3.33398 4.43239 3.33398 7.74609L3.33398 26.9249C3.33398 30.2386 6.02028 32.9249 9.33399 32.9249H15.2346L19.317 36.7405C19.7013 37.0998 20.2983 37.0998 20.6826 36.7405L24.765 32.9249H30.6673C33.981 32.9249 36.6673 30.2386 36.6673 26.9249L36.6673 7.74609C36.6673 4.43239 33.981 1.74609 30.6673 1.74609L9.33398 1.74609Z"/>
</mask>
<path fill-rule="evenodd" clip-rule="evenodd" d="M9.33398 1.74609C6.02028 1.74609 3.33398 4.43239 3.33398 7.74609L3.33398 26.9249C3.33398 30.2386 6.02028 32.9249 9.33399 32.9249H15.2346L19.317 36.7405C19.7013 37.0998 20.2983 37.0998 20.6826 36.7405L24.765 32.9249H30.6673C33.981 32.9249 36.6673 30.2386 36.6673 26.9249L36.6673 7.74609C36.6673 4.43239 33.981 1.74609 30.6673 1.74609L9.33398 1.74609Z" fill="#E94141"/>
<path d="M15.2346 32.9249L15.9175 32.1943L15.6292 31.9249H15.2346V32.9249ZM19.317 36.7405L18.6341 37.4711L18.6341 37.4711L19.317 36.7405ZM20.6826 36.7405L21.3655 37.4711L21.3655 37.4711L20.6826 36.7405ZM24.765 32.9249V31.9249H24.3704L24.0821 32.1943L24.765 32.9249ZM4.33398 7.74609C4.33398 4.98467 6.57256 2.74609 9.33398 2.74609V0.746094C5.46799 0.746094 2.33398 3.8801 2.33398 7.74609H4.33398ZM4.33398 26.9249L4.33398 7.74609H2.33398L2.33398 26.9249H4.33398ZM9.33399 31.9249C6.57256 31.9249 4.33398 29.6863 4.33398 26.9249H2.33398C2.33398 30.7909 5.46799 33.9249 9.33399 33.9249L9.33399 31.9249ZM15.2346 31.9249L9.33399 31.9249L9.33399 33.9249H15.2346V31.9249ZM19.9998 36.0099L15.9175 32.1943L14.5518 33.6554L18.6341 37.4711L19.9998 36.0099ZM19.9998 36.0099L19.9998 36.0099L18.6341 37.4711C19.4028 38.1896 20.5968 38.1896 21.3655 37.4711L19.9998 36.0099ZM24.0821 32.1943L19.9998 36.0099L21.3655 37.4711L25.4478 33.6554L24.0821 32.1943ZM30.6673 31.9249H24.765V33.9249L30.6673 33.9249V31.9249ZM35.6673 26.9249C35.6673 29.6863 33.4287 31.9249 30.6673 31.9249V33.9249C34.5333 33.9249 37.6673 30.7909 37.6673 26.9249L35.6673 26.9249ZM35.6673 7.74609L35.6673 26.9249L37.6673 26.9249L37.6673 7.74609H35.6673ZM30.6673 2.74609C33.4287 2.74609 35.6673 4.98467 35.6673 7.74609H37.6673C37.6673 3.8801 34.5333 0.746094 30.6673 0.746094V2.74609ZM9.33398 2.74609L30.6673 2.74609V0.746094L9.33398 0.746094V2.74609Z" fill="white" mask="url(#path-1-outside-1_5823_77849)"/>
</g>
<path d="M12.2369 8.864V11.264H17.8529V26H20.6609V11.264H26.2769V8.864H12.2369Z" fill="#FAE14D"/>
</svg>
