<svg width="16" height="16" viewBox="0 0 16 16" fill="none" xmlns="http://www.w3.org/2000/svg">
<path d="M9.25664 8.02974L14.7765 13.5482C14.9254 13.7133 15.0053 13.9293 14.9997 14.1515C14.9941 14.3738 14.9034 14.5855 14.7463 14.7428C14.5892 14.9001 14.3777 14.9912 14.1554 14.9971C13.9332 15.0031 13.7171 14.9235 13.5518 14.7747L8.02844 9.25626L2.51382 14.7765C2.34875 14.9254 2.1328 15.0053 1.91054 14.9997C1.68827 14.9941 1.47665 14.9034 1.31932 14.7463C1.16199 14.5891 1.07097 14.3776 1.06503 14.1554C1.05908 13.9331 1.13867 13.717 1.28738 13.5517L6.8055 8.03149L1.28738 2.513C1.19984 2.43423 1.12924 2.33847 1.07989 2.23155C1.03053 2.12462 1.00346 2.00877 1.00031 1.89104C0.997162 1.77331 1.01801 1.65618 1.06157 1.54677C1.10514 1.43736 1.17052 1.33796 1.25373 1.25462C1.33694 1.17129 1.43624 1.10576 1.54558 1.06204C1.65492 1.01831 1.77202 0.997298 1.88974 1.00028C2.00747 1.00326 2.12335 1.03017 2.23034 1.07937C2.33733 1.12857 2.43319 1.19904 2.51207 1.28648L8.03019 6.80496L13.5483 1.28648C13.7134 1.13753 13.9293 1.05762 14.1516 1.06325C14.3739 1.06887 14.5855 1.1596 14.7428 1.31672C14.9001 1.47383 14.9912 1.68534 14.9971 1.90761C15.0031 2.12988 14.9235 2.34595 14.7748 2.51125L9.25664 8.03149V8.02974Z" fill="#646464"/>
</svg>
