<svg width="40" height="40" viewBox="0 0 40 40" fill="none" xmlns="http://www.w3.org/2000/svg">
<path d="M20.0027 2.4043C24.638 2.40893 29.082 4.25232 32.3596 7.52992C35.6372 10.8075 37.4806 15.2516 37.4852 19.8868C37.4806 24.522 35.6372 28.9661 32.3596 32.2437C29.082 35.5213 24.638 37.3647 20.0027 37.3693C15.3675 37.3647 10.9235 35.5213 7.64585 32.2437C4.36825 28.9661 2.52486 24.522 2.52023 19.8868C2.52486 15.2516 4.36825 10.8075 7.64585 7.52992C10.9235 4.25232 15.3675 2.40893 20.0027 2.4043ZM20.0027 34.8693C23.9749 34.8647 27.7831 33.2847 30.5918 30.4759C33.4006 27.6672 34.9806 23.859 34.9852 19.8868C34.9806 15.9146 33.4006 12.1064 30.5918 9.29768C27.7831 6.48892 23.9749 4.90893 20.0027 4.9043C16.0305 4.90893 12.2224 6.48892 9.41361 9.29768C6.60485 12.1064 5.02486 15.9146 5.02023 19.8868C5.0242 23.8592 6.60398 27.6677 9.41288 30.4766C12.2218 33.2855 16.0303 34.8653 20.0027 34.8693Z" fill="black" fill-opacity="0.2"/>
<path d="M24.9174 10.8889C24.6857 10.6547 24.3706 10.5219 24.0412 10.5196C23.7118 10.5172 23.3949 10.6455 23.1599 10.8764L15.0699 18.9689C14.8174 19.2189 14.7074 19.5514 14.7199 19.8839C14.71 20.0536 14.736 20.2235 14.7963 20.3825C14.8566 20.5415 14.9499 20.6859 15.0699 20.8064L23.1624 28.8989C23.6399 29.3814 24.4274 29.3764 24.9149 28.8889C25.4024 28.4014 25.4074 27.6139 24.9299 27.1314L17.6874 19.8889L24.9274 12.6439C25.042 12.5281 25.1328 12.3908 25.1944 12.2398C25.2559 12.0889 25.2872 11.9273 25.2862 11.7643C25.2853 11.6013 25.2522 11.4401 25.189 11.2899C25.1257 11.1397 25.0334 11.0034 24.9174 10.8889Z" fill="black" fill-opacity="0.2"/>
</svg>
