<svg width="14" height="14" viewBox="0 0 14 14" fill="none" xmlns="http://www.w3.org/2000/svg">
<g clip-path="url(#clip0_6855_174699)">
<path d="M13.6266 12.7867L10.9199 10.1267C11.8532 9.05333 12.4132 7.65333 12.4132 6.11333C12.4599 2.75333 9.70656 0 6.29989 0C2.89323 0 0.139893 2.75333 0.139893 6.11333C0.139893 9.52 2.89323 12.2267 6.29989 12.2267C7.60656 12.2267 8.86656 11.8067 9.89323 11.06L12.6466 13.7667C12.9266 14.0467 13.3932 14.0467 13.6732 13.7667C13.9066 13.5333 13.9066 13.0667 13.6266 12.7867ZM6.29989 11.06C3.59323 11.06 1.39989 8.86667 1.39989 6.11333C1.39989 3.40667 3.59323 1.21333 6.29989 1.21333C9.00656 1.21333 11.2466 3.40667 11.2466 6.11333C11.2466 8.86667 9.00656 11.06 6.29989 11.06Z" fill="#0013C1"/>
<path fill-rule="evenodd" clip-rule="evenodd" d="M4.375 6.125C4.375 6.60825 3.98325 7 3.5 7C3.01675 7 2.625 6.60825 2.625 6.125C2.625 5.64175 3.01675 5.25 3.5 5.25C3.98325 5.25 4.375 5.64175 4.375 6.125ZM7 6.125C7 6.60825 6.60825 7 6.125 7C5.64175 7 5.25 6.60825 5.25 6.125C5.25 5.64175 5.64175 5.25 6.125 5.25C6.60825 5.25 7 5.64175 7 6.125ZM8.75 7C9.23325 7 9.625 6.60825 9.625 6.125C9.625 5.64175 9.23325 5.25 8.75 5.25C8.26675 5.25 7.875 5.64175 7.875 6.125C7.875 6.60825 8.26675 7 8.75 7Z" fill="#0013C1"/>
</g>
<defs>
<clipPath id="clip0_6855_174699">
<rect width="14" height="14" fill="white"/>
</clipPath>
</defs>
</svg>
