<svg width="220" height="25" viewBox="0 0 220 25" fill="none" xmlns="http://www.w3.org/2000/svg">
<path d="M153.253 1H68.5074C62.4782 1 56.5889 2.81669 51.6073 6.21318L31.6993 19.7868C26.7178 23.1833 20.8285 25 14.7992 25H206.961C200.932 25 195.042 23.1833 190.061 19.7868L170.153 6.21318C165.171 2.81669 159.282 1 153.253 1Z" fill="white" fill-opacity="0.9"/>
<path d="M0 24.5H14.9593C20.8888 24.5 26.6852 22.7429 31.6167 19.4506L51.69 6.04941C56.6214 2.75711 62.4179 1 68.3473 1H153.413C159.342 1 165.139 2.7571 170.07 6.0494L190.143 19.4506C195.075 22.7429 200.871 24.5 206.801 24.5H220" stroke="#DCDFE6"/>
</svg>
