<svg width="40" height="40" viewBox="0 0 40 40" fill="none" xmlns="http://www.w3.org/2000/svg">
<path d="M19.9973 2.4043C15.362 2.40893 10.918 4.25232 7.64039 7.52992C4.36279 10.8075 2.5194 15.2516 2.51477 19.8868C2.5194 24.522 4.36279 28.9661 7.64039 32.2437C10.918 35.5213 15.362 37.3647 19.9973 37.3693C24.6325 37.3647 29.0765 35.5213 32.3542 32.2437C35.6318 28.9661 37.4751 24.522 37.4798 19.8868C37.4751 15.2516 35.6318 10.8075 32.3542 7.52992C29.0765 4.25232 24.6325 2.40893 19.9973 2.4043ZM19.9973 34.8693C16.0251 34.8647 12.2169 33.2847 9.40816 30.4759C6.5994 27.6672 5.0194 23.859 5.01477 19.8868C5.0194 15.9146 6.5994 12.1064 9.40816 9.29768C12.2169 6.48892 16.0251 4.90893 19.9973 4.9043C23.9695 4.90893 27.7776 6.48892 30.5864 9.29768C33.3951 12.1064 34.9751 15.9146 34.9798 19.8868C34.9758 23.8592 33.396 27.6677 30.5871 30.4766C27.7782 33.2855 23.9697 34.8653 19.9973 34.8693Z" fill="black" fill-opacity="0.4"/>
<path d="M15.0826 10.8889C15.3143 10.6547 15.6294 10.5219 15.9588 10.5196C16.2882 10.5172 16.6051 10.6455 16.8401 10.8764L24.9301 18.9689C25.1826 19.2189 25.2926 19.5514 25.2801 19.8839C25.29 20.0536 25.264 20.2235 25.2037 20.3825C25.1434 20.5415 25.0501 20.6859 24.9301 20.8064L16.8376 28.8989C16.3601 29.3814 15.5726 29.3764 15.0851 28.8889C14.5976 28.4014 14.5926 27.6139 15.0701 27.1314L22.3126 19.8889L15.0726 12.6439C14.958 12.5281 14.8672 12.3908 14.8056 12.2398C14.7441 12.0889 14.7128 11.9273 14.7138 11.7643C14.7147 11.6013 14.7478 11.4401 14.811 11.2899C14.8743 11.1397 14.9666 11.0034 15.0826 10.8889Z" fill="black" fill-opacity="0.4"/>
</svg>
