<svg width="533" height="209" viewBox="0 0 533 209" fill="none" xmlns="http://www.w3.org/2000/svg">
<g clip-path="url(#clip0_5262_75591)">
<path d="M122.126 109.622C122.126 113.013 121.17 115.791 119.258 117.923C116.486 121.023 112.28 122.541 106.64 122.541H88V77.0977H108.488C116.9 77.0977 121.106 81.038 121.106 88.9511C121.106 91.3088 120.66 93.3113 119.736 94.8939C118.971 96.2505 117.187 98.2206 113.045 98.3498C116.932 98.2206 119.067 100.578 120.373 102.71C121.552 104.713 122.126 107.006 122.126 109.622ZM110.305 90.5014C110.305 88.4343 109.38 87.0455 107.564 86.3995C106.895 86.1734 102.88 86.0765 101.797 86.0765H99.6621V94.9585H101.797C103.804 94.9585 107.978 94.9262 109.253 93.4405C109.954 92.6654 110.305 91.6964 110.305 90.5014ZM110.464 108.814C110.464 106.166 109.126 104.616 106.449 104.163C105.589 104.034 104.123 103.97 102.052 103.97H99.6621V113.562H102.243C105.206 113.562 107.277 113.207 108.456 112.496C109.795 111.689 110.464 110.462 110.464 108.814Z" fill="#3E3A39"/>
<path d="M165.556 122.541H151.058L139.937 105.1V122.541H128.275V77.0977H146.406C151.695 77.0977 155.614 78.7126 158.163 81.9101C160.203 84.5262 161.254 87.5623 161.254 91.0504C161.254 95.0554 160.075 98.2852 157.717 100.675C156.188 102.193 154.117 103.259 151.472 103.873L165.556 122.541ZM149.847 91.2765C149.847 89.5324 149.242 88.079 147.967 86.884C146.788 85.7536 144.876 85.2045 142.232 85.2045H139.937V97.3809H142.264C144.908 97.3809 146.82 96.8318 147.999 95.7014C149.242 94.5064 149.847 93.0206 149.847 91.2765Z" fill="#3E3A39"/>
<path d="M183.592 122.541H171.93V77.0977H183.592V122.541Z" fill="#3E3A39"/>
<path d="M259.172 122.541H247.51V77.0977H259.172V122.541Z" fill="#3E3A39"/>
<path d="M312.161 122.541H299.702L296.803 114.628H280.68L277.589 122.541H265.258L282.56 77.0977H295.273L312.161 122.541ZM293.648 105.617L288.805 91.1473L283.93 105.617H293.648Z" fill="#3E3A39"/>
<path d="M361.104 122.541H349.442L329.941 94.7001V122.541H318.279V77.0977H329.941L349.442 104.906V77.0977H361.104V122.541Z" fill="#3E3A39"/>
<path d="M445 122.541H411.639V77.0977H445V86.9486H423.301V94.7001H444.267V104.551H423.301V112.69H445V122.541Z" fill="#3E3A39"/>
<path d="M204.844 111.14V76.1289H192.576V123.155L204.971 111.14H204.844Z" fill="#2CA6E0"/>
<path d="M213.479 102.549L225.746 90.5985V76.1289H213.479V102.549Z" fill="#036EB7"/>
<path d="M239.001 111.238H205.003V111.141H204.971L192.576 123.156H239.001V111.238Z" fill="#036EB7"/>
<path d="M213.479 102.548H239.001V90.63H225.746V90.5977L213.479 102.548Z" fill="#2CA6E0"/>
<path d="M383.185 90.5988C383.313 90.4696 383.44 90.3404 383.599 90.2112C385.83 88.3702 388.474 87.4335 391.502 87.4335H403.546V77.6472V76.9689C400.2 76.2261 396.6 76.0646 393.668 76C393.573 76 393.477 76 393.413 76C393.35 76 393.286 76 393.222 76C385.925 76.0323 379.393 78.487 374.901 82.3304C374.55 82.6534 374.2 82.9441 373.849 83.2671C373.817 83.2994 373.817 83.3317 373.785 83.3317C372.734 84.3975 371.81 85.528 371.045 86.723C368.719 90.2435 367.444 94.2484 367.285 98.8025C370.631 95.0882 376.271 92.1491 383.185 90.5988Z" fill="#1A1A1A"/>
<path d="M402.429 112.238H393.794C389.907 112.238 385.828 111.237 383.598 109.396C380.762 107.038 379.36 103.873 379.36 99.8037C379.36 95.9279 380.635 92.8596 383.184 90.5664C376.269 92.149 370.629 95.0881 367.284 98.8024C367.284 99.1254 367.252 99.4484 367.252 99.8037C367.252 107.329 370.088 113.433 375.791 118.084C378.532 120.345 381.527 121.896 384.745 122.768C387.74 123.317 390.958 123.64 394.304 123.64C397.522 123.64 400.581 123.349 403.513 122.832V112.174H402.429V112.238Z" fill="#1A1A1A"/>
<path d="M90.9629 131.617H92.6198V138.076H94.7546V139.659H92.6198V153.773H90.9629V139.659H88.7324V138.076H90.9629V131.617ZM94.1811 147.055H105.62V145.763H107.277V147.087H110.878V148.476H107.277V151.092C107.341 152.707 106.417 153.515 104.505 153.515C103.39 153.515 102.37 153.515 101.446 153.515C101.382 153.063 101.287 152.513 101.159 151.835C101.542 151.835 102.051 151.868 102.721 151.932C103.453 151.932 103.995 151.932 104.282 151.932C105.206 151.932 105.62 151.577 105.588 150.899V148.476H94.1811V147.055ZM107.373 145.666V144.439H103.23V145.828H101.669V144.439H97.3993V146.118H95.838V137.236H101.669V135.751H94.7228V134.265H101.637V131.649H103.199V134.265H106.99C106.194 133.458 105.556 132.844 105.047 132.392L106.066 131.455C106.321 131.713 106.64 132.004 107.086 132.392C107.564 132.844 107.946 133.167 108.201 133.425L107.277 134.265H110.336V135.751H103.23V137.236H108.966V145.666H107.373V145.666ZM96.7621 149.768L97.7817 148.638C98.8969 149.316 99.9484 150.027 100.936 150.802L99.821 151.835C98.9606 151.157 97.941 150.446 96.7621 149.768ZM97.3993 138.625V140.111H101.637V138.625H97.3993ZM97.3993 141.532V143.018H101.637V141.532H97.3993ZM107.373 138.625H103.23V140.111H107.373V138.625ZM103.23 141.532V143.018H107.373V141.532H103.23Z" fill="#3E3A39"/>
<path d="M120.914 138.82H130.887V131.617H132.831V138.82H142.804V140.596H132.831V150.512H141.243V152.094H122.603V150.512H130.919V140.596H120.946V138.82H120.914Z" fill="#3E3A39"/>
<path d="M152.842 146.861C155.009 144.439 156.602 141.5 157.653 138.076H153.957V136.494H157.749V131.811H159.406V136.494H162.815V138.076H159.374V140.789L160.202 139.95C161.318 140.951 162.433 142.049 163.612 143.212L162.305 144.439C161.636 143.567 160.648 142.501 159.342 141.242V153.676H157.685V141.403C156.697 144.213 155.423 146.635 153.798 148.702C153.543 148.121 153.192 147.507 152.842 146.861ZM167.149 131.811H168.805V136.591H174.445V138.173H168.997C170.462 142.534 172.597 145.925 175.369 148.379C174.891 148.864 174.445 149.413 174.063 149.962C171.801 147.701 170.016 144.73 168.805 140.983V153.709H167.149V140.983C165.683 144.924 163.835 147.96 161.604 150.156C161.286 149.736 160.871 149.284 160.298 148.832C163.325 146.086 165.492 142.534 166.862 138.173H163.803V136.591H167.117V131.811H167.149Z" fill="#3E3A39"/>
<path d="M198.248 138.366H201.945V135.007C201.562 135.072 200.989 135.136 200.192 135.201C199.523 135.33 199.013 135.395 198.726 135.395C198.599 134.846 198.44 134.264 198.28 133.715C201.244 133.457 204.111 133.134 206.852 132.682L207.489 134.361C206.947 134.426 206.023 134.523 204.717 134.652C204.239 134.717 203.856 134.781 203.601 134.846V138.399H207.202V139.981H203.601V142.791L204.717 141.758C205.035 142.081 205.513 142.533 206.182 143.146C206.788 143.76 207.266 144.212 207.553 144.471L206.246 145.698C205.513 144.826 204.621 143.922 203.57 142.985V153.74H201.913V143.631C200.989 146.053 199.937 148.056 198.758 149.606C198.503 148.992 198.248 148.314 197.93 147.636C199.587 145.375 200.893 142.823 201.817 139.949H198.248V138.366ZM214.786 131.713H216.538V145.569L220.043 145.181L220.234 146.764L216.538 147.151V153.708H214.786V147.345L206.214 148.088L206.023 146.505L214.786 145.666V131.713ZM207.393 140.595L208.413 139.464C208.731 139.723 209.209 140.11 209.879 140.692C211.121 141.693 211.95 142.371 212.364 142.759L211.153 144.083C210.707 143.663 209.91 142.888 208.763 141.822C208.094 141.273 207.648 140.853 207.393 140.595ZM208.7 135.169L209.815 134.038C210.006 134.232 210.356 134.523 210.93 134.975C212.332 136.17 213.288 136.977 213.798 137.397L212.587 138.722C211.599 137.72 210.293 136.558 208.7 135.169Z" fill="#3E3A39"/>
<path d="M230.08 143.6C230.94 143.341 232.024 143.018 233.298 142.566V137.786H230.335V136.203H233.298V131.811H235.051V136.203H237.632V137.786H235.051V142.081C235.911 141.759 236.74 141.5 237.536 141.242C237.536 141.985 237.568 142.598 237.632 143.018C237.504 143.083 237.249 143.147 236.899 143.212C236.102 143.47 235.497 143.664 235.051 143.858V150.77C235.178 152.514 234.35 153.386 232.565 153.386C232.087 153.45 231.45 153.483 230.717 153.483C230.717 153.354 230.654 153.031 230.526 152.546C230.399 152.062 230.303 151.706 230.239 151.513C230.622 151.577 231.291 151.609 232.279 151.609C233.012 151.674 233.362 151.319 233.298 150.576V144.407C232.119 144.795 231.1 145.118 230.239 145.441L230.08 143.6ZM238.396 141.92V140.434H244.132V136.978H238.301V135.396H244.132V131.746H245.884V135.396H251.97V136.978H245.884V140.434H250.696V141.823C249.453 144.956 248.019 147.378 246.362 149.122C247.605 150.188 249.612 151.125 252.448 151.932C252.385 151.997 252.257 152.126 252.066 152.32C251.588 152.934 251.269 153.386 251.142 153.644C248.816 152.708 246.745 151.609 244.96 150.382C243.112 151.739 240.786 152.966 237.95 154.032C237.632 153.58 237.249 153.063 236.74 152.449C239.894 151.383 242.22 150.253 243.75 149.09C242.22 147.54 240.914 145.15 239.862 141.985H238.396V141.92ZM248.72 141.92H241.615C242.539 144.601 243.686 146.636 245.024 147.992C246.649 146.442 247.86 144.407 248.72 141.92Z" fill="#3E3A39"/>
<path d="M263.377 133.297H283.419V135.073H278.799V141.63H284.343V143.406H278.799V153.612H276.951V143.406H270.037C270.291 148.348 268.22 151.836 263.855 153.871C263.122 152.934 262.676 152.417 262.549 152.288C264.811 151.222 266.309 150.092 266.978 148.929C267.774 147.799 268.188 145.958 268.188 143.406H262.357V141.63H268.188V135.073H263.377V133.297V133.297ZM270.005 135.073V141.63H276.951V135.073H270.005Z" fill="#3E3A39"/>
<path d="M297.312 136.752H302.124C302.124 136.623 302.155 136.461 302.219 136.3C302.474 135.169 302.729 133.587 303.048 131.52L304.991 131.81C304.8 132.747 304.545 134.136 304.163 136.009C304.099 136.332 304.035 136.558 303.972 136.752H316.335V138.431H303.589C303.526 138.754 303.366 139.206 303.143 139.82C302.952 140.434 302.793 140.918 302.697 141.209H313.786V142.792C312.862 145.279 311.332 147.443 309.165 149.251C310.759 150.382 313.212 151.189 316.558 151.674C316.367 151.997 316.016 152.513 315.443 153.256C315.506 153.127 315.411 153.224 315.156 153.547C312.256 152.739 309.771 151.674 307.668 150.349C305.82 151.415 303.079 152.546 299.447 153.708C299.065 153.159 298.619 152.61 298.077 152.126C302.187 151.06 304.896 150.091 306.202 149.219C304.354 147.604 302.984 145.505 302.06 142.953C300.69 146.57 298.523 149.833 295.496 152.772C295.114 152.223 294.731 151.706 294.285 151.286C298.045 147.669 300.499 143.373 301.678 138.367H295.496V136.59C296.229 135.04 296.802 133.587 297.153 132.295L299.001 132.747C298.81 133.134 298.555 133.748 298.173 134.62C297.79 135.783 297.503 136.461 297.312 136.752ZM311.715 142.856H303.685C304.482 145.214 305.82 147.055 307.668 148.379C309.675 146.7 311.045 144.859 311.715 142.856ZM308.401 133.102L309.325 131.778C310.982 132.844 312.416 133.845 313.563 134.782L312.352 136.267C312.224 136.203 312.065 136.074 311.906 135.88C310.376 134.556 309.197 133.619 308.401 133.102Z" fill="#3E3A39"/>
<path d="M332.744 153.709H330.991V142.308C329.876 143.568 328.697 144.73 327.391 145.861C327.072 145.376 326.753 144.795 326.371 144.181C329.462 141.565 331.82 138.852 333.477 136.042H326.913V134.46H334.401C334.879 133.523 335.325 132.554 335.707 131.553L337.555 131.94C337.428 132.328 337.205 132.812 336.918 133.426C336.663 133.878 336.472 134.201 336.376 134.46H348.548V136.042H335.452C335.197 136.591 334.751 137.399 334.082 138.368C333.955 138.561 333.859 138.691 333.795 138.755H345.808V150.835C345.872 152.514 344.979 153.386 343.131 153.451C342.399 153.515 341.188 153.515 339.531 153.451C339.467 152.966 339.34 152.32 339.148 151.578C340.614 151.707 341.761 151.771 342.558 151.771C343.609 151.771 344.087 151.319 344.024 150.447V148.768H332.776V153.709H332.744ZM332.744 140.241V143.051H343.992V140.241H332.744ZM332.744 144.537V147.25H343.992V144.537H332.744Z" fill="#3E3A39"/>
<path d="M366.391 146.505C366.391 148.508 365.658 149.638 364.161 149.864C363.619 149.929 362.822 149.961 361.867 149.961C361.867 149.767 361.803 149.541 361.675 149.218C361.612 148.734 361.548 148.346 361.484 148.088C362.217 148.152 362.886 148.185 363.523 148.185C364.32 148.12 364.734 147.506 364.734 146.311C364.798 144.696 364.065 142.888 362.504 140.885L364.639 134.329H361.325V153.804H359.668V132.746H366.391V134.329L364.256 140.595C365.754 142.532 366.455 144.503 366.391 146.505ZM373.306 149.024C373.306 149.767 373.337 150.413 373.401 150.898C372.095 151.382 370.788 152.06 369.418 152.868C369.291 152.932 369.036 153.094 368.685 153.32C368.43 153.514 368.239 153.643 368.144 153.708L367.028 152.319C367.506 151.77 367.761 151.221 367.761 150.736V132.778H378.276V143.437H372.923C373.401 144.826 374.038 146.053 374.771 147.183C376.301 146.182 377.735 145.116 379.009 143.986L380.22 145.375C380.156 145.439 380.061 145.504 379.933 145.568C378.213 146.828 376.811 147.765 375.791 148.378C377.034 149.703 378.659 150.704 380.698 151.479C380.252 152.028 379.87 152.577 379.487 153.062C375.186 150.801 372.445 147.603 371.266 143.437H369.418V151.124C370.024 150.801 371.043 150.284 372.477 149.541C372.86 149.25 373.146 149.089 373.306 149.024ZM369.45 134.329V137.332H376.747V134.329H369.45ZM369.45 138.818V141.919H376.747V138.818H369.45Z" fill="#3E3A39"/>
<path d="M390.545 142.469C393.986 139.917 396.535 136.623 398.192 132.65L399.945 133.393C397.905 137.689 395.229 141.177 391.915 143.858C391.565 143.438 391.118 142.986 390.545 142.469ZM404.756 144.73C405.425 145.537 406.349 146.668 407.528 148.089C409.185 150.091 410.492 151.577 411.416 152.578L409.854 153.805C409.663 153.612 409.408 153.321 409.121 152.869C408.675 152.32 408.357 151.9 408.102 151.642C405.839 151.706 402.558 151.868 398.32 152.094C397.204 152.158 396.376 152.223 395.834 152.287C395.229 152.287 394.369 152.417 393.253 152.675L392.425 150.899C393.158 150.576 393.763 150.188 394.273 149.671C396.44 147.249 398.447 144.278 400.359 140.789L402.303 141.629C400.964 143.987 398.829 146.991 395.93 150.608C399.021 150.479 402.653 150.317 406.827 150.156C405.776 148.799 404.597 147.346 403.322 145.86L404.756 144.73ZM403.482 132.941L405.138 132.295C406.732 136.461 409.313 139.627 412.881 141.758C412.435 142.21 411.989 142.76 411.511 143.438C407.688 140.66 405.011 137.172 403.482 132.941Z" fill="#3E3A39"/>
<path d="M423.014 137.236H439.997V138.916H423.014V137.236ZM424.32 134.523V132.844H443.629V150.252C443.757 152.449 442.769 153.515 440.666 153.515C439.36 153.515 437.958 153.515 436.428 153.515C436.365 153.03 436.205 152.352 435.982 151.544C436.906 151.609 438.308 151.641 440.22 151.641C441.335 151.706 441.877 151.189 441.877 150.156V134.523H424.32V134.523ZM425.244 141.629H436.97V149.574H426.997V151.06H425.244V141.629ZM426.997 143.211V147.992H435.217V143.211H426.997Z" fill="#3E3A39"/>
<path d="M184.133 127.58C180.756 127.58 178.016 130.358 178.016 133.781C178.016 137.205 180.756 139.983 184.133 139.983C187.511 139.983 190.251 137.205 190.251 133.781C190.251 130.358 187.511 127.58 184.133 127.58ZM184.133 138.917C181.329 138.917 179.067 136.624 179.067 133.781C179.067 130.939 181.329 128.646 184.133 128.646C186.937 128.646 189.2 130.939 189.2 133.781C189.2 136.624 186.937 138.917 184.133 138.917ZM185.344 134.298C185.822 134.137 186.428 133.62 186.428 132.651C186.428 131.65 185.822 130.842 184.452 130.842H182.317C182.253 130.842 182.222 130.907 182.222 130.939V136.624C182.222 136.688 182.285 136.72 182.317 136.72H183.05C183.114 136.72 183.146 136.656 183.146 136.624V134.46H184.356L185.376 136.656C185.408 136.688 185.44 136.72 185.472 136.72H186.332C186.396 136.72 186.428 136.688 186.428 136.624C186.428 136.591 186.428 136.591 186.428 136.559L185.344 134.298ZM184.293 133.684H183.178V131.65H184.325C184.994 131.65 185.44 132.005 185.44 132.683C185.408 133.329 184.994 133.684 184.293 133.684Z" fill="#3E3A39"/>
</g>
<defs>
<clipPath id="clip0_5262_75591">
<rect width="357" height="78" fill="white" transform="translate(88 76)"/>
</clipPath>
</defs>
</svg>
