<svg width="16" height="16" viewBox="0 0 16 16" fill="none" xmlns="http://www.w3.org/2000/svg">
<path d="M4.7172 0.561025C5.03868 0.641394 5.23414 0.967155 5.15377 1.28863L1.7252 15.0029C1.64483 15.3244 1.31907 15.5199 0.997589 15.4395C0.676112 15.3591 0.480656 15.0334 0.561025 14.7119L3.9896 0.997589C4.06997 0.676112 4.39573 0.480656 4.7172 0.561025Z" fill="white"/>
<path d="M11.2833 0.561025C10.9618 0.641394 10.7664 0.967155 10.8467 1.28863L14.2753 15.0029C14.3557 15.3244 14.6814 15.5199 15.0029 15.4395C15.3244 15.3591 15.5199 15.0334 15.4395 14.7119L12.0109 0.997589C11.9305 0.676112 11.6048 0.480656 11.2833 0.561025Z" fill="white"/>
<path d="M8.60025 1.14311C8.60025 0.81174 8.33162 0.543111 8.00025 0.543111C7.66888 0.543111 7.40025 0.81174 7.40025 1.14311V2.28597C7.40025 2.61734 7.66888 2.88597 8.00025 2.88597C8.33162 2.88597 8.60025 2.61734 8.60025 2.28597V1.14311Z" fill="white"/>
<path d="M8.60025 4.57168C8.60025 4.24031 8.33162 3.97168 8.00025 3.97168C7.66888 3.97168 7.40025 4.24031 7.40025 4.57168V6.8574C7.40025 7.18877 7.66888 7.4574 8.00025 7.4574C8.33162 7.4574 8.60025 7.18877 8.60025 6.8574V4.57168Z" fill="white"/>
<path d="M8.60025 9.14311C8.60025 8.81174 8.33162 8.54311 8.00025 8.54311C7.66888 8.54311 7.40025 8.81174 7.40025 9.14311V11.4288C7.40025 11.7602 7.66888 12.0288 8.00025 12.0288C8.33162 12.0288 8.60025 11.7602 8.60025 11.4288V9.14311Z" fill="white"/>
<path d="M8.60025 13.7145C8.60025 13.3832 8.33162 13.1145 8.00025 13.1145C7.66888 13.1145 7.40025 13.3832 7.40025 13.7145V14.8574C7.40025 15.1888 7.66888 15.4574 8.00025 15.4574C8.33162 15.4574 8.60025 15.1888 8.60025 14.8574V13.7145Z" fill="white"/>
</svg>
