<svg width="16" height="10" viewBox="0 0 16 10" fill="none" xmlns="http://www.w3.org/2000/svg">
<path d="M0.533203 2.86589H1.59987V7.34589C1.22654 7.55922 0.853203 7.77255 0.533203 8.03922V9.26589H1.22654C3.0932 7.66589 5.4932 6.70589 7.99987 6.70589C10.5065 6.70589 12.9065 7.66589 14.7732 9.26589H15.4665V7.98589C15.1465 7.71922 14.7732 7.50589 14.3999 7.29255V2.86589H15.7332V1.79922H0.533203V2.86589ZM11.7332 2.86589H13.3332V6.81255C12.7999 6.59922 12.2665 6.38589 11.7332 6.22589V2.86589ZM8.5332 2.86589H10.6665V5.95922C9.9732 5.79922 9.22654 5.69255 8.5332 5.69255V2.86589ZM5.3332 2.86589H7.46654V5.69255C6.7732 5.74589 6.02654 5.79922 5.3332 5.95922V2.86589ZM2.66654 2.86589H4.26654V6.22589C3.7332 6.38589 3.19987 6.59922 2.66654 6.81255V2.86589ZM0.533203 0.199219V1.26589H15.7332V0.199219H0.533203Z" fill="white"/>
</svg>
