<svg width="10" height="12" viewBox="0 0 10 12" fill="none" xmlns="http://www.w3.org/2000/svg">
<path d="M3.17969 5.88184V10.7061C3.17969 11.1254 3.5213 11.467 3.94062 11.467H5.98438C6.4037 11.467 6.74531 11.1254 6.74531 10.7061V5.88184H8.825C9.02666 5.88184 9.22167 5.802 9.36506 5.65861C9.66189 5.36178 9.66191 4.88009 9.36511 4.58324C9.3651 4.58322 9.36508 4.5832 9.36506 4.58318L5.54011 0.755895L5.54006 0.75584C5.24323 0.459009 4.76154 0.458991 4.46468 0.755786C4.46467 0.755804 4.46465 0.755822 4.46463 0.75584L0.63734 4.58079L0.637286 4.58084C0.493896 4.72423 0.414062 4.91924 0.414062 5.1209C0.414062 5.54331 0.756426 5.88184 1.175 5.88184H3.17969Z" fill="#76F0A4" fill-opacity="0.2" stroke="#76F0A4" stroke-width="0.5"/>
</svg>
