<svg width="32" height="32" viewBox="0 0 32 32" fill="none" xmlns="http://www.w3.org/2000/svg">
<g opacity="0.2">
<path fill-rule="evenodd" clip-rule="evenodd" d="M29.5379 19.5524C27.8793 25.8322 22.1527 30 15.9008 30C14.7212 30 13.5224 29.8516 12.329 29.5408C7.03083 28.1633 2.98448 23.8127 2.02091 18.4573C1.89226 17.7438 2.3706 17.0623 3.08948 16.9347C3.80315 16.806 4.49444 17.282 4.62263 17.9956C5.40601 22.3476 8.69348 25.8829 12.9988 27.0022C19.1074 28.5937 25.3793 24.9517 26.9813 18.887C28.5822 12.8206 24.9145 6.59187 18.8054 5.00208C15.8453 4.23171 12.7618 4.65181 10.1213 6.18522C7.4804 7.71824 5.59879 10.1807 4.82312 13.1187C4.63775 13.8199 3.91375 14.2402 3.20952 14.0552C2.50358 13.8716 2.08113 13.1544 2.26615 12.4533C3.22072 8.83713 5.53683 5.80659 8.78732 3.91952C12.0369 2.03325 15.8329 1.51474 19.4757 2.46361C26.9944 4.42011 31.5084 12.0861 29.5379 19.5524ZM18.3554 17.3136L9.37533 17.314C8.64574 17.314 8.05379 16.7264 8.05379 16.0018C8.05379 15.2772 8.64528 14.6896 9.37533 14.6896L18.3544 14.6893L14.5545 10.9163C14.0383 10.404 14.0383 9.57321 14.5545 9.06086C15.0707 8.54829 15.907 8.54829 16.4232 9.06086L22.4375 15.0325C22.4521 15.0458 22.4665 15.0595 22.4807 15.0736C22.739 15.33 22.8681 15.6661 22.8678 16.0023C22.8681 16.3383 22.739 16.6744 22.4807 16.9308C22.4678 16.9436 22.4547 16.9561 22.4414 16.9682L16.4228 22.9434C16.1647 23.1994 15.8266 23.3276 15.4885 23.3276C15.1503 23.3276 14.8118 23.1994 14.5541 22.9432C14.0379 22.4308 14.0379 21.5998 14.5541 21.0874L18.3554 17.3136Z" fill="#263141"/>
</g>
</svg>
