<svg width="28" height="28" viewBox="0 0 28 28" fill="none" xmlns="http://www.w3.org/2000/svg">
<path fill-rule="evenodd" clip-rule="evenodd" d="M0.462105 17.5524C2.12068 23.8322 7.84732 28 14.0992 28C15.2788 28 16.4776 27.8516 17.671 27.5408C22.9692 26.1633 27.0155 21.8127 27.9791 16.4573C28.1077 15.7438 27.6294 15.0623 26.9105 14.9347C26.1968 14.806 25.5056 15.282 25.3774 15.9956C24.594 20.3476 21.3065 23.8829 17.0012 25.0022C10.8926 26.5937 4.6207 22.9517 3.01872 16.887C1.41778 10.8206 5.08552 4.59187 11.1946 3.00208C14.1547 2.23171 17.2382 2.65181 19.8787 4.18522C22.5196 5.71824 24.4012 8.1807 25.1769 11.1187C25.3623 11.8199 26.0863 12.2402 26.7905 12.0552C27.4964 11.8716 27.9189 11.1544 27.7339 10.4533C26.7793 6.83713 24.4632 3.80659 21.2127 1.91952C17.9631 0.0332517 14.1671 -0.485262 10.5243 0.463607C3.00556 2.42011 -1.50836 10.0861 0.462105 17.5524ZM11.6446 15.3136L20.6247 15.314C21.3543 15.314 21.9462 14.7264 21.9462 14.0018C21.9462 13.2772 21.3547 12.6896 20.6247 12.6896L11.6456 12.6893L15.4455 8.91632C15.9617 8.40397 15.9617 7.57321 15.4455 7.06086C14.9293 6.54829 14.093 6.54829 13.5768 7.06086L7.5625 13.0325C7.54787 13.0458 7.53347 13.0595 7.51931 13.0736C7.261 13.33 7.13195 13.6661 7.13216 14.0023C7.13195 14.3383 7.26101 14.6744 7.51933 14.9308C7.53221 14.9436 7.54529 14.9561 7.55856 14.9682L13.5772 20.9434C13.8353 21.1994 14.1734 21.3276 14.5115 21.3276C14.8497 21.3276 15.1882 21.1994 15.4459 20.9432C15.9621 20.4308 15.9621 19.5998 15.4459 19.0874L11.6446 15.3136Z" fill="#263141"/>
</svg>
