<svg width="27" height="11" viewBox="0 0 27 11" fill="none" xmlns="http://www.w3.org/2000/svg">
<path d="M13.3 10.438C16.7391 10.438 19.8746 9.93231 22.1682 9.09898C23.3129 8.68306 24.2745 8.176 24.9592 7.58779C25.6423 7.00101 26.1 6.28674 26.1 5.46898C26.1 4.65122 25.6423 3.93696 24.9592 3.35018C24.2745 2.76197 23.3129 2.25491 22.1682 1.83899C19.8746 1.00566 16.7391 0.5 13.3 0.5C9.86086 0.5 6.72543 1.00566 4.43184 1.83899C3.28711 2.25491 2.32554 2.76197 1.64079 3.35018C0.957698 3.93696 0.5 4.65122 0.5 5.46898C0.5 6.28674 0.957698 7.00101 1.64079 7.58779C2.32554 8.176 3.28711 8.68306 4.43184 9.09898C6.72543 9.93231 9.86086 10.438 13.3 10.438Z" fill="#ABC9E7" fill-opacity="0.1" stroke="#ABC9E7"/>
<ellipse cx="13.5" cy="5.32324" rx="2.5" ry="1" fill="#ABC9E7"/>
</svg>
