<svg width="533" height="209" viewBox="0 0 533 209" fill="none" xmlns="http://www.w3.org/2000/svg">
<g clip-path="url(#clip0_10_111487)">
<path d="M280.132 43.1177C302.835 49.3124 320.022 68.7197 322.787 92.495H206.314C209.08 68.7197 226.259 49.3124 248.969 43.1177C214.818 48.2655 189.235 69.9759 189.235 95.9823C189.235 113.455 200.799 128.985 218.732 138.862H221.605C216.015 132.914 211.743 125.842 209.072 118.111C222.402 111.801 242.311 107.794 264.554 107.794C286.798 107.794 306.706 111.801 320.044 118.111C317.355 125.843 313.069 132.914 307.468 138.862H310.341C328.296 128.985 339.838 113.455 339.838 95.9823C339.838 69.9904 314.226 48.2655 280.104 43.1177" fill="#ED1B23"/>
<path d="M298.39 115.974C287.253 113.696 275.913 112.574 264.548 112.624C253.183 112.574 241.843 113.697 230.706 115.974L222.432 138.861H250.371L251.541 129.013C252.798 123.526 258.063 119.086 264.548 119.086C271.034 119.086 276.298 123.526 277.562 129.013L278.74 138.861H306.679L298.39 115.974ZM258.688 70.6905L260.383 57.0664H252.015L243.447 80.7479L239.195 92.4876H255.98L258.688 70.6905ZM273.116 92.4876H289.901L285.656 80.7479L277.088 57.0664H268.721L270.416 70.6905L273.116 92.4876Z" fill="#0066B3"/>
<path d="M212.974 150.977V146.746L210.783 146.833H204.585L205.82 146.19C205.102 145.208 204.219 144.082 203.177 142.826C201.892 143.675 200.556 144.444 199.177 145.129C199.723 145.636 200.205 146.208 200.613 146.833H194.149L191.995 146.746L192.095 148.869V153.923C192.08 154.454 192.037 154.984 191.966 155.511C191.887 156.233 191.793 156.919 191.693 157.569C191.576 158.262 191.369 158.937 191.075 159.576C190.598 160.448 189.981 161.236 189.251 161.908L190.106 162.529L192.26 164.168C192.461 164.334 192.792 164.565 193.244 164.89C193.961 164.072 194.598 163.187 195.148 162.247C195.869 160.948 196.356 159.53 196.584 158.06C196.72 157.23 196.821 156.435 196.871 155.684L196.921 151.584C196.921 151.444 196.921 151.22 196.921 150.912H210.783L212.974 150.977Z" fill="#0066B3"/>
<path d="M222.367 152.103C222.596 151.764 222.891 151.309 223.243 150.746C223.595 150.183 223.961 149.656 224.227 149.201H235.646L238.06 149.266V145.208L235.646 145.302H226.496C226.776 144.804 227.1 144.284 227.452 143.728C226.295 143.562 224.715 143.251 222.719 142.811C222.283 143.644 221.838 144.474 221.383 145.302H217.957L215.515 145.23V149.287L217.957 149.222H219.013C218.175 150.406 217.428 151.391 216.772 152.175V155.951H221.002C219.005 157.649 216.839 159.134 214.538 160.384C215.256 161.179 215.723 161.677 215.881 161.872C216.039 162.067 216.535 162.673 217.318 163.706C218.797 162.743 220.061 161.857 221.11 161.049C222.273 160.134 223.378 159.147 224.421 158.096C223.576 157.421 222.77 156.697 222.008 155.93H224.751V159.828C224.751 160.673 223.803 160.962 221.878 160.68C222.28 161.633 222.596 162.392 222.769 162.94C222.941 163.489 223.142 164.103 223.307 164.767C224.902 164.594 226.044 164.435 226.726 164.283C227.437 164.109 228.104 163.789 228.687 163.345C229.018 163.069 229.278 162.717 229.443 162.318C229.608 161.919 229.674 161.486 229.635 161.056V155.908H232.4L232.127 156.161L231.474 156.789C231.402 156.847 231.186 157.027 230.813 157.316L229.901 158.125C231.696 159.54 233.796 161.407 236.199 163.727C237.554 162.418 238.579 161.496 239.273 160.962C236.951 158.979 235.405 157.679 234.634 157.063C233.865 156.45 233.406 156.067 233.255 155.908H234.21L236.551 156.002V152.009L234.21 152.103H229.721V151.598L229.793 149.612H224.765L224.844 151.598V152.103H222.367Z" fill="#0066B3"/>
<path d="M240.846 160.825C241.321 161.453 241.751 162.114 242.132 162.803C242.247 163.084 242.477 163.727 242.85 164.745C244.746 164.343 246.612 163.815 248.438 163.164C249.9 162.617 251.301 161.918 252.618 161.077C253.927 161.904 255.315 162.596 256.762 163.142C258.6 163.787 260.482 164.298 262.393 164.673C262.587 164.063 262.827 163.47 263.111 162.897C263.511 162.192 263.967 161.52 264.476 160.89C260.712 160.464 257.868 159.604 255.936 158.334C256.998 157.158 257.935 155.873 258.73 154.5C257.367 153.932 256.068 153.223 254.852 152.384C254.313 153.316 253.882 154.023 253.544 154.493C253.195 154.973 252.816 155.432 252.41 155.865C251.957 155.352 251.598 154.933 251.325 154.594C250.837 153.901 250.394 153.177 249.996 152.428C248.866 153.276 247.67 154.032 246.42 154.688L247.432 156.132C247.974 156.905 248.562 157.645 249.192 158.348C246.607 159.748 243.759 160.589 240.832 160.817M261.208 149.446L264.181 149.54V145.432L261.179 145.547H255.663C255.393 144.647 255.074 143.762 254.708 142.897C253.077 143.345 251.409 143.637 249.724 143.771L250.226 144.739C250.262 144.818 250.341 145.078 250.478 145.526H243.805L241.062 145.41V149.518L243.805 149.424H245.745C245.119 150.134 244.424 150.777 243.669 151.345C242.802 151.975 241.887 152.535 240.933 153.02C241.52 153.57 242.079 154.151 242.606 154.76C243.017 155.251 243.392 155.773 243.726 156.319C244.685 155.79 245.6 155.184 246.463 154.507C247.109 153.978 247.878 153.301 248.768 152.478C249.61 151.703 250.393 150.866 251.11 149.973C250.686 149.793 250.298 149.605 249.953 149.424H254.787C254.635 149.529 254.499 149.655 254.385 149.8C254.085 150.107 253.755 150.382 253.401 150.623C254.119 151.085 255.333 151.901 256.992 153.078C258.651 154.254 259.685 154.962 259.987 155.2C260.288 155.439 260.705 155.778 261.222 156.226C262.205 155.094 263.258 154.025 264.375 153.027L259.261 149.453L261.208 149.446Z" fill="#0066B3"/>
<path d="M269.129 146.868C269.358 147.193 269.789 147.843 270.407 148.832C272.303 147.648 273.459 146.94 273.862 146.709C273.013 145.381 272.052 144.13 270.989 142.969C269.929 143.758 268.799 144.447 267.613 145.027C268.365 145.932 268.86 146.546 269.1 146.868M283.68 151.409H285.468V151.734H283.68V151.409ZM283.68 154.435H285.468V154.752H283.68V154.435ZM278.135 151.409H279.851V151.734H278.164L278.135 151.409ZM278.135 154.435H279.851V154.752H278.164L278.135 154.435ZM281.862 146.659C281.656 146.821 281.437 146.968 281.209 147.099C280.907 146.947 280.642 146.803 280.405 146.659H281.862ZM281.245 160.701C279.543 160.644 278.508 160.6 278.135 160.564V157.676H279.851V158.535L279.772 160.333H283.629L283.55 158.535V157.676H285.468V157.864C285.468 158.03 285.346 158.131 285.116 158.16C284.691 158.199 284.263 158.159 283.852 158.045L284.233 158.832C284.333 159.048 284.563 159.662 284.915 160.673C283.692 160.74 282.467 160.74 281.245 160.673M273.431 159.178V152.211L273.502 150.045L271.19 150.11H268.396L266.78 150.045V153.778L268.317 153.691H269.2V159.265L268.748 159.59L267.793 160.189C267.491 160.405 266.902 160.868 266.026 161.575C266.548 162.028 267.044 162.51 267.513 163.019C267.879 163.438 268.317 163.979 268.82 164.658C269.384 164.103 269.997 163.601 270.651 163.156C270.903 163.017 271.183 162.935 271.47 162.918C271.817 162.933 272.158 163.013 272.475 163.156L273.912 163.756C274.547 163.987 275.201 164.166 275.865 164.29C277.485 164.487 279.118 164.559 280.749 164.506C283.229 164.506 284.939 164.506 285.877 164.506C286.818 164.506 287.465 164.506 287.831 164.506C288.197 164.506 288.757 164.506 289.526 164.427C289.727 163.349 289.899 162.555 290.043 162.044C290.187 161.525 290.359 160.983 290.56 160.413C290.258 160.413 289.382 160.499 287.939 160.579C288.185 160.549 288.421 160.46 288.627 160.321C288.833 160.182 289.003 159.995 289.124 159.777C289.338 159.234 289.433 158.65 289.404 158.066V150.261V148.276L286.962 148.319H284.872C285.389 147.965 285.999 147.539 286.696 147.041L288.326 145.879V143.525H277.302L274.781 143.431V146.745L277.302 146.673H277.783L276.519 147.807C276.836 148.019 277.176 148.196 277.532 148.334H276.519L274.206 148.269L274.257 150.247V159.705C273.971 159.575 273.701 159.413 273.452 159.221" fill="#0066B3"/>
<path d="M299.678 150.262H303.326V150.601H299.678V150.262ZM299.678 152.774H303.326V153.164H299.678V152.774ZM303.326 148.067H299.678V147.764H303.326V148.067ZM312.067 147.764L314.379 147.836V144.948L312.067 145.042H307.908C307.908 144.948 307.858 144.76 307.793 144.471C307.729 144.182 307.671 143.749 307.607 143.128C306.078 143.423 304.53 143.599 302.974 143.655C303.104 144.109 303.195 144.573 303.247 145.042H300.884C300.963 144.897 301.064 144.738 301.171 144.543C301.279 144.348 301.423 144.117 301.588 143.821C299.828 143.468 298.514 143.164 297.659 142.919C297.065 144.027 296.357 145.07 295.548 146.031C294.556 147.061 293.439 147.961 292.223 148.709L292.998 149.431C293.589 150.11 294.145 150.819 294.664 151.554C295.232 151.15 295.656 150.832 295.921 150.63V153.258L295.821 155.886L299.038 155.821H302.443V156.168H295.979L293.106 156.095V159.279L295.979 159.207H298.133C296.235 160.205 294.199 160.914 292.093 161.308C292.582 161.842 293.04 162.404 293.465 162.99C293.757 163.424 294.131 163.994 294.585 164.702C296.433 164.111 298.219 163.345 299.922 162.413L302.076 161.171C302.187 161.114 302.295 161.052 302.4 160.983V162.644L302.249 164.586H306.608L306.458 162.644V161.055C308.773 162.79 311.467 163.943 314.315 164.42C314.987 163.25 315.745 162.133 316.584 161.077C315.312 160.888 314.055 160.611 312.821 160.247C311.937 159.958 311.073 159.611 310.235 159.207H313.338L315.629 159.279V156.131L313.338 156.204H306.436V155.857H312.526L314.818 155.922V153.099L312.526 153.164H307.341V152.796H310.566L312.857 152.868V150.536L310.566 150.601H307.341V150.262H310.566L312.857 150.327V148.002L310.566 148.067H307.341V147.764H312.067Z" fill="#0066B3"/>
<path d="M328.722 155.698C329.016 155.33 329.232 155.07 329.361 154.919V156.132C329.361 156.644 328.815 156.818 327.724 156.666C328.093 156.373 328.428 156.039 328.722 155.67M322.387 147.302H335.882V160.168H329.993C330.787 160.111 331.561 159.895 332.27 159.532C332.628 159.326 332.922 159.024 333.117 158.659C333.289 158.215 333.365 157.74 333.34 157.265V152.052H333.57L335.531 152.125V148.572L333.871 148.637H333.326L333.376 147.511H329.296L329.397 148.637H325.497L323.055 148.572V152.125L325.619 152.052H326.632C326.01 152.814 325.328 153.524 324.592 154.175C323.948 154.793 323.223 155.32 322.438 155.742L322.387 147.302ZM323.321 157.828C323.723 158.42 324.039 158.911 324.348 159.272C325.437 158.538 326.481 157.738 327.472 156.875C327.544 157.041 327.601 157.193 327.652 157.337L327.903 158.442C328.04 159.085 328.111 159.503 328.133 159.691V159.893C328.128 159.977 328.128 160.062 328.133 160.146H322.387V156.478C322.603 156.774 322.919 157.2 323.321 157.807M335.832 163.583V164.232H340.141L340.062 162.788V145.186L340.141 143.742L338.504 143.786H319.68L318.243 143.742L318.322 145.186V162.853L318.243 164.297H322.452V163.648L335.832 163.583Z" fill="#0066B3"/>
</g>
<defs>
<clipPath id="clip0_10_111487">
<rect width="150.882" height="121.765" fill="white" transform="translate(189.235 43.1177)"/>
</clipPath>
</defs>
</svg>
