<svg width="14" height="14" viewBox="0 0 14 14" fill="none" xmlns="http://www.w3.org/2000/svg">
<path d="M4.01346 12.7862C3.10346 12.7862 2.19346 12.4362 1.49346 11.7596C0.84013 11.0596 0.466797 10.1729 0.466797 9.23956C0.466797 8.30622 0.84013 7.39622 1.5168 6.71956L6.79013 1.44622C6.93013 1.30622 7.14013 1.30622 7.28013 1.44622C7.42013 1.58622 7.42013 1.79622 7.28013 1.93622L2.0068 7.20956C1.47013 7.74622 1.1668 8.46956 1.1668 9.23956C1.1668 10.0096 1.47013 10.7096 2.0068 11.2462C3.1268 12.3662 4.92346 12.3662 6.04346 11.2462L12.3201 4.96956C13.0201 4.26956 13.0201 3.14956 12.3201 2.44956C11.9935 2.12289 11.5268 1.93622 11.0601 1.93622C10.5935 1.93622 10.1268 2.12289 9.80013 2.44956L3.50013 8.72622C3.22013 9.00622 3.22013 9.44956 3.50013 9.72956C3.78013 10.0096 4.2468 10.0096 4.50346 9.72956L9.80013 4.45622C9.94013 4.31622 10.1501 4.31622 10.2901 4.45622C10.4301 4.59622 10.4301 4.80622 10.2901 4.94622L5.0168 10.2429C4.76013 10.4996 4.3868 10.6629 4.01346 10.6629C3.64013 10.6629 3.29013 10.5229 3.01013 10.2429C2.45013 9.68289 2.45013 8.79622 3.01013 8.23622L9.2868 1.93622C9.75346 1.46956 10.3835 1.21289 11.0368 1.21289C11.6901 1.21289 12.3201 1.46956 12.7868 1.93622C13.2535 2.40289 13.5101 3.03289 13.5101 3.68622C13.5101 4.33956 13.2535 4.96956 12.7868 5.43622L6.53346 11.7362C5.83346 12.4362 4.92346 12.7862 4.01346 12.7862Z" fill="black" fill-opacity="0.5"/>
</svg>
