<svg width="17" height="22" viewBox="0 0 17 22" fill="none" xmlns="http://www.w3.org/2000/svg">
<path d="M8.75 21.5C8.49343 21.5 8.35182 21.4699 8.26164 21.3665C8.20741 21.3044 2.75492 14.9748 1.30193 11.9096C0.777012 10.8116 0.5 9.6193 0.5 8.45581C0.5 4.06802 4.20078 0.5 8.75 0.5C13.2992 0.5 17 4.09269 17 8.50748C17 9.84127 16.7444 10.8491 16.1178 11.9855C14.3853 15.1256 9.29661 21.2924 9.2458 21.3539C9.18506 21.4282 9.0766 21.5 8.76271 21.5H8.75V21.5ZM8.75 5.38633C7.00047 5.38633 5.57691 6.77861 5.57691 8.48974C5.57691 10.2009 7.00047 11.5932 8.75 11.5932C10.4995 11.5932 11.9231 10.2009 11.9231 8.48974C11.9231 6.77861 10.4995 5.38633 8.75 5.38633Z" fill="#FF8A00"/>
<circle cx="8.75" cy="8.75" r="3.75" fill="white"/>
</svg>
