<svg width="21" height="21" viewBox="0 0 21 21" fill="none" xmlns="http://www.w3.org/2000/svg">
<path d="M9.94578 17.4289L10.3608 20.7856L0.800781 1.97119L4.44578 6.59907L9.94578 17.4289Z" fill="#1C2D83"/>
<path d="M0.800781 1.97132L2.33078 0L11.6708 5.47202L10.1408 7.44334L0.800781 1.97132Z" fill="#3553F3"/>
<path d="M4.44578 6.59907L0.800781 1.97119L10.1408 7.44321L9.82078 9.75219L4.44578 6.59907Z" fill="#2C45CA"/>
<path d="M9.8208 9.75236L15.1308 8.66491L9.9458 17.4291L4.4458 6.59924L9.8208 9.75236Z" fill="#2338A3"/>
<path d="M9.8208 9.75252L10.1408 7.44354L19.3608 5.55664L15.1308 8.66507L9.8208 9.75252Z" fill="#273DB3"/>
<path d="M10.1411 7.44318L11.6711 5.47187L20.8911 3.58496L19.3611 5.55628L10.1411 7.44318Z" fill="#2338A4"/>
<path d="M19.3608 5.55628L20.8908 3.58496L11.8908 18.8143L10.3608 20.7856L19.3608 5.55628Z" fill="#1D2E86"/>
<path d="M15.1308 8.66507L19.3608 5.55664L10.3608 20.7859L9.9458 17.4292L15.1308 8.66507Z" fill="#2439A8"/>
</svg>
