<svg width="18" height="21" viewBox="0 0 18 21" fill="none" xmlns="http://www.w3.org/2000/svg">
<path d="M7.89307 13.7747L9.95132 12.0746L10.1455 12.0843L8.08724 13.7844L7.89307 13.7747Z" fill="#458992"/>
<path d="M8.0874 13.7844L10.1457 12.0843C10.233 12.0843 10.3204 12.0746 10.4078 12.0649L8.34954 13.765C8.26216 13.7747 8.17478 13.7747 8.0874 13.7844Z" fill="#43858E"/>
<path d="M8.34961 13.7651L10.4079 12.065C10.5049 12.0553 10.5923 12.0457 10.6894 12.0264L8.63116 13.7265C8.53408 13.7361 8.4467 13.7554 8.34961 13.7651Z" fill="#408089"/>
<path d="M8.62109 13.7266L10.6793 12.0265C10.7861 12.0072 10.8832 11.9782 10.9803 11.9492L8.93177 13.6493C8.83469 13.6783 8.72789 13.7073 8.62109 13.7266Z" fill="#3E7C84"/>
<path d="M8.93213 13.6493L10.9904 11.9492C11.1166 11.9106 11.2428 11.8623 11.369 11.814L9.31077 13.5141C9.18456 13.5624 9.05834 13.6107 8.93213 13.6493Z" fill="#3C777F"/>
<path d="M9.30078 13.514L11.359 11.8139C11.6309 11.6979 11.8736 11.5434 12.0969 11.3599L10.0386 13.06C9.82505 13.2435 9.57263 13.398 9.30078 13.514Z" fill="#3A737B"/>
<path d="M5.71853 7.84365L7.77678 6.14355C7.54377 6.33675 7.33018 6.56858 7.15542 6.82939L5.09717 8.52948C5.27193 8.26867 5.47581 8.03684 5.71853 7.84365Z" fill="#3A737B"/>
<path d="M5.09701 8.52968L7.15526 6.82959C7.0873 6.93585 7.01934 7.05176 6.96108 7.16768L4.90283 8.86777C4.96108 8.75185 5.02905 8.63594 5.09701 8.52968Z" fill="#3C777F"/>
<path d="M4.90258 8.86757L6.96083 7.16748C6.91229 7.26408 6.87345 7.36067 6.83462 7.45727L4.77637 9.15736C4.8152 9.06076 4.85404 8.96417 4.90258 8.86757Z" fill="#3E7C84"/>
<path d="M4.77634 9.15712L6.8346 7.45703C6.80547 7.54397 6.77634 7.6309 6.74722 7.7275L4.68896 9.42759C4.70838 9.331 4.73751 9.24406 4.77634 9.15712Z" fill="#408089"/>
<path d="M4.68911 9.42763L6.74736 7.72754L6.68911 7.97869L4.63086 9.67878L4.68911 9.42763Z" fill="#43858E"/>
<path d="M4.63106 9.6791L6.68931 7.979L6.65048 8.23015L4.58252 9.93024L4.63106 9.6791Z" fill="#458992"/>
<path d="M4.58241 9.93013L6.65037 8.23004L6.62124 8.47153L4.56299 10.1716L4.58241 9.93013Z" fill="#478D97"/>
<path d="M4.56299 10.1718L6.62124 8.47168V8.63589V8.73249L4.56299 10.4326V10.336V10.1718Z" fill="#49929C"/>
<path d="M4.56299 10.4325L6.62124 8.73236C6.62124 8.8193 6.63095 8.90623 6.64066 8.99317L4.58241 10.6933C4.5727 10.6063 4.5727 10.5194 4.56299 10.4325Z" fill="#4B96A0"/>
<path d="M4.58252 10.6933L6.64077 8.99316C6.65048 9.08976 6.6699 9.1767 6.68931 9.27329L4.63106 10.9734C4.61165 10.8768 4.59223 10.7899 4.58252 10.6933Z" fill="#4E9BA5"/>
<path d="M4.62109 10.9735L6.68905 9.27344C6.70847 9.37003 6.72789 9.46663 6.75702 9.56323L4.69876 11.2633C4.66964 11.1667 4.64051 11.0701 4.62109 10.9735Z" fill="#509FAA"/>
<path d="M4.69873 11.2631L6.75698 9.56299C6.78611 9.6789 6.83465 9.79482 6.87349 9.90108L4.81524 11.6012C4.76669 11.4949 4.72786 11.3887 4.69873 11.2631Z" fill="#52A4AF"/>
<path d="M4.81543 11.6107L6.87368 9.91064C6.94164 10.0749 7.01931 10.2391 7.1164 10.384L5.05815 12.0841C4.96106 11.9295 4.88339 11.775 4.81543 11.6107Z" fill="#54A8B3"/>
<path d="M5.05811 12.0844L7.11636 10.3843C7.31053 10.703 7.55325 11.0025 7.84451 11.244L5.77655 12.9441C5.495 12.7026 5.25228 12.4128 5.05811 12.0844Z" fill="#57ACB8"/>
<path d="M5.77637 12.9437L7.83462 11.2437C7.97054 11.3596 8.11617 11.4658 8.27151 11.5624L6.21326 13.2625C6.05792 13.1659 5.91229 13.0597 5.77637 12.9437Z" fill="#54A8B3"/>
<path d="M6.2135 13.2627L8.27175 11.5626C8.37855 11.6302 8.48535 11.6882 8.59214 11.7365L6.53389 13.4366C6.42709 13.3883 6.3203 13.3303 6.2135 13.2627Z" fill="#52A4AF"/>
<path d="M6.53369 13.4462L8.59194 11.7461C8.67932 11.7944 8.77641 11.833 8.8735 11.862L6.81524 13.5621C6.71816 13.5235 6.63078 13.4848 6.53369 13.4462Z" fill="#509FAA"/>
<path d="M6.81543 13.5619L8.87368 11.8618C8.96106 11.8908 9.04844 11.9198 9.13582 11.9488L7.07757 13.6488C6.99019 13.6199 6.90281 13.5909 6.81543 13.5619Z" fill="#4E9BA5"/>
<path d="M7.07764 13.6493L9.13589 11.9492L9.38832 12.0168L7.33006 13.7073L7.07764 13.6493Z" fill="#4B96A0"/>
<path d="M7.32996 13.707L9.38821 12.0166L9.63093 12.0552L7.57267 13.7553L7.32996 13.707Z" fill="#49929C"/>
<path d="M7.57275 13.7553L9.63101 12.0552L9.88343 12.0746L7.82518 13.7746L7.57275 13.7553Z" fill="#478D97"/>
<path d="M7.8252 13.7748L9.88345 12.0747H9.95141L7.89316 13.7748H7.8252Z" fill="#458992"/>
<path d="M13.6506 15.5228L15.7089 13.8228L10.0778 19.2998L8.01953 20.9998L13.6506 15.5228Z" fill="#386F76"/>
<path d="M2.76697 3.4386L4.82522 1.73851C5.3592 1.29417 5.96114 0.927101 6.60192 0.646973L4.55338 2.34706C3.90289 2.62719 3.30095 2.99426 2.76697 3.4386Z" fill="#3A737B"/>
<path d="M4.55359 2.34737L6.61184 0.647274C6.9031 0.5217 7.20407 0.415444 7.50504 0.318848L5.44679 2.01894C5.13611 2.10588 4.83514 2.21213 4.55359 2.34737Z" fill="#3C777F"/>
<path d="M5.44666 2.01898L7.50491 0.318893C7.74763 0.251275 7.99034 0.193318 8.23306 0.14502L6.17481 1.83545C5.92238 1.88375 5.67966 1.94171 5.44666 2.01898Z" fill="#3E7C84"/>
<path d="M6.17468 1.83532L8.23293 0.135231C8.45624 0.0965929 8.66983 0.0579545 8.90284 0.0386353L6.84459 1.73873C6.61158 1.76771 6.38827 1.79668 6.17468 1.83532Z" fill="#408089"/>
<path d="M6.8446 1.73873L8.90286 0.0386385C9.10674 0.0193192 9.32033 0.00965961 9.53392 0L7.47567 1.70009C7.26208 1.70975 7.04849 1.71941 6.8446 1.73873Z" fill="#43858E"/>
<path d="M7.47546 1.70009L9.53372 0C9.68906 0 9.83469 0 9.99003 0L7.93177 1.70009C7.77643 1.70009 7.62109 1.70009 7.47546 1.70009Z" fill="#458992"/>
<path d="M7.93212 1.70019C12.3399 1.85475 15.9224 5.54472 15.9418 9.95916C15.9515 12.1616 15.0778 14.1225 13.6506 15.5134L8.02921 20.9904L2.15542 14.9532C0.825322 13.4463 0.00978794 11.5144 7.92021e-05 9.41822C-0.0193383 5.01344 3.53406 1.5553 7.93212 1.70019ZM7.89328 13.7747C9.72824 13.8327 11.204 12.403 11.1943 10.5581C11.1845 8.72273 9.6894 7.17719 7.85445 7.11924C6.02921 7.06128 4.55348 8.50056 4.56319 10.3359C4.57289 12.1712 6.06804 13.7168 7.89328 13.7747Z" fill="#70E4D9"/>
<path d="M7.93201 1.70009L9.99026 0L10.1456 0.00965961L8.08735 1.70975L7.93201 1.70009Z" fill="#458992"/>
<path d="M8.08728 1.70986L10.1455 0.00976562C10.3494 0.0194252 10.5533 0.0387445 10.7475 0.0677233L8.68922 1.76782C8.49505 1.73884 8.29116 1.71952 8.08728 1.70986Z" fill="#478D97"/>
<path d="M8.68933 1.76747L10.7476 0.0673828C10.9515 0.0963617 11.1456 0.12534 11.3495 0.163979L9.29127 1.86407C9.0971 1.82543 8.89321 1.79645 8.68933 1.76747Z" fill="#49929C"/>
<path d="M9.29138 1.86415L11.3496 0.164062C11.5535 0.202701 11.7574 0.260659 11.9516 0.308957L9.89332 2.00905C9.69915 1.96075 9.49527 1.91245 9.29138 1.86415Z" fill="#4B96A0"/>
<path d="M9.89294 2.01894L11.9512 0.318848C12.1648 0.376805 12.3784 0.454082 12.5823 0.531359L10.524 2.22179C10.3201 2.14451 10.1065 2.0769 9.89294 2.01894Z" fill="#4E9BA5"/>
<path d="M10.5243 2.22158L12.5825 0.521484C12.8156 0.608421 13.0389 0.705017 13.2622 0.811273L11.2039 2.51136C10.9806 2.40511 10.7573 2.30851 10.5243 2.22158Z" fill="#509FAA"/>
<path d="M11.204 2.52138L13.2622 0.821289C13.5244 0.946864 13.7865 1.09176 14.0292 1.24631L11.971 2.9464C11.7283 2.79185 11.4661 2.64696 11.204 2.52138Z" fill="#52A4AF"/>
<path d="M11.9711 2.94619L14.0293 1.24609C14.3983 1.47792 14.7478 1.72907 15.0779 2.0092L13.0196 3.7093C12.6895 3.42917 12.34 3.16836 11.9711 2.94619Z" fill="#54A8B3"/>
<path d="M13.0194 3.70931L15.0777 2.00922C15.767 2.59845 16.3495 3.29395 16.8155 4.06671L14.7573 5.77647C14.2913 4.99404 13.7087 4.29854 13.0194 3.70931Z" fill="#57ACB8"/>
<path d="M14.7572 5.77626L16.8155 4.07617C17.0388 4.44324 17.2232 4.81996 17.3883 5.22567L15.3397 6.9161C15.1747 6.52005 14.9805 6.13367 14.7572 5.77626Z" fill="#54A8B3"/>
<path d="M15.3397 6.9164L17.398 5.21631C17.5048 5.48678 17.6019 5.75725 17.6795 6.03738L15.6213 7.73747C15.5436 7.45734 15.4465 7.18687 15.3397 6.9164Z" fill="#52A4AF"/>
<path d="M15.6215 7.7372L17.6797 6.03711C17.7477 6.26894 17.8059 6.51043 17.8545 6.75192L15.7962 8.45201C15.7477 8.21052 15.6894 7.96903 15.6215 7.7372Z" fill="#509FAA"/>
<path d="M15.7963 8.45205L17.8545 6.75195C17.8934 6.96446 17.9322 7.18664 17.9516 7.40881L15.8934 9.1089C15.8642 8.88673 15.8351 8.66456 15.7963 8.45205Z" fill="#4E9BA5"/>
<path d="M15.8929 9.10878L17.9512 7.40869C17.9706 7.61154 17.99 7.82405 17.9997 8.03657L15.9415 9.73666C15.9318 9.52415 15.9124 9.3213 15.8929 9.10878Z" fill="#4B96A0"/>
<path d="M15.9417 9.73671L18 8.03662V8.25879C18 8.39403 18 8.5196 17.9903 8.64518L15.932 10.3453C15.9417 10.2197 15.9417 10.0845 15.9417 9.95888V9.73671Z" fill="#49929C"/>
<path d="M15.9322 10.3549L17.9905 8.65479C17.9808 8.85764 17.9613 9.05083 17.9419 9.25368L15.8837 10.9538C15.9128 10.7509 15.9225 10.5577 15.9322 10.3549Z" fill="#478D97"/>
<path d="M15.8836 10.954L17.9418 9.25391C17.9224 9.45676 17.8836 9.64995 17.8447 9.8528L15.7865 11.5529C15.835 11.35 15.8642 11.1472 15.8836 10.954Z" fill="#458992"/>
<path d="M15.7959 11.5434L17.8542 9.84326C17.8153 10.0461 17.7668 10.249 17.7085 10.4518L15.6503 12.1519C15.6988 11.9491 15.7474 11.7462 15.7959 11.5434Z" fill="#43858E"/>
<path d="M15.6505 12.1518L17.7087 10.4517C17.6505 10.6642 17.5825 10.8767 17.4951 11.0893L15.4369 12.7893C15.5146 12.5768 15.5825 12.3643 15.6505 12.1518Z" fill="#408089"/>
<path d="M15.4371 12.7894L17.4953 11.0894C17.408 11.3308 17.3012 11.5627 17.1944 11.7848L15.1361 13.4849C15.2429 13.2531 15.3497 13.0213 15.4371 12.7894Z" fill="#3E7C84"/>
<path d="M15.1358 13.4848L17.194 11.7847C17.0484 12.0648 16.893 12.3449 16.7183 12.6057L14.66 14.2962C14.8348 14.0354 14.9901 13.7649 15.1358 13.4848Z" fill="#3C777F"/>
<path d="M14.66 14.2963L16.7182 12.5962C16.427 13.0405 16.0872 13.4462 15.7085 13.823L13.6503 15.5231C14.0289 15.156 14.3687 14.7406 14.66 14.2963Z" fill="#3A737B"/>
</svg>
