<svg width="60" height="45" viewBox="0 0 60 45" fill="none" xmlns="http://www.w3.org/2000/svg">
<path fill-rule="evenodd" clip-rule="evenodd" d="M0.758589 10.3384C0.758589 10.3384 5.09239 3.89005 8.99462 7.53036C12.8969 11.1707 13.9713 13.3332 18.1295 13.3332C22.2878 13.3332 26.147 5.84337 26.147 5.84337C26.147 5.84337 29.7705 1 33.0474 1C36.3243 1 39.5759 4.4986 42.2352 8.91592C44.8945 13.3332 49.1506 16.2997 52.7311 13.3332C56.3115 10.3668 58.4375 1 58.4375 1H60V45H0L0 10.3384H0.758589Z" fill="url(#paint0_linear)"/>
<path d="M0.983398 9.4762C0.983398 9.4762 5.34379 3.62323 9.26996 6.92745C13.1961 10.2317 14.2771 12.1946 18.4609 12.1946C22.6447 12.1946 26.5276 5.39621 26.5276 5.39621C26.5276 5.39621 30.1734 1 33.4704 1C36.7674 1 40.0389 4.17559 42.7145 8.18508C45.3901 12.1946 49.6724 14.8872 53.2748 12.1946C56.8772 9.50198 59.0162 1 59.0162 1" stroke="#3868FF"/>
<path opacity="0.398791" d="M0.983398 13.5695C0.983398 13.5695 5.34379 7.71649 9.26996 11.0207C13.1961 14.3249 14.2771 16.2878 18.4609 16.2878C22.6447 16.2878 26.5276 9.48947 26.5276 9.48947C26.5276 9.48947 30.1734 5.09326 33.4704 5.09326C36.7674 5.09326 40.0389 8.26885 42.7145 12.2783C45.3901 16.2878 49.6724 18.9804 53.2748 16.2878C56.8772 13.5952 59.0162 5.09326 59.0162 5.09326" stroke="#738EFE" stroke-opacity="0.417025"/>
<defs>
<linearGradient id="paint0_linear" x1="69.8012" y1="55.9336" x2="69.8012" y2="3.70927" gradientUnits="userSpaceOnUse">
<stop stop-color="white"/>
<stop offset="0.296428" stop-color="#FEFFFF"/>
<stop offset="1" stop-color="#E6ECFF"/>
</linearGradient>
</defs>
</svg>
