<svg width="568" height="88" viewBox="0 0 568 88" fill="none" xmlns="http://www.w3.org/2000/svg">
<path d="M0 0H568V0C568 48.6011 528.601 88 480 88H0V0Z" fill="#284C6E"/>
<path d="M85.0526 34.3531V34.8305C84.7178 34.953 84.3471 35.2346 83.9645 35.6631C83.5938 36.0916 83.247 36.7527 82.9242 37.6465L78.0457 51.1629C77.9261 51.1506 77.7946 51.1384 77.6511 51.1384C77.5076 51.1384 77.3761 51.1384 77.2326 51.1384C77.1131 51.1384 76.9815 51.1384 76.838 51.1384C76.6946 51.1384 76.563 51.1506 76.4435 51.1629L70.5486 36.3487C70.3334 35.7855 70.0942 35.3937 69.8312 35.1856C69.5681 34.9652 69.317 34.8428 69.0898 34.8305V34.3531C69.5562 34.3653 70.0942 34.3898 70.7041 34.402C71.3378 34.4143 71.9715 34.4265 72.6052 34.4265C73.3107 34.4265 73.9803 34.4143 74.5901 34.402C75.2238 34.3898 75.726 34.3653 76.1206 34.3531V34.8305C75.6304 34.8428 75.2477 34.904 74.9608 35.0142C74.6858 35.1121 74.5303 35.2958 74.4944 35.5774C74.4586 35.8467 74.5542 36.2507 74.7695 36.8139L78.9784 47.7715L78.4881 48.3592L81.6807 39.5564C82.0992 38.3688 82.3144 37.4383 82.3263 36.765C82.3383 36.0916 82.1829 35.6019 81.8361 35.2958C81.5013 35.0019 81.0111 34.8428 80.3773 34.8183V34.3408C80.9035 34.3531 81.3937 34.3775 81.86 34.3898C82.3263 34.402 82.7927 34.4143 83.271 34.4143C83.6058 34.4143 83.9286 34.402 84.2156 34.3898C84.5504 34.3775 84.8254 34.3653 85.0526 34.3531Z" fill="white"/>
<path d="M87.7083 32.7607C88.3539 32.7607 88.8681 32.9321 89.2388 33.2627C89.6214 33.581 89.8127 34.0218 89.8127 34.585C89.8127 35.1481 89.6214 35.6011 89.2388 35.9317C88.8681 36.25 88.3659 36.4092 87.7083 36.4092C87.0506 36.4092 86.5484 36.25 86.1538 35.9317C85.7832 35.6011 85.6038 35.1481 85.6038 34.585C85.6038 34.0218 85.7832 33.581 86.1538 33.2627C86.5484 32.9321 87.0626 32.7607 87.7083 32.7607ZM89.5138 38.613V48.9094C89.5138 49.5705 89.6214 50.0235 89.8366 50.2562C90.0638 50.4888 90.4584 50.6112 90.9965 50.6112V51.1132C90.7214 51.1009 90.291 51.0764 89.7051 51.0642C89.1192 51.0275 88.5213 51.0152 87.9235 51.0152C87.3256 51.0152 86.7158 51.0275 86.0941 51.0642C85.4723 51.0764 85.0179 51.1009 84.707 51.1132V50.6112C85.2451 50.6112 85.6277 50.4888 85.843 50.2562C86.0701 50.0235 86.1897 49.5705 86.1897 48.9094V41.4534C86.1897 40.7433 86.0821 40.2168 85.8669 39.8862C85.6636 39.5434 85.281 39.3598 84.707 39.3598V38.8578C85.1973 38.9068 85.6756 38.9313 86.1419 38.9313C86.7876 38.9313 87.3854 38.9068 87.9474 38.8578C88.5094 38.8088 89.0355 38.7231 89.5138 38.613Z" fill="white"/>
<path d="M103.395 34.0469C104.304 34.0469 105.009 34.1448 105.499 34.353C105.99 34.5366 106.42 34.7447 106.767 34.9651C106.946 35.0753 107.102 35.161 107.209 35.2222C107.329 35.2712 107.448 35.2957 107.556 35.2957C107.711 35.2957 107.819 35.21 107.879 35.0386C107.951 34.8672 108.022 34.6101 108.058 34.255H108.584C108.572 34.5488 108.548 34.9161 108.513 35.3446C108.501 35.7609 108.477 36.2996 108.465 36.973C108.465 37.6464 108.465 38.5401 108.465 39.642H107.939C107.879 38.8217 107.687 38.0259 107.389 37.2546C107.078 36.4833 106.635 35.8466 106.073 35.3569C105.523 34.8549 104.83 34.5978 104.017 34.5978C103.275 34.5978 102.666 34.8059 102.187 35.2345C101.709 35.663 101.47 36.2506 101.47 37.0097C101.47 37.6464 101.625 38.185 101.936 38.638C102.247 39.0788 102.689 39.5195 103.275 39.9358C103.873 40.3643 104.603 40.8785 105.452 41.4784C106.193 41.9682 106.85 42.4579 107.436 42.9476C108.022 43.4373 108.489 43.9883 108.847 44.6004C109.206 45.2126 109.373 45.9472 109.373 46.8042C109.373 47.8449 109.098 48.7019 108.56 49.3875C108.034 50.0609 107.341 50.5751 106.48 50.9301C105.619 51.2607 104.674 51.4321 103.634 51.4321C102.677 51.4321 101.912 51.3342 101.35 51.1505C100.788 50.9669 100.298 50.7587 99.9154 50.5628C99.5806 50.3425 99.3175 50.2323 99.1262 50.2323C98.9708 50.2323 98.8512 50.318 98.7795 50.4894C98.7197 50.6608 98.6599 50.9179 98.6121 51.2729H98.0859C98.1218 50.8934 98.1338 50.4526 98.1338 49.9507C98.1457 49.4487 98.1577 48.7876 98.1577 47.9918C98.1696 47.1715 98.1816 46.1431 98.1816 44.8943H98.7077C98.7675 45.9349 98.9349 46.9144 99.2219 47.8326C99.5088 48.7264 99.9512 49.461 100.537 50.0119C101.135 50.5628 101.936 50.8444 102.917 50.8444C103.455 50.8444 103.933 50.7465 104.351 50.5628C104.782 50.3547 105.129 50.0609 105.392 49.6691C105.655 49.2773 105.786 48.7876 105.786 48.1999C105.786 47.5388 105.631 46.9634 105.32 46.4736C105.033 45.9839 104.615 45.5309 104.1 45.1024C103.586 44.6739 103 44.2454 102.319 43.8046C101.589 43.3149 100.92 42.8252 100.286 42.3355C99.6523 41.8457 99.1501 41.2826 98.7555 40.6582C98.3849 40.0215 98.2055 39.2747 98.2055 38.4054C98.2055 37.4137 98.4447 36.5934 98.9229 35.969C99.4132 35.3202 100.059 34.8549 100.836 34.5488C101.661 34.1938 102.498 34.0469 103.395 34.0469Z" fill="white"/>
<path d="M115.448 32.6016V40.7432C115.83 39.9229 116.344 39.3598 117.002 39.0414C117.66 38.7109 118.401 38.5395 119.226 38.5395C119.884 38.5395 120.422 38.6252 120.816 38.7966C121.223 38.9557 121.534 39.1761 121.761 39.4577C122.024 39.7515 122.203 40.1433 122.311 40.6208C122.431 41.0983 122.49 41.7349 122.49 42.543V48.9094C122.49 49.5705 122.598 50.0235 122.813 50.2561C123.04 50.4888 123.435 50.6112 123.973 50.6112V51.1131C123.686 51.1009 123.232 51.0764 122.634 51.0642C122.048 51.0274 121.474 51.0152 120.924 51.0152C120.326 51.0152 119.74 51.0274 119.166 51.0642C118.616 51.0764 118.198 51.1009 117.923 51.1131V50.6112C118.389 50.6112 118.712 50.4888 118.891 50.2561C119.071 50.0235 119.166 49.5705 119.166 48.9094V41.539C119.166 41.1473 119.13 40.8044 119.047 40.5229C118.975 40.229 118.82 39.9964 118.604 39.8372C118.401 39.6658 118.114 39.5801 117.731 39.5801C117.313 39.5801 116.93 39.7026 116.572 39.9352C116.237 40.1556 115.95 40.4739 115.735 40.8779C115.531 41.2942 115.436 41.7594 115.436 42.2981V48.8971C115.436 49.5583 115.531 50.0113 115.711 50.2439C115.89 50.4765 116.225 50.5989 116.679 50.5989V51.1009C116.404 51.0887 115.998 51.0642 115.46 51.0519C114.922 51.0152 114.371 51.003 113.821 51.003C113.224 51.003 112.614 51.0152 111.992 51.0519C111.394 51.0642 110.94 51.0887 110.629 51.1009V50.5989C111.167 50.5989 111.55 50.4765 111.765 50.2439C111.992 50.0113 112.112 49.5583 112.112 48.8971V35.4297C112.112 34.7196 112.004 34.1932 111.789 33.8626C111.585 33.5198 111.203 33.3361 110.629 33.3361V32.8342C111.119 32.8832 111.597 32.9076 112.064 32.9076C112.697 32.9076 113.295 32.8832 113.869 32.8342C114.443 32.7975 114.969 32.7118 115.448 32.6016Z" fill="white"/>
<path d="M128.003 51.2724C127.309 51.2724 126.735 51.1377 126.269 50.8683C125.803 50.599 125.468 50.2439 125.253 49.8032C125.037 49.3502 124.93 48.8482 124.93 48.3095C124.93 47.6361 125.073 47.073 125.372 46.6567C125.683 46.2282 126.078 45.8854 126.556 45.616C127.034 45.3467 127.536 45.1263 128.062 44.9549C128.601 44.7835 129.115 44.6121 129.593 44.4529C130.083 44.2815 130.478 44.0856 130.777 43.8653C131.088 43.6326 131.243 43.3266 131.243 42.9715V41.1228C131.243 40.7065 131.171 40.3515 131.04 40.0332C130.92 39.7026 130.717 39.4455 130.442 39.2741C130.179 39.1027 129.832 39.017 129.402 39.017C129.091 39.017 128.78 39.066 128.481 39.1639C128.17 39.2374 127.919 39.3843 127.716 39.5924C128.146 39.7516 128.481 39.9964 128.708 40.327C128.959 40.6453 129.079 41.0004 129.079 41.4166C129.079 41.9553 128.899 42.3839 128.529 42.6899C128.17 43.0083 127.752 43.1674 127.261 43.1674C126.711 43.1674 126.281 42.996 125.994 42.641C125.719 42.2737 125.575 41.8452 125.575 41.3432C125.575 40.8902 125.683 40.5107 125.898 40.2046C126.125 39.9107 126.448 39.6169 126.843 39.3476C127.273 39.0905 127.787 38.8946 128.397 38.7599C129.019 38.613 129.677 38.5518 130.382 38.5518C131.088 38.5518 131.733 38.6252 132.295 38.7844C132.869 38.9313 133.347 39.2006 133.73 39.5924C134.089 39.9597 134.316 40.4005 134.424 40.9392C134.531 41.4656 134.591 42.1267 134.591 42.9225V49.3624C134.591 49.7542 134.627 50.0358 134.711 50.195C134.782 50.3419 134.914 50.4031 135.105 50.4031C135.249 50.4031 135.38 50.3664 135.5 50.2807C135.643 50.2072 135.787 50.1093 135.942 49.9991L136.169 50.4031C135.847 50.6847 135.464 50.9051 135.033 51.0642C134.615 51.2111 134.149 51.2724 133.622 51.2724C133.049 51.2724 132.594 51.1989 132.259 51.0397C131.925 50.8683 131.673 50.6357 131.518 50.3541C131.375 50.0725 131.315 49.742 131.315 49.3624C130.944 49.9623 130.502 50.4398 129.976 50.7826C129.402 51.1009 128.756 51.2724 128.003 51.2724ZM129.641 49.7542C129.952 49.7542 130.227 49.6807 130.478 49.5461C130.741 49.3869 130.992 49.1298 131.219 48.787V43.9387C131.076 44.1713 130.884 44.3917 130.645 44.5754C130.394 44.759 130.131 44.9671 129.856 45.163C129.581 45.3467 129.306 45.5671 129.043 45.7997C128.792 46.0323 128.601 46.3261 128.445 46.6812C128.29 47.0362 128.218 47.4525 128.218 47.93C128.218 48.5421 128.349 49.0074 128.612 49.3012C128.864 49.6073 129.21 49.7542 129.641 49.7542Z" fill="white"/>
<path d="M144.73 38.54C145.22 38.54 145.626 38.6502 145.937 38.8706C146.248 39.0787 146.463 39.3481 146.607 39.6786C146.762 40.0092 146.834 40.352 146.834 40.7193C146.834 41.307 146.667 41.7845 146.32 42.164C145.997 42.5313 145.567 42.7027 145.028 42.7027C144.49 42.7027 144.06 42.568 143.761 42.2987C143.474 42.0171 143.319 41.6498 143.319 41.1846C143.319 40.7438 143.414 40.3765 143.594 40.0949C143.797 39.8011 144.036 39.544 144.335 39.3358C144.12 39.2746 143.904 39.2746 143.689 39.3603C143.402 39.4093 143.115 39.5317 142.852 39.7399C142.589 39.9235 142.362 40.1684 142.183 40.4745C142.003 40.756 141.848 41.0744 141.74 41.4172C141.633 41.7477 141.573 42.0661 141.573 42.3844V48.6528C141.573 49.4119 141.752 49.9261 142.099 50.1955C142.47 50.4648 143.02 50.5995 143.737 50.5995V51.1015C143.378 51.0892 142.864 51.0647 142.183 51.0525C141.501 51.0158 140.796 51.0035 140.054 51.0035C139.433 51.0035 138.811 51.0158 138.177 51.0525C137.543 51.0647 137.065 51.0892 136.742 51.1015V50.5995C137.28 50.5995 137.663 50.4771 137.878 50.2445C138.105 50.0118 138.225 49.5588 138.225 48.8977V41.4539C138.225 40.7438 138.117 40.2173 137.902 39.8868C137.699 39.544 137.316 39.3603 136.742 39.3603V38.8584C137.232 38.9073 137.711 38.9318 138.177 38.9318C138.823 38.9318 139.421 38.9073 139.983 38.8584C140.556 38.7971 141.071 38.7114 141.549 38.6013V40.805C141.728 40.3765 141.979 39.997 142.29 39.6419C142.601 39.2869 142.948 39.0298 143.354 38.8339C143.785 38.638 144.227 38.54 144.73 38.54Z" fill="white"/>
<path d="M152.276 38.6135V53.0481C152.276 53.795 152.455 54.2847 152.826 54.5173C153.196 54.7744 153.698 54.8968 154.356 54.8968V55.3988C153.949 55.3866 153.399 55.3621 152.694 55.3253C152 55.3131 151.259 55.3009 150.47 55.3009C149.896 55.3009 149.334 55.3131 148.784 55.3253C148.246 55.3621 147.839 55.3866 147.564 55.3988V54.8968C148.079 54.8968 148.425 54.7867 148.629 54.5663C148.844 54.3459 148.951 53.9174 148.951 53.293V41.4539C148.951 40.7438 148.844 40.2173 148.629 39.8868C148.413 39.544 148.031 39.3603 147.469 39.3603V38.8584C147.959 38.9073 148.437 38.9318 148.904 38.9318C149.537 38.9318 150.135 38.9073 150.709 38.8584C151.283 38.8094 151.797 38.7237 152.276 38.6135ZM155.863 38.54C156.652 38.54 157.345 38.7604 157.967 39.2012C158.589 39.6297 159.079 40.2786 159.45 41.1601C159.82 42.0293 160 43.119 160 44.429C160 45.5798 159.868 46.596 159.605 47.453C159.354 48.3223 158.995 49.0569 158.517 49.6568C158.051 50.2445 157.489 50.6852 156.831 50.979C156.185 51.2729 155.456 51.432 154.631 51.432C154.033 51.432 153.483 51.3218 152.993 51.1015C152.503 50.8933 152.12 50.5995 151.857 50.2077L152.084 49.9016C152.24 50.1832 152.455 50.4036 152.73 50.5628C153.017 50.7219 153.352 50.7954 153.722 50.7954C154.416 50.7954 154.966 50.5628 155.36 50.0853C155.767 49.5956 156.042 48.9222 156.221 48.0529C156.401 47.1714 156.496 46.1185 156.496 44.9065C156.496 43.5475 156.413 42.4823 156.245 41.711C156.078 40.9397 155.839 40.3887 155.552 40.0582C155.265 39.7276 154.906 39.5562 154.488 39.5562C153.938 39.5562 153.423 39.7766 152.957 40.2173C152.515 40.6581 152.252 41.2947 152.192 42.115L152.072 41.2825C152.347 40.3887 152.814 39.7031 153.483 39.2501C154.177 38.7727 154.966 38.54 155.863 38.54Z" fill="white"/>
<path fill-rule="evenodd" clip-rule="evenodd" d="M61.4023 30.2144V30.0186H61.2109H47.9266H47.9027C43.0242 30.0308 39.0664 34.0833 39.0664 39.0785C39.0664 44.0614 42.9883 48.1016 47.8549 48.1384H47.9266H52.0279H52.5421C52.9725 48.1384 53.3073 48.4934 53.3073 48.9219C53.3073 49.3627 52.9606 49.7055 52.5421 49.7055H46.1091C43.371 49.7055 40.9915 51.3093 39.8197 53.6478H53.4986C55.34 53.6478 56.9662 51.7011 56.9662 49.1178C56.9662 46.5345 55.34 44.5879 53.4986 44.5879H46.7189V44.5756C44.4232 44.4287 42.7133 42.0168 42.7133 39.2621C42.7133 36.5074 44.4232 34.0955 46.7189 33.9486V33.9364H60.649C61.1272 32.9202 61.4023 31.7816 61.4023 30.5817V30.2144ZM60.2305 34.7444H46.9581C45.1167 34.7444 43.4905 36.6911 43.4905 39.2743C43.4905 41.8576 45.1167 43.8043 46.9581 43.8043H53.7736V43.8165C56.0574 43.9879 57.7434 46.3876 57.7434 49.1301C57.7434 51.7991 56.1531 54.1252 53.9649 54.4191V54.4558H39.4969C39.2218 55.2271 39.0664 56.0719 39.0664 56.9412V57.8104V58.0063H39.2577H52.5421C57.4325 58.0063 61.4023 53.9416 61.4023 48.9464C61.4023 43.9512 57.4564 39.8987 52.5779 39.8865H52.566H52.554H52.5421H52.5301H52.5181H52.5062H52.4942H52.4105H52.3149H51.2626H48.5723H48.1897H48.0581C47.6277 39.8865 47.2929 39.5315 47.2929 39.1029C47.2929 38.6622 47.6396 38.3194 48.0581 38.3194H53.8932C56.5477 38.2949 58.8913 36.8747 60.2305 34.7444Z" fill="#B9C4FF"/>
<path fill-rule="evenodd" clip-rule="evenodd" d="M35.0125 57.9941H38.0496C38.0615 42.4087 33.2189 32.7611 30.7916 29.9941H28.4002C30.959 34.2792 35.1081 44.5634 35.0125 57.9941ZM27.4795 29.9941H24C30.8992 42.6902 31.4014 54.0274 30.7916 57.9941H34.2233C34.319 44.2329 29.9068 33.8507 27.4795 29.9941Z" fill="#B9C4FF"/>
<path opacity="0.5" d="M168 32V56" stroke="white"/>
<path d="M182.412 56.048C182.216 55.264 181.516 53.808 180.956 53.108C181.628 52.772 182.608 51.988 182.608 50.756V43.112H185.968V53.108C185.968 53.108 182.412 54.928 182.412 56.048ZM178.268 33.228H202.04V39.444H198.568V36.336H181.6V39.444H178.268V33.228ZM189.58 29.784L193.024 30.456C190.812 39.668 186.36 45.436 178.772 48.684C178.324 47.956 177.092 46.528 176.336 45.856C183.784 43.196 187.816 38.044 189.58 29.784ZM191.12 35.916C193.024 43.14 197.084 49.496 203.16 52.548C202.348 53.192 201.228 54.508 200.668 55.432C194.256 51.764 190.364 45.044 188.04 36.728L191.12 35.916ZM198.596 39.976L201.256 42.216C199.408 43.868 196.944 45.632 195.124 46.78L192.8 44.652C194.564 43.532 197.084 41.544 198.596 39.976ZM182.412 56.048L182.076 53.108L183.532 52.016L192.128 49.804C192.128 50.728 192.24 52.1 192.408 52.828C184.54 55.068 183.252 55.516 182.412 56.048ZM217.384 35.44H231.3V38.632H217.384V35.44ZM225 29.756H228.444V51.876C228.444 53.864 228.024 54.816 226.848 55.348C225.7 55.908 223.852 56.048 221.332 56.02C221.192 55.04 220.66 53.472 220.156 52.492C221.92 52.548 223.684 52.548 224.272 52.548C224.804 52.548 225 52.38 225 51.848V29.756ZM217.608 42.048L220.38 40.732C221.836 42.72 223.292 45.352 223.796 47.172L220.772 48.684C220.324 46.92 218.98 44.148 217.608 42.048ZM205.26 35.496H216.572V38.688H205.26V35.496ZM209.6 29.728H212.848V56.02H209.6V29.728ZM209.46 37.652L211.588 38.408C210.552 43 208.564 48.404 206.184 51.288C205.848 50.308 205.036 48.908 204.476 48.04C206.66 45.576 208.62 41.292 209.46 37.652ZM212.736 40.172C213.576 40.956 216.404 44.288 217.02 45.072L214.976 47.872C214.108 46.192 212.064 43.224 211.028 41.824L212.736 40.172ZM243.2 39.948L247.232 40.928C245.384 45.324 242.892 50.252 240.82 53.472L237.712 52.492C239.728 49.104 241.996 43.952 243.2 39.948ZM234.464 51.456C239.756 51.288 247.96 50.896 255.296 50.532L255.212 53.808C248.016 54.312 240.232 54.732 234.912 55.012L234.464 51.456ZM248.632 46.136L251.908 44.624C254.372 47.648 257.004 51.624 258.348 54.312L254.876 56.16C253.7 53.472 250.984 49.216 248.632 46.136ZM240.232 30.372L244.068 31.436C242.276 35.86 239.336 40.2 236.48 42.888C235.752 42.188 234.128 40.956 233.204 40.396C236.116 38.1 238.776 34.264 240.232 30.372ZM251.516 30.4C253.168 33.704 256.36 37.624 258.936 39.976C258.012 40.676 256.724 42.02 256.08 42.916C253.448 40.088 250.228 35.664 248.156 31.772L251.516 30.4ZM275.232 52.128H284.052V55.012H275.232V52.128ZM276.436 32.388H283.548V35.244H276.436V32.388ZM273.86 45.576H285.424V55.852H282.232V48.404H276.94V55.936H273.86V45.576ZM282.372 32.388H282.96L283.548 32.276L285.676 33.172C283.632 40.2 278.9 44.68 273.216 47.088C272.824 46.304 271.984 45.156 271.312 44.54C276.38 42.692 280.804 38.408 282.372 32.92V32.388ZM276.548 29.7L279.74 30.484C278.48 34.264 276.408 37.904 274.14 40.2C273.58 39.612 272.292 38.52 271.536 38.044C273.72 36.084 275.568 32.948 276.548 29.7ZM276.632 33.956C278.228 37.736 281.868 42.076 287.58 43.868C286.908 44.512 285.956 45.828 285.508 46.696C279.74 44.456 276.072 39.556 274.364 35.412L276.632 33.956ZM261.96 42.076H264.704V52.268H261.96V42.076ZM265.096 33.648V37.204H268.792V33.648H265.096ZM262.184 30.764H271.872V40.088H262.184V30.764ZM266.104 38.912H269.072V51.428H266.104V38.912ZM260.728 51.736C263.696 51.204 268.176 50.224 272.376 49.272L272.684 52.24C268.736 53.22 264.48 54.228 261.288 54.956L260.728 51.736ZM267.28 43.364H272.152V46.304H267.28V43.364ZM295.42 40.648V50.952H292.2V43.756H289.064V40.648H295.42ZM295.42 49.636C296.484 51.484 298.472 52.296 301.356 52.408C304.716 52.576 311.352 52.492 315.244 52.184C314.88 52.94 314.348 54.48 314.208 55.46C310.708 55.628 304.744 55.684 301.328 55.516C297.968 55.376 295.7 54.564 294.02 52.408C292.9 53.5 291.724 54.564 290.324 55.768L288.728 52.436C289.904 51.68 291.276 50.672 292.508 49.636H295.42ZM289.148 32.332L291.724 30.456C293.32 31.688 295.28 33.564 296.148 34.88L293.376 37.008C292.62 35.636 290.744 33.704 289.148 32.332ZM299.564 30.232L302.756 30.96C301.776 34.46 300.516 37.344 299.368 40.228C301.132 43.56 302.868 47.536 303.624 50.112L300.376 51.372C299.732 48.46 298.08 44.148 296.148 40.228C297.464 36.98 298.892 32.864 299.564 30.232ZM305.024 30.232L308.216 30.988C307.124 34.516 305.752 37.344 304.492 40.228C306.396 43.532 308.272 47.508 309.14 50.084L305.892 51.344C305.164 48.46 303.316 44.12 301.216 40.228C302.672 36.98 304.268 32.864 305.024 30.232ZM310.736 30.232L313.956 31.044C312.808 34.544 311.296 37.372 309.924 40.2C311.94 43.504 313.984 47.48 314.908 50.056L311.66 51.372C310.82 48.46 308.832 44.148 306.536 40.228C308.16 36.98 309.896 32.864 310.736 30.232ZM317.064 34.768H325.604V37.876H317.064V34.768ZM320.34 29.728H323.392V56.02H320.34V29.728ZM320.284 37.064L322.076 37.764C321.404 42.132 319.976 47.424 318.24 50.196C317.96 49.216 317.232 47.676 316.728 46.78C318.296 44.568 319.696 40.368 320.284 37.064ZM323.28 38.66C323.896 39.416 326.136 42.72 326.584 43.532L324.68 45.8C324.092 44.232 322.552 41.152 321.768 39.836L323.28 38.66ZM334.648 30.568C336.552 33.088 340.276 36.084 343.468 37.624C342.88 38.464 342.208 39.948 341.9 40.872C338.4 38.744 334.508 35.188 332.184 32.22L334.648 30.568ZM333.052 29.392L335.936 30.512C333.584 34.684 329.804 38.772 326.192 41.32C325.828 40.648 324.876 39.192 324.288 38.548C327.676 36.476 331.064 33.032 333.052 29.392ZM329.02 38.296H338.988V41.124H329.02V38.296ZM326.976 43.812L329.552 43.14C330.252 45.24 330.952 47.956 331.204 49.748L328.488 50.532C328.264 48.712 327.62 45.912 326.976 43.812ZM332.324 42.972L334.9 42.608C335.432 44.736 335.908 47.396 336.104 49.188L333.36 49.636C333.248 47.816 332.772 45.072 332.324 42.972ZM339.072 42.58L341.984 43.252C340.668 46.612 338.904 50.588 337.448 53.052L335.068 52.38C336.496 49.804 338.176 45.604 339.072 42.58ZM325.66 51.96H342.32V54.9H325.66V51.96ZM348.928 44.12H367.296V55.992H363.824V46.78H352.232V55.992H348.928V44.12ZM350.916 48.32H365V50.756H350.916V48.32ZM348.48 31.828H357.356V34.432H348.48V31.828ZM345.148 36.28H358.028V38.912H345.148V36.28ZM350.916 52.408H365V55.068H350.916V52.408ZM350.552 32.612H353.716V35.692C353.716 38.548 352.652 42.412 346.968 45.016C346.52 44.344 345.568 43.308 344.812 42.776C350.076 40.76 350.552 37.708 350.552 35.664V32.612ZM347.976 29.56L350.972 30.148C350.272 32.668 348.984 35.076 347.556 36.616C346.94 36.14 345.652 35.384 344.924 35.048C346.352 33.704 347.444 31.632 347.976 29.56ZM353.184 38.772C354.192 39.248 357.328 41.04 358.14 41.572L355.732 43.7C354.64 42.776 352.176 40.956 350.916 40.144L353.184 38.772ZM362.088 34.74V39.472H366.372V34.74H362.088ZM358.98 31.772H369.676V42.468H358.98V31.772ZM377.068 29.588L380.568 30.344C379.56 32.92 378.3 35.664 377.236 37.456L374.324 36.7C375.332 34.796 376.48 31.828 377.068 29.588ZM372.84 35.328C375.864 35.244 380.4 35.048 384.74 34.852L384.712 37.764C380.596 38.072 376.284 38.324 373.092 38.52L372.84 35.328ZM374.492 39.836H383.396V42.608H377.6V55.992H374.492V39.836ZM381.8 39.836H385.132V52.632C385.132 54.06 384.852 54.9 383.9 55.404C382.92 55.908 381.66 55.964 379.952 55.964C379.784 55.068 379.308 53.78 378.888 52.968C379.868 53.024 380.988 53.024 381.352 52.996C381.688 52.996 381.8 52.912 381.8 52.548V39.836ZM375.92 44.064H383.676V46.556H375.92V44.064ZM375.92 48.18H383.676V50.672H375.92V48.18ZM387.316 29.84H390.676V38.24C390.676 39.22 390.844 39.36 391.908 39.36C392.356 39.36 394.372 39.36 394.96 39.36C395.884 39.36 396.052 38.94 396.164 36.476C396.864 37.008 398.236 37.512 399.16 37.708C398.796 41.348 397.9 42.356 395.296 42.356C394.596 42.356 392.076 42.356 391.432 42.356C388.128 42.356 387.316 41.404 387.316 38.296V29.84ZM395.716 31.492L397.844 33.928C395.352 35.132 392.104 36.196 389.332 36.952C389.192 36.28 388.744 35.272 388.38 34.628C390.984 33.816 393.868 32.556 395.716 31.492ZM387.316 42.916H390.648V51.736C390.648 52.772 390.844 52.884 391.936 52.884C392.412 52.884 394.512 52.884 395.128 52.884C396.108 52.884 396.276 52.38 396.416 49.524C397.116 50.028 398.46 50.56 399.384 50.756C399.02 54.704 398.124 55.824 395.436 55.824C394.736 55.824 392.132 55.824 391.46 55.824C388.156 55.824 387.316 54.872 387.316 51.764V42.916ZM395.94 44.092L398.124 46.556C395.576 47.928 392.188 49.104 389.304 49.916C389.136 49.272 388.66 48.208 388.324 47.564C391.04 46.696 394.036 45.324 395.94 44.092ZM380.876 32.668L383.732 31.604C385.104 33.62 386.56 36.28 387.092 38.128L384.04 39.36C383.564 37.568 382.22 34.768 380.876 32.668ZM408.26 52.828H421.924V55.292H408.26V52.828ZM412.264 35.608H415.512V38.968H412.264V35.608ZM401.932 37.54H426.292V43.112H423.016V40.06H405.096V43.112H401.932V37.54ZM408.148 41.236H421.868V47.508H408.148V45.1H418.508V43.644H408.148V41.236ZM408.288 48.768H423.996V56.048H420.636V51.232H408.288V48.768ZM406.3 41.236H409.492V56.076H406.3V41.236ZM404.76 31.688H413.58V34.32H404.76V31.688ZM416.1 31.688H426.964V34.32H416.1V31.688ZM404.872 29.504L408.008 30.344C406.916 32.864 405.124 35.412 403.472 37.008C402.828 36.504 401.484 35.608 400.728 35.216C402.408 33.816 404.004 31.632 404.872 29.504ZM416.268 29.504L419.46 30.288C418.452 32.696 416.716 35.02 415.036 36.476C414.364 35.972 412.936 35.244 412.096 34.88C413.888 33.592 415.456 31.548 416.268 29.504ZM405.796 33.732L408.652 32.976C409.352 33.928 410.136 35.272 410.472 36.168L407.448 37.036C407.196 36.168 406.468 34.74 405.796 33.732ZM418.312 33.816L421.252 33.032C422.064 33.956 423.044 35.3 423.492 36.196L420.384 37.064C420.02 36.224 419.096 34.796 418.312 33.816ZM442.364 38.744V41.152H450.848V38.744H442.364ZM442.364 33.76V36.112H450.848V33.76H442.364ZM439.34 30.904H454.04V43.98H439.34V30.904ZM439.144 46.388H454.348V49.412H439.144V46.388ZM437.184 52.1H455.272V55.124H437.184V52.1ZM428.98 31.324H438.276V34.46H428.98V31.324ZM429.26 39.388H437.8V42.496H429.26V39.388ZM428.672 50.028C431.08 49.412 434.664 48.292 438.024 47.2L438.612 50.42C435.476 51.484 432.116 52.576 429.428 53.444L428.672 50.028ZM432.088 32.556H435.28V49.776L432.088 50.28V32.556ZM445.248 32.108H448.076V42.664H448.384V53.528H444.94V42.664H445.248V32.108ZM458.772 31.464H481.144V34.796H458.772V31.464ZM457.26 43.336H482.768V46.724H457.26V43.336ZM460.452 36.588L463.504 35.692C464.484 37.484 465.464 39.864 465.772 41.404L462.524 42.44C462.244 40.928 461.348 38.464 460.452 36.588ZM476.412 35.608L479.996 36.532C478.988 38.66 477.84 40.956 476.916 42.412L473.976 41.544C474.844 39.92 475.88 37.456 476.412 35.608ZM468.208 32.864H471.708V55.992H468.208V32.864ZM490.132 51.624H505.588V54.872H490.132V51.624ZM488.62 43.588H507.352V55.992H503.74V46.808H492.064V55.992H488.62V43.588ZM494.108 29.504L497.944 30.764C496.124 34.236 493.744 37.988 491.84 40.424L488.816 39.22C490.692 36.672 492.904 32.64 494.108 29.504ZM500.828 34.516L503.488 32.556C506.26 34.796 509.62 38.044 511.076 40.452L508.136 42.692C506.82 40.34 503.628 36.924 500.828 34.516ZM485.652 37.652C491.308 37.512 499.988 37.176 507.688 36.84L507.52 40.088C499.764 40.508 491.364 40.844 485.848 41.068L485.652 37.652Z" fill="white"/>
</svg>
