<svg width="214" height="44" viewBox="0 0 214 44" fill="none" xmlns="http://www.w3.org/2000/svg">
<path d="M97.0754 8.21769V8.8998C96.5971 9.0747 96.0676 9.47698 95.521 10.0891C94.9914 10.7013 94.4961 11.6458 94.0349 12.9225L87.0656 32.2317C86.8948 32.2142 86.7069 32.1967 86.5019 32.1967C86.2969 32.1967 86.109 32.1967 85.904 32.1967C85.7332 32.1967 85.5453 32.1967 85.3403 32.1967C85.1354 32.1967 84.9475 32.2142 84.7766 32.2317L76.3554 11.0686C76.048 10.264 75.7063 9.70435 75.3305 9.40702C74.9547 9.09219 74.596 8.91729 74.2715 8.8998V8.21769C74.9377 8.23518 75.7063 8.27016 76.5775 8.28765C77.4828 8.30514 78.3881 8.32263 79.2935 8.32263C80.3013 8.32263 81.2578 8.30514 82.129 8.28765C83.0343 8.27016 83.7518 8.23518 84.3154 8.21769V8.8998C83.6151 8.91729 83.0685 9.00474 82.6585 9.16215C82.2657 9.30208 82.0436 9.56443 81.9923 9.9667C81.9411 10.3515 82.0778 10.9287 82.3852 11.7332L88.3979 27.3869L87.6976 28.2264L92.2584 15.651C92.8562 13.9545 93.1637 12.6252 93.1808 11.6632C93.1979 10.7013 92.9758 10.0017 92.4804 9.56443C92.0021 9.14466 91.3018 8.91729 90.3965 8.88231V8.2002C91.1481 8.21769 91.8484 8.25267 92.5146 8.27016C93.1808 8.28765 93.847 8.30514 94.5302 8.30514C95.0085 8.30514 95.4697 8.28765 95.8797 8.27016C96.3579 8.25267 96.7508 8.23518 97.0754 8.21769Z" fill="#D2D3D9"/>
<path d="M100.868 5.94385C101.79 5.94385 102.524 6.18871 103.054 6.66094C103.601 7.11569 103.874 7.74533 103.874 8.54988C103.874 9.35443 103.601 10.0016 103.054 10.4738C102.524 10.9285 101.807 11.1559 100.868 11.1559C99.9281 11.1559 99.2106 10.9285 98.6469 10.4738C98.1174 10.0016 97.8612 9.35443 97.8612 8.54988C97.8612 7.74533 98.1174 7.11569 98.6469 6.66094C99.2106 6.18871 99.9451 5.94385 100.868 5.94385ZM103.447 14.3041V29.0134C103.447 29.9578 103.601 30.605 103.908 30.9373C104.233 31.2696 104.796 31.4445 105.565 31.4445V32.1616C105.172 32.1441 104.557 32.1091 103.72 32.0916C102.883 32.0392 102.029 32.0217 101.175 32.0217C100.321 32.0217 99.4498 32.0392 98.5615 32.0916C97.6733 32.1091 97.0242 32.1441 96.5801 32.1616V31.4445C97.3487 31.4445 97.8954 31.2696 98.2028 30.9373C98.5274 30.605 98.6982 29.9578 98.6982 29.0134V18.3619C98.6982 17.3474 98.5445 16.5954 98.237 16.1231C97.9466 15.6334 97.4 15.371 96.5801 15.371V14.6539C97.2804 14.7239 97.9637 14.7589 98.6299 14.7589C99.5523 14.7589 100.406 14.7239 101.209 14.6539C102.012 14.584 102.764 14.4616 103.447 14.3041Z" fill="#D2D3D9"/>
<path d="M123.279 7.78027C124.577 7.78027 125.585 7.92019 126.285 8.21753C126.985 8.47988 127.6 8.77721 128.096 9.09204C128.352 9.24945 128.574 9.37188 128.728 9.45933C128.898 9.52929 129.069 9.56427 129.223 9.56427C129.445 9.56427 129.599 9.44184 129.684 9.19698C129.787 8.95211 129.889 8.58482 129.94 8.07761H130.692C130.675 8.49737 130.641 9.02208 130.589 9.63423C130.572 10.2289 130.538 10.9985 130.521 11.9604C130.521 12.9224 130.521 14.1992 130.521 15.7733H129.77C129.684 14.6014 129.411 13.4646 128.984 12.3627C128.54 11.2608 127.908 10.3513 127.105 9.65172C126.319 8.93462 125.328 8.56733 124.167 8.56733C123.108 8.56733 122.237 8.86466 121.553 9.47682C120.87 10.089 120.528 10.9285 120.528 12.0129C120.528 12.9224 120.75 13.6919 121.195 14.3391C121.639 14.9687 122.271 15.5984 123.108 16.193C123.962 16.8052 125.004 17.5398 126.217 18.3968C127.276 19.0964 128.215 19.796 129.052 20.4956C129.889 21.1952 130.555 21.9823 131.068 22.8568C131.58 23.7313 131.819 24.7807 131.819 26.005C131.819 27.4917 131.426 28.716 130.658 29.6954C129.906 30.6574 128.915 31.392 127.686 31.8992C126.456 32.3714 125.106 32.6163 123.62 32.6163C122.254 32.6163 121.16 32.4764 120.358 32.214C119.555 31.9517 118.854 31.6543 118.308 31.3745C117.83 31.0597 117.454 30.9023 117.18 30.9023C116.958 30.9023 116.788 31.0247 116.685 31.2696C116.6 31.5144 116.514 31.8817 116.446 32.3889H115.694C115.746 31.8467 115.763 31.2171 115.763 30.5C115.78 29.7829 115.797 28.8384 115.797 27.7016C115.814 26.5297 115.831 25.0606 115.831 23.2766H116.583C116.668 24.7632 116.907 26.1624 117.317 27.4742C117.727 28.751 118.359 29.8004 119.196 30.5874C120.05 31.3745 121.195 31.7768 122.595 31.7768C123.364 31.7768 124.047 31.6368 124.645 31.3745C125.26 31.0772 125.755 30.6574 126.131 30.0977C126.507 29.538 126.695 28.8384 126.695 27.9989C126.695 27.0544 126.473 26.2324 126.029 25.5328C125.619 24.8332 125.021 24.186 124.286 23.5739C123.552 22.9617 122.715 22.3496 121.741 21.7199C120.699 21.0203 119.743 20.3207 118.837 19.6211C117.932 18.9215 117.215 18.117 116.651 17.225C116.121 16.3155 115.865 15.2486 115.865 14.0068C115.865 12.5901 116.207 11.4182 116.89 10.5262C117.59 9.59925 118.513 8.93462 119.623 8.49737C120.802 7.99016 121.997 7.78027 123.279 7.78027Z" fill="#D2D3D9"/>
<path d="M140.497 5.7168V17.3478C141.043 16.1759 141.778 15.3714 142.717 14.9166C143.657 14.4444 144.716 14.1995 145.894 14.1995C146.834 14.1995 147.603 14.322 148.166 14.5668C148.747 14.7942 149.191 15.109 149.516 15.5113C149.892 15.9311 150.148 16.4907 150.301 17.1729C150.472 17.855 150.558 18.7645 150.558 19.9188V29.0137C150.558 29.9582 150.711 30.6053 151.019 30.9376C151.343 31.2699 151.907 31.4448 152.676 31.4448V32.1619C152.266 32.1444 151.617 32.1095 150.763 32.092C149.926 32.0395 149.106 32.022 148.32 32.022C147.466 32.022 146.629 32.0395 145.809 32.092C145.023 32.1095 144.425 32.1444 144.033 32.1619V31.4448C144.699 31.4448 145.16 31.2699 145.416 30.9376C145.672 30.6053 145.809 29.9582 145.809 29.0137V18.4846C145.809 17.9249 145.758 17.4352 145.638 17.0329C145.536 16.6132 145.314 16.2809 145.006 16.0535C144.716 15.8086 144.306 15.6862 143.759 15.6862C143.161 15.6862 142.615 15.8611 142.102 16.1934C141.624 16.5082 141.214 16.963 140.907 17.5401C140.616 18.1348 140.48 18.7994 140.48 19.569V28.9962C140.48 29.9407 140.616 30.5878 140.872 30.9201C141.129 31.2524 141.607 31.4273 142.256 31.4273V32.1444C141.863 32.1269 141.282 32.092 140.514 32.0745C139.745 32.022 138.959 32.0045 138.174 32.0045C137.319 32.0045 136.448 32.022 135.56 32.0745C134.706 32.092 134.057 32.1269 133.613 32.1444V31.4273C134.381 31.4273 134.928 31.2524 135.236 30.9201C135.56 30.5878 135.731 29.9407 135.731 28.9962V9.75703C135.731 8.7426 135.577 7.99052 135.27 7.51828C134.979 7.02856 134.433 6.76621 133.613 6.76621V6.04911C134.313 6.11907 134.996 6.15405 135.663 6.15405C136.568 6.15405 137.422 6.11907 138.242 6.04911C139.062 5.99664 139.813 5.87421 140.497 5.7168Z" fill="#D2D3D9"/>
<path d="M158.432 32.3891C157.442 32.3891 156.622 32.1967 155.956 31.8119C155.289 31.4271 154.811 30.9199 154.504 30.2903C154.196 29.6431 154.042 28.926 154.042 28.1565C154.042 27.1945 154.247 26.3899 154.675 25.7953C155.119 25.1831 155.682 24.6934 156.366 24.3086C157.049 23.9238 157.766 23.609 158.518 23.3642C159.287 23.1193 160.021 22.8744 160.704 22.6471C161.405 22.4022 161.968 22.1223 162.395 21.8075C162.839 21.4752 163.062 21.038 163.062 20.5307V17.8897C163.062 17.2951 162.959 16.7879 162.771 16.3331C162.6 15.8609 162.31 15.4936 161.917 15.2487C161.541 15.0039 161.046 14.8814 160.431 14.8814C159.987 14.8814 159.543 14.9514 159.116 15.0913C158.672 15.1962 158.313 15.4061 158.022 15.7035C158.637 15.9308 159.116 16.2806 159.44 16.7529C159.799 17.2076 159.97 17.7148 159.97 18.3095C159.97 19.0791 159.714 19.6912 159.184 20.1285C158.672 20.5832 158.074 20.8106 157.373 20.8106C156.588 20.8106 155.973 20.5657 155.563 20.0585C155.17 19.5338 154.965 18.9216 154.965 18.2046C154.965 17.5574 155.119 17.0152 155.426 16.578C155.751 16.1582 156.212 15.7384 156.776 15.3537C157.39 14.9864 158.125 14.7065 158.996 14.5141C159.884 14.3042 160.824 14.2168 161.832 14.2168C162.839 14.2168 163.762 14.3217 164.565 14.5491C165.385 14.759 166.068 15.1438 166.615 15.7035C167.127 16.2282 167.452 16.8578 167.605 17.6274C167.759 18.3795 167.844 19.3239 167.844 20.4608V29.6606C167.844 30.2203 167.896 30.6226 168.015 30.8499C168.118 31.0598 168.306 31.1473 168.579 31.1473C168.784 31.1473 168.972 31.0948 169.143 30.9724C169.348 30.8674 169.553 30.7275 169.775 30.5701L170.099 31.1473C169.638 31.5495 169.091 31.8644 168.476 32.0917C167.879 32.3016 167.212 32.3891 166.461 32.3891C165.641 32.3891 164.992 32.2841 164.513 32.0568C164.035 31.8119 163.676 31.4796 163.454 31.0773C163.249 30.675 163.164 30.2028 163.164 29.6606C162.635 30.5176 162.002 31.1997 161.251 31.6895C160.431 32.1442 159.509 32.3891 158.432 32.3891ZM160.773 30.2203C161.217 30.2203 161.61 30.1154 161.968 29.923C162.344 29.6956 162.703 29.3283 163.027 28.8386V21.9125C162.822 22.2448 162.549 22.5596 162.207 22.822C161.849 23.0843 161.473 23.3816 161.08 23.6615C160.687 23.9238 160.294 24.2387 159.919 24.571C159.56 24.9033 159.287 25.323 159.064 25.8303C158.842 26.3375 158.74 26.9321 158.74 27.6143C158.74 28.4888 158.928 29.1534 159.304 29.5732C159.662 30.0104 160.158 30.2203 160.773 30.2203Z" fill="#D2D3D9"/>
<path d="M182.329 14.1992C183.03 14.1992 183.611 14.3566 184.055 14.6715C184.499 14.9688 184.806 15.3536 185.011 15.8258C185.233 16.298 185.336 16.7878 185.336 17.3125C185.336 18.152 185.097 18.8341 184.601 19.3763C184.14 19.901 183.525 20.1459 182.756 20.1459C181.988 20.1459 181.373 19.9535 180.946 19.5687C180.536 19.1664 180.314 18.6417 180.314 17.9771C180.314 17.3474 180.45 16.8227 180.707 16.4205C180.997 16.0007 181.339 15.6334 181.766 15.3361C181.458 15.2486 181.151 15.2486 180.843 15.3711C180.433 15.441 180.023 15.6159 179.648 15.9133C179.272 16.1756 178.947 16.5254 178.691 16.9627C178.435 17.3649 178.213 17.8197 178.059 18.3094C177.905 18.7816 177.82 19.2364 177.82 19.6911V28.6461C177.82 29.7305 178.076 30.4651 178.571 30.8499C179.101 31.2346 179.887 31.427 180.912 31.427V32.1441C180.399 32.1266 179.665 32.0917 178.691 32.0742C177.717 32.0217 176.71 32.0042 175.651 32.0042C174.762 32.0042 173.874 32.0217 172.969 32.0742C172.063 32.0917 171.38 32.1266 170.919 32.1441V31.427C171.688 31.427 172.234 31.2521 172.542 30.9198C172.866 30.5875 173.037 29.9404 173.037 28.9959V18.3619C173.037 17.3474 172.883 16.5954 172.576 16.1231C172.285 15.6334 171.739 15.3711 170.919 15.3711V14.654C171.619 14.7239 172.303 14.7589 172.969 14.7589C173.891 14.7589 174.745 14.7239 175.548 14.654C176.368 14.5665 177.102 14.4441 177.786 14.2867V17.4349C178.042 16.8227 178.401 16.2805 178.845 15.7733C179.289 15.2661 179.784 14.8988 180.365 14.619C180.98 14.3391 181.612 14.1992 182.329 14.1992Z" fill="#D2D3D9"/>
<path d="M193.108 14.3042V34.9251C193.108 35.992 193.364 36.6916 193.894 37.0239C194.423 37.3912 195.141 37.5661 196.08 37.5661V38.2832C195.499 38.2657 194.714 38.2307 193.706 38.1782C192.715 38.1607 191.656 38.1433 190.529 38.1433C189.709 38.1433 188.906 38.1607 188.12 38.1782C187.352 38.2307 186.771 38.2657 186.378 38.2832V37.5661C187.112 37.5661 187.608 37.4087 187.898 37.0938C188.206 36.779 188.359 36.1669 188.359 35.2749V18.3619C188.359 17.3474 188.206 16.5954 187.898 16.1231C187.591 15.6334 187.044 15.3711 186.241 15.3711V14.654C186.942 14.7239 187.625 14.7589 188.291 14.7589C189.196 14.7589 190.05 14.7239 190.87 14.654C191.69 14.584 192.425 14.4616 193.108 14.3042ZM198.232 14.1992C199.36 14.1992 200.351 14.514 201.239 15.1437C202.127 15.7558 202.827 16.6828 203.357 17.9421C203.886 19.1839 204.143 20.7405 204.143 22.612C204.143 24.2561 203.955 25.7077 203.579 26.9321C203.22 28.1739 202.708 29.2233 202.025 30.0803C201.358 30.9198 200.556 31.5495 199.616 31.9692C198.694 32.389 197.652 32.6164 196.473 32.6164C195.619 32.6164 194.833 32.459 194.133 32.1441C193.433 31.8468 192.886 31.427 192.51 30.8673L192.835 30.4301C193.057 30.8324 193.364 31.1472 193.757 31.3746C194.167 31.6019 194.645 31.7069 195.175 31.7069C196.166 31.7069 196.951 31.3746 197.515 30.6924C198.096 29.9928 198.489 29.0309 198.745 27.7891C199.001 26.5298 199.138 25.0256 199.138 23.2941C199.138 21.3527 199.018 19.8311 198.779 18.7292C198.54 17.6273 198.198 16.8402 197.788 16.368C197.378 15.8958 196.866 15.6509 196.268 15.6509C195.482 15.6509 194.748 15.9657 194.082 16.5954C193.45 17.225 193.074 18.1345 192.988 19.3063L192.818 18.117C193.21 16.8402 193.877 15.8608 194.833 15.2136C195.824 14.5315 196.951 14.1992 198.232 14.1992Z" fill="#D2D3D9"/>
<path fill-rule="evenodd" clip-rule="evenodd" d="M63.2882 2.30621V2.02637H63.0149H44.0373H44.0032C37.0339 2.04386 31.3799 7.8331 31.3799 14.9691C31.3799 22.0876 36.9826 27.8593 43.9348 27.9118H44.0373H49.8963H50.6308C51.2457 27.9118 51.724 28.419 51.724 29.0312C51.724 29.6608 51.2287 30.1505 50.6308 30.1505H41.4409C37.5292 30.1505 34.13 32.4418 32.456 35.7824H51.9973C54.6279 35.7824 56.951 33.0014 56.951 29.311C56.951 25.6206 54.6279 22.8397 51.9973 22.8397H42.3121V22.8222C39.0324 22.6123 36.5898 19.1667 36.5898 15.2314C36.5898 11.2962 39.0324 7.85059 42.3121 7.64071V7.62322H62.2121C62.8954 6.17154 63.2882 4.54495 63.2882 2.83091V2.30621ZM61.6143 8.77757H42.6537C40.0232 8.77757 37.7001 11.5585 37.7001 15.2489C37.7001 18.9394 40.0232 21.7203 42.6537 21.7203H52.3902V21.7378C55.6528 21.9826 58.0613 25.4107 58.0613 29.3285C58.0613 33.1414 55.7894 36.4645 52.6635 36.8843V36.9367H31.9948C31.6019 38.0386 31.3799 39.2454 31.3799 40.4872V41.729V42.0089H31.6532H50.6308C57.6172 42.0089 63.2882 36.2021 63.2882 29.0662C63.2882 21.9302 57.6513 16.1409 50.6821 16.1234H50.665H50.6479H50.6308H50.6137H50.5966H50.5796H50.5625H50.4429H50.3063H48.8031H44.9597H44.4131H44.2252C43.6103 16.1234 43.132 15.6162 43.132 15.0041C43.132 14.3744 43.6274 13.8847 44.2252 13.8847H52.561C56.3531 13.8497 59.7011 11.8209 61.6143 8.77757Z" fill="#B9C4FF"/>
<path fill-rule="evenodd" clip-rule="evenodd" d="M25.5891 41.9912H29.9278C29.9449 19.7262 23.0268 5.94399 19.5593 1.99121H16.1429C19.7984 8.11277 25.7257 22.8045 25.5891 41.9912ZM14.8277 1.99121H9.85693C19.713 20.1285 20.4304 36.3244 19.5593 41.9912H24.4617C24.5983 22.3323 18.2952 7.50061 14.8277 1.99121Z" fill="#B9C4FF"/>
</svg>
