<svg width="80" height="80" viewBox="0 0 80 80" fill="none" xmlns="http://www.w3.org/2000/svg">
<path opacity="0.5" d="M40.0057 4.80859C49.2762 4.81786 58.1643 8.50464 64.7195 15.0598C71.2747 21.615 74.9614 30.5031 74.9707 39.7736C74.9614 49.044 71.2747 57.9321 64.7195 64.4873C58.1643 71.0426 49.2762 74.7293 40.0057 74.7386C30.7352 74.7293 21.8471 71.0426 15.2919 64.4873C8.73674 57.9321 5.04996 49.044 5.0407 39.7736C5.04996 30.5031 8.73674 21.615 15.2919 15.0598C21.8471 8.50464 30.7352 4.81786 40.0057 4.80859V4.80859ZM40.0057 69.7386C47.9501 69.7293 55.5664 66.5693 61.1839 60.9518C66.8014 55.3343 69.9614 47.718 69.9707 39.7736C69.9614 31.8292 66.8014 24.2129 61.1839 18.5954C55.5664 12.9778 47.9501 9.81786 40.0057 9.80859C32.0613 9.81786 24.445 12.9778 18.8275 18.5954C13.2099 24.2129 10.05 31.8292 10.0407 39.7736C10.0486 47.7184 13.2082 55.3355 18.826 60.9533C24.4438 66.5711 32.0609 69.7307 40.0057 69.7386V69.7386Z" fill="white"/>
<path opacity="0.5" d="M49.8345 21.7778C49.3711 21.3094 48.741 21.0438 48.0821 21.0391C47.4233 21.0344 46.7895 21.2911 46.3195 21.7528L30.1395 37.9378C29.6345 38.4378 29.4145 39.1028 29.4395 39.7678C29.4197 40.1072 29.4718 40.4471 29.5924 40.765C29.7131 41.083 29.8995 41.3718 30.1395 41.6128L46.3245 57.7978C47.2795 58.7628 48.8545 58.7528 49.8295 57.7778C50.8045 56.8028 50.8145 55.2278 49.8595 54.2628L35.3745 39.7778L49.8545 25.2878C50.0839 25.0561 50.2653 24.7815 50.3885 24.4797C50.5116 24.1778 50.5741 23.8546 50.5722 23.5286C50.5704 23.2026 50.5043 22.8802 50.3777 22.5797C50.2511 22.2793 50.0665 22.0068 49.8345 21.7778V21.7778Z" fill="white"/>
</svg>
