<svg width="80" height="80" viewBox="0 0 80 80" fill="none" xmlns="http://www.w3.org/2000/svg">
<path opacity="0.5" d="M39.9945 4.80859C30.7241 4.81786 21.836 8.50464 15.2808 15.0598C8.72558 21.615 5.03881 30.5031 5.02954 39.7736C5.03881 49.044 8.72558 57.9321 15.2808 64.4873C21.836 71.0426 30.7241 74.7293 39.9945 74.7386C49.265 74.7293 58.1531 71.0426 64.7083 64.4873C71.2635 57.9321 74.9503 49.044 74.9595 39.7736C74.9503 30.5031 71.2635 21.615 64.7083 15.0598C58.1531 8.50464 49.265 4.81786 39.9945 4.80859V4.80859ZM39.9945 69.7386C32.0502 69.7293 24.4338 66.5693 18.8163 60.9518C13.1988 55.3343 10.0388 47.718 10.0295 39.7736C10.0388 31.8292 13.1988 24.2129 18.8163 18.5954C24.4338 12.9778 32.0502 9.81786 39.9945 9.80859C47.9389 9.81786 55.5553 12.9778 61.1728 18.5954C66.7903 24.2129 69.9503 31.8292 69.9595 39.7736C69.9516 47.7184 66.792 55.3355 61.1742 60.9533C55.5564 66.5711 47.9393 69.7307 39.9945 69.7386V69.7386Z" fill="white"/>
<path opacity="0.5" d="M30.1653 21.7778C30.6287 21.3094 31.2588 21.0438 31.9176 21.0391C32.5765 21.0344 33.2103 21.2911 33.6803 21.7528L49.8603 37.9378C50.3653 38.4378 50.5853 39.1028 50.5603 39.7678C50.5801 40.1072 50.528 40.4471 50.4073 40.765C50.2867 41.083 50.1003 41.3718 49.8603 41.6128L33.6753 57.7978C32.7203 58.7628 31.1453 58.7528 30.1703 57.7778C29.1953 56.8028 29.1853 55.2278 30.1403 54.2628L44.6253 39.7778L30.1453 25.2878C29.9159 25.0561 29.7344 24.7815 29.6113 24.4797C29.4881 24.1778 29.4257 23.8546 29.4275 23.5286C29.4294 23.2026 29.4955 22.8802 29.6221 22.5797C29.7487 22.2793 29.9333 22.0068 30.1653 21.7778Z" fill="white"/>
</svg>
