<svg width="14" height="14" viewBox="0 0 14 14" fill="none" xmlns="http://www.w3.org/2000/svg">
<path d="M12.0107 5.99844C11.7342 5.99844 11.5107 5.775 11.5107 5.49844C11.5107 3.01719 9.49199 0.998438 7.01074 0.998438C4.52949 0.998438 2.51074 3.01719 2.51074 5.49844C2.51074 5.775 2.2873 5.99844 2.01074 5.99844C1.73418 5.99844 1.51074 5.775 1.51074 5.49844C1.51074 4.75625 1.65605 4.03594 1.94355 3.35781C2.22012 2.70312 2.61699 2.11406 3.12168 1.60938C3.62637 1.10469 4.21543 0.707812 4.87012 0.43125C5.54824 0.145312 6.26855 0 7.01074 0C7.75293 0 8.47324 0.145312 9.15137 0.432812C9.80605 0.709375 10.3951 1.10625 10.8998 1.61094C11.4045 2.11563 11.8014 2.70469 12.0779 3.35938C12.3654 4.0375 12.5107 4.75781 12.5107 5.5C12.5107 5.775 12.2873 5.99844 12.0107 5.99844Z" fill="white"/>
<path d="M10.0158 5.99765C9.73926 5.99765 9.51582 5.77422 9.51582 5.49765C9.51582 4.11797 8.39395 2.99609 7.01426 2.99609C5.63457 2.99609 4.5127 4.11797 4.5127 5.49765C4.5127 5.77422 4.28926 5.99765 4.0127 5.99765C3.73613 5.99765 3.5127 5.77422 3.5127 5.49765C3.5127 4.56172 3.87676 3.68203 4.5377 3.02109C5.19863 2.36016 6.07832 1.99609 7.01426 1.99609C7.9502 1.99609 8.82988 2.36016 9.49082 3.02109C10.1518 3.68203 10.5158 4.56172 10.5158 5.49765C10.5158 5.77422 10.2924 5.99765 10.0158 5.99765Z" fill="white"/>
<path d="M7.01074 8.76562C6.73574 8.76562 6.51074 8.54063 6.51074 8.26562V4.5C6.51074 4.225 6.73574 4 7.01074 4C7.28574 4 7.51074 4.225 7.51074 4.5V8.26562C7.51074 8.54063 7.28574 8.76562 7.01074 8.76562Z" fill="white"/>
<path d="M12.9984 8.99609L13 8.99766V12.9945L12.9984 12.9961H1.00156L1 12.9945V8.99766L1.00156 8.99609H12.9984V8.99609ZM13 7.99609H1C0.45 7.99609 0 8.44609 0 8.99609V12.9961C0 13.5461 0.45 13.9961 1 13.9961H13C13.55 13.9961 14 13.5461 14 12.9961V8.99609C14 8.44609 13.55 7.99609 13 7.99609Z" fill="white"/>
<path d="M2.51074 10.4961C2.23418 10.4961 2.01074 10.7195 2.01074 10.9961C2.01074 11.2727 2.23418 11.4961 2.51074 11.4961C2.7873 11.4961 3.01074 11.2727 3.01074 10.9961C3.01074 10.7195 2.7873 10.4961 2.51074 10.4961ZM4.5123 10.4961C4.23574 10.4961 4.0123 10.7195 4.0123 10.9961C4.0123 11.2727 4.23574 11.4961 4.5123 11.4961C4.78887 11.4961 5.0123 11.2727 5.0123 10.9961C5.0123 10.7195 4.7873 10.4961 4.5123 10.4961Z" fill="white"/>
</svg>
