<svg width="16" height="16" viewBox="0 0 16 16" fill="none" xmlns="http://www.w3.org/2000/svg">
<path d="M3.12877 11.1288C2.92374 11.3338 2.92374 11.6662 3.12877 11.8712C3.33379 12.0763 3.66621 12.0763 3.87123 11.8712L3.12877 11.1288ZM6 9L6.37123 8.62877C6.16621 8.42374 5.83379 8.42374 5.62877 8.62877L6 9ZM8.5 11.5L8.12877 11.8712C8.33379 12.0763 8.66621 12.0763 8.87123 11.8712L8.5 11.5ZM12.8712 7.87123C13.0763 7.66621 13.0763 7.33379 12.8712 7.12877C12.6662 6.92374 12.3338 6.92374 12.1288 7.12877L12.8712 7.87123ZM3 1.525H13V0.475H3V1.525ZM14.475 3V13H15.525V3H14.475ZM13 14.475H3V15.525H13V14.475ZM1.525 13V3H0.475V13H1.525ZM3 14.475C2.18538 14.475 1.525 13.8146 1.525 13H0.475C0.475 14.3945 1.60548 15.525 3 15.525V14.475ZM14.475 13C14.475 13.8146 13.8146 14.475 13 14.475V15.525C14.3945 15.525 15.525 14.3945 15.525 13H14.475ZM13 1.525C13.8146 1.525 14.475 2.18538 14.475 3H15.525C15.525 1.60548 14.3945 0.475 13 0.475V1.525ZM3 0.475C1.60548 0.475 0.475 1.60548 0.475 3H1.525C1.525 2.18538 2.18538 1.525 3 1.525V0.475ZM7.475 5C7.475 5.81462 6.81462 6.475 6 6.475V7.525C7.39452 7.525 8.525 6.39452 8.525 5H7.475ZM6 6.475C5.18538 6.475 4.525 5.81462 4.525 5H3.475C3.475 6.39452 4.60548 7.525 6 7.525V6.475ZM4.525 5C4.525 4.18538 5.18538 3.525 6 3.525V2.475C4.60548 2.475 3.475 3.60548 3.475 5H4.525ZM6 3.525C6.81462 3.525 7.475 4.18538 7.475 5H8.525C8.525 3.60548 7.39452 2.475 6 2.475V3.525ZM3.87123 11.8712L6.37123 9.37123L5.62877 8.62877L3.12877 11.1288L3.87123 11.8712ZM5.62877 9.37123L8.12877 11.8712L8.87123 11.1288L6.37123 8.62877L5.62877 9.37123ZM8.87123 11.8712L12.8712 7.87123L12.1288 7.12877L8.12877 11.1288L8.87123 11.8712Z" fill="white" fill-opacity="0.9"/>
</svg>
