

<svg width="14" height="15" viewBox="0 0 14 15" fill="none" xmlns="http://www.w3.org/2000/svg">
<path d="M6.71944 3.7657C6.37486 3.7657 6.03802 3.66352 5.75151 3.47208C5.465 3.28065 5.24169 3.00855 5.10983 2.69019C4.97797 2.37184 4.94346 2.02154 5.01069 1.68358C5.07792 1.34562 5.24385 1.03519 5.4875 0.791532C5.73116 0.547878 6.0416 0.381948 6.37956 0.314725C6.71752 0.247503 7.06782 0.282007 7.38617 0.413874C7.70452 0.545741 7.97662 0.769049 8.16805 1.05556C8.35949 1.34207 8.46167 1.67891 8.46167 2.02349C8.46166 2.48556 8.2781 2.92869 7.95137 3.25542C7.62464 3.58215 7.1815 3.7657 6.71944 3.7657ZM6.71944 1.27683C6.57176 1.27683 6.4274 1.32062 6.30461 1.40266C6.18182 1.48471 6.08612 1.60132 6.02961 1.73775C5.9731 1.87419 5.95831 2.02432 5.98712 2.16916C6.01593 2.314 6.08704 2.44704 6.19147 2.55146C6.29589 2.65589 6.42893 2.727 6.57377 2.75581C6.71861 2.78462 6.86874 2.76983 7.00518 2.71332C7.14161 2.65681 7.25822 2.56111 7.34027 2.43832C7.42231 2.31553 7.46611 2.17117 7.46611 2.02349C7.46611 1.92544 7.44679 1.82834 7.40927 1.73775C7.37174 1.64717 7.31675 1.56485 7.24741 1.49552C7.17808 1.42618 7.09576 1.37119 7.00518 1.33366C6.91459 1.29614 6.81749 1.27683 6.71944 1.27683ZM6.71944 13.7213C5.51283 13.722 4.33065 13.3812 3.30967 12.7382C3.24901 12.7062 3.19562 12.662 3.15284 12.6084C3.11006 12.5548 3.07882 12.4929 3.06107 12.4267C3.04333 12.3604 3.03946 12.2913 3.04971 12.2234C3.05996 12.1556 3.08412 12.0907 3.12065 12.0327C3.15719 11.9746 3.20533 11.9248 3.26204 11.8862C3.31875 11.8477 3.38282 11.8212 3.45022 11.8086C3.51763 11.796 3.58691 11.7974 3.65374 11.8128C3.72056 11.8282 3.78348 11.8573 3.83855 11.8982C4.70033 12.4217 5.68931 12.6986 6.69766 12.6986C7.706 12.6986 8.69499 12.4217 9.55677 11.8982C9.66873 11.8355 9.80055 11.8185 9.92473 11.8507C10.0489 11.8829 10.1559 11.9619 10.2233 12.071C10.2907 12.1801 10.3134 12.3111 10.2866 12.4366C10.2598 12.562 10.1856 12.6723 10.0794 12.7444C9.07201 13.376 7.90847 13.7143 6.71944 13.7213ZM12.6305 7.81016C12.5652 7.81016 12.5004 7.79728 12.44 7.77226C12.3797 7.74725 12.3248 7.71058 12.2786 7.66436C12.2323 7.61813 12.1957 7.56326 12.1707 7.50286C12.1456 7.44247 12.1328 7.37774 12.1328 7.31237C12.1352 6.38737 11.8996 5.47731 11.4484 4.66979C10.9972 3.86227 10.3458 3.1845 9.55677 2.7017C9.49814 2.66891 9.44675 2.62458 9.40571 2.57139C9.36466 2.51821 9.33481 2.45726 9.31795 2.39223C9.30108 2.3272 9.29755 2.25943 9.30758 2.193C9.31761 2.12657 9.34097 2.06286 9.37628 2.0057C9.41158 1.94854 9.45809 1.89912 9.513 1.86042C9.56791 1.82171 9.63009 1.79453 9.69579 1.78049C9.76149 1.76646 9.82935 1.76587 9.89528 1.77876C9.96122 1.79164 10.0239 1.81775 10.0794 1.85549C11.0137 2.42646 11.785 3.22853 12.319 4.18435C12.8531 5.14017 13.1318 6.21748 13.1283 7.31237C13.1283 7.37774 13.1155 7.44247 13.0904 7.50287C13.0654 7.56326 13.0288 7.61814 12.9825 7.66436C12.9363 7.71059 12.8814 7.74725 12.821 7.77227C12.7606 7.79728 12.6959 7.81016 12.6305 7.81016ZM0.808335 7.81016C0.742964 7.81016 0.678233 7.79728 0.617838 7.77227C0.557443 7.74725 0.502566 7.71059 0.456342 7.66436C0.410118 7.61814 0.373451 7.56326 0.348436 7.50287C0.32342 7.44247 0.310546 7.37774 0.310548 7.31237C0.30996 6.24709 0.575438 5.19854 1.08288 4.26189C1.59033 3.32525 2.32367 2.53016 3.21633 1.94883C3.3269 1.87622 3.46178 1.8505 3.5913 1.87734C3.72083 1.90418 3.83438 1.98137 3.90699 2.09194C3.9796 2.2025 4.00532 2.33738 3.97848 2.46691C3.95164 2.59643 3.87444 2.70999 3.76388 2.7826C3.00922 3.27306 2.38909 3.94434 1.95986 4.73543C1.53063 5.52652 1.3059 6.41233 1.30611 7.31237C1.30611 7.37774 1.29324 7.44247 1.26822 7.50286C1.24321 7.56326 1.20654 7.61813 1.16032 7.66436C1.1141 7.71058 1.05922 7.74725 0.998828 7.77226C0.938434 7.79728 0.873705 7.81016 0.808335 7.81016Z" fill="white" fill-opacity="0.9"/>
<path d="M6.72002 10.2964C6.19084 10.2964 5.67355 10.1395 5.23356 9.84552C4.79356 9.55153 4.45063 9.13366 4.24812 8.64476C4.04562 8.15587 3.99263 7.6179 4.09587 7.09889C4.19911 6.57988 4.45393 6.10315 4.82812 5.72896C5.2023 5.35478 5.67904 5.09996 6.19805 4.99672C6.71706 4.89349 7.25503 4.94647 7.74392 5.14898C8.23282 5.35149 8.65068 5.69443 8.94468 6.13442C9.23867 6.57442 9.39559 7.09171 9.39558 7.62089C9.39558 8.33049 9.11369 9.01102 8.61192 9.51279C8.11016 10.0145 7.42962 10.2964 6.72002 10.2964ZM6.72002 5.94089C6.38775 5.94089 6.06294 6.03942 5.78666 6.22402C5.51039 6.40862 5.29506 6.671 5.1679 6.97798C5.04075 7.28496 5.00748 7.62275 5.0723 7.94864C5.13712 8.27453 5.29713 8.57388 5.53208 8.80883C5.76703 9.04378 6.06638 9.20378 6.39227 9.26861C6.71816 9.33343 7.05595 9.30016 7.36293 9.17301C7.66991 9.04585 7.93229 8.83052 8.11689 8.55425C8.30149 8.27797 8.40002 7.95316 8.40002 7.62089C8.40002 7.17533 8.22302 6.74801 7.90796 6.43295C7.5929 6.11789 7.16558 5.94089 6.72002 5.94089ZM1.74224 12.4742C1.39766 12.4742 1.06082 12.372 0.77431 12.1806C0.4878 11.9892 0.264492 11.7171 0.132624 11.3987C0.000756847 11.0804 -0.0337472 10.7301 0.0334754 10.3921C0.100698 10.0542 0.266628 9.74372 0.510283 9.50006C0.753937 9.2564 1.06437 9.09047 1.40233 9.02325C1.74029 8.95602 2.0906 8.99052 2.40895 9.12239C2.7273 9.25425 2.9994 9.47756 3.19084 9.76406C3.38228 10.0506 3.48446 10.3874 3.48446 10.732C3.48446 11.1941 3.3009 11.6372 2.97418 11.9639C2.64745 12.2907 2.20431 12.4742 1.74224 12.4742ZM1.74224 9.98533C1.59457 9.98533 1.45021 10.0291 1.32742 10.1112C1.20463 10.1932 1.10893 10.3098 1.05241 10.4463C0.9959 10.5827 0.981113 10.7328 1.00992 10.8777C1.03873 11.0225 1.10985 11.1555 1.21427 11.26C1.31869 11.3644 1.45174 11.4355 1.59658 11.4643C1.74142 11.4931 1.89155 11.4783 2.02798 11.4218C2.16442 11.3653 2.28103 11.2696 2.36307 11.1468C2.44512 11.024 2.48891 10.8797 2.48891 10.732C2.48891 10.6339 2.4696 10.5368 2.43207 10.4463C2.39455 10.3557 2.33955 10.2734 2.27022 10.204C2.20088 10.1347 2.11857 10.0797 2.02798 10.0422C1.93739 10.0046 1.8403 9.98533 1.74224 9.98533ZM11.6978 12.4742C11.3532 12.4742 11.0164 12.372 10.7299 12.1806C10.4434 11.9892 10.2201 11.7171 10.0882 11.3987C9.95632 11.0804 9.92182 10.7301 9.98905 10.3921C10.0563 10.0541 10.2222 9.74371 10.4659 9.50005C10.7095 9.2564 11.0199 9.09047 11.3579 9.02324C11.6959 8.95602 12.0462 8.99052 12.3645 9.12239C12.6829 9.25425 12.955 9.47756 13.1464 9.76407C13.3378 10.0506 13.44 10.3874 13.44 10.732C13.44 11.1941 13.2565 11.6372 12.9297 11.9639C12.603 12.2907 12.1599 12.4742 11.6978 12.4742ZM11.6978 9.98533C11.5501 9.98533 11.4058 10.0291 11.283 10.1112C11.1602 10.1932 11.0645 10.3098 11.008 10.4463C10.9515 10.5827 10.9367 10.7328 10.9655 10.8777C10.9943 11.0225 11.0654 11.1555 11.1698 11.26C11.2742 11.3644 11.4073 11.4355 11.5521 11.4643C11.697 11.4931 11.8471 11.4783 11.9835 11.4218C12.12 11.3653 12.2366 11.2696 12.3186 11.1468C12.4007 11.024 12.4445 10.8797 12.4445 10.732C12.4445 10.6339 12.4252 10.5368 12.3876 10.4463C12.3501 10.3557 12.2951 10.2734 12.2258 10.204C12.1564 10.1347 12.0741 10.0797 11.9835 10.0422C11.8929 10.0046 11.7959 9.98533 11.6978 9.98533Z" fill="white" fill-opacity="0.9"/>
<path d="M6.22174 3.26562H7.21729V5.4434H6.22174V3.26562ZM2.38574 9.70376L4.56351 8.15007L5.14218 8.9602L2.96441 10.5145L2.38574 9.70376ZM8.29871 8.96332L8.87738 8.15319L11.0545 9.70874L10.4759 10.5183L8.29871 8.96332Z" fill="white" fill-opacity="0.9"/>
</svg>
