<svg width="14" height="13" viewBox="0 0 14 13" fill="none" xmlns="http://www.w3.org/2000/svg">
<path d="M4.66417 0H9.40351C10.0922 0.00013052 10.7284 0.367615 11.0726 0.964067L13.4423 5.06953C13.7866 5.66598 13.7866 6.40075 13.4423 6.9972L11.0726 11.1028C10.7284 11.6992 10.0921 12.0667 9.40351 12.0667H4.66417C3.97553 12.0667 3.33924 11.6992 2.99504 11.1027L0.625374 6.9972C0.281125 6.40075 0.281125 5.66598 0.625374 5.06953L2.99504 0.964C3.33924 0.367548 3.97553 0 4.66417 0ZM4.66417 1.00007C4.33285 1.00007 4.02672 1.17691 3.86111 1.46387L1.49144 5.56953C1.32575 5.85663 1.32575 6.2103 1.49144 6.4974L3.86117 10.6029C4.02677 10.8899 4.3329 11.0667 4.66424 11.0667H9.40357C9.73491 11.0667 10.041 10.8899 10.2066 10.6029L12.5763 6.49733C12.742 6.21024 12.742 5.85656 12.5763 5.56947L10.2065 1.46387C10.0409 1.17691 9.73476 1.00007 9.40344 1.00007H4.66411H4.66417ZM7.00051 8.32753C5.71184 8.32753 4.66717 7.28287 4.66717 5.9942C4.66717 4.70553 5.71184 3.66087 7.00051 3.66087C8.28917 3.66087 9.33384 4.70553 9.33384 5.9942C9.33384 7.28287 8.28917 8.32753 7.00051 8.32753ZM7.00051 7.32753C7.73691 7.32753 8.33384 6.7306 8.33384 5.9942C8.33384 5.2578 7.73691 4.66087 7.00051 4.66087C6.26411 4.66087 5.66717 5.2578 5.66717 5.9942C5.66717 6.7306 6.26411 7.32753 7.00051 7.32753Z" fill="white" fill-opacity="0.9"/>
</svg>
