<svg width="14" height="14" viewBox="0 0 14 14" fill="none" xmlns="http://www.w3.org/2000/svg">
<path d="M11.9982 0H2C0.895433 0 0 0.895433 0 2V11.9982C0 13.1028 0.895433 13.9982 2 13.9982H11.9982C13.1028 13.9982 13.9982 13.1028 13.9982 11.9982V2C13.9982 0.895433 13.1028 0 11.9982 0ZM12.9991 12.0009C12.9993 12.266 12.8941 12.5202 12.7065 12.7075C12.519 12.8948 12.2646 12.9997 11.9996 12.9991H2.00231C1.73493 12.9991 1.48245 12.8964 1.29337 12.7073C1.10428 12.5182 0.999065 12.2683 0.999065 12.0009V2.00095C1.00006 1.44751 1.44886 0.999313 2.00231 0.999065H11.9996C12.265 0.999334 12.5194 1.10505 12.7069 1.29295C12.8944 1.48085 12.9995 1.73553 12.9991 2.00095V12.0009Z" fill="white" fill-opacity="0.8"/>
<path d="M11.3745 4.4987H7.37451C7.09863 4.4987 6.87498 4.72235 6.87498 4.99824C6.87498 5.27412 7.09863 5.49777 7.37451 5.49777H11.3745C11.6504 5.49777 11.874 5.27412 11.874 4.99824C11.874 4.72235 11.6504 4.4987 11.3745 4.4987ZM11.3745 8.50061H7.37451C7.09863 8.50061 6.87498 8.72426 6.87498 9.00014C6.87498 9.27603 7.09863 9.49967 7.37451 9.49967H11.3745C11.6504 9.49967 11.874 9.27603 11.874 9.00014C11.874 8.72426 11.6504 8.50061 11.3745 8.50061ZM4.37455 7.25099C3.40805 7.25099 2.62477 8.03449 2.62477 9.00076C2.62477 9.96703 3.40828 10.7505 4.37455 10.7505C5.34082 10.7505 6.12433 9.96703 6.12433 9.00076C6.12433 8.03449 5.34105 7.25099 4.37455 7.25099ZM4.90552 9.53196C4.65217 9.78507 4.25531 9.82398 3.95762 9.6249C3.65994 9.42582 3.54432 9.04419 3.68147 8.71337C3.81862 8.38255 4.17035 8.19467 4.52157 8.26462C4.8728 8.33457 5.12571 8.64287 5.12566 9.00099C5.12616 9.2003 5.04689 9.39152 4.90552 9.53202V9.53196ZM5.52133 3.64781L3.87451 5.29457L3.22777 4.64777C3.03269 4.45269 2.7164 4.45269 2.52131 4.64777C2.32623 4.84286 2.32623 5.15915 2.52131 5.35423L3.52128 6.35426C3.61496 6.44794 3.74202 6.50057 3.87451 6.50057C4.007 6.50057 4.13406 6.44794 4.22774 6.35426L6.22773 4.35426C6.42055 4.15881 6.4195 3.84438 6.22536 3.65023C6.03123 3.45608 5.7168 3.455 5.52133 3.64781Z" fill="white" fill-opacity="0.8"/>
</svg>
