<svg width="14" height="14" viewBox="0 0 14 14" fill="none" xmlns="http://www.w3.org/2000/svg">
<path fill-rule="evenodd" clip-rule="evenodd" d="M8.79844 3C8.79844 3.99411 7.99255 4.8 6.99844 4.8C6.00432 4.8 5.19844 3.99411 5.19844 3C5.19844 2.00589 6.00432 1.2 6.99844 1.2C7.99255 1.2 8.79844 2.00589 8.79844 3ZM8.69348 5.47559C9.48153 4.93497 9.99844 4.02785 9.99844 3C9.99844 1.34315 8.65529 0 6.99844 0C5.34158 0 3.99844 1.34315 3.99844 3C3.99844 4.17916 4.67874 5.19943 5.66826 5.68973C2.61193 6.59971 0.398438 9.54638 0.398438 13C0.398438 13.3314 0.667067 13.6 0.998438 13.6C1.32981 13.6 1.59844 13.3314 1.59844 13C1.59844 9.43746 4.34183 6.6 7.6651 6.6C8.40938 6.6 9.12137 6.74113 9.77929 6.99927C10.0878 7.1203 10.4359 6.96835 10.557 6.65988C10.678 6.3514 10.5261 6.00322 10.2176 5.88218C9.73198 5.69165 9.22175 5.5539 8.69348 5.47559Z" fill="white" fill-opacity="0.9"/>
<rect x="9" y="8" width="5" height="1" rx="0.5" fill="white" fill-opacity="0.9"/>
<rect x="9" y="10" width="5" height="1" rx="0.5" fill="white" fill-opacity="0.9"/>
<rect x="9" y="12" width="5" height="1" rx="0.5" fill="white" fill-opacity="0.9"/>
</svg>
