<svg width="16" height="16" viewBox="0 0 16 16" fill="none" xmlns="http://www.w3.org/2000/svg">
<path fill-rule="evenodd" clip-rule="evenodd" d="M8.5058 2.17482H14.3146C14.6034 2.17482 14.8368 2.40815 14.8368 2.69696V11.1818C14.8368 11.4706 14.6034 11.7039 14.3146 11.7039H8.5058V12.231L11.1883 13.9899C11.2169 14.0089 11.2369 14.0384 11.2439 14.072C11.2509 14.1056 11.2444 14.1406 11.2258 14.1694L10.7314 14.9396V14.9412C10.6923 15.0016 10.6107 15.0179 10.5503 14.9787L7.91839 13.2524L5.28646 14.9787C5.22609 15.0179 5.14451 15.0016 5.10535 14.9412V14.9396L4.61094 14.1694C4.60156 14.1552 4.59509 14.1392 4.59191 14.1225C4.58872 14.1058 4.58887 14.0885 4.59236 14.0719C4.59585 14.0552 4.6026 14.0394 4.61223 14.0253C4.62186 14.0112 4.63418 13.9992 4.64847 13.9899L7.3375 12.2261V11.7039H1.52214C1.23333 11.7039 1 11.4706 1 11.1818V2.69696C1 2.40815 1.23333 2.17482 1.52214 2.17482H7.33098V1.13054C7.33098 1.05874 7.38972 1 7.46151 1H8.37526C8.44706 1 8.5058 1.05874 8.5058 1.13054V2.17482ZM2.17482 10.5291H13.662V3.34964H2.17482V10.5291ZM4.84228 9.2145C4.79169 9.26509 4.70848 9.26509 4.65789 9.2145L4.05743 8.61404C4.03314 8.58951 4.01951 8.55638 4.01951 8.52185C4.01951 8.48732 4.03314 8.45419 4.05743 8.42966L6.41197 6.07512C6.4365 6.05083 6.46963 6.0372 6.50416 6.0372C6.53868 6.0372 6.57181 6.05083 6.59635 6.07512L8.00124 7.48164L11.0003 4.47933C11.0248 4.45503 11.058 4.44141 11.0925 4.44141C11.127 4.44141 11.1601 4.45503 11.1847 4.47933L11.7851 5.07979C11.8357 5.13037 11.8357 5.21359 11.7851 5.26417L8.09261 8.95996C8.04203 9.01054 7.95881 9.01054 7.90823 8.95996L6.50334 7.55344L4.84228 9.2145Z" fill="white" fill-opacity="0.8"/>
</svg>
