<svg width="533" height="209" viewBox="0 0 533 209" fill="none" xmlns="http://www.w3.org/2000/svg">
<path d="M164.434 49.5469V105H151.104V49.5469H164.434ZM224.053 49.5469V105H210.723L191.109 70.4941V105H177.741V49.5469H191.109L210.723 84.0527V49.5469H224.053ZM274.571 94.7168V105H245.016V94.7168H274.571ZM249.777 49.5469V105H236.408V49.5469H249.777ZM270.762 71.5605V81.501H245.016V71.5605H270.762ZM274.685 49.5469V59.8682H245.016V49.5469H274.685ZM312.519 90.2607C312.519 89.3975 312.392 88.623 312.138 87.9375C311.885 87.2266 311.415 86.5664 310.729 85.957C310.044 85.3477 309.054 84.7383 307.759 84.1289C306.489 83.4941 304.813 82.834 302.731 82.1484C300.294 81.3359 297.945 80.4219 295.685 79.4062C293.426 78.3652 291.407 77.1592 289.63 75.7881C287.852 74.3916 286.443 72.7666 285.402 70.9131C284.361 69.0342 283.841 66.8506 283.841 64.3623C283.841 61.9756 284.374 59.8301 285.44 57.9258C286.507 55.9961 287.992 54.3584 289.896 53.0127C291.826 51.6416 294.086 50.6006 296.676 49.8896C299.265 49.1533 302.096 48.7852 305.169 48.7852C309.231 48.7852 312.811 49.4961 315.909 50.918C319.032 52.3145 321.47 54.3076 323.221 56.8975C324.999 59.4619 325.887 62.4961 325.887 66H312.596C312.596 64.6035 312.304 63.3721 311.72 62.3057C311.161 61.2393 310.31 60.4014 309.168 59.792C308.025 59.1826 306.591 58.8779 304.864 58.8779C303.188 58.8779 301.779 59.1318 300.637 59.6396C299.494 60.1475 298.631 60.833 298.047 61.6963C297.463 62.5342 297.171 63.4609 297.171 64.4766C297.171 65.3145 297.399 66.0762 297.856 66.7617C298.339 67.4219 299.012 68.0439 299.875 68.6279C300.763 69.2119 301.83 69.7705 303.074 70.3037C304.344 70.8369 305.765 71.3574 307.34 71.8652C310.285 72.8047 312.9 73.8584 315.185 75.0264C317.496 76.1689 319.438 77.4766 321.012 78.9492C322.612 80.3965 323.818 82.0469 324.631 83.9004C325.469 85.7539 325.887 87.8486 325.887 90.1846C325.887 92.6729 325.405 94.8818 324.44 96.8115C323.475 98.7412 322.092 100.379 320.289 101.725C318.486 103.045 316.328 104.048 313.814 104.733C311.301 105.419 308.495 105.762 305.397 105.762C302.554 105.762 299.748 105.406 296.98 104.695C294.238 103.959 291.75 102.842 289.515 101.344C287.281 99.8203 285.491 97.8779 284.145 95.5166C282.825 93.1299 282.165 90.2988 282.165 87.0234H295.571C295.571 88.6484 295.787 90.0195 296.219 91.1367C296.65 92.2539 297.285 93.1553 298.123 93.8408C298.961 94.501 299.989 94.9834 301.208 95.2881C302.427 95.5674 303.823 95.707 305.397 95.707C307.098 95.707 308.47 95.4658 309.511 94.9834C310.552 94.4756 311.313 93.8154 311.796 93.0029C312.278 92.165 312.519 91.251 312.519 90.2607ZM360.18 61.2012L346.66 105H332.301L352.677 49.5469H361.78L360.18 61.2012ZM371.377 105L357.819 61.2012L356.067 49.5469H365.284L385.774 105H371.377ZM370.844 84.3193V94.6406H342.394V84.3193H370.844Z" fill="#185AA2"/>
<path d="M193.695 141.295V146.74H212.415V141.295H193.695ZM174.435 162.4V167.845H215.565V162.4H174.435ZM190.635 128.335V165.415H196.44V128.335H190.635ZM239.1 132.88V137.695H262.77V132.88H239.1ZM240.405 140.665V145.255H257.145V140.665H240.405ZM232.755 149.53V154.435H263.715V149.53H232.755ZM238.47 159.115V163.705H263.22V159.115H238.47ZM239.145 127.75C237.75 132.925 235.185 138.055 231.945 141.16C233.205 141.835 235.5 143.365 236.49 144.265C239.73 140.665 242.7 134.86 244.41 128.92L239.145 127.75ZM238.245 140.665C237.57 148.63 236.085 159.115 234.825 165.505L239.955 165.865C241.08 159.475 242.385 148.9 243.24 140.665H238.245ZM246.795 142.375C246.48 148.45 245.67 156.46 244.95 161.455H249.585C250.26 156.64 251.025 148.63 251.475 142.375H246.795ZM255.66 140.665V141.655C255.12 157.675 254.445 163.705 253.32 165.01C252.87 165.595 252.42 165.73 251.655 165.73C250.755 165.73 249.045 165.73 247.065 165.55C247.785 166.765 248.325 168.655 248.37 169.96C250.62 170.05 252.735 170.095 254.13 169.87C255.615 169.645 256.695 169.195 257.73 167.8C259.215 165.82 259.935 159.835 260.565 142.87C260.61 142.24 260.655 140.665 260.655 140.665H255.66ZM223.125 132.025C225.735 133.285 228.93 135.355 230.46 136.885L233.7 132.565C232.08 131.035 228.705 129.235 226.14 128.11L223.125 132.025ZM221.055 144.085C223.665 145.255 226.905 147.19 228.39 148.675L231.585 144.31C229.92 142.87 226.635 141.115 224.025 140.125L221.055 144.085ZM221.91 166.63L226.77 169.6C228.84 165.19 231.045 159.88 232.8 155.02L228.525 152.05C226.5 157.36 223.8 163.12 221.91 166.63ZM288.015 131.125L282.885 131.89C286.125 150.565 292.02 163.885 307.185 170.14C307.995 168.745 309.75 166.495 311.01 165.46C296.79 160.24 290.67 147.64 288.015 131.125ZM290.985 130.72C292.74 133.51 294.675 137.29 295.35 139.63L299.895 137.155C299.13 134.815 297.105 131.215 295.26 128.56L290.985 130.72ZM303.585 130.54C301.155 146.335 295.935 159.7 279.42 165.91C280.455 166.945 281.985 168.925 282.66 170.095C300.165 162.94 305.925 148.675 308.985 131.395L303.585 130.54ZM277.845 127.975C275.55 134.41 271.68 140.8 267.585 144.895C268.485 146.2 269.97 149.17 270.465 150.475C275.37 145.345 280.05 137.245 282.975 129.55L277.845 127.975ZM273.48 140.395V170.005H278.61V135.31V135.265L273.48 140.395ZM321.765 143.95V148.9H351.195V143.95H321.765ZM333.51 128.065V160.78C333.51 167.665 335.31 169.555 341.52 169.555C342.87 169.555 348.63 169.555 350.115 169.555C355.605 169.555 357.315 166.945 358.08 159.835C356.415 159.43 354.075 158.44 352.725 157.495C352.32 162.805 351.87 164.065 349.575 164.065C348.36 164.065 343.32 164.065 342.15 164.065C339.675 164.065 339.315 163.66 339.315 160.825V128.065H333.51ZM322.62 134.275V139.585H348.135V153.085H322.62V158.35H353.67V134.275H322.62ZM319.2 134.275V160.96H324.78V134.275H319.2Z" fill="#185AA2"/>
</svg>
