<svg width="27" height="36" viewBox="0 0 27 36" fill="none" xmlns="http://www.w3.org/2000/svg">
<path d="M13.625 35.5C13.2168 35.5 12.9915 35.4498 12.8481 35.2776C12.7618 35.174 4.08737 24.6247 1.7758 19.516C0.940701 17.6859 0.5 15.6988 0.5 13.7597C0.5 6.4467 6.38761 0.5 13.625 0.5C20.8624 0.5 26.75 6.48782 26.75 13.8458C26.75 16.0688 26.3433 17.7484 25.3465 19.6426C22.5903 24.8761 14.4946 35.154 14.4138 35.2566C14.3171 35.3803 14.1446 35.5 13.6452 35.5H13.625V35.5ZM13.625 8.64388C10.8417 8.64388 8.5769 10.9643 8.5769 13.8162C8.5769 16.6681 10.8417 18.9886 13.625 18.9886C16.4083 18.9886 18.6731 16.6681 18.6731 13.8162C18.6731 10.9643 16.4083 8.64388 13.625 8.64388Z" fill="#6977FA"/>
<circle cx="13.5" cy="13.5" r="9.5" fill="white"/>
<path d="M11.862 16.531C10.64 16.973 9.21 17.337 7.572 17.597L7.754 18.897C9.288 18.611 10.653 18.234 11.862 17.792V16.531ZM9.535 7.275C9.08 8.679 8.547 9.94 7.936 11.084C7.793 11.318 7.624 11.461 7.429 11.539L7.728 12.657C8.378 12.553 9.002 12.462 9.613 12.371C9.041 13.45 8.573 14.204 8.196 14.646C8.04 14.789 7.858 14.906 7.65 14.997L7.975 16.115C9.015 15.959 10.133 15.647 11.316 15.205V14.1C10.666 14.36 10.029 14.568 9.392 14.737C10.094 13.762 10.952 12.189 11.992 10.031L10.913 9.628C10.653 10.2 10.393 10.746 10.159 11.253C9.73 11.331 9.301 11.396 8.859 11.448C9.483 10.486 10.081 9.251 10.679 7.717L9.535 7.275ZM14.527 14.282L13.877 15.231C15.138 15.569 16.36 16.011 17.556 16.583L18.167 15.647C17.062 15.114 15.853 14.659 14.527 14.282ZM12.954 16.362L12.252 17.389C14.228 17.87 16.139 18.533 17.998 19.365L18.648 18.338C16.932 17.558 15.034 16.908 12.954 16.362ZM14.046 7.288C13.656 8.705 12.902 9.901 11.81 10.889L12.59 11.903C12.928 11.591 13.253 11.253 13.552 10.902C13.942 11.344 14.371 11.76 14.839 12.176C13.877 12.93 12.759 13.489 11.511 13.879L12.122 14.971C13.513 14.503 14.735 13.827 15.788 12.956C16.737 13.671 17.79 14.282 18.96 14.802L19.61 13.684C18.531 13.242 17.543 12.735 16.659 12.15C17.387 11.396 18.011 10.499 18.531 9.485V8.484H14.956C15.086 8.159 15.19 7.808 15.294 7.444L14.046 7.288ZM15.684 11.435C15.138 10.993 14.631 10.525 14.189 10.018C14.254 9.901 14.319 9.784 14.397 9.667H17.114C16.698 10.317 16.217 10.902 15.684 11.435Z" fill="#6977FA"/>
</svg>
