<svg width="24" height="24" viewBox="0 0 24 24" fill="none" xmlns="http://www.w3.org/2000/svg">
<path d="M12 22.5C11.7512 22.5 11.6139 22.4699 11.5264 22.3665C11.4739 22.3044 6.18659 15.9748 4.77763 12.9096C4.26862 11.8116 4 10.6193 4 9.45581C4 5.06802 7.58864 1.5 12 1.5C16.4114 1.5 20 5.09269 20 9.50748C20 10.8413 19.7521 11.8491 19.1445 12.9855C17.4645 16.1256 12.5301 22.2924 12.4808 22.3539C12.4219 22.4282 12.3167 22.5 12.0123 22.5H12V22.5ZM12 6.38633C10.3035 6.38633 8.92307 7.77861 8.92307 9.48974C8.92307 11.2009 10.3035 12.5932 12 12.5932C13.6965 12.5932 15.0769 11.2009 15.0769 9.48974C15.0769 7.77861 13.6965 6.38633 12 6.38633Z" fill="#AAAAAA"/>
<ellipse cx="12.0001" cy="9.75" rx="3.63636" ry="3.75" fill="white"/>
</svg>
