<svg width="17" height="22" viewBox="0 0 17 22" fill="none" xmlns="http://www.w3.org/2000/svg">
<path d="M8.73985 21.5C8.48347 21.5 8.34197 21.4699 8.25186 21.3665C8.19767 21.3044 2.7493 14.9748 1.29742 11.9096C0.772896 10.8116 0.496094 9.6193 0.496094 8.45581C0.496094 4.06802 4.19408 0.5 8.73985 0.5C13.2856 0.5 16.9836 4.09269 16.9836 8.50748C16.9836 9.84127 16.7282 10.8491 16.1021 11.9855C14.3709 15.1256 9.28605 21.2924 9.23527 21.3539C9.17458 21.4282 9.06621 21.5 8.75255 21.5H8.73985V21.5ZM8.73985 5.38633C6.99165 5.38633 5.56916 6.77861 5.56916 8.48975C5.56916 10.2009 6.99165 11.5932 8.73985 11.5932C10.4881 11.5932 11.9105 10.2009 11.9105 8.48975C11.9105 6.77861 10.4881 5.38633 8.73985 5.38633Z" fill="#AAAAAA"/>
<ellipse cx="8.73935" cy="8.75" rx="3.74716" ry="3.75" fill="white"/>
</svg>
