<svg width="27" height="36" viewBox="0 0 27 36" fill="none" xmlns="http://www.w3.org/2000/svg">
<path d="M13.625 35.5C13.2168 35.5 12.9915 35.4498 12.8481 35.2776C12.7618 35.174 4.08737 24.6247 1.7758 19.516C0.940701 17.6859 0.5 15.6988 0.5 13.7597C0.5 6.4467 6.38761 0.5 13.625 0.5C20.8624 0.5 26.75 6.48782 26.75 13.8458C26.75 16.0688 26.3433 17.7484 25.3465 19.6426C22.5903 24.8761 14.4946 35.154 14.4138 35.2566C14.3171 35.3803 14.1446 35.5 13.6452 35.5H13.625V35.5ZM13.625 8.64388C10.8417 8.64388 8.5769 10.9643 8.5769 13.8162C8.5769 16.6681 10.8417 18.9886 13.625 18.9886C16.4083 18.9886 18.6731 16.6681 18.6731 13.8162C18.6731 10.9643 16.4083 8.64388 13.625 8.64388Z" fill="#FF8A00"/>
<circle cx="13.5" cy="13.5" r="9.5" fill="white"/>
<path d="M19.272 14.412L18.102 14.022C18.063 14.698 18.011 15.153 17.933 15.387C17.842 15.647 17.647 15.777 17.335 15.777H15.749C15.437 15.764 15.281 15.621 15.281 15.335V12.605H18.7V8.094H13.89V9.251H17.491V11.435H14.059V15.816C14.059 16.583 14.436 16.973 15.216 16.973H17.543C18.193 16.973 18.622 16.804 18.817 16.492C19.025 16.167 19.168 15.478 19.272 14.412ZM8.43 13.567C8.352 15.387 8.027 17.038 7.429 18.52L8.378 19.352C8.651 18.689 8.885 17.987 9.067 17.233C9.509 17.857 10.029 18.299 10.614 18.572C11.381 18.91 13.292 19.092 16.347 19.092H19.311L19.519 17.909C18.765 17.961 17.608 17.987 16.074 17.987C13.942 17.987 12.473 17.896 11.641 17.727V15.556H13.37V14.438H11.641V12.878H13.461V11.734H11.368V10.096H13.292V8.978H11.368V7.288H10.146V8.978H8.105V10.096H10.146V11.734H7.871V12.878H10.445V17.181C10.029 16.869 9.665 16.453 9.327 15.907C9.431 15.205 9.509 14.464 9.535 13.697L8.43 13.567Z" fill="#FF8A00"/>
</svg>
