<svg width="533" height="209" viewBox="0 0 533 209" fill="none" xmlns="http://www.w3.org/2000/svg">
<g clip-path="url(#clip0_5235_75395)">
<path d="M247.711 90.2073V91.4351C246.83 91.7499 245.854 92.474 244.847 93.5759C243.871 94.6777 242.958 96.3778 242.108 98.676L229.266 133.432C228.952 133.401 228.605 133.369 228.228 133.369C227.85 133.369 227.504 133.369 227.126 133.369C226.811 133.369 226.465 133.369 226.087 133.369C225.71 133.369 225.363 133.401 225.049 133.432L209.531 95.3389C208.965 93.8907 208.335 92.8833 207.643 92.3481C206.95 91.7814 206.289 91.4666 205.691 91.4351V90.2073C206.919 90.2387 208.335 90.3017 209.941 90.3332C211.609 90.3647 213.277 90.3962 214.945 90.3962C216.802 90.3962 218.565 90.3647 220.17 90.3332C221.838 90.3017 223.16 90.2387 224.199 90.2073V91.4351C222.908 91.4666 221.901 91.624 221.146 91.9073C220.422 92.1592 220.013 92.6314 219.918 93.3555C219.824 94.0481 220.076 95.087 220.642 96.5352L231.721 124.712L230.431 126.223L238.835 103.587C239.937 100.533 240.503 98.1408 240.535 96.4093C240.566 94.6777 240.157 93.4185 239.244 92.6314C238.363 91.8758 237.072 91.4666 235.404 91.4036V90.1758C236.789 90.2073 238.079 90.2702 239.307 90.3017C240.535 90.3332 241.762 90.3647 243.021 90.3647C243.902 90.3647 244.752 90.3332 245.508 90.3017C246.389 90.2702 247.113 90.2387 247.711 90.2073Z" fill="#1A1D2B"/>
<path d="M254.701 86.1152C256.401 86.1152 257.754 86.556 258.73 87.406C259.737 88.2245 260.241 89.3579 260.241 90.8061C260.241 92.2543 259.737 93.4191 258.73 94.2691C257.754 95.0877 256.432 95.497 254.701 95.497C252.97 95.497 251.648 95.0877 250.609 94.2691C249.634 93.4191 249.161 92.2543 249.161 90.8061C249.161 89.3579 249.634 88.2245 250.609 87.406C251.648 86.556 253.001 86.1152 254.701 86.1152ZM259.454 101.164V127.64C259.454 129.34 259.737 130.505 260.304 131.103C260.902 131.702 261.94 132.016 263.357 132.016V133.307C262.633 133.276 261.5 133.213 259.957 133.181C258.415 133.087 256.841 133.055 255.268 133.055C253.694 133.055 252.089 133.087 250.452 133.181C248.815 133.213 247.619 133.276 246.801 133.307V132.016C248.217 132.016 249.224 131.702 249.791 131.103C250.389 130.505 250.704 129.34 250.704 127.64V108.468C250.704 106.642 250.42 105.288 249.854 104.438C249.319 103.556 248.312 103.084 246.801 103.084V101.793C248.091 101.919 249.35 101.982 250.578 101.982C252.277 101.982 253.851 101.919 255.331 101.793C256.81 101.667 258.195 101.447 259.454 101.164Z" fill="#1A1D2B"/>
<path d="M295.995 89.4209C298.387 89.4209 300.244 89.6728 301.534 90.208C302.825 90.6802 303.958 91.2154 304.871 91.7821C305.343 92.0654 305.752 92.2858 306.035 92.4432C306.35 92.5691 306.665 92.6321 306.948 92.6321C307.357 92.6321 307.64 92.4117 307.798 91.971C307.987 91.5302 308.176 90.8691 308.27 89.9561H309.655C309.623 90.7117 309.56 91.6561 309.466 92.758C309.435 93.8284 309.372 95.2136 309.34 96.9452C309.34 98.6767 309.34 100.975 309.34 103.808H307.955C307.798 101.699 307.294 99.6526 306.507 97.6693C305.689 95.6859 304.524 94.0488 303.045 92.7895C301.597 91.4987 299.772 90.8376 297.631 90.8376C295.68 90.8376 294.075 91.3728 292.816 92.4747C291.557 93.5766 290.927 95.0877 290.927 97.0396C290.927 98.6767 291.336 100.062 292.155 101.227C292.973 102.36 294.138 103.493 295.68 104.564C297.254 105.666 299.174 106.988 301.408 108.531C303.36 109.79 305.091 111.049 306.633 112.309C308.176 113.568 309.403 114.985 310.347 116.559C311.292 118.133 311.732 120.022 311.732 122.225C311.732 124.901 311.008 127.105 309.592 128.868C308.207 130.6 306.381 131.922 304.115 132.835C301.849 133.685 299.362 134.126 296.624 134.126C294.106 134.126 292.092 133.874 290.612 133.402C289.133 132.929 287.842 132.394 286.835 131.891C285.954 131.324 285.261 131.04 284.758 131.04C284.349 131.04 284.034 131.261 283.845 131.702C283.688 132.142 283.53 132.803 283.404 133.716H282.02C282.114 132.741 282.145 131.607 282.145 130.316C282.177 129.026 282.208 127.326 282.208 125.279C282.24 123.17 282.271 120.525 282.271 117.314H283.656C283.814 119.99 284.254 122.509 285.01 124.87C285.765 127.168 286.93 129.057 288.472 130.474C290.046 131.891 292.155 132.615 294.736 132.615C296.152 132.615 297.411 132.363 298.513 131.891C299.646 131.355 300.558 130.6 301.251 129.592C301.943 128.585 302.29 127.326 302.29 125.814C302.29 124.114 301.88 122.635 301.062 121.375C300.307 120.116 299.205 118.951 297.852 117.849C296.498 116.748 294.956 115.646 293.162 114.512C291.242 113.253 289.479 111.994 287.811 110.734C286.143 109.475 284.821 108.027 283.782 106.421C282.806 104.784 282.334 102.864 282.334 100.629C282.334 98.0785 282.964 95.9692 284.223 94.3636C285.513 92.6951 287.213 91.4987 289.259 90.7117C291.431 89.7987 293.634 89.4209 295.995 89.4209Z" fill="#1A1D2B"/>
<path d="M327.724 85.7061V106.642C328.731 104.532 330.084 103.084 331.815 102.266C333.547 101.416 335.498 100.975 337.67 100.975C339.401 100.975 340.817 101.195 341.856 101.636C342.926 102.045 343.745 102.612 344.343 103.336C345.035 104.092 345.507 105.099 345.79 106.327C346.105 107.555 346.263 109.192 346.263 111.27V127.64C346.263 129.341 346.546 130.505 347.112 131.104C347.71 131.702 348.749 132.017 350.165 132.017V133.307C349.41 133.276 348.214 133.213 346.64 133.181C345.098 133.087 343.587 133.055 342.139 133.055C340.566 133.055 339.023 133.087 337.512 133.181C336.065 133.213 334.963 133.276 334.239 133.307V132.017C335.467 132.017 336.316 131.702 336.788 131.104C337.261 130.505 337.512 129.341 337.512 127.64V108.688C337.512 107.681 337.418 106.799 337.198 106.075C337.009 105.32 336.6 104.721 336.033 104.312C335.498 103.871 334.743 103.651 333.735 103.651C332.634 103.651 331.627 103.966 330.682 104.564C329.801 105.131 329.046 105.949 328.479 106.988C327.944 108.058 327.692 109.255 327.692 110.64V127.609C327.692 129.309 327.944 130.474 328.416 131.072C328.888 131.67 329.769 131.985 330.966 131.985V133.276C330.242 133.244 329.171 133.181 327.755 133.15C326.339 133.055 324.891 133.024 323.443 133.024C321.869 133.024 320.264 133.055 318.627 133.15C317.053 133.181 315.857 133.244 315.039 133.276V131.985C316.455 131.985 317.463 131.67 318.029 131.072C318.627 130.474 318.942 129.309 318.942 127.609V92.9785C318.942 91.1525 318.659 89.7988 318.092 88.9487C317.557 88.0672 316.55 87.595 315.039 87.595V86.3042C316.33 86.4301 317.589 86.4931 318.816 86.4931C320.484 86.4931 322.058 86.4301 323.569 86.3042C325.08 86.2098 326.465 85.9894 327.724 85.7061Z" fill="#1A1D2B"/>
<path d="M360.773 133.716C358.947 133.716 357.436 133.37 356.209 132.677C354.981 131.984 354.1 131.071 353.533 129.938C352.967 128.773 352.684 127.482 352.684 126.097C352.684 124.366 353.061 122.918 353.848 121.847C354.667 120.745 355.705 119.864 356.964 119.171C358.223 118.479 359.545 117.912 360.93 117.471C362.347 117.03 363.7 116.59 364.959 116.18C366.249 115.74 367.288 115.236 368.075 114.669C368.893 114.071 369.303 113.284 369.303 112.371V107.617C369.303 106.547 369.114 105.634 368.767 104.815C368.453 103.965 367.918 103.304 367.194 102.863C366.501 102.423 365.588 102.202 364.455 102.202C363.637 102.202 362.819 102.328 362.032 102.58C361.213 102.769 360.552 103.147 360.017 103.682C361.15 104.091 362.032 104.721 362.63 105.571C363.291 106.389 363.606 107.302 363.606 108.373C363.606 109.758 363.133 110.86 362.158 111.647C361.213 112.465 360.112 112.875 358.821 112.875C357.373 112.875 356.24 112.434 355.485 111.521C354.761 110.576 354.383 109.475 354.383 108.184C354.383 107.019 354.667 106.043 355.233 105.256C355.831 104.5 356.681 103.745 357.72 103.052C358.853 102.391 360.206 101.887 361.811 101.541C363.448 101.163 365.179 101.006 367.036 101.006C368.893 101.006 370.593 101.195 372.072 101.604C373.583 101.982 374.842 102.674 375.849 103.682C376.794 104.626 377.392 105.76 377.675 107.145C377.958 108.499 378.116 110.199 378.116 112.245V128.805C378.116 129.812 378.21 130.536 378.43 130.946C378.619 131.323 378.965 131.481 379.469 131.481C379.847 131.481 380.193 131.386 380.508 131.166C380.885 130.977 381.263 130.725 381.672 130.442L382.27 131.481C381.421 132.205 380.413 132.771 379.28 133.181C378.179 133.559 376.951 133.716 375.566 133.716C374.055 133.716 372.859 133.527 371.978 133.118C371.097 132.677 370.436 132.079 370.026 131.355C369.649 130.631 369.491 129.781 369.491 128.805C368.516 130.347 367.351 131.575 365.966 132.457C364.455 133.275 362.756 133.716 360.773 133.716ZM365.085 129.812C365.903 129.812 366.627 129.623 367.288 129.277C367.981 128.868 368.642 128.207 369.24 127.325V114.858C368.862 115.456 368.358 116.023 367.729 116.495C367.068 116.967 366.375 117.503 365.651 118.006C364.927 118.479 364.204 119.045 363.511 119.643C362.85 120.242 362.347 120.997 361.937 121.91C361.528 122.823 361.339 123.893 361.339 125.121C361.339 126.695 361.686 127.892 362.378 128.647C363.039 129.434 363.952 129.812 365.085 129.812Z" fill="#1A1D2B"/>
<path d="M404.807 100.975C406.097 100.975 407.167 101.258 407.986 101.825C408.804 102.36 409.371 103.052 409.748 103.902C410.158 104.752 410.346 105.634 410.346 106.578C410.346 108.09 409.906 109.317 408.993 110.293C408.143 111.238 407.01 111.679 405.594 111.679C404.177 111.679 403.044 111.332 402.257 110.64C401.502 109.916 401.093 108.971 401.093 107.775C401.093 106.641 401.344 105.697 401.817 104.973C402.352 104.217 402.981 103.556 403.768 103.021C403.202 102.864 402.635 102.864 402.068 103.084C401.313 103.21 400.558 103.525 399.865 104.06C399.173 104.532 398.575 105.162 398.103 105.949C397.63 106.673 397.221 107.491 396.938 108.373C396.655 109.223 396.497 110.042 396.497 110.86V126.979C396.497 128.931 396.969 130.253 397.882 130.946C398.858 131.638 400.306 131.985 402.194 131.985V133.275C401.25 133.244 399.897 133.181 398.103 133.15C396.308 133.055 394.451 133.024 392.5 133.024C390.863 133.024 389.226 133.055 387.558 133.15C385.89 133.181 384.631 133.244 383.781 133.275V131.985C385.198 131.985 386.205 131.67 386.771 131.072C387.369 130.474 387.684 129.309 387.684 127.609V108.467C387.684 106.641 387.401 105.288 386.834 104.438C386.299 103.556 385.292 103.084 383.781 103.084V101.793C385.072 101.919 386.331 101.982 387.558 101.982C389.258 101.982 390.832 101.919 392.311 101.793C393.822 101.636 395.175 101.415 396.434 101.132V106.799C396.906 105.697 397.567 104.721 398.386 103.808C399.204 102.895 400.117 102.234 401.187 101.73C402.32 101.226 403.485 100.975 404.807 100.975Z" fill="#1A1D2B"/>
<path d="M424.669 101.164V138.281C424.669 140.202 425.141 141.461 426.117 142.059C427.092 142.72 428.414 143.035 430.145 143.035V144.326C429.075 144.294 427.627 144.231 425.77 144.137C423.945 144.105 421.993 144.074 419.916 144.074C418.405 144.074 416.926 144.105 415.478 144.137C414.062 144.231 412.991 144.294 412.267 144.326V143.035C413.621 143.035 414.534 142.752 415.069 142.185C415.635 141.618 415.919 140.516 415.919 138.911V108.467C415.919 106.641 415.635 105.288 415.069 104.438C414.502 103.556 413.495 103.084 412.016 103.084V101.793C413.306 101.919 414.565 101.982 415.793 101.982C417.461 101.982 419.035 101.919 420.545 101.793C422.056 101.667 423.41 101.447 424.669 101.164ZM434.111 100.975C436.189 100.975 438.014 101.541 439.651 102.675C441.288 103.777 442.578 105.445 443.554 107.712C444.53 109.947 445.002 112.749 445.002 116.118C445.002 119.077 444.656 121.69 443.963 123.894C443.302 126.129 442.358 128.018 441.099 129.561C439.871 131.072 438.392 132.205 436.661 132.961C434.961 133.716 433.041 134.125 430.869 134.125C429.296 134.125 427.848 133.842 426.557 133.275C425.267 132.74 424.26 131.985 423.567 130.977L424.165 130.19C424.574 130.914 425.141 131.481 425.865 131.89C426.62 132.299 427.501 132.488 428.477 132.488C430.303 132.488 431.751 131.89 432.789 130.662C433.859 129.403 434.583 127.672 435.056 125.436C435.528 123.17 435.779 120.462 435.779 117.345C435.779 113.851 435.559 111.112 435.118 109.129C434.678 107.145 434.048 105.728 433.293 104.878C432.538 104.028 431.593 103.588 430.492 103.588C429.044 103.588 427.69 104.154 426.463 105.288C425.298 106.421 424.606 108.058 424.448 110.167L424.134 108.027C424.858 105.728 426.085 103.965 427.848 102.801C429.673 101.573 431.751 100.975 434.111 100.975Z" fill="#1A1D2B"/>
<path fill-rule="evenodd" clip-rule="evenodd" d="M185.456 79.5662V79.0625H184.952H149.983H149.92C137.078 79.094 126.66 89.5146 126.66 102.359C126.66 115.173 136.984 125.562 149.794 125.656H149.983H160.779H162.133C163.266 125.656 164.147 126.569 164.147 127.671C164.147 128.805 163.234 129.686 162.133 129.686H145.199C137.991 129.686 131.728 133.81 128.643 139.823H164.651C169.498 139.823 173.779 134.818 173.779 128.175C173.779 121.532 169.498 116.526 164.651 116.526H146.804V116.495C140.761 116.117 136.26 109.915 136.26 102.832C136.26 95.7481 140.761 89.5461 146.804 89.1683V89.1368H183.473C184.732 86.5238 185.456 83.596 185.456 80.5107V79.5662ZM182.371 91.2147H147.434C142.587 91.2147 138.306 96.2204 138.306 102.863C138.306 109.506 142.587 114.512 147.434 114.512H165.375V114.543C171.387 114.984 175.825 121.154 175.825 128.206C175.825 135.069 171.638 141.051 165.878 141.807V141.901H127.793C127.069 143.885 126.66 146.057 126.66 148.292V150.527V151.031H127.164H162.133C175.006 151.031 185.456 140.579 185.456 127.734C185.456 114.889 175.069 104.469 162.227 104.437H162.196H162.164H162.133H162.101H162.07H162.038H162.007H161.787H161.535H158.765H151.683H150.676H150.33C149.196 104.437 148.315 103.524 148.315 102.422C148.315 101.289 149.228 100.407 150.33 100.407H165.69C172.677 100.345 178.846 96.6926 182.371 91.2147Z" fill="#3758FF"/>
<path fill-rule="evenodd" clip-rule="evenodd" d="M115.989 151H123.983C124.015 110.923 111.267 86.115 104.878 79H98.5829C105.319 90.0188 116.241 116.464 115.989 151ZM96.1593 79H87C105.161 111.647 106.483 140.8 104.878 151H113.911C114.163 115.614 102.549 88.9169 96.1593 79Z" fill="#3758FF"/>
</g>
<defs>
<clipPath id="clip0_5235_75395">
<rect width="358" height="72" fill="white" transform="translate(87 79)"/>
</clipPath>
</defs>
</svg>
