<svg width="60" height="45" viewBox="0 0 60 45" fill="none" xmlns="http://www.w3.org/2000/svg">
<path fill-rule="evenodd" clip-rule="evenodd" d="M1.45171 4.60726C1.45171 4.60726 9.4179 20.8315 13.8976 15.4234C18.3773 10.0153 18.9898 1.89222 25.6937 1.27061C32.3975 0.648993 34.4833 10.8856 38.232 10.8856C41.9807 10.8856 39.1819 2.982 42.8246 1.27061C46.4674 -0.440792 49.2893 6.34775 52.3487 10.8856C55.4082 15.4234 58.3136 12.6924 58.9162 6.11672H60V45H0V4.60726H1.45171Z" fill="url(#paint0_linear)"/>
<path d="M1.45166 4.60726C1.45166 4.60726 9.41785 20.8315 13.8975 15.4234C18.3772 10.0153 18.9897 1.89222 25.6936 1.27061C32.3975 0.648993 34.4833 10.8856 38.232 10.8856C41.9807 10.8856 39.1818 2.982 42.8246 1.27061C46.4673 -0.440792 49.2892 6.34775 52.3487 10.8856C55.4082 15.4234 58.3135 12.6924 58.9162 6.11672" stroke="#9147FF"/>
<path opacity="0.300357" d="M1.19849 10.2752C1.19849 10.2752 9.16468 26.4995 13.6444 21.0914C18.1241 15.6833 18.7365 7.56019 25.4404 6.93857C32.1443 6.31696 34.2301 16.5536 37.9788 16.5536C41.7275 16.5536 38.9286 8.64997 42.5714 6.93857C46.2142 5.22718 49.036 12.0157 52.0955 16.5536C55.155 21.0914 58.0604 18.3604 58.663 11.7847" stroke="#BF9FF2"/>
<defs>
<linearGradient id="paint0_linear" x1="0" y1="1" x2="0" y2="45" gradientUnits="userSpaceOnUse">
<stop stop-color="#EFE4FF"/>
<stop offset="1" stop-color="white"/>
</linearGradient>
</defs>
</svg>
