<svg width="60" height="45" viewBox="0 0 60 45" fill="none" xmlns="http://www.w3.org/2000/svg">
<path fill-rule="evenodd" clip-rule="evenodd" d="M1.01119 11.6241C1.01119 11.6241 4.51124 5.77988 8.35392 5.77988C12.1966 5.77988 14.2525 13.9113 14.2525 13.9113C14.2525 13.9113 15.6023 17.6135 17.3239 16.5097C19.0455 15.4059 23.5428 2.22036 27.2695 1.22271C30.9963 0.225059 33.2749 2.53809 35.1439 8.99295C37.0129 15.4478 38.6996 26.8258 45.5001 26.8258C52.3006 26.8258 58.7516 2.97532 58.7516 2.97532H60V45H0V11.5742L1.01119 11.6241Z" fill="url(#paint0_linear)"/>
<path d="M1.01123 11.6241C1.01123 11.6241 4.51128 5.77988 8.35396 5.77988C12.1966 5.77988 14.2525 13.9113 14.2525 13.9113C14.2525 13.9113 15.6024 17.6135 17.324 16.5097C19.0456 15.4059 23.5429 2.22036 27.2696 1.22271C30.9963 0.225059 33.2749 2.53809 35.1439 8.99295C37.0129 15.4478 38.6997 26.8258 45.5002 26.8258C52.3006 26.8258 58.7516 2.97532 58.7516 2.97532" stroke="#FFB54B"/>
<path opacity="0.499866" d="M1.01123 17.3179C1.01123 17.3179 4.51128 11.4737 8.35396 11.4737C12.1966 11.4737 14.2525 19.6051 14.2525 19.6051C14.2525 19.6051 15.6024 23.3073 17.324 22.2035C19.0456 21.0998 23.5429 7.91421 27.2696 6.91656C30.9963 5.91891 33.2749 8.23194 35.1439 14.6868C37.0129 21.1417 38.6997 32.5196 45.5002 32.5196C52.3006 32.5196 58.7516 8.66917 58.7516 8.66917" stroke="#FFE0B6"/>
<defs>
<linearGradient id="paint0_linear" x1="0" y1="1" x2="0" y2="45" gradientUnits="userSpaceOnUse">
<stop stop-color="#FFF4E1"/>
<stop offset="1" stop-color="white"/>
</linearGradient>
</defs>
</svg>
