<svg width="22" height="34" viewBox="0 0 22 34" fill="none" xmlns="http://www.w3.org/2000/svg">
<circle cx="11" cy="11" r="10" fill="white" stroke="#FF8A00" stroke-width="2"/>
<path d="M8.708 7.524C8.24 6.996 7.268 6.264 6.512 5.76L5.876 6.396C6.644 6.936 7.592 7.716 8.036 8.232L8.708 7.524ZM8.288 10.656C7.268 11.712 6.188 12.816 5.492 13.464L6.068 14.196C6.884 13.428 7.88 12.384 8.768 11.424L8.288 10.656ZM12.776 7.992H15.248C15.008 8.784 14.624 9.672 14.324 10.224C14.54 10.308 14.876 10.5 15.068 10.584C15.512 9.792 16.064 8.568 16.388 7.416L15.74 7.056L15.56 7.104H10.724C10.94 6.48 11.12 5.832 11.288 5.16L10.352 4.992C9.944 6.9 9.212 8.748 8.204 9.924C8.444 10.032 8.876 10.284 9.056 10.428C9.548 9.768 10.004 8.928 10.388 7.992H11.852V9.504C11.852 10.62 11.228 13.752 7.592 15.192C7.76 15.348 8.036 15.72 8.144 15.912C11.012 14.7 12.104 12.3 12.308 11.172C12.476 12.288 13.508 14.76 16.004 15.912C16.148 15.696 16.424 15.324 16.58 15.12C13.34 13.716 12.764 10.548 12.776 9.504V7.992Z" fill="#FF8A00"/>
<path d="M11 34L8.40192 21.25L13.5981 21.25L11 34Z" fill="#FF8A00"/>
</svg>
