<svg width="22" height="34" viewBox="0 0 22 34" fill="none" xmlns="http://www.w3.org/2000/svg">
<circle cx="11" cy="11" r="10" fill="white" stroke="#826AF9" stroke-width="2"/>
<path d="M8.144 9.012H14.096V10.44H8.144V9.012ZM14.096 6.9V8.268H8.144V6.9H14.096ZM15.152 11.136C14.42 11.76 13.244 12.564 12.272 13.092C11.756 12.564 11.348 11.94 11.048 11.22H14.996V6.096H11.408V4.944H10.496V6.096H7.232V14.772C6.752 14.844 6.308 14.916 5.936 14.964L6.152 15.828C7.568 15.588 9.596 15.24 11.516 14.904L11.456 14.076C10.34 14.268 9.176 14.46 8.144 14.628V11.22H10.16C11.12 13.788 12.944 15.312 15.944 15.924C16.052 15.696 16.304 15.324 16.496 15.132C14.996 14.868 13.772 14.364 12.836 13.62C13.82 13.092 14.984 12.348 15.86 11.676L15.152 11.136Z" fill="#826AF9"/>
<path d="M11 34L8.40192 21.25L13.5981 21.25L11 34Z" fill="#826AF9"/>
</svg>
