<svg width="22" height="34" viewBox="0 0 22 34" fill="none" xmlns="http://www.w3.org/2000/svg">
<circle cx="11" cy="11" r="10" fill="white" stroke="#36C626" stroke-width="2"/>
<path d="M15.632 7.032C15.284 6.552 14.564 5.796 13.988 5.268L13.364 5.712C13.952 6.264 14.648 7.032 14.972 7.524L15.632 7.032ZM8.288 4.992C7.652 6.804 6.608 8.58 5.492 9.744C5.648 9.96 5.912 10.416 6.008 10.62C6.344 10.248 6.692 9.816 7.016 9.348V15.912H7.868V7.98C8.348 7.104 8.78 6.18 9.128 5.244L8.288 4.992ZM16.364 8.64V7.788H12.08C12.128 6.9 12.14 6 12.14 5.112H11.264C11.264 6 11.252 6.9 11.216 7.788H8.516V8.64H11.156C10.964 11.328 10.364 13.788 8.324 15.216C8.552 15.36 8.84 15.648 8.984 15.864C11.156 14.28 11.816 11.58 12.032 8.64H16.364ZM13.928 14.772C13.568 14.772 13.508 14.688 13.508 14.328V9.576H12.632V14.328C12.632 15.3 12.884 15.588 13.82 15.588H15.212C16.076 15.588 16.304 15.096 16.388 13.308C16.148 13.236 15.788 13.08 15.596 12.924C15.56 14.496 15.488 14.772 15.14 14.772H13.928Z" fill="#36C626"/>
<path d="M11 34L8.40192 21.25L13.5981 21.25L11 34Z" fill="#36C626"/>
</svg>
