<svg width="14" height="14" viewBox="0 0 14 14" fill="none" xmlns="http://www.w3.org/2000/svg">
<path d="M8.25664 7.02974L13.7765 12.5482C13.9254 12.7133 14.0053 12.9293 13.9997 13.1515C13.9941 13.3738 13.9034 13.5855 13.7463 13.7428C13.5892 13.9001 13.3777 13.9912 13.1554 13.9971C12.9332 14.0031 12.7171 13.9235 12.5518 13.7747L7.02844 8.25626L1.51382 13.7765C1.34875 13.9254 1.1328 14.0053 0.910539 13.9997C0.688275 13.9941 0.476649 13.9034 0.319322 13.7463C0.161995 13.5891 0.0709696 13.3776 0.065026 13.1554C0.0590824 12.9331 0.138674 12.717 0.287379 12.5517L5.8055 7.03149L0.287379 1.513C0.199835 1.43423 0.129238 1.33847 0.0798851 1.23155C0.0305327 1.12462 0.00345817 1.00877 0.000310147 0.89104C-0.00283788 0.773314 0.0180065 0.656179 0.061574 0.546767C0.105141 0.437355 0.17052 0.337957 0.25373 0.254623C0.33694 0.171289 0.436239 0.105764 0.545581 0.0620371C0.654923 0.0183106 0.77202 -0.00270224 0.889743 0.000277932C1.00747 0.0032581 1.12335 0.030169 1.23034 0.0793719C1.33733 0.128575 1.43319 0.19904 1.51207 0.286478L7.03019 5.80496L12.5483 0.286478C12.7134 0.137527 12.9293 0.0576216 13.1516 0.0632483C13.3739 0.0688749 13.5855 0.159604 13.7428 0.316717C13.9001 0.47383 13.9912 0.68534 13.9971 0.907611C14.0031 1.12988 13.9235 1.34595 13.7748 1.51125L8.25664 7.03149V7.02974Z" fill="#646464"/>
</svg>
