<svg width="16" height="16" viewBox="0 0 16 16" fill="none" xmlns="http://www.w3.org/2000/svg">
<rect x="1" y="3" width="14" height="1" rx="0.2" fill="rgba(0,0,0,.25)"/>
<rect x="4" y="1" width="8" height="1" rx="0.2" fill="rgba(0,0,0,.25)"/>
<path fill-rule="evenodd" clip-rule="evenodd" d="M6.83464 11.5003L6.83464 5.66699L5.66797 5.66699L5.66797 11.5003L6.83464 11.5003ZM10.3346 11.5003L10.3346 5.66699L9.16797 5.66699L9.16797 11.5003L10.3346 11.5003Z" fill="rgba(0,0,0,.25)"/>
<path fill-rule="evenodd" clip-rule="evenodd" d="M4.2 13.2778C4.08954 13.2778 4 13.1882 4 13.0778V3.7C4 3.58954 3.91046 3.5 3.8 3.5H3.2C3.08954 3.5 3 3.58954 3 3.7V14.3C3 14.4105 3.08954 14.5 3.2 14.5H12.8C12.9105 14.5 13 14.4105 13 14.3V3.7C13 3.58954 12.9105 3.5 12.8 3.5H12.2C12.0895 3.5 12 3.58954 12 3.7V13.0778C12 13.1882 11.9105 13.2778 11.8 13.2778H4.2Z" fill="rgba(0,0,0,.25)"/>
</svg>
