<svg width="14" height="14" viewBox="0 0 14 14" fill="none" xmlns="http://www.w3.org/2000/svg">
<path d="M12.0117 6.00039C11.7352 6.00039 11.5117 5.77695 11.5117 5.50039C11.5117 3.01914 9.49297 1.00039 7.01172 1.00039C4.53047 1.00039 2.51172 3.01914 2.51172 5.50039C2.51172 5.77695 2.28828 6.00039 2.01172 6.00039C1.73516 6.00039 1.51172 5.77695 1.51172 5.50039C1.51172 4.7582 1.65703 4.03789 1.94453 3.35977C2.22109 2.70508 2.61797 2.11602 3.12266 1.61133C3.62734 1.10664 4.21641 0.709766 4.87109 0.433203C5.54922 0.147266 6.26953 0.00195312 7.01172 0.00195312C7.75391 0.00195312 8.47422 0.147266 9.15234 0.434766C9.80703 0.711328 10.3961 1.1082 10.9008 1.61289C11.4055 2.11758 11.8023 2.70664 12.0789 3.36133C12.3664 4.03945 12.5117 4.75977 12.5117 5.50195C12.5117 5.77695 12.2883 6.00039 12.0117 6.00039Z" fill="white"/>
<path d="M10.0148 6.00058C9.73828 6.00058 9.51484 5.77714 9.51484 5.50058C9.51484 4.1209 8.39297 2.99902 7.01328 2.99902C5.63359 2.99902 4.51172 4.1209 4.51172 5.50058C4.51172 5.77714 4.28828 6.00058 4.01172 6.00058C3.73516 6.00058 3.51172 5.77714 3.51172 5.50058C3.51172 4.56465 3.87578 3.68496 4.53672 3.02402C5.19766 2.36309 6.07734 1.99902 7.01328 1.99902C7.94922 1.99902 8.82891 2.36309 9.48984 3.02402C10.1508 3.68496 10.5148 4.56465 10.5148 5.50058C10.5148 5.77714 10.2914 6.00058 10.0148 6.00058Z" fill="white"/>
<path d="M2.01172 10.999C2.01172 10.7225 2.23516 10.499 2.51172 10.499C2.78828 10.499 3.01172 10.7225 3.01172 10.999C3.01172 11.2756 2.78828 11.499 2.51172 11.499C2.23516 11.499 2.01172 11.2756 2.01172 10.999Z" fill="white"/>
<path d="M4.01328 10.999C4.01328 10.7225 4.23672 10.499 4.51328 10.499C4.78828 10.499 5.01328 10.7225 5.01328 10.999C5.01328 11.2756 4.78984 11.499 4.51328 11.499C4.23672 11.499 4.01328 11.2756 4.01328 10.999Z" fill="white"/>
<path d="M1 7.99707H6.51172V4.50195C6.51172 4.22695 6.73672 4.00195 7.01172 4.00195C7.28672 4.00195 7.51172 4.22695 7.51172 4.50195V7.99707H13C13.55 7.99707 14 8.44707 14 8.99707V12.9971C14 13.5471 13.55 13.9971 13 13.9971H1C0.45 13.9971 0 13.5471 0 12.9971V8.99707C0 8.44707 0.45 7.99707 1 7.99707ZM12.9984 8.99707H1.00156L1 8.99863V12.9955L1.00156 12.9971H12.9984L13 12.9955V8.99863L12.9984 8.99707Z" fill="white"/>
</svg>
