<svg width="14" height="14" viewBox="0 0 14 14" fill="none" xmlns="http://www.w3.org/2000/svg">
<path fill-rule="evenodd" clip-rule="evenodd" d="M4.51101 1.12706C4.58133 0.845772 4.41031 0.560732 4.12902 0.490409C3.84773 0.420086 3.56268 0.59111 3.49236 0.872402L0.492362 12.8724C0.422039 13.1537 0.593063 13.4387 0.874355 13.5091C1.15565 13.5794 1.44069 13.4084 1.51101 13.1271L3.1922 6.40232L3.07851 6.86499L4.36154 9.09006L6.00541 8.12066L6.47669 9.07739V9.99973C6.47669 10.2897 6.71174 10.5247 7.00169 10.5247C7.06248 10.5247 7.12086 10.5144 7.17517 10.4954L7.68703 11.5345L11.9665 11.4136L8.17615 10.8052L7.52669 8.75425V7.99973C7.52669 7.75269 7.35605 7.5455 7.12622 7.48959L6.92843 6.86499L5.06812 7.43168L3.78881 4.01588L4.51101 1.12706ZM9.49236 1.12706C9.42204 0.845772 9.59306 0.560732 9.87436 0.490409C10.1556 0.420086 10.4407 0.59111 10.511 0.872402L13.511 12.8724C13.5813 13.1537 13.4103 13.4387 13.129 13.5091C12.8477 13.5794 12.5627 13.4084 12.4924 13.1271L9.49236 1.12706ZM7.00169 0.474734C7.29164 0.474734 7.52669 0.709784 7.52669 0.999734V1.99973C7.52669 2.28968 7.29164 2.52473 7.00169 2.52473C6.71174 2.52473 6.47669 2.28968 6.47669 1.99973V0.999734C6.47669 0.709784 6.71174 0.474734 7.00169 0.474734ZM7.00169 3.47473C7.29164 3.47473 7.52669 3.70978 7.52669 3.99973V5.99973C7.52669 6.28968 7.29164 6.52473 7.00169 6.52473C6.71174 6.52473 6.47669 6.28968 6.47669 5.99973V3.99973C6.47669 3.70978 6.71174 3.47473 7.00169 3.47473ZM7.00169 11.4747C7.29164 11.4747 7.52669 11.7098 7.52669 11.9997V12.9997C7.52669 13.2897 7.29164 13.5247 7.00169 13.5247C6.71174 13.5247 6.47669 13.2897 6.47669 12.9997V11.9997C6.47669 11.7098 6.71174 11.4747 7.00169 11.4747Z" fill="white"/>
</svg>
