<svg width="14" height="16" viewBox="0 0 14 16" fill="none" xmlns="http://www.w3.org/2000/svg">
<path d="M13.0016 0.987305C12.7116 0.987305 12.4766 1.22236 12.4766 1.5123V14.0123C12.4766 14.3023 12.7116 14.5373 13.0016 14.5373C13.2915 14.5373 13.5266 14.3023 13.5266 14.0123V1.5123C13.5266 1.22236 13.2915 0.987305 13.0016 0.987305Z" fill="white"/>
<path d="M1.00156 1.4873C1.29151 1.4873 1.52656 1.72236 1.52656 2.0123V14.0123C1.52656 14.3023 1.29151 14.5373 1.00156 14.5373C0.711613 14.5373 0.476562 14.3023 0.476562 14.0123V2.0123C0.476562 1.72236 0.711613 1.4873 1.00156 1.4873Z" fill="white"/>
<path d="M7.52656 2.0123C7.52656 1.72236 7.29151 1.4873 7.00156 1.4873C6.71161 1.4873 6.47656 1.72236 6.47656 2.0123V3.0123C6.47656 3.30225 6.71161 3.5373 7.00156 3.5373C7.29151 3.5373 7.52656 3.30225 7.52656 3.0123V2.0123Z" fill="white"/>
<path d="M7.52656 5.0123C7.52656 4.72236 7.29151 4.4873 7.00156 4.4873C6.71161 4.4873 6.47656 4.72236 6.47656 5.0123V7.0123C6.47656 7.30225 6.71161 7.5373 7.00156 7.5373C7.29151 7.5373 7.52656 7.30225 7.52656 7.0123V5.0123Z" fill="white"/>
<path d="M7.52656 9.0123C7.52656 8.72235 7.29151 8.4873 7.00156 8.4873C6.71161 8.4873 6.47656 8.72235 6.47656 9.0123V11.0123C6.47656 11.3023 6.71161 11.5373 7.00156 11.5373C7.29151 11.5373 7.52656 11.3023 7.52656 11.0123V9.0123Z" fill="white"/>
<path d="M7.52656 13.0123C7.52656 12.7224 7.29151 12.4873 7.00156 12.4873C6.71161 12.4873 6.47656 12.7224 6.47656 13.0123V14.0123C6.47656 14.3023 6.71161 14.5373 7.00156 14.5373C7.29151 14.5373 7.52656 14.3023 7.52656 14.0123V13.0123Z" fill="white"/>
</svg>
