<svg width="14" height="14" viewBox="0 0 14 14" fill="none" xmlns="http://www.w3.org/2000/svg">
<path fill-rule="evenodd" clip-rule="evenodd" d="M10.525 1.05H12C12.5247 1.05 12.95 1.47533 12.95 2V12C12.95 12.5247 12.5247 12.95 12 12.95H2C1.47533 12.95 1.05 12.5247 1.05 12V2C1.05 1.47533 1.47533 1.05 2 1.05H3.475V3C3.475 3.84223 4.15777 4.525 5 4.525H9C9.84223 4.525 10.525 3.84223 10.525 3V1.05ZM9.475 1.05H4.525V3C4.525 3.26234 4.73766 3.475 5 3.475H9C9.26233 3.475 9.475 3.26234 9.475 3V1.05ZM0 2C0 0.89543 0.895431 0 2 0H12C13.1046 0 14 0.895431 14 2V12C14 13.1046 13.1046 14 12 14H2C0.89543 14 0 13.1046 0 12V2ZM3.475 7C3.475 6.71005 3.71005 6.475 4 6.475H10C10.2899 6.475 10.525 6.71005 10.525 7C10.525 7.28995 10.2899 7.525 10 7.525H4C3.71005 7.525 3.475 7.28995 3.475 7ZM4 9.475C3.71005 9.475 3.475 9.71005 3.475 10C3.475 10.2899 3.71005 10.525 4 10.525H10C10.2899 10.525 10.525 10.2899 10.525 10C10.525 9.71005 10.2899 9.475 10 9.475H4Z" fill="white" fill-opacity="0.9"/>
</svg>
