<svg width="14" height="15" viewBox="0 0 14 15" fill="none" xmlns="http://www.w3.org/2000/svg">
<path fill-rule="evenodd" clip-rule="evenodd" d="M13.5385 10.7252L8.34235 1.7252C7.74575 0.691864 6.25426 0.69186 5.65767 1.7252L0.461514 10.7252C-0.13508 11.7585 0.610661 13.0502 1.80385 13.0502H12.1962C13.3893 13.0502 14.1351 11.7585 13.5385 10.7252ZM6.56699 2.2502C6.75944 1.91686 7.24057 1.91686 7.43302 2.2502L12.6292 11.2502C12.8216 11.5835 12.5811 12.0002 12.1962 12.0002H1.80385C1.41895 12.0002 1.17839 11.5835 1.37084 11.2502L6.56699 2.2502ZM8.8096 9.28689L9.89278 10.3736C9.96148 10.4432 10 10.537 10 10.6348C10 10.7326 9.96148 10.8264 9.89278 10.896C9.82273 10.9635 9.72905 11.0008 9.63181 11C9.53457 10.9992 9.44153 10.9603 9.37263 10.8916L8.29166 9.80494C7.87268 10.114 7.37893 10.2669 6.88298 10.2669C6.25098 10.2669 5.64486 10.0158 5.19796 9.56879C4.75106 9.12181 4.5 8.51557 4.5 7.88344C4.5 7.25132 4.75106 6.64508 5.19796 6.1981C5.64486 5.75111 6.25098 5.5 6.88298 5.5C7.19587 5.49953 7.50578 5.56088 7.79489 5.68055C8.084 5.80022 8.34662 5.97584 8.56768 6.19733C8.96899 6.59927 9.21382 7.13119 9.25816 7.6975C9.30251 8.2638 9.14346 8.82736 8.8096 9.28689ZM6.25106 9.40694C6.4514 9.4899 6.66615 9.53246 6.88298 9.53217C7.09941 9.5325 7.31378 9.49013 7.5138 9.40746C7.71382 9.32479 7.89557 9.20346 8.04863 9.05042C8.28027 8.82025 8.43824 8.52639 8.50246 8.2062C8.56669 7.886 8.53426 7.55394 8.40931 7.25222C8.28435 6.95051 8.07252 6.69278 7.80073 6.51179C7.52895 6.33081 7.20949 6.23474 6.88298 6.23582C6.66664 6.23495 6.45225 6.27686 6.25216 6.35913C6.05206 6.4414 5.87019 6.56242 5.717 6.71523C5.56382 6.86803 5.44234 7.04961 5.35955 7.24953C5.27676 7.44944 5.23429 7.66376 5.23458 7.88015C5.23385 8.09702 5.27597 8.3119 5.35852 8.51244C5.44106 8.71298 5.5624 8.89524 5.71557 9.04875C5.86874 9.20225 6.05072 9.32398 6.25106 9.40694Z" fill="white" fill-opacity="0.9"/>
</svg>
