<svg width="14" height="14" viewBox="0 0 14 14" fill="none" xmlns="http://www.w3.org/2000/svg">
<path d="M5 6C6.10457 6 7 5.10457 7 4C7 2.89543 6.10457 2 5 2C3.89543 2 3 2.89543 3 4C3 5.10457 3.89543 6 5 6ZM5 4.95C4.47533 4.95 4.05 4.52467 4.05 4C4.05 3.47533 4.47533 3.05 5 3.05C5.52467 3.05 5.95 3.47533 5.95 4C5.95 4.52467 5.52467 4.95 5 4.95Z" fill="white"/>
<path d="M11.8712 6.87123L7.87123 10.8712C7.66621 11.0763 7.33379 11.0763 7.12877 10.8712L5 8.74246L2.87123 10.8712C2.66621 11.0763 2.33379 11.0763 2.12877 10.8712C1.92374 10.6662 1.92374 10.3338 2.12877 10.1288L4.62877 7.62877C4.83379 7.42374 5.16621 7.42374 5.37123 7.62877L7.5 9.75754L11.1288 6.12877C11.3338 5.92374 11.6662 5.92374 11.8712 6.12877C12.0763 6.33379 12.0763 6.66621 11.8712 6.87123Z" fill="white"/>
<path d="M2 0C0.895431 0 0 0.89543 0 2V12C0 13.1046 0.89543 14 2 14H12C13.1046 14 14 13.1046 14 12V2C14 0.895431 13.1046 0 12 0H2ZM12 1.05C12.5247 1.05 12.95 1.47533 12.95 2V12C12.95 12.5247 12.5247 12.95 12 12.95H2C1.47533 12.95 1.05 12.5247 1.05 12V2C1.05 1.47533 1.47533 1.05 2 1.05H12Z" fill="white"/>
</svg>
