<svg width="14" height="14" viewBox="0 0 14 14" fill="none" xmlns="http://www.w3.org/2000/svg">
<path d="M7.72647 5.47381C7.72528 5.39627 7.73949 5.31855 7.76911 5.24532L9.39642 1.37022C9.45599 1.22787 9.56936 1.11479 9.71187 1.0556C9.85438 0.996402 10.0145 0.995874 10.1574 1.05413C10.2293 1.0829 10.2948 1.12565 10.35 1.17991C10.4053 1.23417 10.4493 1.29886 10.4793 1.37022C10.5347 1.5093 10.5347 1.66431 10.4793 1.80339L8.94516 5.47546L10.4782 9.12609C10.5336 9.26517 10.5336 9.42018 10.4782 9.55926C10.4481 9.63062 10.4042 9.69531 10.3489 9.74957C10.2936 9.80383 10.2282 9.84658 10.1563 9.87535C10.0852 9.9024 10.0098 9.91628 9.93381 9.91633C9.81792 9.91739 9.70431 9.88402 9.6074 9.82046C9.51049 9.75689 9.43462 9.66598 9.38943 9.55926L7.76797 5.68416C7.74106 5.61659 7.72723 5.54525 7.72647 5.47381Z" fill="white"/>
<path d="M5.31859 5.72C5.3115 5.70645 5.30492 5.6926 5.29889 5.67849C5.2435 5.53941 5.2435 5.3844 5.29889 5.24532L6.93205 1.37022C6.99161 1.22787 7.10498 1.11479 7.24749 1.0556C7.39 0.996402 7.55012 0.995874 7.69302 1.05413C7.76492 1.0829 7.83041 1.12565 7.88567 1.17991C7.94093 1.23417 7.98488 1.29886 8.01497 1.37022C8.07036 1.5093 8.07036 1.66431 8.01497 1.80339L6.47801 5.46886L8.01383 9.12609C8.06922 9.26517 8.06922 9.42018 8.01383 9.55926C7.98374 9.63062 7.93979 9.69531 7.88453 9.74957C7.82927 9.80383 7.76378 9.84658 7.69188 9.87535C7.62267 9.90171 7.54934 9.91558 7.47529 9.91633H7.46944C7.35354 9.91739 7.23994 9.88402 7.14303 9.82046C7.04611 9.75689 6.97025 9.66598 6.92505 9.55926L5.31859 5.72Z" fill="white"/>
<path d="M2.80388 5.3494C2.8108 5.31407 2.82101 5.27922 2.83451 5.24532L4.46182 1.37022C4.4911 1.29612 4.53521 1.22877 4.59144 1.17231C4.64767 1.11585 4.71483 1.07146 4.78881 1.04187C4.8628 1.01227 4.94204 0.998097 5.0217 1.0002C5.10136 1.00231 5.17974 1.02066 5.25206 1.05413C5.32396 1.0829 5.38945 1.12565 5.44471 1.17991C5.49997 1.23417 5.54392 1.29886 5.57401 1.37022C5.6294 1.5093 5.6294 1.66431 5.57401 1.80339L4.01134 5.47733L5.5436 9.12609C5.59899 9.26517 5.59899 9.42018 5.5436 9.55926C5.51351 9.63062 5.46957 9.69531 5.4143 9.74957C5.35904 9.80383 5.29356 9.84658 5.22165 9.87535C5.15244 9.90171 5.07911 9.91558 5.00506 9.91633L4.99921 9.92804C4.88332 9.9291 4.76971 9.89573 4.6728 9.83216C4.57588 9.7686 4.50002 9.67769 4.45482 9.57096L2.83337 5.68416C2.79076 5.57717 2.78093 5.46075 2.80388 5.3494Z" fill="white"/>
<path d="M13.2452 13.4178C13.1585 13.4187 13.0726 13.4015 12.9929 13.3673C12.9133 13.333 12.8417 13.2824 12.7828 13.2187L11.4512 11.8269C11.1528 12.0725 10.8334 12.2937 10.4957 12.4876C9.43433 13.0972 8.23085 13.4159 7.00686 13.4115C5.16508 13.4084 3.39989 12.6741 2.0992 11.3702C0.798514 10.0662 0.0687607 8.29914 0.070315 6.45736C0.0703383 6.28893 0.137263 6.12741 0.256368 6.00832C0.375473 5.88923 0.537004 5.82233 0.705433 5.82233C0.873861 5.82233 1.03539 5.88923 1.1545 6.00832C1.2736 6.12741 1.34053 6.28893 1.34055 6.45736C1.3387 7.33147 1.53827 8.19426 1.92378 8.97877C2.3093 9.76328 2.87039 10.4484 3.56351 10.981C4.25663 11.5136 5.06314 11.8794 5.92047 12.0499C6.7778 12.2204 7.66288 12.191 8.50704 11.9641C9.3512 11.7373 10.1317 11.3189 10.7881 10.7416C11.4444 10.1643 11.9589 9.44353 12.2917 8.63521C12.6244 7.8269 12.7664 6.95279 12.7067 6.08072C12.647 5.20865 12.3871 4.36206 11.9473 3.60665C11.8781 3.46188 11.866 3.29636 11.9133 3.14305C11.9607 2.98974 12.0641 2.85991 12.2029 2.77943C12.3417 2.69894 12.5058 2.67372 12.6623 2.70878C12.8189 2.74384 12.9566 2.83661 13.0478 2.9686C13.6619 4.02742 13.9856 5.22955 13.9863 6.45355C13.9869 7.67755 13.6646 8.88004 13.0517 9.93953C12.8472 10.293 12.6128 10.6264 12.3518 10.9363L13.7018 12.3524C13.7884 12.4422 13.8466 12.5555 13.8689 12.6782C13.8913 12.8009 13.8768 12.9275 13.8274 13.042C13.7779 13.1566 13.6957 13.2539 13.5911 13.3218C13.4865 13.3897 13.3641 13.4251 13.2394 13.4236L13.2452 13.4178Z" fill="white"/>
<path d="M0.313853 5.32938C0.429173 5.40521 0.564421 5.44508 0.702435 5.44392C0.886163 5.44237 1.06184 5.3683 1.19121 5.23784C1.32058 5.10737 1.39317 4.93107 1.39316 4.74734C1.39316 4.60932 1.35215 4.47441 1.27535 4.35974C1.19855 4.24506 1.08941 4.15579 0.961782 4.10324C0.834157 4.05069 0.693798 4.03725 0.558518 4.0646C0.423237 4.09196 0.299132 4.15888 0.20195 4.25689C0.104769 4.35489 0.0388919 4.47956 0.0126789 4.61507C-0.0135341 4.75057 0.00109836 4.89081 0.0547196 5.01799C0.108341 5.14517 0.198534 5.25355 0.313853 5.32938Z" fill="white"/>
</svg>
