<svg width="14" height="14" viewBox="0 0 14 14" fill="none" xmlns="http://www.w3.org/2000/svg">
<path d="M5.19141 3.10547C5.07422 3.19531 5 3.33984 5 3.5C5 3.77734 5.22266 4 5.5 4H10.5C10.7773 4 11 3.77734 11 3.5C11 3.22266 10.7773 3 10.5 3H5.5C5.38281 3 5.27734 3.03906 5.19141 3.10547Z" fill="white"/>
<path d="M5.5 6.5C5.22266 6.5 5 6.72266 5 7C5 7.27734 5.22266 7.5 5.5 7.5H10.5C10.7773 7.5 11 7.27734 11 7C11 6.72266 10.7773 6.5 10.5 6.5H5.5Z" fill="white"/>
<path d="M5 10.5C5 10.2227 5.22266 10 5.5 10H10.5C10.7773 10 11 10.2227 11 10.5C11 10.7773 10.7773 11 10.5 11H5.5C5.22266 11 5 10.7773 5 10.5Z" fill="white"/>
<path fill-rule="evenodd" clip-rule="evenodd" d="M1 12V10H0.5C0.222656 10 0 9.77734 0 9.5C0 9.22266 0.222656 9 0.5 9H1V5H0.5C0.222656 5 0 4.77734 0 4.5C0 4.35938 0.0585938 4.23438 0.148438 4.14453C0.238281 4.05469 0.363281 4 0.5 4H1V2C1 0.894531 1.89453 0 3 0H12C13.1055 0 14 0.894531 14 2V12C14 13.1055 13.1055 14 12 14H3C1.89453 14 1 13.1055 1 12ZM3 1H12C12.5508 1 13 1.44922 13 2V12C13 12.5508 12.5508 13 12 13H3C2.63281 13 2.30859 12.7969 2.13672 12.5C2.05078 12.3555 2 12.1836 2 12V10H2.5C2.77734 10 3 9.77734 3 9.5C3 9.22266 2.77734 9 2.5 9H2V5H2.5C2.77734 5 3 4.77734 3 4.5C3 4.22266 2.77734 4 2.5 4H2V2C2 1.56641 2.28125 1.19141 2.67188 1.05469C2.77344 1.01953 2.88281 1 3 1Z" fill="white"/>
</svg>
