<svg width="17" height="22" viewBox="0 0 17 22" fill="none" xmlns="http://www.w3.org/2000/svg">
<path d="M8.5 21.5C8.2512 21.5 8.11388 21.4699 8.02644 21.3665C7.97385 21.3044 2.68659 14.9748 1.27763 11.9096C0.768618 10.8116 0.5 9.6193 0.5 8.45581C0.5 4.06802 4.08864 0.5 8.5 0.5C12.9114 0.5 16.5 4.09269 16.5 8.50748C16.5 9.84127 16.2521 10.8491 15.6445 11.9855C13.9645 15.1256 9.03005 21.2924 8.98077 21.3539C8.92188 21.4282 8.81671 21.5 8.51233 21.5H8.5V21.5ZM8.5 5.38633C6.80349 5.38633 5.42307 6.77861 5.42307 8.48974C5.42307 10.2009 6.80349 11.5932 8.5 11.5932C10.1965 11.5932 11.5769 10.2009 11.5769 8.48974C11.5769 6.77861 10.1965 5.38633 8.5 5.38633Z" fill="#AAAAAA"/>
<ellipse cx="8.49965" cy="8.75" rx="3.63636" ry="3.75" fill="white"/>
</svg>
