<?xml version="1.0" standalone="no"?><!DOCTYPE svg PUBLIC "-//W3C//DTD SVG 1.1//EN" "http://www.w3.org/Graphics/SVG/1.1/DTD/svg11.dtd"><svg t="1672044551578" class="icon" viewBox="0 0 1024 1024" version="1.1" xmlns="http://www.w3.org/2000/svg" p-id="1565" xmlns:xlink="http://www.w3.org/1999/xlink" width="200" height="200"><path d="M401.700571 279.113143l100.352 267.629714H621.714286c14.555429 0 27.794286 8.192 34.377143 21.211429l37.302857 74.752 33.938285-73.654857a38.4 38.4 0 0 1 34.889143-22.308572H877.714286a38.4 38.4 0 0 1 0 76.8h-90.916572l-57.051428 123.977143a38.4 38.4 0 0 1-69.266286 1.097143l-62.464-125.074286H475.428571a38.4 38.4 0 0 1-35.986285-24.868571L366.665143 404.48l-68.754286 193.462857a38.4 38.4 0 0 1-36.132571 25.526857H146.285714a38.4 38.4 0 1 1 0-76.8h88.356572l94.866285-266.971428a38.4 38.4 0 0 1 72.192-0.731429z" p-id="1566"></path><path d="M0 146.285714a146.285714 146.285714 0 0 1 146.285714-146.285714h731.428572a146.285714 146.285714 0 0 1 146.285714 146.285714v731.428572a146.285714 146.285714 0 0 1-146.285714 146.285714H146.285714a146.285714 146.285714 0 0 1-146.285714-146.285714V146.285714z m146.285714-69.485714a69.485714 69.485714 0 0 0-69.485714 69.485714v731.428572c0 38.4 31.085714 69.485714 69.485714 69.485714h731.428572a69.485714 69.485714 0 0 0 69.485714-69.485714V146.285714a69.485714 69.485714 0 0 0-69.485714-69.485714H146.285714z" p-id="1567"></path></svg>