<svg width="14" height="14" viewBox="0 0 14 14" fill="none" xmlns="http://www.w3.org/2000/svg">
<path d="M5.49157 3.81566L6.86383 7.475H8.5C8.69886 7.475 8.88064 7.58735 8.96957 7.76521L9.48055 8.78716L9.94419 7.78039C10.0299 7.59425 10.2161 7.475 10.4211 7.475H12C12.2899 7.475 12.525 7.71005 12.525 8C12.525 8.28995 12.2899 8.525 12 8.525H10.7573L9.97686 10.2196C9.89241 10.403 9.71029 10.5217 9.50842 10.5249C9.30655 10.5282 9.12071 10.4154 9.03043 10.2348L8.17553 8.525H6.5C6.28116 8.525 6.08527 8.38925 6.00843 8.18434L5.01333 5.53075L4.07366 8.17575C3.99927 8.38512 3.80114 8.525 3.57895 8.525H2C1.71005 8.525 1.475 8.28995 1.475 8C1.475 7.71005 1.71005 7.475 2 7.475H3.20831L4.50529 3.82425C4.57911 3.61645 4.77492 3.47694 4.99543 3.47502C5.21594 3.4731 5.41414 3.60918 5.49157 3.81566Z" fill="white" fill-opacity="0.9"/>
<path d="M0 2C0 0.89543 0.895431 0 2 0H12C13.1046 0 14 0.895431 14 2V12C14 13.1046 13.1046 14 12 14H2C0.89543 14 0 13.1046 0 12V2ZM2 1.05C1.47533 1.05 1.05 1.47533 1.05 2V12C1.05 12.5247 1.47533 12.95 2 12.95H12C12.5247 12.95 12.95 12.5247 12.95 12V2C12.95 1.47533 12.5247 1.05 12 1.05H2Z" fill="white" fill-opacity="0.9"/>
</svg>
