<svg width="14" height="14" viewBox="0 0 14 14" fill="none" xmlns="http://www.w3.org/2000/svg">
<path d="M4.66417 1H9.40351C10.0922 1.00013 10.7284 1.36762 11.0726 1.96407L13.4423 6.06953C13.7866 6.66598 13.7866 7.40075 13.4423 7.9972L11.0726 12.1028C10.7284 12.6992 10.0921 13.0667 9.40351 13.0667H4.66417C3.97553 13.0667 3.33924 12.6992 2.99504 12.1027L0.625374 7.9972C0.281125 7.40075 0.281125 6.66598 0.625374 6.06953L2.99504 1.964C3.33924 1.36755 3.97553 1 4.66417 1ZM4.66417 2.00007C4.33285 2.00007 4.02672 2.17691 3.86111 2.46387L1.49144 6.56953C1.32575 6.85663 1.32575 7.2103 1.49144 7.4974L3.86117 11.6029C4.02677 11.8899 4.3329 12.0667 4.66424 12.0667H9.40357C9.73491 12.0667 10.041 11.8899 10.2066 11.6029L12.5763 7.49733C12.742 7.21024 12.742 6.85656 12.5763 6.56947L10.2065 2.46387C10.0409 2.17691 9.73476 2.00007 9.40344 2.00007H4.66411H4.66417ZM7.00051 9.32753C5.71184 9.32753 4.66717 8.28287 4.66717 6.9942C4.66717 5.70553 5.71184 4.66087 7.00051 4.66087C8.28917 4.66087 9.33384 5.70553 9.33384 6.9942C9.33384 8.28287 8.28917 9.32753 7.00051 9.32753ZM7.00051 8.32753C7.73691 8.32753 8.33384 7.7306 8.33384 6.9942C8.33384 6.2578 7.73691 5.66087 7.00051 5.66087C6.26411 5.66087 5.66717 6.2578 5.66717 6.9942C5.66717 7.7306 6.26411 8.32753 7.00051 8.32753Z" fill="white"/>
</svg>
