<svg width="14" height="14" viewBox="0 0 14 14" fill="none" xmlns="http://www.w3.org/2000/svg">
<path d="M7.37451 4.49968H11.3745C11.6504 4.49968 11.874 4.72333 11.874 4.99921C11.874 5.2751 11.6504 5.49875 11.3745 5.49875H7.37451C7.09863 5.49875 6.87498 5.2751 6.87498 4.99921C6.87498 4.72333 7.09863 4.49968 7.37451 4.49968Z" fill="white"/>
<path d="M7.37451 8.50159H11.3745C11.6504 8.50159 11.874 8.72523 11.874 9.00112C11.874 9.277 11.6504 9.50065 11.3745 9.50065H7.37451C7.09863 9.50065 6.87498 9.277 6.87498 9.00112C6.87498 8.72523 7.09863 8.50159 7.37451 8.50159Z" fill="white"/>
<path fill-rule="evenodd" clip-rule="evenodd" d="M2.62477 9.00174C2.62477 8.03547 3.40805 7.25196 4.37455 7.25196C5.34105 7.25196 6.12432 8.03547 6.12432 9.00174C6.12432 9.96801 5.34082 10.7515 4.37455 10.7515C3.40828 10.7515 2.62477 9.96801 2.62477 9.00174ZM3.95762 9.62588C4.25531 9.82496 4.65217 9.78605 4.90552 9.53294C5.04689 9.39244 5.12616 9.20127 5.12566 9.00196C5.12571 8.64384 4.8728 8.33555 4.52157 8.2656C4.17035 8.19565 3.81862 8.38353 3.68147 8.71435C3.54432 9.04516 3.65994 9.4268 3.95762 9.62588Z" fill="white"/>
<path d="M3.87451 5.29555L5.52133 3.64878C5.7168 3.45597 6.03123 3.45706 6.22536 3.65121C6.4195 3.84536 6.42055 4.15979 6.22773 4.35524L4.22774 6.35523C4.13406 6.44892 4.007 6.50155 3.87451 6.50155C3.74202 6.50155 3.61496 6.44892 3.52128 6.35523L2.52131 5.35521C2.32623 5.16013 2.32623 4.84383 2.52131 4.64875C2.71639 4.45367 3.03269 4.45367 3.22777 4.64875L3.87451 5.29555Z" fill="white"/>
<path fill-rule="evenodd" clip-rule="evenodd" d="M2 0.000976562H11.9982C13.1028 0.000976562 13.9982 0.89641 13.9982 2.00098V11.9992C13.9982 13.1037 13.1028 13.9992 11.9982 13.9992H2C0.895433 13.9992 0 13.1037 0 11.9992V2.00098C0 0.89641 0.895433 0.000976562 2 0.000976562ZM12.7065 12.7085C12.8941 12.5212 12.9993 12.2669 12.9991 12.0019V2.00193C12.9995 1.73651 12.8944 1.48182 12.7069 1.29393C12.5194 1.10603 12.265 1.00031 11.9996 1.00004H2.00231C1.44886 1.00029 1.00006 1.44849 0.999065 2.00193V12.0019C0.999065 12.2693 1.10428 12.5192 1.29337 12.7083C1.48245 12.8974 1.73493 13.0001 2.00231 13.0001H11.9996C12.2646 13.0007 12.519 12.8957 12.7065 12.7085Z" fill="white"/>
</svg>
