<svg width="15" height="16" viewBox="0 0 15 16" fill="none" xmlns="http://www.w3.org/2000/svg">
<path fill-rule="evenodd" clip-rule="evenodd" d="M5.35084 0.900391C4.80735 0.900391 4.37542 1.36952 4.37542 1.93316V2.76593H1.85084C0.823139 2.76593 0 3.6535 0 4.73316V13.1332C0 14.2128 0.823078 15.1004 1.84916 15.1004H12.3492C13.377 15.1004 14.1983 14.2127 14.1983 13.1332V4.73332C14.2001 3.65001 13.3767 2.76593 12.3492 2.76593H9.82458V1.93316C9.82458 1.36964 9.39446 0.900391 8.84916 0.900391H5.35084ZM5.45253 2.76593V2.36168C5.46989 2.17246 5.61888 2.03147 5.7894 2.03147H8.41398C8.59567 2.03147 8.75253 2.1897 8.75253 2.3987V2.76593H5.45253ZM1.07542 4.72979C1.07542 4.26439 1.42795 3.89702 1.85084 3.89702H12.3508C12.7722 3.89702 13.1263 4.26452 13.1263 4.72979V6.96425H1.07542V4.72979ZM13.1263 8.0987V13.0332H13.1246V13.1332C13.1246 13.5986 12.7721 13.9659 12.3492 13.9659H1.85084C1.42952 13.9659 1.07542 13.5984 1.07542 13.1332V8.0987H5.28714C5.26449 8.21635 5.25084 8.33794 5.25084 8.46593C5.25084 9.5456 6.07398 10.4332 7.10169 10.4332C8.12951 10.4332 8.95084 9.54547 8.95084 8.46593C8.95084 8.33846 8.93611 8.21678 8.91295 8.0987H13.1263ZM6.32458 8.46593C6.32458 8.33377 6.3558 8.21086 6.40779 8.0987H7.79241C7.84411 8.20996 7.87542 8.33502 7.87542 8.46593C7.87542 8.93121 7.52308 9.29852 7.10033 9.29871C6.67854 9.29722 6.32458 8.9293 6.32458 8.46593Z" fill="white" fill-opacity="0.9"/>
</svg>
