<svg width="88" height="44" viewBox="0 0 88 44" fill="none" xmlns="http://www.w3.org/2000/svg">
<path d="M12.6719 4.9375V22H8.57031V4.9375H12.6719ZM31.0164 4.9375V22H26.9148L20.8797 11.3828V22H16.7664V4.9375H20.8797L26.9148 15.5547V4.9375H31.0164ZM46.5602 18.8359V22H37.4664V18.8359H46.5602ZM38.9312 4.9375V22H34.818V4.9375H38.9312ZM45.3883 11.7109V14.7695H37.4664V11.7109H45.3883ZM46.5953 4.9375V8.11328H37.4664V4.9375H46.5953ZM58.2367 17.4648C58.2367 17.1992 58.1977 16.9609 58.1195 16.75C58.0414 16.5312 57.8969 16.3281 57.6859 16.1406C57.475 15.9531 57.1703 15.7656 56.7719 15.5781C56.3812 15.3828 55.8656 15.1797 55.225 14.9688C54.475 14.7188 53.7523 14.4375 53.057 14.125C52.3617 13.8047 51.7406 13.4336 51.1937 13.0117C50.6469 12.582 50.2133 12.082 49.893 11.5117C49.5727 10.9336 49.4125 10.2617 49.4125 9.49609C49.4125 8.76172 49.5766 8.10156 49.9047 7.51562C50.2328 6.92187 50.6898 6.41797 51.2758 6.00391C51.8695 5.58203 52.5648 5.26172 53.3617 5.04297C54.1586 4.81641 55.0297 4.70312 55.975 4.70312C57.225 4.70312 58.3266 4.92188 59.2797 5.35938C60.2406 5.78906 60.9906 6.40234 61.5297 7.19922C62.0766 7.98828 62.35 8.92188 62.35 10H58.2602C58.2602 9.57031 58.1703 9.19141 57.9906 8.86328C57.8187 8.53516 57.557 8.27734 57.2055 8.08984C56.8539 7.90234 56.4125 7.80859 55.8812 7.80859C55.3656 7.80859 54.932 7.88672 54.5805 8.04297C54.2289 8.19922 53.9633 8.41016 53.7836 8.67578C53.6039 8.93359 53.5141 9.21875 53.5141 9.53125C53.5141 9.78906 53.5844 10.0234 53.725 10.2344C53.8734 10.4375 54.0805 10.6289 54.3461 10.8086C54.6195 10.9883 54.9477 11.1602 55.3305 11.3242C55.7211 11.4883 56.1586 11.6484 56.643 11.8047C57.5492 12.0938 58.3539 12.418 59.057 12.7773C59.768 13.1289 60.3656 13.5312 60.85 13.9844C61.3422 14.4297 61.7133 14.9375 61.9633 15.5078C62.2211 16.0781 62.35 16.7227 62.35 17.4414C62.35 18.207 62.2016 18.8867 61.9047 19.4805C61.6078 20.0742 61.182 20.5781 60.6273 20.9922C60.0727 21.3984 59.4086 21.707 58.6352 21.918C57.8617 22.1289 56.9984 22.2344 56.0453 22.2344C55.1703 22.2344 54.307 22.125 53.4555 21.9062C52.6117 21.6797 51.8461 21.3359 51.1586 20.875C50.4711 20.4062 49.9203 19.8086 49.5062 19.082C49.1 18.3477 48.8969 17.4766 48.8969 16.4688H53.0219C53.0219 16.9688 53.0883 17.3906 53.2211 17.7344C53.3539 18.0781 53.5492 18.3555 53.807 18.5664C54.0648 18.7695 54.3812 18.918 54.7562 19.0117C55.1312 19.0977 55.5609 19.1406 56.0453 19.1406C56.5687 19.1406 56.9906 19.0664 57.3109 18.918C57.6312 18.7617 57.8656 18.5586 58.0141 18.3086C58.1625 18.0508 58.2367 17.7695 58.2367 17.4648ZM72.9016 8.52344L68.7414 22H64.3234L70.593 4.9375H73.3937L72.9016 8.52344ZM76.3469 22L72.175 8.52344L71.6359 4.9375H74.4719L80.7766 22H76.3469ZM76.1828 15.6367V18.8125H67.4289V15.6367H76.1828Z" fill="white"/>
<path d="M21.094 33.314V35.008H26.918V33.314H21.094ZM15.102 39.88V41.574H27.898V39.88H15.102ZM20.142 29.282V40.818H21.948V29.282H20.142ZM35.22 30.696V32.194H42.584V30.696H35.22ZM35.626 33.118V34.546H40.834V33.118H35.626ZM33.246 35.876V37.402H42.878V35.876H33.246ZM35.024 38.858V40.286H42.724V38.858H35.024ZM35.234 29.1C34.8 30.71 34.002 32.306 32.994 33.272C33.386 33.482 34.1 33.958 34.408 34.238C35.416 33.118 36.34 31.312 36.872 29.464L35.234 29.1ZM34.954 33.118C34.744 35.596 34.282 38.858 33.89 40.846L35.486 40.958C35.836 38.97 36.242 35.68 36.508 33.118H34.954ZM37.614 33.65C37.516 35.54 37.264 38.032 37.04 39.586H38.482C38.692 38.088 38.93 35.596 39.07 33.65H37.614ZM40.372 33.118V33.426C40.204 38.41 39.994 40.286 39.644 40.692C39.504 40.874 39.364 40.916 39.126 40.916C38.846 40.916 38.314 40.916 37.698 40.86C37.922 41.238 38.09 41.826 38.104 42.232C38.804 42.26 39.462 42.274 39.896 42.204C40.358 42.134 40.694 41.994 41.016 41.56C41.478 40.944 41.702 39.082 41.898 33.804C41.912 33.608 41.926 33.118 41.926 33.118H40.372ZM30.25 30.43C31.062 30.822 32.056 31.466 32.532 31.942L33.54 30.598C33.036 30.122 31.986 29.562 31.188 29.212L30.25 30.43ZM29.606 34.182C30.418 34.546 31.426 35.148 31.888 35.61L32.882 34.252C32.364 33.804 31.342 33.258 30.53 32.95L29.606 34.182ZM29.872 41.196L31.384 42.12C32.028 40.748 32.714 39.096 33.26 37.584L31.93 36.66C31.3 38.312 30.46 40.104 29.872 41.196ZM50.438 30.15L48.842 30.388C49.85 36.198 51.684 40.342 56.402 42.288C56.654 41.854 57.2 41.154 57.592 40.832C53.168 39.208 51.264 35.288 50.438 30.15ZM51.362 30.024C51.908 30.892 52.51 32.068 52.72 32.796L54.134 32.026C53.896 31.298 53.266 30.178 52.692 29.352L51.362 30.024ZM55.282 29.968C54.526 34.882 52.902 39.04 47.764 40.972C48.086 41.294 48.562 41.91 48.772 42.274C54.218 40.048 56.01 35.61 56.962 30.234L55.282 29.968ZM47.274 29.17C46.56 31.172 45.356 33.16 44.082 34.434C44.362 34.84 44.824 35.764 44.978 36.17C46.504 34.574 47.96 32.054 48.87 29.66L47.274 29.17ZM45.916 33.034V42.246H47.512V31.452V31.438L45.916 33.034ZM60.938 34.14V35.68H70.094V34.14H60.938ZM64.592 29.198V39.376C64.592 41.518 65.152 42.106 67.084 42.106C67.504 42.106 69.296 42.106 69.758 42.106C71.466 42.106 71.998 41.294 72.236 39.082C71.718 38.956 70.99 38.648 70.57 38.354C70.444 40.006 70.304 40.398 69.59 40.398C69.212 40.398 67.644 40.398 67.28 40.398C66.51 40.398 66.398 40.272 66.398 39.39V29.198H64.592ZM61.204 31.13V32.782H69.142V36.982H61.204V38.62H70.864V31.13H61.204ZM60.14 31.13V39.432H61.876V31.13H60.14Z" fill="white"/>
</svg>
