<svg width="14" height="14" viewBox="0 0 14 14" fill="none" xmlns="http://www.w3.org/2000/svg">
<g clip-path="url(#clip0_1718_171103)">
<path d="M13.5001 2.5H11.0006V1.5C11.0006 0.672043 10.334 0 9.51161 0H4.49914C3.67134 0 2.99942 0.672043 2.99942 1.5V2.5H0.499904C0.223075 2.5 0 2.72312 0 3C0 3.27688 0.223075 3.5 0.499904 3.5H13.5001C13.7769 3.5 14 3.27688 14 3C14 2.72312 13.7769 2.5 13.5001 2.5ZM3.99923 1.5C3.99923 1.22581 4.225 1 4.49914 1H9.51161C9.78576 1 10.0008 1.22043 10.0008 1.5V2.5H3.99923V1.5Z" fill="white"/>
<path d="M5.25 10.8368C5.25 11.1348 5.44523 11.375 5.6875 11.375C5.92977 11.375 6.125 11.1319 6.125 10.8339V4.91324C6.125 4.61518 5.92977 4.375 5.6875 4.375C5.44523 4.375 5.25 4.61518 5.25 4.91324V10.8368Z" fill="white"/>
<path d="M7.875 10.8368C7.875 11.1348 8.07023 11.375 8.3125 11.375C8.55477 11.375 8.75 11.1319 8.75 10.8339V4.91324C8.75 4.61518 8.55477 4.375 8.3125 4.375C8.07023 4.375 7.875 4.61518 7.875 4.91324V10.8368Z" fill="white"/>
<path d="M3.32458 14H10.6726C11.5417 14 12.2472 13.317 12.25 12.4816V4.9002C12.25 4.61991 12.0158 4.39405 11.7251 4.39405C11.4345 4.39405 11.2003 4.61991 11.2003 4.9002V12.4816C11.2003 12.7618 10.9661 12.9877 10.6754 12.9877H3.32458C3.03675 12.9877 2.79972 12.7618 2.79972 12.4816V4.88115C2.79972 4.60086 2.56551 4.375 2.27486 4.375C1.98421 4.375 1.75 4.60086 1.75 4.88115V12.4816C1.75 13.3197 2.45546 14 3.32458 14Z" fill="white"/>
</g>
<defs>
<clipPath id="clip0_1718_171103">
<rect width="14" height="14" fill="white"/>
</clipPath>
</defs>
</svg>
