<svg width="14" height="14" viewBox="0 0 14 14" fill="none" xmlns="http://www.w3.org/2000/svg">
<path d="M4.12139 0.515047C4.38928 0.582021 4.55216 0.853489 4.48519 1.12139L4.23519 2.12139C4.16822 2.38928 3.89675 2.55216 3.62885 2.48519C3.36095 2.41821 3.19807 2.14675 3.26505 1.87885L3.51505 0.87885C3.58202 0.610953 3.85349 0.448073 4.12139 0.515047ZM9.87885 0.515047C10.1467 0.448073 10.4182 0.610953 10.4852 0.87885L10.7352 1.87885C10.8022 2.14675 10.6393 2.41822 10.3714 2.48519C10.1035 2.55216 9.83202 2.38928 9.76505 2.12139L9.51505 1.12139C9.44807 0.853489 9.61095 0.582021 9.87885 0.515047ZM7.00012 0.500118C7.27626 0.500118 7.50012 0.723976 7.50012 1.00012V2.00012C7.50012 2.27626 7.27626 2.50012 7.00012 2.50012C6.72398 2.50012 6.50012 2.27626 6.50012 2.00012V1.00012C6.50012 0.723976 6.72398 0.500118 7.00012 0.500118ZM10.6288 3.51505C10.8967 3.44807 11.1682 3.61095 11.2352 3.87885L11.7352 5.87885C11.8022 6.14675 11.6393 6.41821 11.3714 6.48519C11.1035 6.55216 10.832 6.38928 10.765 6.12139L10.265 4.12139C10.1981 3.85349 10.361 3.58202 10.6288 3.51505ZM3.37139 3.51505C3.63928 3.58202 3.80216 3.85349 3.73519 4.12139L3.23519 6.12139C3.16822 6.38928 2.89675 6.55216 2.62885 6.48519C2.36095 6.41822 2.19807 6.14675 2.26505 5.87885L2.76505 3.87885C2.83202 3.61095 3.10349 3.44807 3.37139 3.51505ZM7.00012 3.50012C7.27626 3.50012 7.50012 3.72398 7.50012 4.00012V6.00012C7.50012 6.27626 7.27626 6.50012 7.00012 6.50012C6.72398 6.50012 6.50012 6.27626 6.50012 6.00012V4.00012C6.50012 3.72398 6.72398 3.50012 7.00012 3.50012ZM11.6288 7.51505C11.8967 7.44807 12.1682 7.61095 12.2352 7.87885L12.7352 9.87885C12.8022 10.1467 12.6393 10.4182 12.3714 10.4852C12.1035 10.5522 11.832 10.3893 11.765 10.1214L11.265 8.12139C11.1981 7.85349 11.361 7.58202 11.6288 7.51505ZM2.37139 7.51505C2.63928 7.58202 2.80216 7.85349 2.73519 8.12139L2.23519 10.1214C2.16822 10.3893 1.89675 10.5522 1.62885 10.4852C1.36095 10.4182 1.19807 10.1467 1.26505 9.87885L1.76505 7.87885C1.83202 7.61095 2.10349 7.44807 2.37139 7.51505ZM7.00012 7.50012C7.27626 7.50012 7.50012 7.72398 7.50012 8.00012V10.0001C7.50012 10.2763 7.27626 10.5001 7.00012 10.5001C6.72398 10.5001 6.50012 10.2763 6.50012 10.0001V8.00012C6.50012 7.72398 6.72398 7.50012 7.00012 7.50012ZM1.37139 11.515C1.63928 11.582 1.80216 11.8535 1.73519 12.1214L1.48519 13.1214C1.41822 13.3893 1.14675 13.5522 0.87885 13.4852C0.610953 13.4182 0.448073 13.1467 0.515047 12.8788L0.765047 11.8789C0.832021 11.611 1.10349 11.4481 1.37139 11.515ZM12.6289 11.515C12.8967 11.4481 13.1682 11.611 13.2352 11.8789L13.4852 12.8788C13.5522 13.1467 13.3893 13.4182 13.1214 13.4852C12.8535 13.5522 12.582 13.3893 12.515 13.1214L12.265 12.1214C12.1981 11.8535 12.361 11.582 12.6289 11.515ZM7.00012 11.5001C7.27626 11.5001 7.50012 11.724 7.50012 12.0001V13.0001C7.50012 13.2763 7.27626 13.5001 7.00012 13.5001C6.72398 13.5001 6.50012 13.2763 6.50012 13.0001V12.0001C6.50012 11.724 6.72398 11.5001 7.00012 11.5001Z" fill="white"/>
</svg>
