<svg width="14" height="14" viewBox="0 0 14 14" fill="none" xmlns="http://www.w3.org/2000/svg">
<path d="M6.4515 5.02036C6.4515 4.73318 6.68431 4.50037 6.97149 4.50037C7.25867 4.50037 7.49148 4.73318 7.49148 5.02036V8.98038C7.49148 9.26756 7.25867 9.50037 6.97149 9.50037C6.68431 9.50037 6.4515 9.26756 6.4515 8.98038V5.02036Z" fill="white"/>
<path d="M6.4515 10.5004C6.4515 10.2242 6.67536 10.0004 6.9515 10.0004H6.99148C7.26762 10.0004 7.49148 10.2242 7.49148 10.5004C7.49148 10.7765 7.26762 11.0004 6.99148 11.0004H6.9515C6.67536 11.0004 6.4515 10.7765 6.4515 10.5004Z" fill="white"/>
<path d="M13.6774 10.7282L8.2563 1.69953C7.6736 0.729067 6.26701 0.729061 5.68431 1.69953L0.263199 10.7282C-0.337099 11.728 0.383036 13.0004 1.54919 13.0004H12.3914C13.5576 13.0004 14.2777 11.728 13.6774 10.7282ZM6.54164 2.2143C6.73587 1.89081 7.20474 1.89081 7.39897 2.2143L12.8201 11.243C13.0202 11.5762 12.7801 12.0004 12.3914 12.0004H1.54919C1.16047 12.0004 0.920429 11.5762 1.12053 11.243L6.54164 2.2143Z" fill="white"/>
</svg>
