<svg width="168" height="168" viewBox="0 0 168 168" fill="none" xmlns="http://www.w3.org/2000/svg">
<path fill-rule="evenodd" clip-rule="evenodd" d="M46.5094 41.789C44.749 41.3173 42.9394 42.3621 42.4677 44.1225L32.3738 81.7936C31.9021 83.5541 32.9468 85.3636 34.7072 85.8353L47.8565 89.3586C49.4054 89.7736 49.6794 91.8543 48.2906 92.6561L22.0001 107.835C21.7131 108.001 21.6148 108.368 21.7804 108.655L23.5804 111.772C23.7461 112.059 24.1131 112.158 24.4001 111.992L57.9652 92.613C58.3786 92.3743 58.8699 92.3096 59.3311 92.4332L62.7463 93.3483C63.5332 93.5592 64.0804 94.2723 64.0804 95.087V115.335C64.0804 115.666 64.3491 115.935 64.6804 115.935H69.4804C69.8118 115.935 70.0804 115.666 70.0804 115.335V97.6593C70.0804 96.4757 71.2031 95.6143 72.3463 95.9206L99.6672 103.241C99.8209 103.282 99.9847 103.261 100.122 103.181L109.612 97.7023C109.75 97.6227 109.851 97.4916 109.892 97.3379L115.185 77.5833C115.271 77.2632 115.6 77.0733 115.92 77.1591L134.438 82.1209C134.636 82.1739 134.847 82.1223 134.998 81.9841L148.128 69.9729C148.477 69.6531 148.335 69.0733 147.878 68.9506L138.949 66.558L46.5094 41.789ZM96.2024 97.9646C96.1167 98.2847 96.3066 98.6137 96.6267 98.6995L101.263 99.9418C101.583 100.028 101.912 99.8376 101.998 99.5175L103.24 94.8811C103.326 94.561 103.136 94.232 102.816 94.1462L98.1796 92.9039C97.8595 92.8181 97.5305 93.0081 97.4448 93.3282L96.2024 97.9646ZM111.476 99.2145C111.4 99.0534 111.201 98.9936 111.049 99.0859L103.406 103.718C103.18 103.855 103.229 104.196 103.484 104.264L114.907 107.325C115.157 107.392 115.369 107.131 115.252 106.899L113.01 102.468L111.476 99.2145ZM118.6 81.6042C117.64 81.3469 116.653 81.9167 116.396 82.877L113.445 93.8885C113.188 94.8488 113.758 95.8358 114.718 96.0931L115.297 96.2484C116.258 96.5057 117.245 95.9358 117.502 94.9756L120.452 83.964C120.71 83.0038 120.14 82.0168 119.18 81.7595L118.6 81.6042ZM40.9394 60.7951C40.8537 61.1152 41.0436 61.4442 41.3637 61.5299L104.535 78.4567C104.855 78.5425 105.184 78.3525 105.27 78.0324L105.399 77.5516L110.035 71.234L134.528 77.7969C134.848 77.8826 135.177 77.6927 135.263 77.3726L136.505 72.7362C136.591 72.4161 136.401 72.0871 136.081 72.0013L108.814 64.6952L108.373 64.3716C108.106 64.1756 107.731 64.2332 107.535 64.5004L102.292 71.644L42.9166 55.7344C42.5965 55.6486 42.2675 55.8386 42.1818 56.1586L40.9394 60.7951Z" fill="#A7B2C8"/>
<rect x="46" y="32.5156" width="9.3" height="25.5" fill="white"/>
<path d="M74.1806 60.2182L53.6656 27.0668C53.3588 26.5997 52.936 26.2152 52.4361 25.9489C51.9362 25.6826 51.3753 25.543 50.8052 25.543C50.2352 25.543 49.6743 25.6826 49.1744 25.9489C48.6745 26.2152 48.2516 26.5997 47.9449 27.0668L27.4265 60.2182C26.084 62.5867 27.7672 65.293 30.1182 65.293H70.8176C73.8466 65.293 75.5264 62.5867 74.1806 60.2182ZM50.9739 59.2046C49.9653 59.2046 49.2907 58.5256 49.2907 57.5152C49.2907 56.4983 49.9653 55.8193 50.9739 55.8193C51.9824 55.8193 52.6537 56.4983 52.6537 57.5119C52.6537 58.5256 51.9824 59.2013 50.9739 59.2013V59.2046ZM52.6537 51.4203C52.6537 52.4372 51.9824 53.1129 50.9739 53.1129C49.9653 53.1129 49.2907 52.4372 49.2907 51.4236V41.2741C49.2907 40.2605 49.9653 39.5847 50.9739 39.5847C51.9824 39.5847 52.6537 40.2605 52.6537 41.2741V51.4236V51.4203Z" fill="#F8C71B"/>
<path d="M42.016 143.739V144.683C41.264 144.747 40.48 144.827 39.664 144.907V146.139H38.608V144.987C37.552 145.051 36.432 145.131 35.28 145.195L35.136 144.171C36.352 144.107 37.52 144.059 38.608 143.995V142.667H35.632L35.376 141.755C35.824 141.243 36.256 140.635 36.64 139.915H34.928V138.891H37.152C37.296 138.539 37.44 138.187 37.568 137.835L38.72 138.027C38.608 138.315 38.496 138.603 38.368 138.891H42.272V139.915H37.888C37.536 140.587 37.152 141.195 36.752 141.723H38.608V140.667H39.664V141.723H42.16V142.667H39.664V143.931C40.496 143.867 41.28 143.803 42.016 143.739ZM44.256 142.683C44.08 144.027 43.648 145.195 42.96 146.187L42.16 145.355C42.864 144.315 43.248 143.083 43.28 141.643V139.131C45.264 138.939 46.832 138.587 47.952 138.075L48.688 138.939C47.504 139.451 46.064 139.819 44.336 140.011V141.675H49.136V142.683H47.44V146.155H46.336V142.683H44.256ZM47.344 146.619V152.635H46.16V152.011H38.032V152.635H36.848V146.619H47.344ZM38.032 151.019H46.16V149.771H38.032V151.019ZM38.032 148.843H46.16V147.595H38.032V148.843ZM52.928 138.827H64.416V139.947H58.688V141.019C58.656 142.011 58.592 142.955 58.48 143.819H65.712V144.923H60.752V150.507C60.752 151.019 61.008 151.291 61.52 151.291H63.552C63.936 151.291 64.224 151.179 64.4 150.971C64.624 150.715 64.768 149.979 64.848 148.731L65.936 149.083C65.808 150.651 65.568 151.595 65.216 151.947C64.912 152.235 64.432 152.379 63.76 152.379H61.168C60.112 152.379 59.6 151.835 59.6 150.747V144.923H58.304C58.048 146.315 57.648 147.515 57.104 148.539C56.112 150.267 54.512 151.627 52.288 152.587L51.648 151.563C53.856 150.571 55.376 149.275 56.24 147.643C56.624 146.843 56.912 145.931 57.12 144.923H51.856V143.819H57.312C57.44 142.955 57.504 142.011 57.52 141.019V139.947H52.928V138.827ZM70.656 145.995C70.048 146.635 69.36 147.275 68.624 147.915L68.272 146.715C70.416 144.875 71.856 143.083 72.576 141.323H68.64V140.219H71.136C70.864 139.499 70.544 138.811 70.176 138.139L71.28 137.819C71.664 138.619 71.968 139.371 72.192 140.043L71.728 140.219H73.728V141.195C73.312 142.363 72.672 143.515 71.808 144.651C72.688 145.195 73.488 145.819 74.192 146.507L73.536 147.499C72.96 146.859 72.368 146.315 71.792 145.867V152.635H70.656V145.995ZM81.712 138.603V147.451H80.544V139.707H76.048V147.451H74.912V138.603H81.712ZM81.376 152.379H79.84C78.96 152.379 78.528 151.915 78.528 150.987V147.419H79.648V150.747C79.648 151.131 79.824 151.323 80.176 151.323H81.168C81.408 151.323 81.568 151.227 81.664 151.067C81.792 150.859 81.888 150.251 81.936 149.259L83.008 149.595C82.912 150.907 82.736 151.723 82.48 152.011C82.24 152.251 81.872 152.379 81.376 152.379ZM77.712 140.843H78.832V143.899C78.768 146.299 78.352 148.203 77.584 149.627C76.816 150.955 75.584 151.995 73.856 152.731L73.232 151.723C74.912 150.987 76.08 150.027 76.736 148.811C77.344 147.563 77.68 145.915 77.712 143.899V140.843ZM88.368 137.963H89.488V139.851H91.664V140.939H89.488V142.795H91.856V143.915H85.104V142.795H86.032V139.259H87.136V142.795H88.368V137.963ZM91.008 145.259L92.016 145.483C91.312 149.051 89.264 151.403 85.872 152.523L85.216 151.483C88.432 150.491 90.368 148.411 91.008 145.259ZM86.432 145.323L87.44 145.723C87.056 147.227 86.576 148.379 85.968 149.179L85.12 148.443C85.696 147.659 86.144 146.619 86.432 145.323ZM88.336 144.539H89.44V148.715H88.336V144.539ZM92.112 138.603H99.632V139.691H96.432C96.384 140.299 96.32 140.875 96.24 141.451H99.056V149.051H97.936V142.523H93.792V149.051H92.688V141.451H95.04C95.136 140.875 95.2 140.299 95.248 139.691H92.112V138.603ZM97.04 149.131C98.128 150.043 99.056 150.939 99.808 151.835L98.96 152.683C98.304 151.803 97.408 150.859 96.272 149.867L97.04 149.131ZM95.264 143.483H96.384V146.315C96.352 148.027 95.984 149.387 95.312 150.411C94.656 151.355 93.584 152.091 92.08 152.619L91.44 151.627C92.864 151.115 93.856 150.459 94.416 149.659C94.944 148.795 95.232 147.691 95.264 146.315V143.483ZM106.544 145.755V147.915H108.72V145.755H106.544ZM109.728 147.915H111.92V145.755H109.728V147.915ZM111.92 144.795V142.667H109.728V144.795H111.92ZM108.72 142.667H106.544V144.795H108.72V142.667ZM102.096 138.859H116.304V139.979H102.096V138.859ZM114.56 142.779H115.68V152.603H114.56V151.739H103.872V152.603H102.752V142.827H103.872V150.651H114.56V142.779ZM105.424 141.611H113.024V148.971H105.424V141.611ZM118.88 138.603H133.12V139.723H126.704C126.576 140.427 126.368 141.115 126.112 141.771H132.256V152.683H131.152V151.883H120.896V152.683H119.792V141.771H124.944C125.2 141.099 125.408 140.427 125.536 139.723H118.88V138.603ZM120.896 150.827H123.104V142.811H120.896V150.827ZM124.176 150.827H127.824V148.779H124.176V150.827ZM128.896 150.827H131.152V142.811H128.896V150.827ZM124.176 147.771H127.824V145.819H124.176V147.771ZM124.176 144.795H127.824V142.811H124.176V144.795Z" fill="#868E9D"/>
</svg>
