<svg width="186" height="150" viewBox="0 0 186 150" fill="none" xmlns="http://www.w3.org/2000/svg">
<path d="M167.4 97.3814C167.4 96.8453 167.263 96.3182 167.002 95.8508C166.742 95.3834 166.366 94.9915 165.912 94.7127L132.5 74.1877C131.862 73.7953 131.104 73.6488 130.367 73.7751C129.63 73.9015 128.963 74.2921 128.489 74.8752L113.764 92.9627L113.565 93.1877C112.985 93.7743 112.197 94.1046 111.375 94.1058C110.553 94.1069 109.764 93.7789 109.182 93.1939L60.1957 43.9627C59.6312 43.3964 58.8726 43.0702 58.0765 43.0516C57.2803 43.033 56.5075 43.3233 55.9177 43.8627L19.6167 77.1939C19.296 77.4861 19.0399 77.843 18.8647 78.2413C18.6896 78.6397 18.5993 79.0707 18.5999 79.5064V131.25H167.4V97.3814V97.3814Z" fill="#CED0D6" fill-opacity="0.4"/>
<path d="M136.4 37.5039C136.4 40.8191 137.707 43.9985 140.032 46.3427C142.357 48.6869 145.511 50.0039 148.8 50.0039C152.089 50.0039 155.243 48.6869 157.568 46.3427C159.894 43.9985 161.2 40.8191 161.2 37.5039C161.2 34.1887 159.894 31.0093 157.568 28.6651C155.243 26.3209 152.089 25.0039 148.8 25.0039C145.511 25.0039 142.357 26.3209 140.032 28.6651C137.707 31.0093 136.4 34.1887 136.4 37.5039Z" fill="#CED0D6" fill-opacity="0.4"/>
<path d="M0 0V150H186V0H0ZM173.6 137.5H12.4V12.5H173.6V137.5Z" fill="#CED0D6" fill-opacity="0.4"/>
</svg>
