<svg width="24" height="24" viewBox="0 0 24 24" fill="none" xmlns="http://www.w3.org/2000/svg">
<g opacity="0.6">
<path d="M6.41887 1.91394C6.68195 1.65149 7.03969 1.50266 7.41372 1.50004C7.78776 1.49741 8.1476 1.64121 8.41444 1.89993L17.6003 10.9693C17.887 11.2494 18.0119 11.6221 17.9977 11.9947C18.0089 12.185 17.9793 12.3754 17.9108 12.5535C17.8424 12.7317 17.7365 12.8936 17.6003 13.0286L8.4116 22.0979C7.86942 22.6387 6.97525 22.6331 6.42171 22.0867C5.86818 21.5404 5.8625 20.6578 6.40468 20.1171L14.6282 12.0003L6.40752 3.88078C6.27729 3.75097 6.17426 3.5971 6.10434 3.42795C6.03442 3.25881 5.99897 3.07771 6.00002 2.89503C6.00108 2.71236 6.03861 2.53167 6.11048 2.36333C6.18236 2.19498 6.28715 2.04227 6.41887 1.91394V1.91394Z" fill="white"/>
</g>
</svg>
