<svg width="24" height="24" viewBox="0 0 24 24" fill="none" xmlns="http://www.w3.org/2000/svg">
<g opacity="0.6">
<path d="M17.5811 22.0861C17.318 22.3485 16.9603 22.4973 16.5863 22.5C16.2122 22.5026 15.8524 22.3588 15.5856 22.1001L6.39974 13.0307C6.11303 12.7506 5.98813 12.3779 6.00233 12.0053C5.99109 11.815 6.02068 11.6246 6.08916 11.4465C6.15765 11.2683 6.26348 11.1064 6.39974 10.9714L15.5884 1.90208C16.1306 1.36134 17.0248 1.36694 17.5783 1.91329C18.1318 2.45963 18.1375 3.34219 17.5953 3.88294L9.37179 11.9997L17.5925 20.1192C17.7227 20.249 17.8257 20.4029 17.8957 20.572C17.9656 20.7412 18.001 20.9223 18 21.105C17.9989 21.2876 17.9614 21.4683 17.8895 21.6367C17.8176 21.805 17.7128 21.9577 17.5811 22.0861V22.0861Z" fill="white"/>
</g>
</svg>
