<svg width="11" height="14" viewBox="0 0 11 14" fill="none" xmlns="http://www.w3.org/2000/svg">
<path d="M5.5 14C5.32895 14 5.23455 13.9799 5.17443 13.911C5.13827 13.8696 1.50328 9.64988 0.534623 7.60639C0.184675 6.87438 0 6.07953 0 5.30387C0 2.37868 2.46719 0 5.5 0C8.53281 0 11 2.39513 11 5.33832C11 6.22751 10.8296 6.89937 10.4119 7.65703C9.25687 9.75042 5.86441 13.8616 5.83053 13.9026C5.79004 13.9521 5.71774 14 5.50847 14H5.5V14ZM5.5 3.25755C4.33365 3.25755 3.38461 4.18574 3.38461 5.3265C3.38461 6.46725 4.33365 7.39544 5.5 7.39544C6.66635 7.39544 7.61539 6.46725 7.61539 5.3265C7.61539 4.18574 6.66635 3.25755 5.5 3.25755Z" fill="#AAAAAA"/>
</svg>
