<svg width="22" height="34" viewBox="0 0 22 34" fill="none" xmlns="http://www.w3.org/2000/svg">
<circle cx="11" cy="11" r="10" fill="white" stroke="#FF0F00" stroke-width="2"/>
<path d="M12.392 12.732H15.248V11.952H9.068V12.732H11.48V14.832H7.928V15.624H16.04V14.832H12.392V12.732ZM11.432 10.248V9.156H15.236V8.4H11.432V7.356H15.836V6.564H13.316C13.604 6.18 13.928 5.688 14.216 5.208L13.28 4.944C13.076 5.412 12.704 6.096 12.404 6.528L12.5 6.564H9.416L9.596 6.48C9.44 6.06 9.032 5.448 8.636 4.992L7.88 5.304C8.192 5.688 8.492 6.168 8.684 6.564H6.248V7.356H10.532V8.4H6.824V9.156H10.532V10.248H5.708V11.052H8.144C7.688 12.9 6.824 14.388 5.504 15.3C5.732 15.444 6.092 15.768 6.248 15.924C7.628 14.844 8.576 13.176 9.092 11.052H16.28V10.248H11.432Z" fill="#FF0F00"/>
<path d="M11 34L8.40192 21.25L13.5981 21.25L11 34Z" fill="#FF0F00"/>
</svg>
