<svg width="32" height="32" viewBox="0 0 32 32" fill="none" xmlns="http://www.w3.org/2000/svg">
<g opacity="0.2">
<path fill-rule="evenodd" clip-rule="evenodd" d="M2.46211 19.5524C4.12068 25.8322 9.84732 30 16.0992 30C17.2788 30 18.4776 29.8516 19.671 29.5408C24.9692 28.1633 29.0155 23.8127 29.9791 18.4573C30.1077 17.7438 29.6294 17.0623 28.9105 16.9347C28.1968 16.806 27.5056 17.282 27.3774 17.9956C26.594 22.3476 23.3065 25.8829 19.0012 27.0022C12.8926 28.5937 6.6207 24.9517 5.01872 18.887C3.41778 12.8206 7.08552 6.59187 13.1946 5.00208C16.1547 4.23171 19.2382 4.65181 21.8787 6.18522C24.5196 7.71824 26.4012 10.1807 27.1769 13.1187C27.3623 13.8199 28.0863 14.2402 28.7905 14.0552C29.4964 13.8716 29.9189 13.1544 29.7339 12.4533C28.7793 8.83713 26.4632 5.80659 23.2127 3.91952C19.9631 2.03325 16.1671 1.51474 12.5243 2.46361C5.00556 4.42011 0.49164 12.0861 2.46211 19.5524ZM13.6446 17.3136L22.6247 17.314C23.3543 17.314 23.9462 16.7264 23.9462 16.0018C23.9462 15.2772 23.3547 14.6896 22.6247 14.6896L13.6456 14.6893L17.4455 10.9163C17.9617 10.404 17.9617 9.57321 17.4455 9.06086C16.9293 8.54829 16.093 8.54829 15.5768 9.06086L9.5625 15.0325C9.54787 15.0458 9.53347 15.0595 9.51931 15.0736C9.261 15.33 9.13195 15.6661 9.13216 16.0023C9.13195 16.3383 9.26101 16.6744 9.51933 16.9308C9.53221 16.9436 9.54529 16.9561 9.55856 16.9682L15.5772 22.9434C15.8353 23.1994 16.1734 23.3276 16.5115 23.3276C16.8497 23.3276 17.1882 23.1994 17.4459 22.9432C17.9621 22.4308 17.9621 21.5998 17.4459 21.0874L13.6446 17.3136Z" fill="#263141"/>
</g>
</svg>
