<svg width="24" height="24" viewBox="0 0 24 24" fill="none" xmlns="http://www.w3.org/2000/svg">
<g opacity="0.9">
<mask id="path-1-outside-1_5227_97056" maskUnits="userSpaceOnUse" x="1" y="0.0478516" width="22" height="24" fill="black">
<rect fill="white" x="1" y="0.0478516" width="22" height="24"/>
<path fill-rule="evenodd" clip-rule="evenodd" d="M6 1.04785C3.79086 1.04785 2 2.83871 2 5.04785L2 15.7551C2 17.9643 3.79086 19.7551 6 19.7551H9.14039L11.3166 21.7892C11.701 22.1485 12.298 22.1485 12.6823 21.7892L14.8586 19.7551H18C20.2091 19.7551 22 17.9643 22 15.7551L22 5.04785C22 2.83871 20.2091 1.04785 18 1.04785L6 1.04785Z"/>
</mask>
<path fill-rule="evenodd" clip-rule="evenodd" d="M6 1.04785C3.79086 1.04785 2 2.83871 2 5.04785L2 15.7551C2 17.9643 3.79086 19.7551 6 19.7551H9.14039L11.3166 21.7892C11.701 22.1485 12.298 22.1485 12.6823 21.7892L14.8586 19.7551H18C20.2091 19.7551 22 17.9643 22 15.7551L22 5.04785C22 2.83871 20.2091 1.04785 18 1.04785L6 1.04785Z" fill="#E94141"/>
<path d="M9.14039 19.7551L9.82323 19.0245L9.53496 18.7551H9.14039V19.7551ZM11.3166 21.7892L10.6338 22.5198L11.3166 21.7892ZM12.6823 21.7892L11.9995 21.0586L12.6823 21.7892ZM14.8586 19.7551V18.7551H14.464L14.1758 19.0245L14.8586 19.7551ZM3 5.04785C3 3.391 4.34315 2.04785 6 2.04785V0.0478516C3.23858 0.0478516 1 2.28643 1 5.04785H3ZM3 15.7551L3 5.04785H1L1 15.7551H3ZM6 18.7551C4.34315 18.7551 3 17.412 3 15.7551H1C1 18.5165 3.23858 20.7551 6 20.7551L6 18.7551ZM9.14039 18.7551H6L6 20.7551H9.14039V18.7551ZM11.9995 21.0586L9.82323 19.0245L8.45754 20.4857L10.6338 22.5198L11.9995 21.0586ZM11.9995 21.0586L10.6338 22.5198C11.4025 23.2383 12.5965 23.2383 13.3652 22.5198L11.9995 21.0586ZM14.1758 19.0245L11.9995 21.0586L13.3652 22.5198L15.5414 20.4857L14.1758 19.0245ZM18 18.7551H14.8586V20.7551H18V18.7551ZM21 15.7551C21 17.412 19.6569 18.7551 18 18.7551V20.7551C20.7614 20.7551 23 18.5165 23 15.7551H21ZM21 5.04785L21 15.7551H23L23 5.04785H21ZM18 2.04785C19.6569 2.04785 21 3.391 21 5.04785H23C23 2.28643 20.7614 0.0478516 18 0.0478516V2.04785ZM6 2.04785L18 2.04785V0.0478516L6 0.0478516V2.04785Z" fill="white" mask="url(#path-1-outside-1_5227_97056)"/>
</g>
<path d="M7.45917 6.004V7.404H10.7352V16H12.3732V7.404H15.6492V6.004H7.45917Z" fill="white"/>
</svg>
