<svg width="16" height="16" viewBox="0 0 16 16" fill="none" xmlns="http://www.w3.org/2000/svg">
<path d="M7.46643 13.8132H8.53309V12.7999H7.46643V13.8132ZM7.46643 15.4132H8.53309V14.3999H7.46643V15.4132ZM7.46643 12.2132H8.53309V11.1999H7.46643V12.2132ZM8.05309 0.533203C3.94643 0.533203 0.586426 3.8932 0.586426 7.99987V14.9332C0.586426 15.1465 0.746426 15.3599 0.959759 15.4665H1.11976C1.27976 15.4665 1.43976 15.3599 1.54643 15.1999L4.53309 10.6665H11.4131L14.5064 15.2532C14.6131 15.4665 14.8798 15.5199 15.0931 15.4665C15.3064 15.4132 15.4664 15.1999 15.4664 14.9332V7.99987C15.5198 3.8932 12.1598 0.533203 8.05309 0.533203ZM11.1998 9.59987H4.79976V7.99987C4.79976 6.23987 6.23976 4.79987 7.99976 4.79987C9.75976 4.79987 11.1998 6.23987 11.1998 7.99987V9.59987ZM14.4531 13.1732L12.2664 9.9732V7.99987C12.2664 5.6532 10.3464 3.7332 7.99976 3.7332C5.65309 3.7332 3.73309 5.6532 3.73309 7.99987V9.9732L1.65309 13.1199V7.99987C1.65309 4.47987 4.53309 1.59987 8.05309 1.59987C11.5731 1.59987 14.4531 4.47987 14.4531 7.99987V13.1732Z" fill="white"/>
</svg>
