<svg width="21" height="28" viewBox="0 0 21 28" fill="none" xmlns="http://www.w3.org/2000/svg">
<path d="M10.5 28C10.1735 28 9.99322 27.9598 9.87845 27.8221C9.80943 27.7392 2.86989 19.2998 1.02064 15.2128C0.352561 13.7488 0 12.1591 0 10.6077C0 4.75736 4.71009 0 10.5 0C16.2899 0 21 4.79025 21 10.6766C21 12.455 20.6746 13.7987 19.8772 15.3141C17.6722 19.5008 11.1957 27.7232 11.131 27.8053C11.0537 27.9043 10.9157 28 10.5162 28H10.5V28ZM10.5 6.51511C8.27333 6.51511 6.46152 8.37148 6.46152 10.653C6.46152 12.9345 8.27333 14.7909 10.5 14.7909C12.7267 14.7909 14.5385 12.9345 14.5385 10.653C14.5385 8.37148 12.7267 6.51511 10.5 6.51511Z" fill="#36C626"/>
<circle cx="10.5" cy="10.5" r="8.5" fill="white"/>
<path d="M14.96 8.82H11.576V12.72C11.576 13.728 11.9 13.992 13.016 13.992H15.116C16.136 13.992 16.388 13.548 16.508 11.856C16.256 11.784 15.896 11.652 15.704 11.508C15.656 12.936 15.56 13.176 15.056 13.176H13.1C12.524 13.176 12.44 13.116 12.44 12.72V9.612H14.96V9.912H15.824V5.532H11.456V6.324H14.96V8.82ZM8.948 11.976H10.892V11.184H8.948V9.408H11.012V8.616H8.768V7.092H10.7V6.312H8.768V4.98H7.916V6.312H5.936V7.092H7.916V8.616H5.624V9.408H8.132V13.956C7.628 13.548 7.256 12.948 6.992 12.072C7.028 11.544 7.052 10.992 7.064 10.416L6.224 10.356C6.188 12.48 6.056 14.388 5.372 15.588C5.564 15.684 5.96 15.9 6.104 16.02C6.452 15.348 6.68 14.52 6.824 13.572C7.7 15.216 9.116 15.612 11.66 15.612H16.232C16.292 15.348 16.46 14.94 16.592 14.724C15.872 14.76 12.224 14.76 11.648 14.748C10.532 14.748 9.644 14.664 8.948 14.4V11.976Z" fill="#36C626"/>
</svg>
