<svg width="21" height="28" viewBox="0 0 21 28" fill="none" xmlns="http://www.w3.org/2000/svg">
<path d="M10.5 28C10.1735 28 9.99322 27.9598 9.87845 27.8221C9.80943 27.7392 2.86989 19.2998 1.02064 15.2128C0.352561 13.7488 0 12.1591 0 10.6077C0 4.75736 4.71009 0 10.5 0C16.2899 0 21 4.79025 21 10.6766C21 12.455 20.6746 13.7987 19.8772 15.3141C17.6722 19.5008 11.1957 27.7232 11.131 27.8053C11.0537 27.9043 10.9157 28 10.5162 28H10.5V28ZM10.5 6.51511C8.27333 6.51511 6.46152 8.37148 6.46152 10.653C6.46152 12.9345 8.27333 14.7909 10.5 14.7909C12.7267 14.7909 14.5385 12.9345 14.5385 10.653C14.5385 8.37148 12.7267 6.51511 10.5 6.51511Z" fill="#FF2525"/>
<circle cx="10.5" cy="10.5" r="8.5" fill="white"/>
<path d="M5.624 15.204L9.8 14.34L9.728 13.548C8.156 13.86 6.536 14.172 5.468 14.34L5.624 15.204ZM10.46 14.028C12.08 14.46 14.048 15.276 15.14 15.912L15.656 15.204C14.564 14.604 12.584 13.812 10.988 13.392L10.46 14.028ZM11.768 11.82C12.632 12.156 13.7 12.744 14.252 13.164L14.792 12.552C14.216 12.132 13.16 11.568 12.296 11.256L11.768 11.82ZM11.852 6.996H14.564C14.204 7.656 13.724 8.268 13.172 8.808C12.632 8.268 12.164 7.668 11.804 7.056L11.852 6.996ZM15.2 6.168L15.044 6.216H12.344C12.56 5.844 12.752 5.472 12.908 5.112L11.984 4.956C11.54 6.024 10.7 7.332 9.464 8.316L9.68 7.968L8.936 7.524C8.696 7.956 8.444 8.412 8.168 8.82L6.62 8.964C7.34 7.92 8.06 6.6 8.6 5.304L7.748 4.944C7.244 6.396 6.368 7.932 6.104 8.328C5.84 8.736 5.636 9.024 5.42 9.072C5.528 9.3 5.672 9.72 5.72 9.912C5.888 9.828 6.176 9.768 7.652 9.6C7.136 10.356 6.656 10.956 6.428 11.196C6.056 11.616 5.768 11.916 5.516 11.964C5.612 12.18 5.744 12.588 5.792 12.768C6.056 12.636 6.464 12.552 9.548 12.06C9.524 11.892 9.512 11.544 9.512 11.304L6.992 11.652C7.868 10.704 8.708 9.552 9.44 8.364C9.656 8.472 9.932 8.748 10.076 8.952C10.532 8.556 10.952 8.148 11.3 7.716C11.66 8.292 12.092 8.832 12.572 9.336C11.66 10.068 10.628 10.656 9.572 11.04C9.764 11.196 10.028 11.544 10.136 11.76C11.18 11.328 12.236 10.716 13.172 9.924C14.048 10.716 15.044 11.364 16.076 11.772C16.22 11.544 16.46 11.208 16.676 11.04C15.656 10.68 14.648 10.092 13.784 9.36C14.6 8.544 15.284 7.596 15.764 6.504L15.2 6.168Z" fill="#FF2525"/>
</svg>
