<svg width="80" height="40" viewBox="0 0 80 40" fill="none" xmlns="http://www.w3.org/2000/svg">
<rect width="80" height="40" rx="2" fill="#3757FF" fill-opacity="0.3"/>
<path fill-rule="evenodd" clip-rule="evenodd" d="M5 6C5 5.48223 5.3935 5.05637 5.89776 5.00516C5.93137 5.00175 5.96548 5 6 5H12C12.5523 5 13 5.44772 13 6C13 6.55228 12.5523 7 12 7L7 7V12C7 12.5523 6.55228 13 6 13C5.44772 13 5 12.5523 5 12V6ZM5 34C5 34.5178 5.3935 34.9436 5.89776 34.9948C5.93137 34.9983 5.96548 35 6 35H12C12.5523 35 13 34.5523 13 34C13 33.4477 12.5523 33 12 33H7V28C7 27.4477 6.55228 27 6 27C5.44772 27 5 27.4477 5 28V34ZM74.1022 5.00516C74.6065 5.05637 75 5.48223 75 6V12C75 12.5523 74.5523 13 74 13C73.4477 13 73 12.5523 73 12V7L68 7C67.4477 7 67 6.55228 67 6C67 5.44772 67.4477 5 68 5H74C74.0345 5 74.0686 5.00175 74.1022 5.00516ZM75 34C75 34.5178 74.6065 34.9436 74.1022 34.9948C74.0686 34.9983 74.0345 35 74 35H68C67.4477 35 67 34.5523 67 34C67 33.4477 67.4477 33 68 33H73V28C73 27.4477 73.4477 27 74 27C74.5523 27 75 27.4477 75 28V34Z" fill="#3757FF"/>
<path fill-rule="evenodd" clip-rule="evenodd" d="M5 6C5 5.48223 5.3935 5.05637 5.89776 5.00516C5.93137 5.00175 5.96548 5 6 5H12C12.5523 5 13 5.44772 13 6C13 6.55228 12.5523 7 12 7L7 7V12C7 12.5523 6.55228 13 6 13C5.44772 13 5 12.5523 5 12V6ZM5 34C5 34.5178 5.3935 34.9436 5.89776 34.9948C5.93137 34.9983 5.96548 35 6 35H12C12.5523 35 13 34.5523 13 34C13 33.4477 12.5523 33 12 33H7V28C7 27.4477 6.55228 27 6 27C5.44772 27 5 27.4477 5 28V34ZM74.1022 5.00516C74.6065 5.05637 75 5.48223 75 6V12C75 12.5523 74.5523 13 74 13C73.4477 13 73 12.5523 73 12V7L68 7C67.4477 7 67 6.55228 67 6C67 5.44772 67.4477 5 68 5H74C74.0345 5 74.0686 5.00175 74.1022 5.00516ZM75 34C75 34.5178 74.6065 34.9436 74.1022 34.9948C74.0686 34.9983 74.0345 35 74 35H68C67.4477 35 67 34.5523 67 34C67 33.4477 67.4477 33 68 33H73V28C73 27.4477 73.4477 27 74 27C74.5523 27 75 27.4477 75 28V34Z" fill="#3757FF"/>
<rect opacity="0.5" x="11" y="11" width="10" height="18" rx="2" fill="#3757FF"/>
<rect opacity="0.5" x="59" y="11" width="10" height="18" rx="2" fill="#3757FF"/>
<rect opacity="0.5" x="25" y="11" width="30" height="18" rx="2" fill="#3757FF"/>
</svg>
