<svg width="24" height="24" viewBox="0 0 24 24" fill="none" xmlns="http://www.w3.org/2000/svg">
<path d="M1.54613 21.8707C1.46012 21.8706 1.37533 21.8475 1.29866 21.8032C1.22199 21.7589 1.15562 21.6947 1.10493 21.6157C1.05425 21.5368 1.02069 21.4454 1.00698 21.3489C0.993275 21.2525 0.999811 21.1537 1.02606 21.0606L6.3077 2.43502C6.32927 2.35686 6.36424 2.28432 6.41061 2.22159C6.45697 2.15885 6.51381 2.10716 6.57785 2.0695C6.64188 2.03184 6.71185 2.00895 6.78371 2.00214C6.85557 1.99534 6.9279 2.00476 6.99654 2.02987C7.06518 2.05497 7.12877 2.09526 7.18363 2.14842C7.2385 2.20157 7.28356 2.26653 7.31622 2.33956C7.34887 2.41259 7.36848 2.49224 7.37391 2.57392C7.37934 2.65559 7.37049 2.73768 7.34785 2.81546L2.06571 21.4402C2.03027 21.5652 1.96089 21.6741 1.86754 21.7514C1.77419 21.8288 1.66167 21.8705 1.54613 21.8707ZM22.4539 21.8707C22.3383 21.8705 22.2258 21.8288 22.1325 21.7514C22.0391 21.6741 21.9697 21.5652 21.9343 21.4402L16.6521 2.81546C16.609 2.65918 16.622 2.48988 16.6883 2.34445C16.7546 2.19902 16.8688 2.08924 17.0061 2.03905C17.1433 1.98885 17.2924 2.00231 17.421 2.07648C17.5495 2.15065 17.647 2.27953 17.6923 2.43502L22.9739 21.0598C23.0002 21.1529 23.0067 21.2516 22.993 21.3481C22.9793 21.4445 22.9458 21.536 22.8951 21.6149C22.8444 21.6938 22.778 21.7581 22.7013 21.8024C22.6247 21.8467 22.5399 21.8698 22.4539 21.8698V21.8707ZM20.6273 21.1953L15.494 2.44089C15.4593 2.31445 15.39 2.2039 15.2961 2.1254C15.2023 2.04691 15.0887 2.00457 14.9722 2.00459H12.3639C12.4211 2.06229 12.467 2.13308 12.4984 2.21232C12.5299 2.29155 12.5462 2.37744 12.5464 2.46435V3.97268C12.5434 4.13497 12.4845 4.28945 12.3824 4.40301C12.2802 4.51657 12.143 4.58016 12.0001 4.58016C11.8572 4.58016 11.72 4.51657 11.6179 4.40301C11.5158 4.28945 11.4569 4.13497 11.4539 3.97268V2.46435C11.454 2.37746 11.4703 2.29158 11.5017 2.21234C11.5331 2.13311 11.5789 2.06231 11.6361 2.00459H8.98873C8.87216 2.00457 8.75864 2.04691 8.66476 2.1254C8.57088 2.2039 8.50156 2.31445 8.46694 2.44089L3.33357 21.1953C3.30817 21.2882 3.30235 21.3865 3.31657 21.4824C3.33079 21.5783 3.36466 21.6691 3.41544 21.7474C3.46621 21.8257 3.53248 21.8894 3.6089 21.9333C3.68532 21.9771 3.76974 22 3.85536 22H11.6048C11.5081 21.8852 11.454 21.7324 11.4539 21.5735V20.0651C11.4569 19.9029 11.5158 19.7484 11.6179 19.6348C11.72 19.5213 11.8572 19.4577 12.0001 19.4577C12.143 19.4577 12.2802 19.5213 12.3824 19.6348C12.4845 19.7484 12.5434 19.9029 12.5464 20.0651V21.5735C12.5463 21.7325 12.4921 21.8853 12.3952 22H20.1058C20.1914 22 20.2758 21.9772 20.3522 21.9333C20.4287 21.8894 20.4949 21.8257 20.5457 21.7474C20.5964 21.6691 20.6303 21.5783 20.6445 21.4824C20.6586 21.3865 20.6528 21.2881 20.6273 21.1953ZM12.5464 16.8474C12.5479 16.93 12.5349 17.0121 12.5082 17.0889C12.4814 17.1657 12.4414 17.2357 12.3906 17.2947C12.3397 17.3538 12.2789 17.4007 12.2119 17.4327C12.1448 17.4647 12.0729 17.4812 12.0001 17.4812C11.9274 17.4812 11.8554 17.4647 11.7884 17.4327C11.7213 17.4007 11.6606 17.3538 11.6097 17.2947C11.5588 17.2357 11.5188 17.1657 11.4921 17.0889C11.4653 17.0121 11.4523 16.93 11.4539 16.8474V13.6285C11.4523 13.5459 11.4653 13.4638 11.4921 13.387C11.5188 13.3102 11.5588 13.2402 11.6097 13.1811C11.6606 13.1221 11.7213 13.0752 11.7884 13.0432C11.8554 13.0112 11.9274 12.9947 12.0001 12.9947C12.0729 12.9947 12.1448 13.0112 12.2119 13.0432C12.2789 13.0752 12.3397 13.1221 12.3906 13.1811C12.4414 13.2402 12.4814 13.3102 12.5082 13.387C12.5349 13.4638 12.5479 13.5459 12.5464 13.6285V16.8474ZM12.5464 10.4096C12.5434 10.5719 12.4845 10.7264 12.3824 10.8399C12.2802 10.9535 12.143 11.0171 12.0001 11.0171C11.8572 11.0171 11.72 10.9535 11.6179 10.8399C11.5158 10.7264 11.4569 10.5719 11.4539 10.4096V7.19045C11.4523 7.10785 11.4653 7.02574 11.4921 6.94892C11.5188 6.8721 11.5588 6.80213 11.6097 6.7431C11.6606 6.68406 11.7213 6.63716 11.7884 6.60514C11.8554 6.57312 11.9274 6.55663 12.0001 6.55663C12.0729 6.55663 12.1448 6.57312 12.2119 6.60514C12.2789 6.63716 12.3397 6.68406 12.3906 6.7431C12.4414 6.80213 12.4814 6.8721 12.5082 6.94892C12.5349 7.02574 12.5479 7.10785 12.5464 7.19045V10.4096Z" fill=""/>
</svg>
