<svg width="24" height="24" viewBox="0 0 24 24" fill="none" xmlns="http://www.w3.org/2000/svg">
<path fill-rule="evenodd" clip-rule="evenodd" d="M6 16.7678V7.67977C6 3.92074 8.69102 0.86377 12 0.86377C15.309 0.86377 18 3.92074 18 7.67977V16.7678C17.9946 20.5172 15.3285 23.56 12.028 23.5838H11.986C8.682 23.5633 6 20.512 6 16.7678ZM12 8.94388C10.915 8.94388 10 8.02886 10 6.94386C10 5.85887 10.915 4.94385 12 4.94385C13.085 4.94385 14 5.85887 14 6.94386C14 8.02886 13.085 8.94388 12 8.94388ZM12 14.1999C10.915 14.1999 10 13.2849 10 12.1999C10 11.1149 10.915 10.1998 12 10.1998C13.085 10.1998 14 11.1149 14 12.1999C14 13.2849 13.085 14.1999 12 14.1999ZM12 19.4559C10.915 19.4559 10 18.5409 10 17.4559C10 16.3709 10.915 15.4558 12 15.4558C13.085 15.4558 14 16.3709 14 17.4559C14 18.5409 13.085 19.4559 12 19.4559Z"/>
</svg>
