<svg width="24" height="24" viewBox="0 0 24 24" fill="none" xmlns="http://www.w3.org/2000/svg">
<g clip-path="url(#clip0_72_22909)">
<path fill-rule="evenodd" clip-rule="evenodd" d="M16.4581 17.638C17.1057 17.638 17.601 17.1428 17.601 16.5333C17.601 16.2666 17.4867 15.9999 17.3343 15.8095L18.2486 14.8952C18.7057 14.438 18.7057 13.7142 18.2486 13.2952L13.4105 8.45708L15.5819 6.28565L17.7914 8.49517C18.2486 8.95232 18.9724 8.95232 19.3914 8.49517L20.1533 7.73327C20.6105 7.27613 20.6105 6.55232 20.1533 6.13327L14.6295 0.609459C14.1724 0.152316 13.4486 0.152316 13.0295 0.609459L12.2676 1.37136C11.8105 1.82851 11.8105 2.55232 12.2676 2.97136L14.4772 5.18089L12.3057 7.35232L7.46763 2.51422C7.01049 2.05708 6.28668 2.05708 5.86763 2.51422L2.28668 6.09517C1.82954 6.55232 1.82954 7.27613 2.28668 7.69517L7.12478 12.5333L4.95335 14.7047L2.74382 12.4952C2.28668 12.038 1.56287 12.038 1.14382 12.4952L0.38192 13.2571C-0.0752232 13.7142 -0.0752232 14.438 0.38192 14.8571L5.90573 20.3809C6.36287 20.838 7.08668 20.838 7.50573 20.3809L8.26763 19.619C8.72478 19.1618 8.72478 18.438 8.26763 18.019L6.05811 15.8095L8.22954 13.638L13.0676 18.4761C13.5248 18.9333 14.2486 18.9333 14.6676 18.4761L15.7343 17.4095C15.9248 17.5618 16.1914 17.638 16.4581 17.638ZM21.0278 15.4287H19.3516C19.3516 16.4573 18.9325 17.4478 18.1706 18.1716C17.4087 18.8954 16.3802 19.3144 15.2754 19.3144V20.9144C18.4754 20.9144 21.0278 18.4382 21.0278 15.4287ZM15.3145 22.1335C19.1621 22.1335 22.324 19.1239 22.324 15.4287V15.4668H24.0002C24.0002 20.0001 20.1145 23.7335 15.3145 23.7335V22.1335Z" fill=""/>
</g>
<defs>
<clipPath id="clip0_72_22909">
<rect width="24" height="24" fill="white"/>
</clipPath>
</defs>
</svg>
