<svg width="68" height="68" viewBox="0 0 68 68" fill="none" xmlns="http://www.w3.org/2000/svg">
<g clip-path="url(#clip0_10_111698)">
<path d="M39.3389 11C47.9155 13.3402 54.4083 20.6719 55.4529 29.6537H11.4521C12.4967 20.6719 18.9868 13.3402 27.5661 11C14.6646 12.9447 5 21.1465 5 30.9711C5 37.5717 9.36833 43.4387 16.1433 47.1699H17.2286C15.1166 44.9231 13.5028 42.2512 12.494 39.331C17.5298 36.9471 25.0509 35.4333 33.4539 35.4333C41.8568 35.4333 49.3779 36.9471 54.4165 39.331C53.4007 42.2517 51.7816 44.9232 49.6656 47.1699H50.7509C57.534 43.4387 61.8942 37.5717 61.8942 30.9711C61.8942 21.1519 52.2187 12.9447 39.3281 11" fill="#ED1B23"/>
<path d="M46.2364 38.5236C42.0291 37.663 37.745 37.2389 33.4515 37.258C29.1581 37.239 24.874 37.6631 20.6667 38.5236L17.541 47.1699H28.0956L28.5378 43.4495C29.0126 41.3766 31.0015 39.6991 33.4515 39.6991C35.9016 39.6991 37.8904 41.3766 38.3679 43.4495L38.8129 47.1699H49.3675L46.2364 38.5236ZM31.2375 21.4164L31.8778 16.2695H28.7169L25.48 25.2159L23.8737 29.6509H30.2146L31.2375 21.4164ZM36.6884 29.6509H43.0293L41.4258 25.2159L38.1889 16.2695H35.0279L35.6683 21.4164L36.6884 29.6509Z" fill="white" fill-opacity="0.8"/>
<path d="M13.9677 51.7469V50.1485L13.1402 50.1813H10.7987L11.2653 49.9385C10.994 49.5676 10.6603 49.1421 10.2669 48.6675C9.78122 48.9882 9.27652 49.2788 8.75557 49.5376C8.9618 49.7292 9.14402 49.9453 9.29822 50.1813H6.8563L6.04232 50.1485L6.08031 50.9504V52.8597C6.07472 53.0605 6.05842 53.2608 6.03147 53.4598C6.00162 53.7325 5.96635 53.9916 5.92836 54.2371C5.88433 54.4991 5.80586 54.7541 5.69502 54.9954C5.51456 55.3248 5.28177 55.6224 5.00586 55.8764L5.32874 56.1109L6.14271 56.7301C6.21868 56.7928 6.34349 56.8801 6.51443 57.0028C6.78511 56.6938 7.02587 56.3595 7.23344 56.0046C7.5061 55.5137 7.68984 54.9781 7.77609 54.4226C7.82764 54.1089 7.86563 53.8089 7.88462 53.5252L7.90361 51.976C7.90361 51.9233 7.90361 51.8387 7.90361 51.7223H13.1402L13.9677 51.7469Z" fill="white" fill-opacity="0.8"/>
<path d="M17.5163 52.1722C17.6031 52.044 17.7144 51.8722 17.8473 51.6594C17.9802 51.4467 18.1186 51.2476 18.219 51.0757H22.5331L23.4447 51.1003V49.5674L22.5331 49.6029H19.0764C19.1822 49.4147 19.3043 49.2183 19.4373 49.0083C19.0004 48.9455 18.4035 48.8282 17.6492 48.6619C17.4846 48.9764 17.3164 49.2901 17.1446 49.6029H15.8503L14.9278 49.5756V51.1085L15.8503 51.0839H16.2492C15.9326 51.5312 15.6505 51.9031 15.4027 52.1995V53.626H17.0008C16.2463 54.2673 15.428 54.8285 14.5588 55.3007C14.8302 55.6007 15.0065 55.7889 15.0662 55.8626C15.1259 55.9362 15.3131 56.1653 15.6089 56.5554C16.1678 56.1917 16.6453 55.8571 17.0415 55.5516C17.4808 55.2059 17.8985 54.8334 18.2923 54.4361C17.9731 54.181 17.6688 53.9078 17.3806 53.6178H18.4171V55.0907C18.4171 55.4098 18.0589 55.5189 17.3318 55.4125C17.4837 55.7726 17.6031 56.059 17.6682 56.2663C17.7333 56.4735 17.8093 56.7054 17.8717 56.9563C18.4741 56.8909 18.9055 56.8309 19.1632 56.7736C19.4317 56.7077 19.6838 56.587 19.9039 56.419C20.0291 56.315 20.1271 56.1819 20.1895 56.0312C20.2519 55.8806 20.2768 55.7169 20.2621 55.5544V53.6096H21.3067L21.2036 53.7051L20.9567 53.9424C20.9296 53.9642 20.8482 54.0324 20.7071 54.1415L20.3625 54.447C21.0408 54.9816 21.834 55.6871 22.742 56.5636C23.2539 56.069 23.641 55.7207 23.9033 55.5189C23.026 54.7697 22.4417 54.2788 22.1505 54.046C21.8602 53.8142 21.6866 53.6696 21.6296 53.6096H21.9904L22.875 53.6451V52.1368L21.9904 52.1722H20.2947V51.9813L20.3218 51.2312H18.4225L18.4524 51.9813V52.1722H17.5163Z" fill="white" fill-opacity="0.8"/>
<path d="M24.4975 55.4671C24.6768 55.7043 24.8391 55.954 24.9832 56.2144C25.0266 56.3208 25.1134 56.5635 25.2545 56.9481C25.9705 56.7964 26.6757 56.5968 27.3654 56.3508C27.9178 56.1444 28.4471 55.8802 28.9445 55.5625C29.4389 55.8749 29.9634 56.1363 30.5101 56.3426C31.2045 56.5861 31.9154 56.7793 32.6372 56.9208C32.7107 56.6906 32.8014 56.4663 32.9086 56.2499C33.0597 55.9835 33.2321 55.7299 33.4241 55.4916C32.0023 55.3307 30.9279 55.0061 30.198 54.5261C30.5993 54.0818 30.9531 53.5963 31.2535 53.0777C30.7388 52.8633 30.2477 52.5955 29.7883 52.2786C29.5848 52.6304 29.422 52.8977 29.2945 53.075C29.1626 53.2566 29.0194 53.4297 28.8658 53.5932C28.6949 53.3996 28.5592 53.2414 28.4561 53.1132C28.2718 52.8513 28.1042 52.578 27.9542 52.2949C27.5272 52.6153 27.0753 52.9008 26.603 53.1487L26.9855 53.6942C27.1903 53.9863 27.4123 54.266 27.6503 54.5315C26.6737 55.0603 25.598 55.3781 24.4921 55.4643M32.1896 51.1685L33.3128 51.2039V49.6519L32.1787 49.6956H30.0949C29.9929 49.3555 29.8725 49.0214 29.7341 48.6946C29.1181 48.8636 28.4876 48.9741 27.8511 49.0246L28.041 49.3901C28.0546 49.4201 28.0844 49.5183 28.136 49.6874H25.6154L24.5789 49.6438V51.1957L25.6154 51.1603H26.3479C26.1117 51.4282 25.849 51.6713 25.5638 51.8858C25.2364 52.1239 24.8907 52.3355 24.5301 52.5186C24.7521 52.7264 24.9631 52.9459 25.1622 53.1759C25.3175 53.3616 25.459 53.5585 25.5855 53.7651C25.9477 53.565 26.2934 53.336 26.6193 53.0805C26.8634 52.8804 27.1538 52.625 27.4902 52.314C27.8083 52.0213 28.1039 51.7049 28.3747 51.3676C28.2146 51.2994 28.0681 51.2285 27.9379 51.1603H29.7639C29.7065 51.1996 29.6553 51.2475 29.612 51.3021C29.4988 51.4181 29.3742 51.5222 29.2403 51.613C29.5116 51.7876 29.9701 52.0958 30.5969 52.5404C31.2236 52.985 31.6144 53.2523 31.7283 53.3423C31.8423 53.4323 31.9996 53.5605 32.195 53.7296C32.5663 53.302 32.9641 52.8984 33.3861 52.5213L31.4543 51.1712L32.1896 51.1685Z" fill="white" fill-opacity="0.8"/>
<path d="M35.1819 50.1946C35.2687 50.3173 35.4315 50.5628 35.6648 50.9365C36.3811 50.4891 36.818 50.2218 36.9699 50.1346C36.6495 49.6329 36.2864 49.1602 35.8846 48.7217C35.4842 49.0196 35.0573 49.2798 34.6094 49.499C34.8934 49.8409 35.0806 50.0727 35.171 50.1946M40.6789 51.9102H41.3545V52.0329H40.6789V51.9102ZM40.6789 53.053H41.3545V53.173H40.6789V53.053ZM38.5843 51.9102H39.2328V52.0329H38.5952L38.5843 51.9102ZM38.5843 53.053H39.2328V53.173H38.5952L38.5843 53.053ZM39.9925 50.1155C39.9143 50.1769 39.8318 50.2325 39.7456 50.2818C39.6316 50.2246 39.5312 50.17 39.4417 50.1155H39.9925ZM39.7591 55.4205C39.1161 55.3987 38.7254 55.3823 38.5843 55.3687V54.2777H39.2328V54.6023L39.2029 55.2814H40.6599L40.6301 54.6023V54.2777H41.3545V54.3486C41.3545 54.4113 41.3084 54.4495 41.2216 54.4604C41.0611 54.475 40.8993 54.4602 40.7441 54.4168L40.8879 54.7141C40.9258 54.7959 41.0127 55.0278 41.1456 55.4096C40.6838 55.4352 40.221 55.4352 39.7591 55.4096M36.8071 54.845V52.2129L36.8343 51.3947L35.9606 51.4192H34.9051L34.2947 51.3947V52.8048L34.8753 52.7721H35.209V54.8777L35.0381 55.0005L34.6772 55.2269C34.5633 55.3087 34.3408 55.4833 34.0098 55.7506C34.207 55.9217 34.3945 56.1038 34.5714 56.2961C34.7098 56.4543 34.8753 56.6588 35.0652 56.9152C35.2785 56.7057 35.5101 56.5158 35.7571 56.3479C35.8523 56.2952 35.9579 56.2645 36.0664 56.2579C36.1976 56.2634 36.3265 56.2939 36.4463 56.3479L36.9889 56.5743C37.229 56.6617 37.4759 56.7292 37.7269 56.7761C38.3389 56.8506 38.9558 56.878 39.5719 56.8579C40.5089 56.8579 41.1547 56.8579 41.5092 56.8579C41.8646 56.8579 42.1088 56.8579 42.2472 56.8579C42.3856 56.8579 42.5972 56.8579 42.8875 56.8279C42.9635 56.4206 43.0286 56.1206 43.0829 55.9279C43.1371 55.7315 43.2023 55.5269 43.2782 55.3114C43.1643 55.3114 42.8333 55.3442 42.2879 55.3742C42.381 55.3628 42.4701 55.3294 42.5479 55.2768C42.6257 55.2242 42.69 55.1538 42.7356 55.0714C42.8165 54.866 42.8526 54.6456 42.8414 54.425V51.4765V50.7264L41.9189 50.7428H41.1293C41.3247 50.6091 41.5553 50.4482 41.8185 50.26L42.4344 49.8209V48.9317H38.2696L37.3172 48.8962V50.1482L38.2696 50.1209H38.4514L37.9738 50.5491C38.0937 50.6294 38.222 50.6961 38.3564 50.7483H37.9738L37.1002 50.7237L37.1192 51.471V55.0441C37.0113 54.9949 36.9094 54.9336 36.8153 54.8614" fill="white" fill-opacity="0.8"/>
<path d="M46.7226 51.4765H48.1009V51.6047H46.7226V51.4765ZM46.7226 52.4257H48.1009V52.573H46.7226V52.4257ZM48.1009 50.6474H46.7226V50.5328H48.1009V50.6474ZM51.403 50.5328L52.2766 50.5601V49.4691L51.403 49.5045H49.832C49.832 49.4691 49.813 49.3982 49.7886 49.2891C49.7642 49.18 49.7425 49.0163 49.718 48.7817C49.1406 48.8931 48.5556 48.9596 47.968 48.9808C48.017 49.1522 48.0515 49.3274 48.0711 49.5045H47.1784C47.2083 49.45 47.2463 49.39 47.287 49.3163C47.3277 49.2427 47.3819 49.1554 47.4443 49.0436C46.7796 48.9099 46.2831 48.7954 45.9602 48.7026C45.7355 49.1212 45.4682 49.5152 45.1625 49.8782C44.7879 50.2674 44.3658 50.6075 43.9063 50.8901L44.1993 51.1629C44.4224 51.4194 44.6325 51.687 44.8288 51.9648C45.0431 51.812 45.2032 51.692 45.3036 51.6156V52.6085L45.2656 53.6013L46.4811 53.5768H47.7672V53.7077H45.3253L44.24 53.6804V54.8832L45.3253 54.856H46.1393C45.4221 55.2331 44.6531 55.5006 43.8574 55.6497C44.0422 55.8513 44.2152 56.0635 44.3757 56.2852C44.486 56.4489 44.6271 56.6643 44.7989 56.9316C45.4967 56.7085 46.1718 56.419 46.8149 56.067L47.6288 55.5979C47.6708 55.5765 47.7115 55.5528 47.7509 55.5269V56.1543L47.694 56.888H49.3409L49.2839 56.1543V55.5542C50.1586 56.2093 51.1763 56.6451 52.2522 56.8253C52.5061 56.3833 52.7927 55.9611 53.1096 55.5624C52.6291 55.491 52.154 55.3862 51.6879 55.2487C51.354 55.1396 51.0277 55.0084 50.7111 54.856H51.8832L52.7488 54.8832V53.694L51.8832 53.7213H49.2758V53.5904H51.5766L52.4422 53.6149V52.5485L51.5766 52.573H49.6177V52.4339H50.8359L51.7014 52.4612V51.5802L50.8359 51.6047H49.6177V51.4765H50.8359L51.7014 51.5011V50.6228L50.8359 50.6474H49.6177V50.5328H51.403Z" fill="white" fill-opacity="0.8"/>
<path d="M57.695 53.5305C57.8062 53.3914 57.8876 53.2932 57.9364 53.2359V53.6941C57.9364 53.8878 57.7302 53.9532 57.3178 53.896C57.4573 53.7853 57.5838 53.659 57.695 53.5196M55.3019 50.3583H60.4001V55.2188H58.1752C58.475 55.1976 58.7675 55.116 59.0353 54.9788C59.1706 54.9011 59.2816 54.7867 59.3555 54.6488C59.4205 54.4813 59.4491 54.3019 59.4396 54.1224V52.1531H59.5264L60.2671 52.1804V50.8384L59.6404 50.8629H59.4342L59.4532 50.4374H57.912L57.95 50.8629H56.4767L55.5542 50.8384V52.1804L56.5228 52.1531H56.9054C56.6706 52.4409 56.4129 52.7091 56.1348 52.955C55.8913 53.1883 55.6175 53.3874 55.3209 53.5468L55.3019 50.3583ZM55.6546 54.3351C55.8065 54.5588 55.9259 54.7442 56.0426 54.8806C56.4541 54.6033 56.8482 54.3009 57.2229 53.9751C57.25 54.0378 57.2717 54.0951 57.2907 54.1496L57.3857 54.567C57.4372 54.8097 57.4643 54.9679 57.4725 55.0388V55.1152C57.4704 55.147 57.4704 55.1789 57.4725 55.2106H55.3019V53.8251C55.3833 53.9369 55.5027 54.0978 55.6546 54.3269M60.3811 56.509V56.7544H62.009L61.9792 56.2089V49.5592L62.009 49.0137L61.3904 49.03H54.279L53.7363 49.0137L53.7662 49.5592V56.2335L53.7363 56.779H55.3263V56.5335L60.3811 56.509Z" fill="white" fill-opacity="0.8"/>
</g>
<defs>
<clipPath id="clip0_10_111698">
<rect width="57" height="46" fill="white" transform="translate(5 11)"/>
</clipPath>
</defs>
</svg>
