<svg width="20" height="20" viewBox="0 0 20 20" fill="none" xmlns="http://www.w3.org/2000/svg">
<rect width="20" height="20" rx="10" fill="black" fill-opacity="0.7"/>
<path d="M10.7181 10.017L13.8723 13.1704C13.9574 13.2647 14.0031 13.3882 13.9998 13.5152C13.9966 13.6422 13.9448 13.7631 13.855 13.853C13.7652 13.9429 13.6444 13.995 13.5174 13.9983C13.3904 14.0017 13.2669 13.9563 13.1725 13.8713L10.0163 10.7179L6.86504 13.8723C6.77071 13.9574 6.64732 14.0031 6.52031 13.9998C6.3933 13.9966 6.27237 13.9448 6.18247 13.855C6.09257 13.7652 6.04055 13.6444 6.03716 13.5173C6.03376 13.3903 6.07924 13.2669 6.16422 13.1724L9.31743 10.018L6.16422 6.86457C6.11419 6.81956 6.07385 6.76484 6.04565 6.70374C6.01745 6.64264 6.00198 6.57644 6.00018 6.50917C5.99838 6.44189 6.01029 6.37496 6.03519 6.31244C6.06008 6.24992 6.09744 6.19312 6.14499 6.1455C6.19254 6.09788 6.24928 6.06044 6.31176 6.03545C6.37424 6.01046 6.44115 5.99846 6.50842 6.00016C6.57569 6.00186 6.64191 6.01724 6.70305 6.04536C6.76419 6.07347 6.81896 6.11374 6.86404 6.1637L10.0173 9.31712L13.1705 6.1637C13.2648 6.07859 13.3882 6.03293 13.5152 6.03614C13.6422 6.03936 13.7631 6.0912 13.853 6.18098C13.9429 6.27076 13.995 6.39162 13.9983 6.51863C14.0017 6.64565 13.9563 6.76912 13.8713 6.86357L10.7181 10.018V10.017Z" fill="white"/>
</svg>
