<svg width="42" height="42" viewBox="0 0 42 42" fill="none" xmlns="http://www.w3.org/2000/svg">
<mask id="mask0_6855_174810" style="mask-type:alpha" maskUnits="userSpaceOnUse" x="1" y="1" width="40" height="40">
<rect x="1" y="1" width="40" height="40" fill="#D9D9D9"/>
</mask>
<g mask="url(#mask0_6855_174810)">
<path d="M15.9862 -24.5L18.3662 -23.1086L-13.62 32.9908L-16 31.5994L15.9862 -24.5Z" fill="#3758FF" fill-opacity="0.15"/>
<path d="M31.853 -15.2239L34.233 -13.8325L2.24686 42.2669L-0.133166 40.8755L31.853 -15.2239Z" fill="#3758FF" fill-opacity="0.15"/>
<path d="M47.7198 -5.94784L50.0999 -4.55642L18.1137 51.5429L15.7337 50.1515L47.7198 -5.94784Z" fill="#3758FF" fill-opacity="0.15"/>
<path d="M23.9196 -19.862L26.2996 -18.4705L-5.68654 37.6288L-8.06656 36.2374L23.9196 -19.862Z" fill="#3758FF" fill-opacity="0.15"/>
<path d="M39.7864 -10.5859L42.1665 -9.19446L10.1803 46.9049L7.80027 45.5135L39.7864 -10.5859Z" fill="#3758FF" fill-opacity="0.15"/>
<path d="M55.6532 -1.3098L58.0333 0.0816174L26.0471 56.181L23.6671 54.7896L55.6532 -1.3098Z" fill="#3758FF" fill-opacity="0.15"/>
<path d="M19.9529 -22.181L22.3329 -20.7896L-9.65328 35.3098L-12.0333 33.9184L19.9529 -22.181Z" fill="#3758FF" fill-opacity="0.15"/>
<path d="M35.8197 -12.9049L38.1997 -11.5135L6.21356 44.5859L3.83353 43.1945L35.8197 -12.9049Z" fill="#3758FF" fill-opacity="0.15"/>
<path d="M51.6865 -3.62882L54.0666 -2.2374L22.0804 53.862L19.7004 52.4706L51.6865 -3.62882Z" fill="#3758FF" fill-opacity="0.15"/>
<path d="M27.8863 -17.5429L30.2663 -16.1515L-1.71984 39.9478L-4.09986 38.5564L27.8863 -17.5429Z" fill="#3758FF" fill-opacity="0.15"/>
<path d="M43.7531 -8.26686L46.1332 -6.87544L14.147 49.2239L11.767 47.8325L43.7531 -8.26686Z" fill="#3758FF" fill-opacity="0.15"/>
<path d="M59.62 1.00923L62 2.40064L30.0138 58.5L27.6338 57.1086L59.62 1.00923Z" fill="#3758FF" fill-opacity="0.15"/>
</g>
<path opacity="0.15" d="M3.68676 1H1V3.73425M38.3132 41H41V38.2658M3.68676 41H1V38.2658M38.3132 1H41V3.73425" stroke="#00FFFF" stroke-linecap="round" stroke-linejoin="round"/>
<path d="M5.7052 22.3666L19.406 15.4812C20.7433 14.8074 22.3034 14.8427 23.6135 15.5775L36.3415 22.6971C37.224 23.1912 37.218 24.5355 36.3325 25.0232L22.8365 32.4412C21.4239 33.2177 19.7373 33.1824 18.3519 32.3514L5.62689 24.6927C4.75647 24.1698 4.80165 22.819 5.7052 22.3666Z" fill="url(#paint0_linear_6855_174810)"/>
<path d="M5.48134 21.9195L19.181 15.0347C19.1811 15.0347 19.1812 15.0346 19.1813 15.0346C20.6673 14.2859 22.4031 14.3256 23.8578 15.1412C23.8579 15.1413 23.858 15.1413 23.8581 15.1414L36.5856 22.2607L36.5858 22.2608C37.8113 22.947 37.8021 24.7846 36.5737 25.4612L36.5733 25.4614L23.0773 32.8794C21.508 33.742 19.6317 33.7021 18.0947 32.7802L18.094 32.7798L5.36938 25.1213L5.48134 21.9195ZM5.48134 21.9195C5.48122 21.9196 5.4811 21.9196 5.48097 21.9197C4.21935 22.5517 4.16688 24.3985 5.36906 25.1211L5.48134 21.9195Z" stroke="url(#paint1_linear_6855_174810)" stroke-opacity="0.8" stroke-miterlimit="10"/>
<g opacity="0.5">
<path d="M9.5289 30.3203L19.8045 25.3475C20.8074 24.8609 21.9775 24.8864 22.9602 25.4171L32.5061 30.559C33.168 30.9159 33.1635 31.8868 32.4994 32.239L22.3774 37.5964C21.318 38.1572 20.053 38.1317 19.0139 37.5315L9.47017 32.0003C8.81735 31.6226 8.85124 30.6471 9.5289 30.3203Z" fill="url(#paint2_linear_6855_174810)"/>
<path d="M9.26985 32.3465L18.8133 37.8776L18.8138 37.8779C19.9716 38.5466 21.3828 38.5754 22.5645 37.95C22.5645 37.95 22.5645 37.95 22.5645 37.95L32.6865 32.5925L32.6868 32.5924C33.6324 32.0908 33.64 30.7159 32.696 30.2069L32.6958 30.2068L23.1502 25.0651C22.0546 24.4735 20.749 24.4448 19.6303 24.9875C19.6301 24.9876 19.63 24.9876 19.6299 24.9877L9.35518 29.96C9.35512 29.96 9.35507 29.9601 9.35501 29.9601C8.38542 30.4277 8.34188 31.8096 9.26985 32.3465ZM9.26985 32.3465L9.47017 32.0003L9.26959 32.3464L9.26985 32.3465Z" stroke="url(#paint3_linear_6855_174810)" stroke-opacity="0.8" stroke-width="0.8" stroke-miterlimit="10"/>
</g>
<path fill-rule="evenodd" clip-rule="evenodd" d="M15 21.6656V14.0923C15 10.9597 17.1735 7.86025 19.8462 7.18149C22.5188 6.50273 24.6923 8.4982 24.6923 11.6307V19.204C24.6879 22.3297 22.5345 25.4123 19.8688 26.1091L19.8348 26.1177C17.1662 26.7784 15 24.7858 15 21.6656ZM19.8462 13.9149C18.9698 14.1375 18.2308 13.5626 18.2308 12.6585C18.2308 11.7543 18.9698 10.8041 19.8462 10.5815C20.7225 10.359 21.4616 10.9338 21.4616 11.838C21.4616 12.7421 20.7225 13.6923 19.8462 13.9149ZM19.8462 18.2949C18.9698 18.5175 18.2308 17.9426 18.2308 17.0385C18.2308 16.1343 18.9698 15.1841 19.8462 14.9616C20.7225 14.739 21.4616 15.3138 21.4616 16.218C21.4616 17.1221 20.7225 18.0723 19.8462 18.2949ZM19.8462 22.6749C18.9698 22.8975 18.2308 22.3226 18.2308 21.4185C18.2308 20.5143 18.9698 19.5641 19.8462 19.3415C20.7225 19.119 21.4616 19.6938 21.4616 20.598C21.4616 21.5021 20.7225 22.4523 19.8462 22.6749Z" fill="url(#paint4_linear_6855_174810)" fill-opacity="0.2"/>
<path fill-rule="evenodd" clip-rule="evenodd" d="M18 21.6656V14.0923C18 10.9597 20.1735 7.86025 22.8462 7.18149C25.5188 6.50273 27.6923 8.4982 27.6923 11.6307V19.204C27.6879 22.3297 25.5345 25.4123 22.8688 26.1091L22.8348 26.1177C20.1662 26.7784 18 24.7858 18 21.6656ZM22.8462 13.9149C21.9698 14.1375 21.2308 13.5626 21.2308 12.6585C21.2308 11.7543 21.9698 10.8041 22.8462 10.5815C23.7225 10.359 24.4616 10.9338 24.4616 11.838C24.4616 12.7421 23.7225 13.6923 22.8462 13.9149ZM22.8462 18.2949C21.9698 18.5175 21.2308 17.9426 21.2308 17.0385C21.2308 16.1343 21.9698 15.1841 22.8462 14.9616C23.7225 14.739 24.4616 15.3138 24.4616 16.218C24.4616 17.1221 23.7225 18.0723 22.8462 18.2949ZM22.8462 22.6749C21.9698 22.8975 21.2308 22.3226 21.2308 21.4185C21.2308 20.5143 21.9698 19.5641 22.8462 19.3415C23.7225 19.119 24.4616 19.6938 24.4616 20.598C24.4616 21.5021 23.7225 22.4523 22.8462 22.6749Z" fill="url(#paint5_linear_6855_174810)"/>
<defs>
<linearGradient id="paint0_linear_6855_174810" x1="21.0008" y1="32.9998" x2="21.0008" y2="15.0007" gradientUnits="userSpaceOnUse">
<stop stop-color="#09354E"/>
<stop offset="1" stop-color="#359CBD" stop-opacity="0.08"/>
</linearGradient>
<linearGradient id="paint1_linear_6855_174810" x1="21.0008" y1="14.6798" x2="21.0008" y2="33.3207" gradientUnits="userSpaceOnUse">
<stop stop-color="#18C486" stop-opacity="0"/>
<stop offset="0.5101" stop-color="#00FFFF" stop-opacity="0.1"/>
<stop offset="1" stop-color="#00FFFF" stop-opacity="0.8"/>
</linearGradient>
<linearGradient id="paint2_linear_6855_174810" x1="21.0006" y1="37.9999" x2="21.0006" y2="25.0005" gradientUnits="userSpaceOnUse">
<stop stop-color="#09354E"/>
<stop offset="1" stop-color="#359CBD" stop-opacity="0.08"/>
</linearGradient>
<linearGradient id="paint3_linear_6855_174810" x1="21.0006" y1="24.7687" x2="21.0006" y2="38.2316" gradientUnits="userSpaceOnUse">
<stop stop-color="#18C486" stop-opacity="0"/>
<stop offset="0.5101" stop-color="#00FFFF" stop-opacity="0.1"/>
<stop offset="1" stop-color="#00FFFF" stop-opacity="0.6"/>
</linearGradient>
<linearGradient id="paint4_linear_6855_174810" x1="19.8462" y1="7.18147" x2="24.3633" y2="24.9676" gradientUnits="userSpaceOnUse">
<stop stop-color="#A1B0FF" stop-opacity="0.2"/>
<stop offset="1" stop-color="#A1B0FF"/>
</linearGradient>
<linearGradient id="paint5_linear_6855_174810" x1="22.8462" y1="7.18147" x2="27.3633" y2="24.9676" gradientUnits="userSpaceOnUse">
<stop stop-color="#399FFE" stop-opacity="0.5"/>
<stop offset="1" stop-color="#00FFFF" stop-opacity="0.8"/>
</linearGradient>
</defs>
</svg>
