<svg width="42" height="42" viewBox="0 0 42 42" fill="none" xmlns="http://www.w3.org/2000/svg">
<mask id="mask0_6855_174809" style="mask-type:alpha" maskUnits="userSpaceOnUse" x="1" y="1" width="40" height="40">
<rect x="1" y="1" width="40" height="40" fill="#D9D9D9"/>
</mask>
<g mask="url(#mask0_6855_174809)">
<path d="M15.9862 -24.5L18.3662 -23.1086L-13.62 32.9908L-16 31.5994L15.9862 -24.5Z" fill="#3758FF" fill-opacity="0.15"/>
<path d="M31.853 -15.2239L34.233 -13.8325L2.24686 42.2669L-0.133166 40.8755L31.853 -15.2239Z" fill="#3758FF" fill-opacity="0.15"/>
<path d="M47.7198 -5.94784L50.0999 -4.55642L18.1137 51.5429L15.7337 50.1515L47.7198 -5.94784Z" fill="#3758FF" fill-opacity="0.15"/>
<path d="M23.9196 -19.862L26.2996 -18.4705L-5.68654 37.6288L-8.06656 36.2374L23.9196 -19.862Z" fill="#3758FF" fill-opacity="0.15"/>
<path d="M39.7864 -10.5859L42.1665 -9.19446L10.1803 46.9049L7.80027 45.5135L39.7864 -10.5859Z" fill="#3758FF" fill-opacity="0.15"/>
<path d="M55.6532 -1.3098L58.0333 0.0816174L26.0471 56.181L23.6671 54.7896L55.6532 -1.3098Z" fill="#3758FF" fill-opacity="0.15"/>
<path d="M19.9529 -22.181L22.3329 -20.7896L-9.65328 35.3098L-12.0333 33.9184L19.9529 -22.181Z" fill="#3758FF" fill-opacity="0.15"/>
<path d="M35.8197 -12.9049L38.1997 -11.5135L6.21356 44.5859L3.83353 43.1945L35.8197 -12.9049Z" fill="#3758FF" fill-opacity="0.15"/>
<path d="M51.6865 -3.62882L54.0666 -2.2374L22.0804 53.862L19.7004 52.4706L51.6865 -3.62882Z" fill="#3758FF" fill-opacity="0.15"/>
<path d="M27.8863 -17.5429L30.2663 -16.1515L-1.71984 39.9478L-4.09986 38.5564L27.8863 -17.5429Z" fill="#3758FF" fill-opacity="0.15"/>
<path d="M43.7531 -8.26686L46.1332 -6.87544L14.147 49.2239L11.767 47.8325L43.7531 -8.26686Z" fill="#3758FF" fill-opacity="0.15"/>
<path d="M59.62 1.00923L62 2.40064L30.0138 58.5L27.6338 57.1086L59.62 1.00923Z" fill="#3758FF" fill-opacity="0.15"/>
</g>
<path opacity="0.15" d="M3.68676 1H1V3.73425M38.3132 41H41V38.2658M3.68676 41H1V38.2658M38.3132 1H41V3.73425" stroke="#00FFFF" stroke-linecap="round" stroke-linejoin="round"/>
<path d="M5.7052 22.3666L19.406 15.4812C20.7433 14.8074 22.3034 14.8427 23.6135 15.5775L36.3415 22.6971C37.224 23.1912 37.218 24.5355 36.3325 25.0232L22.8365 32.4412C21.4239 33.2177 19.7373 33.1824 18.3519 32.3514L5.62689 24.6927C4.75647 24.1698 4.80165 22.819 5.7052 22.3666Z" fill="url(#paint0_linear_6855_174809)"/>
<path d="M5.48134 21.9195L19.181 15.0347C19.1811 15.0347 19.1812 15.0346 19.1813 15.0346C20.6673 14.2859 22.4031 14.3256 23.8578 15.1412C23.8579 15.1413 23.858 15.1413 23.8581 15.1414L36.5856 22.2607L36.5858 22.2608C37.8113 22.947 37.8021 24.7846 36.5737 25.4612L36.5733 25.4614L23.0773 32.8794C21.508 33.742 19.6317 33.7021 18.0947 32.7802L18.094 32.7798L5.36938 25.1213L5.48134 21.9195ZM5.48134 21.9195C5.48122 21.9196 5.4811 21.9196 5.48097 21.9197C4.21935 22.5517 4.16688 24.3985 5.36906 25.1211L5.48134 21.9195Z" stroke="url(#paint1_linear_6855_174809)" stroke-opacity="0.8" stroke-miterlimit="10"/>
<g opacity="0.5">
<path d="M9.5289 30.3203L19.8045 25.3475C20.8074 24.8609 21.9775 24.8864 22.9602 25.4171L32.5061 30.559C33.168 30.9159 33.1635 31.8868 32.4994 32.239L22.3774 37.5964C21.318 38.1572 20.053 38.1317 19.0139 37.5315L9.47017 32.0003C8.81735 31.6226 8.85124 30.6471 9.5289 30.3203Z" fill="url(#paint2_linear_6855_174809)"/>
<path d="M9.26985 32.3465L18.8133 37.8776L18.8138 37.8779C19.9716 38.5466 21.3828 38.5754 22.5645 37.95C22.5645 37.95 22.5645 37.95 22.5645 37.95L32.6865 32.5925L32.6868 32.5924C33.6324 32.0908 33.64 30.7159 32.696 30.2069L32.6958 30.2068L23.1502 25.0651C22.0546 24.4735 20.749 24.4448 19.6303 24.9875C19.6301 24.9876 19.63 24.9876 19.6299 24.9877L9.35518 29.96C9.35512 29.96 9.35507 29.9601 9.35501 29.9601C8.38542 30.4277 8.34188 31.8096 9.26985 32.3465ZM9.26985 32.3465L9.47017 32.0003L9.26959 32.3464L9.26985 32.3465Z" stroke="url(#paint3_linear_6855_174809)" stroke-opacity="0.8" stroke-width="0.8" stroke-miterlimit="10"/>
</g>
<path d="M19.8312 23.2435C15.4801 24.2281 11.6503 21.4071 11.2827 16.9744C11.0065 13.6432 12.7578 10.321 15.4933 8.45944C15.8899 8.19601 16.3015 7.9559 16.7292 7.75224C17.2959 7.4904 17.8798 7.27811 18.483 7.14161C22.8341 6.15705 26.664 8.97802 27.0315 13.4108C27.1044 14.2895 27.0339 15.1739 26.8435 16.032C26.718 16.5681 26.5528 17.0998 26.3342 17.6169C25.2005 20.3451 22.7705 22.5785 19.8312 23.2435ZM28.4655 15.2507C28.563 14.5339 28.5813 13.8083 28.5204 13.0739C28.0833 7.80178 23.5295 4.44987 18.3569 5.62031C18.0103 5.69872 17.6777 5.78735 17.3601 5.8993C17.3601 5.8993 16.7644 6.12761 16.5249 6.23525C16.2854 6.34289 15.7946 6.57419 15.7946 6.57419C11.9884 8.61119 9.43171 12.9441 9.79383 17.3113C10.231 22.5834 14.7848 25.9353 19.9574 24.7649C23.8336 23.8877 26.9696 20.7064 28.1094 16.948L28.4655 15.2507Z" fill="url(#paint4_linear_6855_174809)" fill-opacity="0.2"/>
<path d="M18.5893 8.26662C14.8543 9.11178 12.07 12.9083 12.3865 16.7247C12.7029 20.541 16.0026 22.9609 19.7377 22.1157C23.4727 21.2706 26.2569 17.4741 25.9405 13.6577C25.624 9.84133 22.3244 7.42147 18.5893 8.26662ZM21.7824 19.8093L21.0508 19.9748C20.7573 20.5356 20.2293 20.949 19.6517 21.0797C19.0613 21.2133 18.4983 21.0467 18.1244 20.637L17.3928 20.8025C16.8023 20.9361 16.2872 20.5584 16.2372 19.9551C16.1872 19.3518 16.6218 18.7591 17.2123 18.6255L17.9439 18.46C18.2373 17.8992 18.7653 17.4858 19.3429 17.3551C19.9333 17.2215 20.4963 17.388 20.8703 17.7978L21.5634 17.6409C21.8449 17.7242 22.1499 17.7755 22.442 17.8296C22.6113 17.9783 22.7346 18.2043 22.7575 18.4797C22.8075 19.083 22.36 19.6786 21.7824 19.8093Z" fill="url(#paint5_linear_6855_174809)" fill-opacity="0.2"/>
<path d="M22.8312 23.2435C18.4801 24.2281 14.6503 21.4071 14.2827 16.9744C14.0065 13.6432 15.7578 10.321 18.4933 8.45944C18.8899 8.19601 19.3015 7.9559 19.7292 7.75224C20.2959 7.4904 20.8798 7.27811 21.483 7.14161C25.8341 6.15705 29.664 8.97802 30.0315 13.4108C30.1044 14.2895 30.0339 15.1739 29.8435 16.032C29.718 16.5681 29.5528 17.0998 29.3342 17.6169C28.2005 20.3451 25.7705 22.5785 22.8312 23.2435ZM31.4655 15.2507C31.563 14.5339 31.5813 13.8083 31.5204 13.0739C31.0833 7.80178 26.5295 4.44987 21.3569 5.62031C21.0103 5.69872 20.6777 5.78735 20.3601 5.8993C20.3601 5.8993 19.7644 6.12761 19.5249 6.23525C19.2854 6.34289 18.7946 6.57419 18.7946 6.57419C14.9884 8.61119 12.4317 12.9441 12.7938 17.3113C13.231 22.5834 17.7848 25.9353 22.9574 24.7649C26.8336 23.8877 29.9696 20.7064 31.1094 16.948L31.4655 15.2507Z" fill="url(#paint6_linear_6855_174809)"/>
<path d="M21.5893 8.26662C17.8543 9.11178 15.07 12.9083 15.3865 16.7247C15.7029 20.541 19.0026 22.9609 22.7377 22.1157C26.4727 21.2706 29.2569 17.4741 28.9405 13.6577C28.624 9.84133 25.3244 7.42147 21.5893 8.26662ZM24.7824 19.8093L24.0508 19.9748C23.7573 20.5356 23.2293 20.949 22.6517 21.0797C22.0613 21.2133 21.4983 21.0467 21.1244 20.637L20.3928 20.8025C19.8023 20.9361 19.2872 20.5584 19.2372 19.9551C19.1872 19.3518 19.6218 18.7591 20.2123 18.6255L20.9439 18.46C21.2373 17.8992 21.7653 17.4858 22.3429 17.3551C22.9333 17.2215 23.4963 17.388 23.8703 17.7978L24.5634 17.6409C24.8449 17.7242 25.1499 17.7755 25.442 17.8296C25.6113 17.9783 25.7346 18.2043 25.7575 18.4797C25.8075 19.083 25.36 19.6786 24.7824 19.8093Z" fill="url(#paint7_linear_6855_174809)"/>
<defs>
<linearGradient id="paint0_linear_6855_174809" x1="21.0008" y1="32.9998" x2="21.0008" y2="15.0007" gradientUnits="userSpaceOnUse">
<stop stop-color="#09354E"/>
<stop offset="1" stop-color="#359CBD" stop-opacity="0.08"/>
</linearGradient>
<linearGradient id="paint1_linear_6855_174809" x1="21.0008" y1="14.6798" x2="21.0008" y2="33.3207" gradientUnits="userSpaceOnUse">
<stop stop-color="#18C486" stop-opacity="0"/>
<stop offset="0.5101" stop-color="#00FFFF" stop-opacity="0.1"/>
<stop offset="1" stop-color="#00FFFF" stop-opacity="0.8"/>
</linearGradient>
<linearGradient id="paint2_linear_6855_174809" x1="21.0006" y1="37.9999" x2="21.0006" y2="25.0005" gradientUnits="userSpaceOnUse">
<stop stop-color="#09354E"/>
<stop offset="1" stop-color="#359CBD" stop-opacity="0.08"/>
</linearGradient>
<linearGradient id="paint3_linear_6855_174809" x1="21.0006" y1="24.7687" x2="21.0006" y2="38.2316" gradientUnits="userSpaceOnUse">
<stop stop-color="#18C486" stop-opacity="0"/>
<stop offset="0.5101" stop-color="#00FFFF" stop-opacity="0.1"/>
<stop offset="1" stop-color="#00FFFF" stop-opacity="0.6"/>
</linearGradient>
<linearGradient id="paint4_linear_6855_174809" x1="18.3633" y1="5.61885" x2="22.5622" y2="24.1754" gradientUnits="userSpaceOnUse">
<stop stop-color="#A2B0FF" stop-opacity="0.2"/>
<stop offset="1" stop-color="#A2B0FF"/>
</linearGradient>
<linearGradient id="paint5_linear_6855_174809" x1="18.3633" y1="5.61885" x2="22.5622" y2="24.1754" gradientUnits="userSpaceOnUse">
<stop stop-color="#A2B0FF" stop-opacity="0.2"/>
<stop offset="1" stop-color="#A2B0FF"/>
</linearGradient>
<linearGradient id="paint6_linear_6855_174809" x1="21.3221" y1="5.12054" x2="26.3486" y2="27.3346" gradientUnits="userSpaceOnUse">
<stop stop-color="#399FFE" stop-opacity="0.5"/>
<stop offset="1" stop-color="#00FFFF" stop-opacity="0.8"/>
</linearGradient>
<linearGradient id="paint7_linear_6855_174809" x1="21.3221" y1="5.12054" x2="26.3486" y2="27.3346" gradientUnits="userSpaceOnUse">
<stop stop-color="#399FFE" stop-opacity="0.5"/>
<stop offset="1" stop-color="#00FFFF" stop-opacity="0.8"/>
</linearGradient>
</defs>
</svg>
