<svg width="42" height="42" viewBox="0 0 42 42" fill="none" xmlns="http://www.w3.org/2000/svg">
<mask id="mask0_6855_174812" style="mask-type:alpha" maskUnits="userSpaceOnUse" x="1" y="1" width="40" height="40">
<rect x="1" y="1" width="40" height="40" fill="#D9D9D9"/>
</mask>
<g mask="url(#mask0_6855_174812)">
<path d="M15.9862 -24.5L18.3662 -23.1086L-13.62 32.9908L-16 31.5994L15.9862 -24.5Z" fill="#3758FF" fill-opacity="0.15"/>
<path d="M31.853 -15.2239L34.233 -13.8325L2.24686 42.2669L-0.133166 40.8755L31.853 -15.2239Z" fill="#3758FF" fill-opacity="0.15"/>
<path d="M47.7198 -5.94784L50.0999 -4.55642L18.1137 51.5429L15.7337 50.1515L47.7198 -5.94784Z" fill="#3758FF" fill-opacity="0.15"/>
<path d="M23.9196 -19.862L26.2996 -18.4705L-5.68654 37.6288L-8.06656 36.2374L23.9196 -19.862Z" fill="#3758FF" fill-opacity="0.15"/>
<path d="M39.7864 -10.5859L42.1665 -9.19446L10.1803 46.9049L7.80027 45.5135L39.7864 -10.5859Z" fill="#3758FF" fill-opacity="0.15"/>
<path d="M55.6532 -1.3098L58.0333 0.0816174L26.0471 56.181L23.6671 54.7896L55.6532 -1.3098Z" fill="#3758FF" fill-opacity="0.15"/>
<path d="M19.9529 -22.181L22.3329 -20.7896L-9.65328 35.3098L-12.0333 33.9184L19.9529 -22.181Z" fill="#3758FF" fill-opacity="0.15"/>
<path d="M35.8197 -12.9049L38.1997 -11.5135L6.21356 44.5859L3.83353 43.1945L35.8197 -12.9049Z" fill="#3758FF" fill-opacity="0.15"/>
<path d="M51.6865 -3.62882L54.0666 -2.2374L22.0804 53.862L19.7004 52.4706L51.6865 -3.62882Z" fill="#3758FF" fill-opacity="0.15"/>
<path d="M27.8863 -17.5429L30.2663 -16.1515L-1.71984 39.9478L-4.09986 38.5564L27.8863 -17.5429Z" fill="#3758FF" fill-opacity="0.15"/>
<path d="M43.7531 -8.26686L46.1332 -6.87544L14.147 49.2239L11.767 47.8325L43.7531 -8.26686Z" fill="#3758FF" fill-opacity="0.15"/>
<path d="M59.62 1.00923L62 2.40064L30.0138 58.5L27.6338 57.1086L59.62 1.00923Z" fill="#3758FF" fill-opacity="0.15"/>
</g>
<path opacity="0.15" d="M3.68676 1H1V3.73425M38.3132 41H41V38.2658M3.68676 41H1V38.2658M38.3132 1H41V3.73425" stroke="#00FFFF" stroke-linecap="round" stroke-linejoin="round"/>
<path d="M5.7052 22.3665L19.406 15.4811C20.7433 14.8073 22.3034 14.8426 23.6135 15.5774L36.3415 22.697C37.224 23.1911 37.218 24.5354 36.3325 25.0231L22.8365 32.4411C21.4239 33.2175 19.7373 33.1822 18.3519 32.3513L5.62689 24.6926C4.75647 24.1696 4.80165 22.8189 5.7052 22.3665Z" fill="url(#paint0_linear_6855_174812)"/>
<path d="M5.48134 21.9194L19.181 15.0346C19.1811 15.0345 19.1812 15.0345 19.1813 15.0345C20.6673 14.2858 22.4031 14.3254 23.8578 15.1411C23.8579 15.1411 23.858 15.1412 23.8581 15.1412L36.5856 22.2606L36.5858 22.2607C37.8113 22.9469 37.8021 24.7845 36.5737 25.4611L36.5733 25.4613L23.0773 32.8793C21.508 33.7419 19.6317 33.702 18.0947 32.78L18.094 32.7796L5.36938 25.1212L5.48134 21.9194ZM5.48134 21.9194C5.48122 21.9195 5.4811 21.9195 5.48097 21.9196C4.21935 22.5516 4.16688 24.3984 5.36906 25.121L5.48134 21.9194Z" stroke="url(#paint1_linear_6855_174812)" stroke-opacity="0.8" stroke-miterlimit="10"/>
<g opacity="0.5">
<path d="M9.5289 30.3202L19.8045 25.3474C20.8074 24.8608 21.9775 24.8863 22.9602 25.4169L32.5061 30.5589C33.168 30.9157 33.1635 31.8867 32.4994 32.2389L22.3774 37.5963C21.318 38.1571 20.053 38.1316 19.0139 37.5314L9.47017 32.0002C8.81735 31.6225 8.85124 30.6469 9.5289 30.3202Z" fill="url(#paint2_linear_6855_174812)"/>
<path d="M9.26985 32.3464L18.8133 37.8775L18.8138 37.8778C19.9716 38.5465 21.3828 38.5753 22.5645 37.9498C22.5645 37.9498 22.5645 37.9498 22.5645 37.9498L32.6865 32.5924L32.6868 32.5922C33.6324 32.0907 33.64 30.7158 32.696 30.2068L32.6958 30.2067L23.1502 25.065C22.0546 24.4733 20.749 24.4447 19.6303 24.9874C19.6301 24.9874 19.63 24.9875 19.6299 24.9875L9.35518 29.9599C9.35512 29.9599 9.35507 29.9599 9.35501 29.96C8.38542 30.4276 8.34188 31.8095 9.26985 32.3464ZM9.26985 32.3464L9.47017 32.0002L9.26959 32.3463L9.26985 32.3464Z" stroke="url(#paint3_linear_6855_174812)" stroke-opacity="0.8" stroke-width="0.8" stroke-miterlimit="10"/>
</g>
<path d="M26.7294 6.80254V22.5462C26.7294 23.1702 27.1991 23.5551 27.7803 23.4075L28.3337 23.2669C28.9149 23.1193 29.3846 22.4958 29.3846 21.8719V6.1282C29.3846 5.50425 28.9149 5.11932 28.3337 5.26694L27.7803 5.40747C27.1991 5.55509 26.7294 6.1786 26.7294 6.80254ZM11.0509 27.6562L11.6043 27.5157C12.1855 27.368 12.6553 26.7445 12.6553 26.1206V10.3769C12.6553 9.75297 12.1855 9.36804 11.6043 9.51565L11.0509 9.65619C10.4697 9.8038 10 10.4273 10 11.0513V26.7949C10 27.4166 10.4697 27.8038 11.0509 27.6562ZM14.6542 25.8201L24.7347 23.26C25.316 23.1124 25.7857 22.4889 25.7857 21.8649V7.96317C25.7857 7.33922 25.316 6.95429 24.7347 7.10191L14.6542 9.66203C14.073 9.80965 13.6032 10.4332 13.6032 11.0571V24.9589C13.6032 25.5805 14.073 25.9677 14.6542 25.8201ZM16.5845 14.0482L22.8473 12.4577C23.4285 12.3101 23.8982 12.695 23.8982 13.3189C23.8982 13.9429 23.4285 14.5664 22.8473 14.714L16.5845 16.3046C16.0033 16.4522 15.5336 16.0673 15.5336 15.4433C15.5336 14.8194 16.0033 14.1959 16.5845 14.0482ZM16.5845 18.4458L18.9867 17.8357C19.5679 17.6881 20.0376 18.073 20.0376 18.697C20.0376 19.3209 19.5679 19.9444 18.9867 20.092L16.5845 20.7021C16.0033 20.8497 15.5336 20.4648 15.5336 19.8409C15.5336 19.2169 16.0033 18.5934 16.5845 18.4458Z" fill="url(#paint4_linear_6855_174812)" fill-opacity="0.2"/>
<path d="M29.7294 6.80254V22.5462C29.7294 23.1702 30.1991 23.5551 30.7803 23.4075L31.3337 23.2669C31.9149 23.1193 32.3846 22.4958 32.3846 21.8719V6.1282C32.3846 5.50425 31.9149 5.11932 31.3337 5.26694L30.7803 5.40747C30.1991 5.55509 29.7294 6.1786 29.7294 6.80254ZM14.0509 27.6562L14.6043 27.5157C15.1855 27.368 15.6553 26.7445 15.6553 26.1206V10.3769C15.6553 9.75297 15.1855 9.36804 14.6043 9.51565L14.0509 9.65619C13.4697 9.8038 13 10.4273 13 11.0513V26.7949C13 27.4166 13.4697 27.8038 14.0509 27.6562ZM17.6542 25.8201L27.7347 23.26C28.316 23.1124 28.7857 22.4889 28.7857 21.8649V7.96317C28.7857 7.33922 28.316 6.95429 27.7347 7.10191L17.6542 9.66203C17.073 9.80965 16.6032 10.4332 16.6032 11.0571V24.9589C16.6032 25.5805 17.073 25.9677 17.6542 25.8201ZM19.5845 14.0482L25.8473 12.4577C26.4285 12.3101 26.8982 12.695 26.8982 13.3189C26.8982 13.9429 26.4285 14.5664 25.8473 14.714L19.5845 16.3046C19.0033 16.4522 18.5336 16.0673 18.5336 15.4433C18.5336 14.8194 19.0033 14.1959 19.5845 14.0482ZM19.5845 18.4458L21.9867 17.8357C22.5679 17.6881 23.0376 18.073 23.0376 18.697C23.0376 19.3209 22.5679 19.9444 21.9867 20.092L19.5845 20.7021C19.0033 20.8497 18.5336 20.4648 18.5336 19.8409C18.5336 19.2169 19.0033 18.5934 19.5845 18.4458Z" fill="url(#paint5_linear_6855_174812)"/>
<defs>
<linearGradient id="paint0_linear_6855_174812" x1="21.0008" y1="32.9997" x2="21.0008" y2="15.0005" gradientUnits="userSpaceOnUse">
<stop stop-color="#09354E"/>
<stop offset="1" stop-color="#359CBD" stop-opacity="0.08"/>
</linearGradient>
<linearGradient id="paint1_linear_6855_174812" x1="21.0008" y1="14.6797" x2="21.0008" y2="33.3206" gradientUnits="userSpaceOnUse">
<stop stop-color="#18C486" stop-opacity="0"/>
<stop offset="0.5101" stop-color="#00FFFF" stop-opacity="0.1"/>
<stop offset="1" stop-color="#00FFFF" stop-opacity="0.8"/>
</linearGradient>
<linearGradient id="paint2_linear_6855_174812" x1="21.0006" y1="37.9998" x2="21.0006" y2="25.0004" gradientUnits="userSpaceOnUse">
<stop stop-color="#09354E"/>
<stop offset="1" stop-color="#359CBD" stop-opacity="0.08"/>
</linearGradient>
<linearGradient id="paint3_linear_6855_174812" x1="21.0006" y1="24.7686" x2="21.0006" y2="38.2315" gradientUnits="userSpaceOnUse">
<stop stop-color="#18C486" stop-opacity="0"/>
<stop offset="0.5101" stop-color="#00FFFF" stop-opacity="0.1"/>
<stop offset="1" stop-color="#00FFFF" stop-opacity="0.6"/>
</linearGradient>
<linearGradient id="paint4_linear_6855_174812" x1="19.6923" y1="7.46156" x2="23.9867" y2="24.3709" gradientUnits="userSpaceOnUse">
<stop stop-color="#A1B0FF" stop-opacity="0"/>
<stop offset="1" stop-color="#A1B0FF"/>
</linearGradient>
<linearGradient id="paint5_linear_6855_174812" x1="22.6923" y1="7.46156" x2="26.9867" y2="24.3709" gradientUnits="userSpaceOnUse">
<stop stop-color="#399FFE" stop-opacity="0.5"/>
<stop offset="1" stop-color="#00FFFF" stop-opacity="0.8"/>
</linearGradient>
</defs>
</svg>
