<svg width="42" height="42" viewBox="0 0 42 42" fill="none" xmlns="http://www.w3.org/2000/svg">
<mask id="mask0_6855_174811" style="mask-type:alpha" maskUnits="userSpaceOnUse" x="1" y="1" width="40" height="40">
<rect x="1" y="1" width="40" height="40" fill="#D9D9D9"/>
</mask>
<g mask="url(#mask0_6855_174811)">
<path d="M15.9862 -24.5L18.3662 -23.1086L-13.62 32.9908L-16 31.5994L15.9862 -24.5Z" fill="#3758FF" fill-opacity="0.15"/>
<path d="M31.853 -15.2239L34.233 -13.8325L2.24686 42.2669L-0.133166 40.8755L31.853 -15.2239Z" fill="#3758FF" fill-opacity="0.15"/>
<path d="M47.7198 -5.94784L50.0999 -4.55642L18.1137 51.5429L15.7337 50.1515L47.7198 -5.94784Z" fill="#3758FF" fill-opacity="0.15"/>
<path d="M23.9196 -19.862L26.2996 -18.4705L-5.68654 37.6288L-8.06656 36.2374L23.9196 -19.862Z" fill="#3758FF" fill-opacity="0.15"/>
<path d="M39.7864 -10.5859L42.1665 -9.19446L10.1803 46.9049L7.80027 45.5135L39.7864 -10.5859Z" fill="#3758FF" fill-opacity="0.15"/>
<path d="M55.6532 -1.3098L58.0333 0.0816174L26.0471 56.181L23.6671 54.7896L55.6532 -1.3098Z" fill="#3758FF" fill-opacity="0.15"/>
<path d="M19.9529 -22.181L22.3329 -20.7896L-9.65328 35.3098L-12.0333 33.9184L19.9529 -22.181Z" fill="#3758FF" fill-opacity="0.15"/>
<path d="M35.8197 -12.9049L38.1997 -11.5135L6.21356 44.5859L3.83353 43.1945L35.8197 -12.9049Z" fill="#3758FF" fill-opacity="0.15"/>
<path d="M51.6865 -3.62882L54.0666 -2.2374L22.0804 53.862L19.7004 52.4706L51.6865 -3.62882Z" fill="#3758FF" fill-opacity="0.15"/>
<path d="M27.8863 -17.5429L30.2663 -16.1515L-1.71984 39.9478L-4.09986 38.5564L27.8863 -17.5429Z" fill="#3758FF" fill-opacity="0.15"/>
<path d="M43.7531 -8.26686L46.1332 -6.87544L14.147 49.2239L11.767 47.8325L43.7531 -8.26686Z" fill="#3758FF" fill-opacity="0.15"/>
<path d="M59.62 1.00923L62 2.40064L30.0138 58.5L27.6338 57.1086L59.62 1.00923Z" fill="#3758FF" fill-opacity="0.15"/>
</g>
<path opacity="0.15" d="M3.68676 1H1V3.73425M38.3132 41H41V38.2658M3.68676 41H1V38.2658M38.3132 1H41V3.73425" stroke="#00FFFF" stroke-linecap="round" stroke-linejoin="round"/>
<path d="M5.7052 22.3666L19.406 15.4812C20.7433 14.8074 22.3034 14.8427 23.6135 15.5775L36.3415 22.6971C37.224 23.1912 37.218 24.5355 36.3325 25.0232L22.8365 32.4412C21.4239 33.2177 19.7373 33.1824 18.3519 32.3514L5.62689 24.6927C4.75647 24.1698 4.80165 22.819 5.7052 22.3666Z" fill="url(#paint0_linear_6855_174811)"/>
<path d="M5.48134 21.9195L19.181 15.0347C19.1811 15.0347 19.1812 15.0346 19.1813 15.0346C20.6673 14.2859 22.4031 14.3256 23.8578 15.1412C23.8579 15.1413 23.858 15.1413 23.8581 15.1414L36.5856 22.2607L36.5858 22.2608C37.8113 22.947 37.8021 24.7846 36.5737 25.4612L36.5733 25.4614L23.0773 32.8794C21.508 33.742 19.6317 33.7021 18.0947 32.7802L18.094 32.7798L5.36938 25.1213L5.48134 21.9195ZM5.48134 21.9195C5.48122 21.9196 5.4811 21.9196 5.48097 21.9197C4.21935 22.5517 4.16688 24.3985 5.36906 25.1211L5.48134 21.9195Z" stroke="url(#paint1_linear_6855_174811)" stroke-opacity="0.8" stroke-miterlimit="10"/>
<g opacity="0.5">
<path d="M9.5289 30.3203L19.8045 25.3475C20.8074 24.8609 21.9775 24.8864 22.9602 25.4171L32.5061 30.559C33.168 30.9159 33.1635 31.8868 32.4994 32.239L22.3774 37.5964C21.318 38.1572 20.053 38.1317 19.0139 37.5315L9.47017 32.0003C8.81735 31.6226 8.85124 30.6471 9.5289 30.3203Z" fill="url(#paint2_linear_6855_174811)"/>
<path d="M9.26985 32.3465L18.8133 37.8776L18.8138 37.8779C19.9716 38.5466 21.3828 38.5754 22.5645 37.95C22.5645 37.95 22.5645 37.95 22.5645 37.95L32.6865 32.5925L32.6868 32.5924C33.6324 32.0908 33.64 30.7159 32.696 30.2069L32.6958 30.2068L23.1502 25.0651C22.0546 24.4735 20.749 24.4448 19.6303 24.9875C19.6301 24.9876 19.63 24.9876 19.6299 24.9877L9.35518 29.96C9.35512 29.96 9.35507 29.9601 9.35501 29.9601C8.38542 30.4277 8.34188 31.8096 9.26985 32.3465ZM9.26985 32.3465L9.47017 32.0003L9.26959 32.3464L9.26985 32.3465Z" stroke="url(#paint3_linear_6855_174811)" stroke-opacity="0.8" stroke-width="0.8" stroke-miterlimit="10"/>
</g>
<path fill-rule="evenodd" clip-rule="evenodd" d="M20.7494 7.44074C20.5274 7.11109 20.3973 6.91838 20.3593 6.86262C20.1817 6.63292 19.9501 6.48562 19.6647 6.42071C19.3792 6.35581 19.0843 6.36202 18.7798 6.43934C18.4753 6.51667 18.1804 6.66683 17.8949 6.88981C17.6095 7.11279 17.3779 7.39078 17.2003 7.72378L16.8007 8.51228C16.5723 8.96285 16.2869 9.5326 15.9444 10.2215C15.6018 10.9105 15.2149 11.6827 14.7835 12.5381C14.3522 13.3936 13.9082 14.2751 13.4515 15.1828C12.9947 16.0905 12.5444 16.9835 12.1003 17.8618C11.6563 18.7401 11.2503 19.5433 10.8824 20.2714C10.5145 20.9995 10.2005 21.619 9.94045 22.13C9.68038 22.641 9.50594 22.9797 9.41713 23.1462C9.23952 23.4661 9.11583 23.7919 9.04605 24.1237C8.97628 24.4555 8.98579 24.7442 9.0746 24.99C9.1634 25.2357 9.33784 25.4105 9.59792 25.5146C9.85799 25.6187 10.2291 25.6095 10.7112 25.4871L14.0414 24.6413C14.8153 24.4448 15.6526 24.2288 16.5533 23.9935C17.4541 23.7582 18.3611 23.5246 19.2746 23.2926L24.3365 22.007C25.0343 21.8298 25.6305 21.6817 26.1253 21.5626C26.6201 21.4434 26.9436 21.3646 27.0958 21.3259C27.4003 21.2616 27.6572 21.1212 27.8665 20.9044C28.0759 20.6877 28.2218 20.438 28.3042 20.1553C28.3867 19.8727 28.4057 19.5734 28.3613 19.2575C28.3169 18.9417 28.1996 18.6443 28.0093 18.3655C27.9078 18.2212 27.727 17.953 27.4669 17.5611C27.2068 17.1691 26.896 16.6984 26.5344 16.1491C26.1729 15.5997 25.7733 14.9978 25.3356 14.3434C24.8979 13.6891 24.457 13.029 24.013 12.3631C23.569 11.6973 23.1376 11.0446 22.719 10.405C22.3003 9.76544 21.9229 9.19391 21.5867 8.69043C21.2505 8.18695 20.9714 7.77038 20.7494 7.44074ZM18.8774 20.8904C19.2346 20.9635 19.6031 20.9519 19.9829 20.8554L20.6973 20.674C20.8711 20.6298 21.0529 20.582 21.2428 20.5305C21.4327 20.479 21.6113 20.432 21.7787 20.3895L22.4931 20.2081C22.6218 20.1754 22.7296 20.1037 22.8165 19.9932C22.9034 19.8827 22.9694 19.7545 23.0145 19.6087C23.0595 19.4629 23.082 19.3113 23.082 19.154C23.082 18.9967 23.0579 18.857 23.0096 18.7349C22.9614 18.6128 22.8906 18.5194 22.7972 18.4546C22.7039 18.3899 22.5864 18.3754 22.4448 18.4114L22.1069 18.4972C21.9267 18.543 21.7159 18.5982 21.4745 18.6628C21.2332 18.7273 20.9838 18.7923 20.7263 18.8577L20.0505 19.0293C19.8831 19.0718 19.7254 19.0726 19.5774 19.0315C19.4293 18.9905 19.299 18.922 19.1864 18.8261C19.0737 18.7301 18.9836 18.6154 18.916 18.4818C18.8485 18.3482 18.8147 18.2061 18.8147 18.0553V17.0329C18.8147 16.6659 18.8114 16.3357 18.805 16.0424C18.805 15.9113 18.8195 15.8044 18.8485 15.7217C18.8774 15.639 18.953 15.5821 19.0753 15.551C19.1333 15.5363 19.2008 15.5175 19.2781 15.4946C19.3553 15.4717 19.4358 15.448 19.5195 15.4235C19.6031 15.399 19.682 15.3757 19.756 15.3536C19.83 15.3315 19.8928 15.3139 19.9443 15.3009C20.118 15.2567 20.221 15.1732 20.2532 15.0503C20.2854 14.9275 20.2307 14.7988 20.0891 14.6644C19.9604 14.5398 19.8155 14.3963 19.6546 14.234C19.4937 14.0717 19.3296 13.9069 19.1622 13.7397C18.9949 13.5725 18.8324 13.4122 18.6747 13.2589C18.517 13.1056 18.3802 12.9716 18.2643 12.8568C18.1485 12.7486 18.0391 12.7092 17.9361 12.7387C17.8331 12.7681 17.7237 12.8729 17.6078 13.0531C17.4791 13.2496 17.3343 13.4732 17.1734 13.7238C17.0125 13.9744 16.8483 14.2291 16.681 14.4878C16.5136 14.7466 16.3511 14.9976 16.1934 15.2409C16.0357 15.4841 15.8989 15.699 15.7831 15.8858C15.6672 16.0659 15.6334 16.1958 15.6817 16.2753C15.73 16.3548 15.8378 16.3733 16.0051 16.3308C16.1081 16.3046 16.2224 16.2772 16.3479 16.2486C16.4734 16.22 16.5844 16.1935 16.681 16.1689C16.8097 16.1297 16.8934 16.1609 16.932 16.2625C16.9706 16.3641 16.9899 16.5099 16.9899 16.7V17.1621C16.9899 17.3325 16.9915 17.5041 16.9948 17.677C16.998 17.8498 16.9996 18.0116 16.9996 18.1624V18.5458C16.9996 18.9587 17.0833 19.329 17.2506 19.6568C17.4179 19.9846 17.6416 20.2539 17.9216 20.4646C18.2016 20.6753 18.5202 20.8173 18.8774 20.8904Z" fill="url(#paint4_linear_6855_174811)" fill-opacity="0.2"/>
<path fill-rule="evenodd" clip-rule="evenodd" d="M24.7494 7.44074C24.5274 7.11109 24.3973 6.91838 24.3593 6.86262C24.1817 6.63292 23.9501 6.48562 23.6647 6.42071C23.3792 6.35581 23.0843 6.36202 22.7798 6.43934C22.4753 6.51667 22.1804 6.66683 21.8949 6.88981C21.6095 7.11279 21.3779 7.39078 21.2003 7.72378L20.8007 8.51228C20.5723 8.96285 20.2869 9.5326 19.9444 10.2215C19.6018 10.9105 19.2149 11.6827 18.7835 12.5381C18.3522 13.3936 17.9082 14.2751 17.4515 15.1828C16.9947 16.0905 16.5444 16.9835 16.1003 17.8618C15.6563 18.7401 15.2503 19.5433 14.8824 20.2714C14.5145 20.9995 14.2005 21.619 13.9405 22.13C13.6804 22.641 13.5059 22.9797 13.4171 23.1462C13.2395 23.4661 13.1158 23.7919 13.0461 24.1237C12.9763 24.4555 12.9858 24.7442 13.0746 24.99C13.1634 25.2357 13.3378 25.4105 13.5979 25.5146C13.858 25.6187 14.2291 25.6095 14.7112 25.4871L18.0414 24.6413C18.8153 24.4448 19.6526 24.2288 20.5533 23.9935C21.4541 23.7582 22.3611 23.5246 23.2746 23.2926L28.3365 22.007C29.0343 21.8298 29.6305 21.6817 30.1253 21.5626C30.6201 21.4434 30.9436 21.3646 31.0958 21.3259C31.4003 21.2616 31.6572 21.1212 31.8665 20.9044C32.0759 20.6877 32.2218 20.438 32.3042 20.1553C32.3867 19.8727 32.4057 19.5734 32.3613 19.2575C32.3169 18.9417 32.1996 18.6443 32.0093 18.3655C31.9078 18.2212 31.727 17.953 31.4669 17.5611C31.2068 17.1691 30.896 16.6984 30.5344 16.1491C30.1729 15.5997 29.7733 14.9978 29.3356 14.3434C28.8979 13.6891 28.457 13.029 28.013 12.3631C27.569 11.6973 27.1376 11.0446 26.719 10.405C26.3003 9.76544 25.9229 9.19391 25.5867 8.69043C25.2505 8.18695 24.9714 7.77038 24.7494 7.44074ZM22.8774 20.8904C23.2346 20.9635 23.6031 20.9519 23.9829 20.8554L24.6973 20.674C24.8711 20.6298 25.0529 20.582 25.2428 20.5305C25.4327 20.479 25.6113 20.432 25.7787 20.3895L26.4931 20.2081C26.6218 20.1754 26.7296 20.1037 26.8165 19.9932C26.9034 19.8827 26.9694 19.7545 27.0145 19.6087C27.0595 19.4629 27.082 19.3113 27.082 19.154C27.082 18.9967 27.0579 18.857 27.0096 18.7349C26.9614 18.6128 26.8906 18.5194 26.7972 18.4546C26.7039 18.3899 26.5864 18.3754 26.4448 18.4114L26.1069 18.4972C25.9267 18.543 25.7159 18.5982 25.4745 18.6628C25.2332 18.7273 24.9838 18.7923 24.7263 18.8577L24.0505 19.0293C23.8831 19.0718 23.7254 19.0726 23.5774 19.0315C23.4293 18.9905 23.299 18.922 23.1864 18.8261C23.0737 18.7301 22.9836 18.6154 22.916 18.4818C22.8485 18.3482 22.8147 18.2061 22.8147 18.0553V17.0329C22.8147 16.6659 22.8114 16.3357 22.805 16.0424C22.805 15.9113 22.8195 15.8044 22.8485 15.7217C22.8774 15.639 22.953 15.5821 23.0753 15.551C23.1333 15.5363 23.2008 15.5175 23.2781 15.4946C23.3553 15.4717 23.4358 15.448 23.5195 15.4235C23.6031 15.399 23.682 15.3757 23.756 15.3536C23.83 15.3315 23.8928 15.3139 23.9443 15.3009C24.118 15.2567 24.221 15.1732 24.2532 15.0503C24.2854 14.9275 24.2307 14.7988 24.0891 14.6644C23.9604 14.5398 23.8155 14.3963 23.6546 14.234C23.4937 14.0717 23.3296 13.9069 23.1622 13.7397C22.9949 13.5725 22.8324 13.4122 22.6747 13.2589C22.517 13.1056 22.3802 12.9716 22.2643 12.8568C22.1485 12.7486 22.0391 12.7092 21.9361 12.7387C21.8331 12.7681 21.7237 12.8729 21.6078 13.0531C21.4791 13.2496 21.3343 13.4732 21.1734 13.7238C21.0125 13.9744 20.8483 14.2291 20.681 14.4878C20.5136 14.7466 20.3511 14.9976 20.1934 15.2409C20.0357 15.4841 19.8989 15.699 19.7831 15.8858C19.6672 16.0659 19.6334 16.1958 19.6817 16.2753C19.73 16.3548 19.8378 16.3733 20.0051 16.3308C20.1081 16.3046 20.2224 16.2772 20.3479 16.2486C20.4734 16.22 20.5844 16.1935 20.681 16.1689C20.8097 16.1297 20.8934 16.1609 20.932 16.2625C20.9706 16.3641 20.9899 16.5099 20.9899 16.7V17.1621C20.9899 17.3325 20.9915 17.5041 20.9948 17.677C20.998 17.8498 20.9996 18.0116 20.9996 18.1624V18.5458C20.9996 18.9587 21.0833 19.329 21.2506 19.6568C21.4179 19.9846 21.6416 20.2539 21.9216 20.4646C22.2016 20.6753 22.5202 20.8173 22.8774 20.8904Z" fill="url(#paint5_linear_6855_174811)"/>
<defs>
<linearGradient id="paint0_linear_6855_174811" x1="21.0008" y1="32.9998" x2="21.0008" y2="15.0007" gradientUnits="userSpaceOnUse">
<stop stop-color="#09354E"/>
<stop offset="1" stop-color="#359CBD" stop-opacity="0.08"/>
</linearGradient>
<linearGradient id="paint1_linear_6855_174811" x1="21.0008" y1="14.6798" x2="21.0008" y2="33.3207" gradientUnits="userSpaceOnUse">
<stop stop-color="#18C486" stop-opacity="0"/>
<stop offset="0.5101" stop-color="#00FFFF" stop-opacity="0.1"/>
<stop offset="1" stop-color="#00FFFF" stop-opacity="0.8"/>
</linearGradient>
<linearGradient id="paint2_linear_6855_174811" x1="21.0006" y1="37.9999" x2="21.0006" y2="25.0005" gradientUnits="userSpaceOnUse">
<stop stop-color="#09354E"/>
<stop offset="1" stop-color="#359CBD" stop-opacity="0.08"/>
</linearGradient>
<linearGradient id="paint3_linear_6855_174811" x1="21.0006" y1="24.7687" x2="21.0006" y2="38.2316" gradientUnits="userSpaceOnUse">
<stop stop-color="#18C486" stop-opacity="0"/>
<stop offset="0.5101" stop-color="#00FFFF" stop-opacity="0.1"/>
<stop offset="1" stop-color="#00FFFF" stop-opacity="0.6"/>
</linearGradient>
<linearGradient id="paint4_linear_6855_174811" x1="18.6923" y1="6.46156" x2="22.7482" y2="22.4315" gradientUnits="userSpaceOnUse">
<stop stop-color="#A1B0FF" stop-opacity="0.2"/>
<stop offset="1" stop-color="#A1B0FF"/>
</linearGradient>
<linearGradient id="paint5_linear_6855_174811" x1="22.6923" y1="6.46156" x2="26.7482" y2="22.4315" gradientUnits="userSpaceOnUse">
<stop stop-color="#399FFE" stop-opacity="0.5"/>
<stop offset="1" stop-color="#00FFFF" stop-opacity="0.8"/>
</linearGradient>
</defs>
</svg>
