<svg width="42" height="42" viewBox="0 0 42 42" fill="none" xmlns="http://www.w3.org/2000/svg">
<mask id="mask0_6855_174813" style="mask-type:alpha" maskUnits="userSpaceOnUse" x="1" y="1" width="40" height="40">
<rect x="1" y="1" width="40" height="40" fill="#D9D9D9"/>
</mask>
<g mask="url(#mask0_6855_174813)">
<path d="M15.9862 -24.5L18.3662 -23.1086L-13.62 32.9908L-16 31.5994L15.9862 -24.5Z" fill="#3758FF" fill-opacity="0.15"/>
<path d="M31.853 -15.2239L34.233 -13.8325L2.24686 42.2669L-0.133166 40.8754L31.853 -15.2239Z" fill="#3758FF" fill-opacity="0.15"/>
<path d="M47.7198 -5.94784L50.0999 -4.55642L18.1137 51.5429L15.7337 50.1515L47.7198 -5.94784Z" fill="#3758FF" fill-opacity="0.15"/>
<path d="M23.9196 -19.862L26.2996 -18.4705L-5.68654 37.6288L-8.06656 36.2374L23.9196 -19.862Z" fill="#3758FF" fill-opacity="0.15"/>
<path d="M39.7864 -10.5859L42.1665 -9.19446L10.1803 46.9049L7.80027 45.5135L39.7864 -10.5859Z" fill="#3758FF" fill-opacity="0.15"/>
<path d="M55.6532 -1.3098L58.0333 0.0816171L26.0471 56.181L23.6671 54.7896L55.6532 -1.3098Z" fill="#3758FF" fill-opacity="0.15"/>
<path d="M19.9529 -22.181L22.3329 -20.7896L-9.65328 35.3098L-12.0333 33.9184L19.9529 -22.181Z" fill="#3758FF" fill-opacity="0.15"/>
<path d="M35.8197 -12.9049L38.1997 -11.5135L6.21356 44.5859L3.83353 43.1945L35.8197 -12.9049Z" fill="#3758FF" fill-opacity="0.15"/>
<path d="M51.6865 -3.62882L54.0666 -2.2374L22.0804 53.862L19.7004 52.4706L51.6865 -3.62882Z" fill="#3758FF" fill-opacity="0.15"/>
<path d="M27.8863 -17.5429L30.2663 -16.1515L-1.71984 39.9478L-4.09987 38.5564L27.8863 -17.5429Z" fill="#3758FF" fill-opacity="0.15"/>
<path d="M43.7531 -8.26686L46.1332 -6.87544L14.147 49.2239L11.767 47.8325L43.7531 -8.26686Z" fill="#3758FF" fill-opacity="0.15"/>
<path d="M59.62 1.00923L62 2.40064L30.0138 58.5L27.6338 57.1086L59.62 1.00923Z" fill="#3758FF" fill-opacity="0.15"/>
</g>
<path opacity="0.15" d="M3.68676 1H1V3.73425M38.3132 41H41V38.2658M3.68676 41H1V38.2658M38.3132 1H41V3.73425" stroke="#00FFFF" stroke-linecap="round" stroke-linejoin="round"/>
<path d="M5.7052 22.3666L19.406 15.4812C20.7433 14.8074 22.3034 14.8427 23.6135 15.5775L36.3415 22.6971C37.224 23.1912 37.218 24.5355 36.3325 25.0232L22.8365 32.4412C21.4239 33.2177 19.7373 33.1824 18.3519 32.3514L5.62689 24.6927C4.75647 24.1698 4.80165 22.819 5.7052 22.3666Z" fill="url(#paint0_linear_6855_174813)"/>
<path d="M36.5856 22.2607L36.5858 22.2608C37.8113 22.947 37.8021 24.7846 36.5737 25.4612L36.5733 25.4614L23.0773 32.8794C23.0773 32.8794 23.0773 32.8794 23.0773 32.8794C21.5079 33.742 19.6317 33.7021 18.0947 32.7802L18.094 32.7798L5.36938 25.1213L36.5856 22.2607ZM36.5856 22.2607L23.8581 15.1414L36.5856 22.2607ZM19.181 15.0347L5.48134 21.9195C5.48121 21.9196 5.48108 21.9196 5.48095 21.9197C4.21935 22.5518 4.16688 24.3985 5.36906 25.1211L19.181 15.0347Z" stroke="url(#paint1_linear_6855_174813)" stroke-opacity="0.8" stroke-miterlimit="10"/>
<g opacity="0.5">
<path d="M9.5289 30.3203L19.8045 25.3475C20.8074 24.8609 21.9775 24.8864 22.9602 25.4171L32.5061 30.559C33.168 30.9159 33.1635 31.8868 32.4994 32.239L22.3774 37.5964C21.318 38.1572 20.053 38.1317 19.0139 37.5315L9.47017 32.0003C8.81735 31.6226 8.85124 30.6471 9.5289 30.3203Z" fill="url(#paint2_linear_6855_174813)"/>
<path d="M32.696 30.2069L32.6958 30.2068L23.1502 25.0651C22.0546 24.4734 20.7488 24.4448 19.63 24.9876C19.63 24.9876 19.6299 24.9876 19.6299 24.9877L9.35518 29.96C9.35511 29.96 9.35505 29.9601 9.35498 29.9601C8.38546 30.4277 8.34189 31.8095 9.26974 32.3465C9.26978 32.3465 9.26981 32.3465 9.26985 32.3465L18.8133 37.8776L18.8138 37.8779C19.9716 38.5466 21.3828 38.5754 22.5645 37.95C22.5645 37.95 22.5645 37.95 22.5645 37.95L32.6865 32.5925L32.6868 32.5924C33.6324 32.0908 33.64 30.7159 32.696 30.2069Z" stroke="url(#paint3_linear_6855_174813)" stroke-opacity="0.8" stroke-width="0.8" stroke-miterlimit="10"/>
</g>
<path d="M22.6039 9.78836L23.3699 12.2025L25.491 11.6638L24.725 9.24966L22.6039 9.78836ZM19.9525 10.4617L20.7185 12.8759L22.8396 12.3372L22.0737 9.92303L19.9525 10.4617ZM17.5368 13.6839L16.7709 11.2698L15.6514 11.5541V10.2497L13.5892 10.7735V24.4691L13 24.6187V25.9231L16.1817 25.1151V23.8107L15.6514 23.9454V14.1628L17.5368 13.6839ZM17.3011 11.1351L18.0671 13.5493L20.1882 13.0106L19.4223 10.5964L17.3011 11.1351ZM31.8543 19.8304V6.1347L29.7921 6.65843V7.96278L27.9067 8.44162L28.6727 10.8558L29.7921 10.5715V20.3541L29.2029 20.5037V21.8081L32.3846 21V19.6957L31.8543 19.8304ZM25.2553 9.11499L26.0213 11.5292L28.1424 10.9905L27.3764 8.57629L25.2553 9.11499Z" fill="url(#paint4_linear_6855_174813)"/>
<path d="M18.6039 9.78836L19.3699 12.2025L21.491 11.6638L20.725 9.24966L18.6039 9.78836ZM15.9525 10.4617L16.7185 12.8759L18.8396 12.3372L18.0737 9.92303L15.9525 10.4617ZM13.5368 13.6839L12.7709 11.2698L11.6514 11.5541V10.2497L9.5892 10.7735V24.4691L9 24.6187V25.9231L12.1817 25.1151V23.8107L11.6514 23.9454V14.1628L13.5368 13.6839ZM13.3011 11.1351L14.0671 13.5493L16.1882 13.0106L15.4223 10.5964L13.3011 11.1351ZM27.8543 19.8304V6.1347L25.7921 6.65843V7.96278L23.9067 8.44162L24.6727 10.8558L25.7921 10.5715V20.3541L25.2029 20.5037V21.8081L28.3846 21V19.6957L27.8543 19.8304ZM21.2553 9.11499L22.0213 11.5292L24.1424 10.9905L23.3764 8.57629L21.2553 9.11499Z" fill="url(#paint5_linear_6855_174813)" fill-opacity="0.2"/>
<defs>
<linearGradient id="paint0_linear_6855_174813" x1="21.0008" y1="32.9998" x2="21.0008" y2="15.0007" gradientUnits="userSpaceOnUse">
<stop stop-color="#09354E"/>
<stop offset="1" stop-color="#359CBD" stop-opacity="0.08"/>
</linearGradient>
<linearGradient id="paint1_linear_6855_174813" x1="21.0008" y1="14.6798" x2="21.0008" y2="33.3207" gradientUnits="userSpaceOnUse">
<stop stop-color="#18C486" stop-opacity="0"/>
<stop offset="0.5101" stop-color="#00FFFF" stop-opacity="0.1"/>
<stop offset="1" stop-color="#00FFFF" stop-opacity="0.8"/>
</linearGradient>
<linearGradient id="paint2_linear_6855_174813" x1="21.0006" y1="37.9999" x2="21.0006" y2="25.0005" gradientUnits="userSpaceOnUse">
<stop stop-color="#09354E"/>
<stop offset="1" stop-color="#359CBD" stop-opacity="0.08"/>
</linearGradient>
<linearGradient id="paint3_linear_6855_174813" x1="21.0006" y1="24.7687" x2="21.0006" y2="38.2316" gradientUnits="userSpaceOnUse">
<stop stop-color="#18C486" stop-opacity="0"/>
<stop offset="0.5101" stop-color="#00FFFF" stop-opacity="0.1"/>
<stop offset="1" stop-color="#00FFFF" stop-opacity="0.6"/>
</linearGradient>
<linearGradient id="paint4_linear_6855_174813" x1="22.6923" y1="8.46156" x2="26.271" y2="22.5527" gradientUnits="userSpaceOnUse">
<stop stop-color="#399FFE" stop-opacity="0.5"/>
<stop offset="1" stop-color="#00FFFF" stop-opacity="0.8"/>
</linearGradient>
<linearGradient id="paint5_linear_6855_174813" x1="18.6923" y1="8.46156" x2="22.271" y2="22.5527" gradientUnits="userSpaceOnUse">
<stop stop-color="#A1B0FF" stop-opacity="0.2"/>
<stop offset="1" stop-color="#A1B0FF"/>
</linearGradient>
</defs>
</svg>
