<svg width="28" height="28" viewBox="0 0 28 28" fill="none" xmlns="http://www.w3.org/2000/svg">
<path fill-rule="evenodd" clip-rule="evenodd" d="M27.5379 17.5524C25.8793 23.8322 20.1527 28 13.9008 28C12.7212 28 11.5224 27.8516 10.329 27.5408C5.03083 26.1633 0.98448 21.8127 0.0209103 16.4573C-0.107742 15.7438 0.370596 15.0623 1.08948 14.9347C1.80315 14.806 2.49444 15.282 2.62263 15.9956C3.40601 20.3476 6.69348 23.8829 10.9988 25.0022C17.1074 26.5937 23.3793 22.9517 24.9813 16.887C26.5822 10.8206 22.9145 4.59187 16.8054 3.00208C13.8453 2.23171 10.7618 2.65181 8.12128 4.18522C5.4804 5.71824 3.59879 8.1807 2.82312 11.1187C2.63775 11.8199 1.91375 12.2402 1.20952 12.0552C0.503584 11.8716 0.0811272 11.1544 0.266146 10.4533C1.22072 6.83713 3.53683 3.80659 6.78732 1.91952C10.0369 0.0332517 13.8329 -0.485262 17.4757 0.463607C24.9944 2.42011 29.5084 10.0861 27.5379 17.5524ZM16.3554 15.3136L7.37533 15.314C6.64574 15.314 6.05379 14.7264 6.05379 14.0018C6.05379 13.2772 6.64528 12.6896 7.37533 12.6896L16.3544 12.6893L12.5545 8.91632C12.0383 8.40397 12.0383 7.57321 12.5545 7.06086C13.0707 6.54829 13.907 6.54829 14.4232 7.06086L20.4375 13.0325C20.4521 13.0458 20.4665 13.0595 20.4807 13.0736C20.739 13.33 20.8681 13.6661 20.8678 14.0023C20.8681 14.3383 20.739 14.6744 20.4807 14.9308C20.4678 14.9436 20.4547 14.9561 20.4414 14.9682L14.4228 20.9434C14.1647 21.1994 13.8266 21.3276 13.4885 21.3276C13.1503 21.3276 12.8118 21.1994 12.5541 20.9432C12.0379 20.4308 12.0379 19.5998 12.5541 19.0874L16.3554 15.3136Z" fill="#263141"/>
</svg>
