<svg width="12" height="12" viewBox="0 0 12 12" fill="none" xmlns="http://www.w3.org/2000/svg">
<rect width="12" height="12" rx="6" fill="black" fill-opacity="0.45"/>
<path d="M6.53856 6.01274L8.90422 8.37781C8.96805 8.44856 9.00229 8.54111 8.99988 8.63637C8.99747 8.73164 8.95859 8.82234 8.89126 8.88977C8.82393 8.9572 8.73329 8.99621 8.63803 8.99876C8.54278 9.00131 8.45019 8.9672 8.37935 8.90346L6.01219 6.5384L3.64878 8.90421C3.57804 8.96805 3.48549 9.00229 3.39023 8.99988C3.29497 8.99747 3.20428 8.95859 3.13685 8.89125C3.06943 8.82392 3.03042 8.73327 3.02787 8.63801C3.02532 8.54275 3.05943 8.45015 3.12316 8.37931L5.48807 6.01349L3.12316 3.64843C3.08564 3.61467 3.05539 3.57363 3.03424 3.52781C3.01309 3.48198 3.00148 3.43233 3.00013 3.38187C2.99878 3.33142 3.00772 3.28122 3.02639 3.23433C3.04506 3.18744 3.07308 3.14484 3.10874 3.10912C3.1444 3.07341 3.18696 3.04533 3.23382 3.02659C3.28068 3.00785 3.33087 2.99884 3.38132 3.00012C3.43177 3.0014 3.48144 3.01293 3.52729 3.03402C3.57314 3.0551 3.61422 3.0853 3.64803 3.12278L6.01294 5.48784L8.37785 3.12278C8.44859 3.05894 8.54114 3.02469 8.6364 3.02711C8.73165 3.02952 8.82235 3.0684 8.88978 3.13574C8.9572 3.20307 8.99621 3.29372 8.99876 3.38898C9.00131 3.48423 8.9672 3.57684 8.90347 3.64768L6.53856 6.01349V6.01274Z" fill="white"/>
</svg>
