<svg width="24" height="24" viewBox="0 0 24 24" fill="none" xmlns="http://www.w3.org/2000/svg">
<path opacity="0.3" d="M16.9163 2.88888C16.6846 2.65471 16.3695 2.52191 16.0401 2.51956C15.7107 2.51722 15.3938 2.64553 15.1588 2.87638L7.06876 10.9689C6.81626 11.2189 6.70625 11.5514 6.71875 11.8839C6.70886 12.0536 6.73492 12.2235 6.79523 12.3825C6.85555 12.5415 6.94876 12.6859 7.06876 12.8064L15.1613 20.8989C15.6388 21.3814 16.4263 21.3764 16.9138 20.8889C17.4013 20.4014 17.4063 19.6139 16.9288 19.1314L9.68625 11.8889L16.9263 4.64388C17.041 4.52806 17.1317 4.39075 17.1933 4.23983C17.2548 4.0889 17.2861 3.92731 17.2851 3.76431C17.2842 3.60131 17.2511 3.44008 17.1879 3.28987C17.1246 3.13965 17.0323 3.00339 16.9163 2.88888Z" fill="black"/>
</svg>
