<svg width="24" height="24" viewBox="0 0 24 24" fill="none" xmlns="http://www.w3.org/2000/svg">
<path opacity="0.3" d="M7.08375 2.88888C7.31544 2.65471 7.6305 2.52191 7.95992 2.51956C8.28933 2.51722 8.60625 2.64553 8.84125 2.87638L16.9312 10.9689C17.1837 11.2189 17.2937 11.5514 17.2812 11.8839C17.2911 12.0536 17.2651 12.2235 17.2048 12.3825C17.1445 12.5415 17.0512 12.6859 16.9312 12.8064L8.83875 20.8989C8.36125 21.3814 7.57375 21.3764 7.08625 20.8889C6.59875 20.4014 6.59375 19.6139 7.07125 19.1314L14.3137 11.8889L7.07375 4.64388C6.95905 4.52806 6.86832 4.39075 6.80673 4.23983C6.74515 4.0889 6.71394 3.92731 6.71486 3.76431C6.71579 3.60131 6.74885 3.44008 6.81215 3.28987C6.87545 3.13965 6.96774 3.00339 7.08375 2.88888Z" fill="black"/>
</svg>
