<svg width="16" height="16" viewBox="0 0 16 16" fill="none" xmlns="http://www.w3.org/2000/svg">
<path d="M8.5 15C8.32895 15 8.23455 14.9799 8.17443 14.911C8.13827 14.8696 4.50328 10.6499 3.53462 8.60639C3.18467 7.87438 3 7.07953 3 6.30387C3 3.37868 5.46719 1 8.5 1C11.5328 1 14 3.39513 14 6.33832C14 7.22751 13.8296 7.89937 13.4119 8.65703C12.2569 10.7504 8.86441 14.8616 8.83053 14.9026C8.79004 14.9521 8.71774 15 8.50847 15H8.5V15ZM8.5 4.25755C7.33365 4.25755 6.38461 5.18574 6.38461 6.3265C6.38461 7.46725 7.33365 8.39544 8.5 8.39544C9.66635 8.39544 10.6154 7.46725 10.6154 6.3265C10.6154 5.18574 9.66635 4.25755 8.5 4.25755Z" fill="#6977FA"/>
<circle cx="8.5" cy="6.5" r="2.5" fill="white"/>
</svg>
