<svg width="22" height="24" viewBox="0 0 22 24" fill="none" xmlns="http://www.w3.org/2000/svg">
<g opacity="0.9">
<mask id="path-1-outside-1_5756_1171" maskUnits="userSpaceOnUse" x="0" y="0.0478516" width="22" height="24" fill="black">
<rect fill="white" y="0.0478516" width="22" height="24"/>
<path fill-rule="evenodd" clip-rule="evenodd" d="M5 1.04785C2.79086 1.04785 1 2.83871 1 5.04785L1 15.7551C1 17.9643 2.79086 19.7551 5 19.7551H8.14039L10.3166 21.7892C10.701 22.1485 11.298 22.1485 11.6823 21.7892L13.8586 19.7551H17C19.2091 19.7551 21 17.9643 21 15.7551L21 5.04785C21 2.83871 19.2091 1.04785 17 1.04785L5 1.04785Z"/>
</mask>
<path fill-rule="evenodd" clip-rule="evenodd" d="M5 1.04785C2.79086 1.04785 1 2.83871 1 5.04785L1 15.7551C1 17.9643 2.79086 19.7551 5 19.7551H8.14039L10.3166 21.7892C10.701 22.1485 11.298 22.1485 11.6823 21.7892L13.8586 19.7551H17C19.2091 19.7551 21 17.9643 21 15.7551L21 5.04785C21 2.83871 19.2091 1.04785 17 1.04785L5 1.04785Z" fill="#E94141"/>
<path d="M8.14039 19.7551L8.82323 19.0245L8.53496 18.7551H8.14039V19.7551ZM10.3166 21.7892L9.63381 22.5198L10.3166 21.7892ZM11.6823 21.7892L10.9995 21.0586L11.6823 21.7892ZM13.8586 19.7551V18.7551H13.464L13.1758 19.0245L13.8586 19.7551ZM2 5.04785C2 3.391 3.34315 2.04785 5 2.04785V0.0478516C2.23858 0.0478516 0 2.28643 0 5.04785H2ZM2 15.7551L2 5.04785H0L0 15.7551H2ZM5 18.7551C3.34315 18.7551 2 17.412 2 15.7551H0C0 18.5165 2.23858 20.7551 5 20.7551L5 18.7551ZM8.14039 18.7551H5L5 20.7551H8.14039V18.7551ZM10.9995 21.0586L8.82323 19.0245L7.45754 20.4857L9.63381 22.5198L10.9995 21.0586ZM10.9995 21.0586L9.63381 22.5198C10.4025 23.2383 11.5965 23.2383 12.3652 22.5198L10.9995 21.0586ZM13.1758 19.0245L10.9995 21.0586L12.3652 22.5198L14.5414 20.4857L13.1758 19.0245ZM17 18.7551H13.8586V20.7551H17V18.7551ZM20 15.7551C20 17.412 18.6569 18.7551 17 18.7551V20.7551C19.7614 20.7551 22 18.5165 22 15.7551H20ZM20 5.04785L20 15.7551H22L22 5.04785H20ZM17 2.04785C18.6569 2.04785 20 3.391 20 5.04785H22C22 2.28643 19.7614 0.0478516 17 0.0478516V2.04785ZM5 2.04785L17 2.04785V0.0478516L5 0.0478516V2.04785Z" fill="white" mask="url(#path-1-outside-1_5756_1171)"/>
</g>
<path d="M10.5042 5.808C9.42624 5.808 8.54424 6.046 7.84424 6.536C7.08824 7.04 6.72424 7.74 6.72424 8.622C6.72424 9.504 7.10224 10.176 7.87224 10.638C8.16624 10.806 8.93624 11.086 10.1682 11.478C11.2742 11.814 11.9182 12.038 12.1142 12.136C12.7302 12.444 13.0522 12.864 13.0522 13.396C13.0522 13.816 12.8282 14.138 12.4082 14.39C11.9882 14.628 11.4002 14.754 10.6722 14.754C9.84624 14.754 9.24424 14.6 8.85224 14.32C8.41824 13.998 8.15224 13.452 8.04024 12.696H6.41624C6.48624 13.97 6.94824 14.894 7.78824 15.482C8.47424 15.958 9.44024 16.196 10.6722 16.196C11.9462 16.196 12.9402 15.93 13.6402 15.426C14.3402 14.908 14.6902 14.194 14.6902 13.298C14.6902 12.374 14.2562 11.66 13.3882 11.142C12.9962 10.918 12.1282 10.582 10.7702 10.162C9.84624 9.868 9.27224 9.658 9.06224 9.546C8.58624 9.294 8.36224 8.944 8.36224 8.524C8.36224 8.048 8.55824 7.698 8.97824 7.488C9.31424 7.306 9.79024 7.222 10.4202 7.222C11.1482 7.222 11.7082 7.348 12.0722 7.628C12.4362 7.894 12.7022 8.342 12.8422 8.958H14.4662C14.3682 7.866 13.9622 7.054 13.2622 6.536C12.6042 6.046 11.6802 5.808 10.5042 5.808Z" fill="white"/>
</svg>
