<svg width="106" height="125" viewBox="0 0 106 125" fill="none" xmlns="http://www.w3.org/2000/svg">
<path opacity="0.9" d="M46.304 29.32C44.576 29.32 43.264 28.84 42.368 27.88C41.4933 26.92 41.056 25.544 41.056 23.752V21.928H44.384V23.912C44.384 25.384 44.992 26.12 46.208 26.12C46.8053 26.12 47.2533 25.9387 47.552 25.576C47.872 25.192 48.032 24.5307 48.032 23.592V21.768C48.032 20.744 47.8507 20.0187 47.488 19.592C47.1253 19.144 46.5387 18.92 45.728 18.92H44.544V15.72H45.824C46.528 15.72 47.0507 15.5387 47.392 15.176C47.7547 14.8133 47.936 14.2053 47.936 13.352V11.72C47.936 10.952 47.776 10.3867 47.456 10.024C47.136 9.66133 46.7093 9.48 46.176 9.48C45.0453 9.48 44.48 10.1733 44.48 11.56V13.032H41.152V11.848C41.152 10.056 41.5893 8.68 42.464 7.72C43.36 6.76 44.64 6.28 46.304 6.28C47.9893 6.28 49.2693 6.76 50.144 7.72C51.0187 8.65867 51.456 10.024 51.456 11.816V12.616C51.456 13.832 51.2533 14.8133 50.848 15.56C50.4427 16.2853 49.8133 16.808 48.96 17.128V17.192C49.8773 17.5333 50.5387 18.088 50.944 18.856C51.3493 19.624 51.552 20.6053 51.552 21.8V23.784C51.552 25.576 51.104 26.952 50.208 27.912C49.3333 28.8507 48.032 29.32 46.304 29.32ZM59.3085 29.32C57.5805 29.32 56.2578 28.8293 55.3405 27.848C54.4232 26.8667 53.9645 25.48 53.9645 23.688V12.104C53.9645 8.22133 55.7565 6.28 59.3405 6.28C61.0472 6.28 62.3485 6.77067 63.2445 7.752C64.1405 8.712 64.5885 10.0987 64.5885 11.912V12.328H61.2605V11.688C61.2605 10.216 60.6525 9.48 59.4365 9.48C58.7752 9.48 58.2845 9.68267 57.9645 10.088C57.6445 10.4933 57.4845 11.208 57.4845 12.232V16.52H57.5485C58.1672 15.2187 59.2338 14.568 60.7485 14.568C62.0285 14.568 62.9992 15.0053 63.6605 15.88C64.3218 16.7547 64.6525 18.024 64.6525 19.688V23.688C64.6525 25.48 64.1938 26.8667 63.2765 27.848C62.3592 28.8293 61.0365 29.32 59.3085 29.32ZM59.3085 26.12C60.5245 26.12 61.1325 25.3947 61.1325 23.944V19.976C61.1325 18.504 60.5245 17.768 59.3085 17.768C58.0925 17.768 57.4845 18.504 57.4845 19.976V23.944C57.4845 25.3947 58.0925 26.12 59.3085 26.12Z" fill="#F0AF3E"/>
<g filter="url(#filter0_df_1_522)">
<ellipse cx="53" cy="99.5" rx="42" ry="10.5" fill="#F0AF3E" fill-opacity="0.2" shape-rendering="crispEdges"/>
<path d="M53 110.5C64.6265 110.5 75.1692 109.322 82.8198 107.41C86.6412 106.454 89.7692 105.309 91.9538 104.018C94.105 102.746 95.5 101.236 95.5 99.5C95.5 97.7643 94.105 96.254 91.9538 94.9825C89.7692 93.6912 86.6412 92.5457 82.8198 91.5903C75.1692 89.6777 64.6265 88.5 53 88.5C41.3735 88.5 30.8308 89.6777 23.1802 91.5903C19.3588 92.5457 16.2308 93.6912 14.0462 94.9825C11.895 96.254 10.5 97.7643 10.5 99.5C10.5 101.236 11.895 102.746 14.0462 104.018C16.2308 105.309 19.3588 106.454 23.1802 107.41C30.8308 109.322 41.3735 110.5 53 110.5Z" stroke="#F0AF3E" shape-rendering="crispEdges"/>
</g>
<path d="M19 97.9979C48.44 97.9979 48 71.699 54.2667 44.2183C55.1426 40.3771 55.7275 46.6987 56 48.3553C59.4651 69.4185 59.309 97.7145 87.1501 97.9979H88C87.7138 98.0007 87.4305 98.0007 87.1501 97.9979H19Z" fill="url(#paint0_linear_1_522)"/>
<defs>
<filter id="filter0_df_1_522" x="0" y="78" width="106" height="43" filterUnits="userSpaceOnUse" color-interpolation-filters="sRGB">
<feFlood flood-opacity="0" result="BackgroundImageFix"/>
<feColorMatrix in="SourceAlpha" type="matrix" values="0 0 0 0 0 0 0 0 0 0 0 0 0 0 0 0 0 0 127 0" result="hardAlpha"/>
<feOffset dy="4"/>
<feGaussianBlur stdDeviation="2"/>
<feComposite in2="hardAlpha" operator="out"/>
<feColorMatrix type="matrix" values="0 0 0 0 0 0 0 0 0 0 0 0 0 0 0 0 0 0 0.25 0"/>
<feBlend mode="normal" in2="BackgroundImageFix" result="effect1_dropShadow_1_522"/>
<feBlend mode="normal" in="SourceGraphic" in2="effect1_dropShadow_1_522" result="shape"/>
<feGaussianBlur stdDeviation="5" result="effect2_foregroundBlur_1_522"/>
</filter>
<linearGradient id="paint0_linear_1_522" x1="54" y1="67.8213" x2="53.8687" y2="98.0013" gradientUnits="userSpaceOnUse">
<stop stop-color="#F0AF3E"/>
<stop offset="1" stop-color="#FAE14D" stop-opacity="0"/>
</linearGradient>
</defs>
</svg>
