<svg width="150" height="173" viewBox="0 0 150 173" fill="none" xmlns="http://www.w3.org/2000/svg">
<path opacity="0.9" d="M72.4 29.32C70.6293 29.32 69.264 28.8507 68.304 27.912C67.3653 26.952 66.896 25.576 66.896 23.784V21.8C66.896 20.6907 67.0773 19.7627 67.44 19.016C67.8027 18.248 68.3893 17.6507 69.2 17.224V17.16C68.4533 16.7547 67.8987 16.2 67.536 15.496C67.1947 14.7707 67.024 13.8533 67.024 12.744V11.816C67.024 10.024 67.4827 8.65867 68.4 7.72C69.3387 6.76 70.672 6.28 72.4 6.28C74.128 6.28 75.4507 6.76 76.368 7.72C77.3067 8.65867 77.776 10.024 77.776 11.816V12.744C77.776 14.8773 77.0507 16.3493 75.6 17.16V17.224C76.4107 17.6507 76.9973 18.248 77.36 19.016C77.7227 19.7627 77.904 20.6907 77.904 21.8V23.784C77.904 25.576 77.424 26.952 76.464 27.912C75.5253 28.8507 74.1707 29.32 72.4 29.32ZM72.4 15.72C73.6373 15.72 74.256 14.9733 74.256 13.48V11.72C74.256 10.2267 73.6373 9.48 72.4 9.48C71.1627 9.48 70.544 10.2267 70.544 11.72V13.48C70.544 14.9733 71.1627 15.72 72.4 15.72ZM72.4 26.12C73.7227 26.12 74.384 25.2773 74.384 23.592V21.448C74.384 19.7627 73.7227 18.92 72.4 18.92C71.0773 18.92 70.416 19.7627 70.416 21.448V23.592C70.416 25.2773 71.0773 26.12 72.4 26.12ZM80.0605 26.568C80.0605 24.968 80.3165 23.6027 80.8285 22.472C81.3405 21.32 82.2578 20.0507 83.5805 18.664C84.8818 17.2773 85.7778 16.0933 86.2685 15.112C86.7805 14.1307 87.0365 13.1067 87.0365 12.04C87.0365 11.08 86.8765 10.4187 86.5565 10.056C86.2578 9.672 85.8098 9.48 85.2125 9.48C83.9965 9.48 83.3885 10.216 83.3885 11.688V14.088H80.0605V11.912C80.0605 10.0987 80.5085 8.712 81.4045 7.752C82.3005 6.77067 83.6018 6.28 85.3085 6.28C87.0152 6.28 88.3165 6.77067 89.2125 7.752C90.1085 8.712 90.5565 10.0987 90.5565 11.912C90.5565 13.2773 90.2258 14.6107 89.5645 15.912C88.9245 17.2133 87.8045 18.7067 86.2045 20.392C85.1592 21.5013 84.4552 22.408 84.0925 23.112C83.7298 23.7947 83.5485 24.5307 83.5485 25.32V25.8H90.2365V29H80.0605V26.568Z" fill="#EC8031"/>
<g filter="url(#filter0_df_1_534)">
<ellipse cx="75" cy="139" rx="64" ry="20" fill="#EE6B0C" fill-opacity="0.2" shape-rendering="crispEdges"/>
<path d="M75 159.5C92.7093 159.5 108.762 157.258 120.404 153.619C126.222 151.801 130.967 149.626 134.268 147.187C137.559 144.755 139.5 141.995 139.5 139C139.5 136.005 137.559 133.245 134.268 130.813C130.967 128.374 126.222 126.199 120.404 124.381C108.762 120.742 92.7093 118.5 75 118.5C57.2907 118.5 41.2381 120.742 29.596 124.381C23.778 126.199 19.0333 128.374 15.7323 130.813C12.4411 133.245 10.5 136.005 10.5 139C10.5 141.995 12.4411 144.755 15.7323 147.187C19.0333 149.626 23.778 151.801 29.596 153.619C41.2381 157.258 57.2907 159.5 75 159.5Z" stroke="#EE6B0C" shape-rendering="crispEdges"/>
</g>
<path d="M41 132.061C70.44 132.061 70 87.5614 76.2667 41.0614C77.1426 34.5618 77.7275 45.2586 78 48.0617C81.4651 83.7025 81.309 131.582 109.15 132.061H110C109.714 132.066 109.431 132.066 109.15 132.061H41Z" fill="url(#paint0_linear_1_534)"/>
<defs>
<filter id="filter0_df_1_534" x="0" y="108" width="150" height="62" filterUnits="userSpaceOnUse" color-interpolation-filters="sRGB">
<feFlood flood-opacity="0" result="BackgroundImageFix"/>
<feColorMatrix in="SourceAlpha" type="matrix" values="0 0 0 0 0 0 0 0 0 0 0 0 0 0 0 0 0 0 127 0" result="hardAlpha"/>
<feOffset dy="4"/>
<feGaussianBlur stdDeviation="2"/>
<feComposite in2="hardAlpha" operator="out"/>
<feColorMatrix type="matrix" values="0 0 0 0 0 0 0 0 0 0 0 0 0 0 0 0 0 0 0.25 0"/>
<feBlend mode="normal" in2="BackgroundImageFix" result="effect1_dropShadow_1_534"/>
<feBlend mode="normal" in="SourceGraphic" in2="effect1_dropShadow_1_534" result="shape"/>
<feGaussianBlur stdDeviation="5" result="effect2_foregroundBlur_1_534"/>
</filter>
<linearGradient id="paint0_linear_1_534" x1="76" y1="57.4261" x2="75.6814" y2="132.065" gradientUnits="userSpaceOnUse">
<stop stop-color="#EE6B0C"/>
<stop offset="0.807292" stop-color="#F0AF3E" stop-opacity="0.5"/>
<stop offset="1" stop-color="#FAE14D" stop-opacity="0"/>
</linearGradient>
</defs>
</svg>
