<svg width="227" height="274" viewBox="0 0 227 274" fill="none" xmlns="http://www.w3.org/2000/svg">
<g filter="url(#filter0_df_1_544)">
<ellipse cx="113.5" cy="216.5" rx="102.5" ry="46.5" fill="#FF5656" fill-opacity="0.2" shape-rendering="crispEdges"/>
<path d="M113.5 263.5C141.859 263.5 167.558 258.286 186.185 249.836C204.767 241.406 216.5 229.658 216.5 216.5C216.5 203.342 204.767 191.594 186.185 183.164C167.558 174.714 141.859 169.5 113.5 169.5C85.141 169.5 59.4425 174.714 40.815 183.164C22.233 191.594 10.5 203.342 10.5 216.5C10.5 229.658 22.233 241.406 40.815 249.836C59.4425 258.286 85.141 263.5 113.5 263.5Z" stroke="#FF5656" shape-rendering="crispEdges"/>
</g>
<path d="M26 196.994C101.947 196.994 100.812 117.619 116.978 34.6769C119.237 23.0835 120.746 42.1634 121.449 47.1633C130.388 110.736 129.986 196.138 201.808 196.994H204C203.262 197.002 202.531 197.002 201.808 196.994H26Z" fill="url(#paint0_linear_1_544)"/>
<path opacity="0.9" d="M99.248 20.568C99.248 18.968 99.504 17.6027 100.016 16.472C100.528 15.32 101.445 14.0507 102.768 12.664C104.069 11.2773 104.965 10.0933 105.456 9.112C105.968 8.13067 106.224 7.10667 106.224 6.04C106.224 5.08 106.064 4.41867 105.744 4.056C105.445 3.672 104.997 3.48 104.4 3.48C103.184 3.48 102.576 4.216 102.576 5.688V8.088H99.248V5.912C99.248 4.09867 99.696 2.712 100.592 1.752C101.488 0.770665 102.789 0.279999 104.496 0.279999C106.203 0.279999 107.504 0.770665 108.4 1.752C109.296 2.712 109.744 4.09867 109.744 5.912C109.744 7.27733 109.413 8.61067 108.752 9.912C108.112 11.2133 106.992 12.7067 105.392 14.392C104.347 15.5013 103.643 16.408 103.28 17.112C102.917 17.7947 102.736 18.5307 102.736 19.32V19.8H109.424V23H99.248V20.568ZM117.213 23.32C115.485 23.32 114.162 22.8293 113.245 21.848C112.327 20.8667 111.868 19.48 111.868 17.688V5.912C111.868 4.12 112.327 2.73333 113.245 1.752C114.162 0.770665 115.485 0.279999 117.213 0.279999C118.941 0.279999 120.263 0.770665 121.181 1.752C122.098 2.73333 122.557 4.12 122.557 5.912V17.688C122.557 19.48 122.098 20.8667 121.181 21.848C120.263 22.8293 118.941 23.32 117.213 23.32ZM117.213 20.12C118.429 20.12 119.036 19.384 119.036 17.912V5.688C119.036 4.216 118.429 3.48 117.213 3.48C115.997 3.48 115.389 4.216 115.389 5.688V17.912C115.389 19.384 115.997 20.12 117.213 20.12ZM130.825 18.936H124.105V15.736L130.505 0.599998H134.345V15.736H136.009V18.936H134.345V23H130.825V18.936ZM130.825 15.736V7H130.761L127.305 15.736H130.825Z" fill="#FF5656"/>
<defs>
<filter id="filter0_df_1_544" x="0" y="159" width="227" height="115" filterUnits="userSpaceOnUse" color-interpolation-filters="sRGB">
<feFlood flood-opacity="0" result="BackgroundImageFix"/>
<feColorMatrix in="SourceAlpha" type="matrix" values="0 0 0 0 0 0 0 0 0 0 0 0 0 0 0 0 0 0 127 0" result="hardAlpha"/>
<feOffset dy="4"/>
<feGaussianBlur stdDeviation="2"/>
<feComposite in2="hardAlpha" operator="out"/>
<feColorMatrix type="matrix" values="0 0 0 0 0 0 0 0 0 0 0 0 0 0 0 0 0 0 0.25 0"/>
<feBlend mode="normal" in2="BackgroundImageFix" result="effect1_dropShadow_1_544"/>
<feBlend mode="normal" in="SourceGraphic" in2="effect1_dropShadow_1_544" result="shape"/>
<feGaussianBlur stdDeviation="5" result="effect2_foregroundBlur_1_544"/>
</filter>
<linearGradient id="paint0_linear_1_544" x1="116.29" y1="63.8666" x2="115.897" y2="197.002" gradientUnits="userSpaceOnUse">
<stop offset="0.351428" stop-color="#FF5656"/>
<stop offset="0.535454" stop-color="#EC8031"/>
<stop offset="0.744792" stop-color="#F0AF3E" stop-opacity="0.5"/>
<stop offset="1" stop-color="#FAE14D" stop-opacity="0"/>
</linearGradient>
</defs>
</svg>
