<svg width="24" height="24" viewBox="0 0 24 24" fill="none" xmlns="http://www.w3.org/2000/svg">
<path d="M22 16.3495C22 17.093 21.5999 17.7713 20.9636 18.1045C20.9631 18.1047 20.9633 18.1046 20.9629 18.1049C20.9478 18.1127 15.86 20.7692 13.6406 21.9221C13.1738 22.1653 12.625 21.8097 12.625 21.2621V11.1937C12.625 10.7789 12.873 10.409 13.2461 10.2701L21.3691 7.23341C21.6738 7.11898 21.9961 7.35602 21.9961 7.69524C22 9.85931 22 16.3495 22 16.3495ZM11.375 11.1896V21.211C11.375 21.7668 10.8066 22.1224 10.3398 21.8588L2.98828 17.7288C2.37899 17.3856 2.00011 16.7216 2 16.0004C2 16.0001 2 16.0002 2 16C2 15.9932 2.00196 9.7805 2.00586 7.66255C2.00586 7.32333 2.32813 7.08628 2.63281 7.20276L10.7559 10.266C11.127 10.407 11.375 10.7748 11.375 11.1896ZM21.1191 5.93783L12.6348 9.10935C12.2246 9.26261 11.7773 9.26261 11.3672 9.1073L2.92773 5.92353C2.74414 5.85405 2.7168 5.59452 2.88086 5.48622C2.98633 5.41878 3.09766 5.35952 3.2168 5.31252L11.3438 2.12465C11.5566 2.04087 11.7793 2 12.002 2C12.2246 2 12.4453 2.04087 12.6562 2.12465L20.7793 5.29413C20.9199 5.3493 21.0508 5.42082 21.1719 5.50461C21.3301 5.617 21.2988 5.87039 21.1191 5.93783Z" fill="#3757FF"/>
</svg>
