<svg width="533" height="209" viewBox="0 0 533 209" fill="none" xmlns="http://www.w3.org/2000/svg">
<path d="M50.352 86.96V91.422H79.838V86.96H50.352ZM61.852 89.122C61.668 90.916 61.162 93.492 60.702 95.332L65.164 96.114C66.038 94.458 67.28 91.974 68.2 89.49L61.852 89.122ZM69.626 81.9C69.074 83.464 67.924 85.718 67.05 87.236L71.65 88.386C72.662 87.052 73.904 85.12 75.192 83.096L69.626 81.9ZM54.63 83.602C55.826 85.074 57.022 87.19 57.436 88.524L61.99 86.73C61.53 85.35 60.242 83.372 58.954 81.992L54.63 83.602ZM48.742 99.886H37.978V104.992H43.36V116.814H48.742V99.886ZM48.742 114.422H43.682C41.566 116.078 39.082 117.688 37.012 118.976L39.726 124.726C42.21 122.702 44.28 120.954 46.304 119.16C49.294 122.748 53.112 124.082 58.77 124.312C64.29 124.542 73.582 124.45 79.148 124.174C79.378 122.518 80.298 119.85 80.896 118.562C74.686 119.068 64.244 119.206 58.862 118.976C54.078 118.792 50.582 117.458 48.742 114.422ZM38.07 86.316C40.784 88.386 44.096 91.468 45.476 93.63L49.892 89.996C48.282 87.834 44.924 84.936 42.164 83.004L38.07 86.316ZM58.678 103.934H71.236V106.326H58.678V103.934ZM58.678 110.006H71.236V112.444H58.678V110.006ZM58.678 97.862H71.236V100.254H58.678V97.862ZM53.48 93.86V116.446H76.664V93.86H53.48ZM107.024 118.746V123.484H121.514V118.746H107.024ZM109.002 86.316V91.008H120.686V86.316H109.002ZM104.77 107.982V125.002H109.83V112.628H118.524V124.864H123.768V107.982H104.77ZM118.754 86.316V87.19C116.178 96.206 108.91 103.244 100.584 106.28C101.688 107.292 103.068 109.178 103.712 110.466C113.05 106.51 120.824 99.15 124.182 87.604L120.686 86.132L119.72 86.316H118.754ZM109.186 81.9C107.576 87.236 104.54 92.388 100.952 95.608C102.194 96.39 104.31 98.184 105.23 99.15C108.956 95.378 112.36 89.398 114.43 83.188L109.186 81.9ZM109.324 88.892L105.598 91.284C108.404 98.092 114.43 106.142 123.906 109.822C124.642 108.396 126.206 106.234 127.31 105.176C117.926 102.232 111.946 95.102 109.324 88.892ZM85.22 102.232V118.976H89.728V102.232H85.22ZM90.372 88.386H96.444V94.228H90.372V88.386ZM85.588 83.648V98.966H101.504V83.648H85.588ZM92.028 97.034V117.596H96.904V97.034H92.028ZM83.196 118.102L84.116 123.392C89.36 122.196 96.352 120.54 102.838 118.93L102.332 114.054C95.432 115.618 88.072 117.228 83.196 118.102ZM93.96 104.348V109.178H101.964V104.348H93.96ZM140.19 99.886H129.748V104.992H134.9V116.814H140.19V99.886ZM140.19 114.652H135.406C133.382 116.354 131.128 118.01 129.196 119.252L131.818 124.726C134.118 122.748 136.05 121 137.89 119.206C140.65 122.748 144.376 124.082 149.896 124.312C155.508 124.588 165.306 124.496 171.056 124.22C171.286 122.61 172.16 120.08 172.758 118.838C166.364 119.344 155.462 119.482 149.942 119.206C145.204 119.022 141.938 117.688 140.19 114.652ZM129.886 86.224C132.508 88.478 135.59 91.652 136.832 93.906L141.386 90.41C139.96 88.248 136.74 85.166 134.118 83.142L129.886 86.224ZM146.998 82.774C145.894 87.098 143.548 93.86 141.386 99.196C144.56 105.636 147.274 112.72 148.332 117.504L153.668 115.434C152.426 111.202 149.574 104.67 146.676 99.196C148.562 94.458 150.632 89.72 152.242 83.97L146.998 82.774ZM155.968 82.774C154.726 87.098 152.104 93.86 149.712 99.196C153.162 105.59 156.198 112.72 157.394 117.458L162.73 115.388C161.304 111.156 158.222 104.624 155.094 99.196C157.164 94.458 159.418 89.812 161.212 84.016L155.968 82.774ZM165.352 82.774C163.972 87.098 161.12 93.86 158.452 99.196C162.224 105.636 165.49 112.72 166.87 117.504L172.206 115.342C170.688 111.11 167.33 104.578 164.018 99.15C166.272 94.504 168.756 89.858 170.642 84.108L165.352 82.774ZM175.748 90.226V95.332H189.778V90.226H175.748ZM181.13 81.946V125.14H186.144V81.946H181.13ZM181.038 93.998C180.072 99.426 177.772 106.326 175.196 109.96C176.024 111.432 177.22 113.962 177.68 115.572C180.532 111.018 182.878 102.324 183.982 95.148L181.038 93.998ZM185.96 96.62L183.476 98.552C184.764 100.714 187.294 105.774 188.26 108.35L191.388 104.624C190.652 103.29 186.972 97.862 185.96 96.62ZM204.636 83.326L200.588 86.04C204.406 90.916 210.8 96.758 216.55 100.254C217.056 98.736 218.16 96.298 219.126 94.918C213.882 92.388 207.764 87.466 204.636 83.326ZM202.014 81.394C198.748 87.374 193.182 93.032 187.616 96.436C188.582 97.494 190.146 99.886 190.744 100.99C196.678 96.804 202.888 90.088 206.752 83.234L202.014 81.394ZM195.39 96.022V100.668H211.766V96.022H195.39ZM192.032 105.084C193.09 108.534 194.148 113.134 194.516 116.124L198.978 114.836C198.564 111.892 197.414 107.43 196.264 103.98L192.032 105.084ZM200.818 103.704C201.554 107.154 202.336 111.662 202.52 114.652L207.028 113.916C206.706 110.972 205.924 106.602 205.05 103.106L200.818 103.704ZM211.904 103.06C210.432 108.028 207.672 114.928 205.326 119.16L209.236 120.264C211.628 116.216 214.526 109.684 216.688 104.164L211.904 103.06ZM189.87 118.47V123.3H217.24V118.47H189.87ZM228.096 105.59V125.094H233.524V109.96H252.568V125.094H258.272V105.59H228.096ZM231.362 112.49V116.492H254.5V112.49H231.362ZM227.36 85.396V89.674H241.942V85.396H227.36ZM221.886 92.71V97.034H243.046V92.71H221.886ZM231.362 119.206V123.576H254.5V119.206H231.362ZM230.764 86.684V91.698C230.764 95.056 229.982 100.07 221.334 103.382C222.576 104.256 224.14 105.958 224.876 107.062C234.214 102.784 235.962 96.436 235.962 91.744V86.684H230.764ZM226.532 81.67C225.658 85.074 223.864 88.478 221.518 90.686C222.714 91.238 224.83 92.48 225.842 93.262C228.188 90.732 230.304 86.776 231.454 82.636L226.532 81.67ZM235.088 96.804L231.362 99.058C233.432 100.392 237.48 103.382 239.274 104.9L243.23 101.404C241.896 100.53 236.744 97.586 235.088 96.804ZM249.716 90.18H256.754V97.954H249.716V90.18ZM244.61 85.304V102.876H262.182V85.304H244.61ZM274.326 81.716C273.36 85.396 271.474 90.272 269.818 93.4L274.602 94.642C276.35 91.698 278.42 87.19 280.076 82.958L274.326 81.716ZM267.38 91.146L267.794 96.39C273.038 96.068 280.122 95.654 286.884 95.148L286.93 90.364C279.8 90.686 272.348 91.008 267.38 91.146ZM270.094 98.552V125.094H275.2V103.106H284.722V98.552H270.094ZM282.1 98.552V119.436C282.1 120.034 281.916 120.172 281.364 120.172C280.766 120.218 278.926 120.218 277.316 120.126C278.006 121.46 278.788 123.576 279.064 125.048C281.87 125.048 283.94 124.956 285.55 124.128C287.114 123.3 287.574 121.92 287.574 119.574V98.552H282.1ZM272.44 105.498V109.592H285.182V105.498H272.44ZM272.44 112.26V116.354H285.182V112.26H272.44ZM291.162 82.13V96.022C291.162 101.128 292.496 102.692 297.924 102.692C298.982 102.692 303.122 102.692 304.272 102.692C308.55 102.692 310.022 101.036 310.62 95.056C309.102 94.734 306.848 93.906 305.698 93.032C305.514 97.08 305.238 97.77 303.72 97.77C302.754 97.77 299.442 97.77 298.706 97.77C296.958 97.77 296.682 97.54 296.682 95.93V82.13H291.162ZM304.962 84.844C301.926 86.592 297.188 88.662 292.91 89.996C293.508 91.054 294.244 92.71 294.474 93.814C299.028 92.572 304.364 90.824 308.458 88.846L304.962 84.844ZM291.162 103.612V118.148C291.162 123.254 292.542 124.818 297.97 124.818C299.074 124.818 303.352 124.818 304.502 124.818C308.918 124.818 310.39 122.978 310.988 116.492C309.47 116.17 307.262 115.296 306.112 114.468C305.882 119.16 305.606 119.988 303.996 119.988C302.984 119.988 299.534 119.988 298.752 119.988C296.958 119.988 296.636 119.804 296.636 118.102V103.612H291.162ZM305.33 105.544C302.202 107.568 297.28 109.822 292.818 111.248C293.37 112.306 294.152 114.054 294.428 115.112C299.166 113.778 304.732 111.846 308.918 109.592L305.33 105.544ZM280.582 86.776C282.79 90.226 284.998 94.826 285.78 97.77L290.794 95.746C289.92 92.71 287.528 88.34 285.274 85.028L280.582 86.776ZM325.57 119.896V123.944H348.018V119.896H325.57ZM332.148 91.606V97.126H337.484V91.606H332.148ZM315.174 94.78V103.934H320.372V98.92H349.812V103.934H355.194V94.78H315.174ZM325.386 100.852V104.808H342.406V107.2H325.386V111.156H347.926V100.852H325.386ZM325.616 113.226V117.274H345.902V125.186H351.422V113.226H325.616ZM322.35 100.852V125.232H327.594V100.852H322.35ZM319.82 85.166V89.49H334.31V85.166H319.82ZM338.45 85.166V89.49H356.298V85.166H338.45ZM320.004 81.578C318.578 85.074 315.956 88.662 313.196 90.962C314.438 91.606 316.646 93.078 317.704 93.906C320.418 91.284 323.362 87.098 325.156 82.958L320.004 81.578ZM338.726 81.578C337.392 84.936 334.816 88.294 331.872 90.41C333.252 91.008 335.598 92.204 336.702 93.032C339.462 90.64 342.314 86.822 343.97 82.866L338.726 81.578ZM321.522 88.524C322.626 90.18 323.822 92.526 324.236 93.952L329.204 92.526C328.652 91.054 327.364 88.846 326.214 87.282L321.522 88.524ZM342.084 88.662C343.372 90.272 344.89 92.618 345.488 93.998L350.594 92.572C349.858 91.1 348.248 88.892 346.914 87.374L342.084 88.662ZM381.598 96.758H395.536V100.714H381.598V96.758ZM381.598 88.57H395.536V92.434H381.598V88.57ZM376.63 83.878V105.36H400.78V83.878H376.63ZM376.308 109.316V114.284H401.286V109.316H376.308ZM373.088 118.7V123.668H402.804V118.7H373.088ZM359.61 84.568V89.72H374.882V84.568H359.61ZM360.07 97.816V102.922H374.1V97.816H360.07ZM359.104 115.296L360.346 120.908C364.762 119.482 370.282 117.688 375.434 115.94L374.468 110.65C368.948 112.444 363.06 114.284 359.104 115.296ZM364.716 86.592V115.71L369.96 114.882V86.592H364.716ZM386.336 85.856V103.198H385.83V121.046H391.488V103.198H390.982V85.856H386.336ZM408.554 84.798V90.272H445.308V84.798H408.554ZM406.07 104.302V109.868H447.976V104.302H406.07ZM411.314 93.216C412.786 96.298 414.258 100.346 414.718 102.83L420.054 101.128C419.548 98.598 417.938 94.688 416.328 91.744L411.314 93.216ZM437.534 91.606C436.66 94.642 434.958 98.69 433.532 101.358L438.362 102.784C439.88 100.392 441.766 96.62 443.422 93.124L437.534 91.606ZM424.056 87.098V125.094H429.806V87.098H424.056ZM460.074 117.918V123.254H485.466V117.918H460.074ZM457.59 104.716V125.094H463.248V110.006H482.43V125.094H488.364V104.716H457.59ZM466.606 81.578C464.628 86.73 460.994 93.354 457.912 97.54L462.88 99.518C466.008 95.516 469.918 89.352 472.908 83.648L466.606 81.578ZM477.646 89.812C482.246 93.768 487.49 99.38 489.652 103.244L494.482 99.564C492.09 95.608 486.57 90.272 482.016 86.592L477.646 89.812ZM452.714 94.964L453.036 100.576C462.098 100.208 475.898 99.656 488.64 98.966L488.916 93.63C476.266 94.182 462.006 94.734 452.714 94.964Z" fill="#00276E"/>
</svg>
