<svg width="420" height="420" viewBox="0 0 420 420" fill="none" xmlns="http://www.w3.org/2000/svg">
<path fill-rule="evenodd" clip-rule="evenodd" d="M207.338 291.726C207.338 291.726 206.026 311.425 203.91 315.09C201.794 318.755 192.854 320.081 192.854 320.081H283.49C283.49 320.081 274.159 318.266 271.349 315.09C268.538 311.914 268.538 291.264 268.538 291.264H207.338" fill="#D8DDE4" fill-opacity="0.65"/>
<rect x="100.788" y="99" width="274.333" height="193.266" rx="4.07087" fill="#F0F2F5" fill-opacity="0.1" stroke="#E8EBEF" stroke-width="2"/>
<rect x="113.562" y="112.672" width="247.916" height="144.188" fill="#F0F2F5" stroke="#E8EBEF" stroke-dasharray="3 2"/>
<rect x="124.12" y="118.482" width="246.314" height="133.017" rx="6" fill="white" stroke="#E8EBEF"/>
<path fill-rule="evenodd" clip-rule="evenodd" d="M150.14 144.565C150.14 144.085 150.529 143.695 151.009 143.695H171.82C172.3 143.695 172.69 144.085 172.69 144.565C172.69 145.045 172.3 145.434 171.82 145.434H151.009C150.529 145.434 150.14 145.045 150.14 144.565ZM150.14 152.911C150.14 150.702 151.931 148.911 154.14 148.911H198.178C200.387 148.911 202.178 150.702 202.178 152.911V174.47C202.178 176.679 200.387 178.47 198.178 178.47H154.14C151.931 178.47 150.14 176.679 150.14 174.47V152.911ZM221.26 152.911C221.26 150.702 223.05 148.911 225.26 148.911H269.298C271.507 148.911 273.298 150.702 273.298 152.911V174.47C273.298 176.679 271.507 178.47 269.298 178.47H225.26C223.05 178.47 221.26 176.679 221.26 174.47V152.911ZM202.178 201.598C202.178 199.389 200.387 197.598 198.178 197.598H154.14C151.931 197.598 150.14 199.389 150.14 201.598V223.157C150.14 225.366 151.931 227.157 154.14 227.157H198.178C200.387 227.157 202.178 225.366 202.178 223.157V201.598ZM221.26 201.598C221.26 199.389 223.05 197.598 225.26 197.598H269.298C271.507 197.598 273.298 199.389 273.298 201.598V223.157C273.298 225.366 271.507 227.157 269.298 227.157H225.26C223.05 227.157 221.26 225.366 221.26 223.157V201.598ZM344.415 201.598C344.415 199.389 342.624 197.598 340.415 197.598H296.377C294.168 197.598 292.377 199.389 292.377 201.598V223.157C292.377 225.366 294.168 227.157 296.377 227.157H340.415C342.624 227.157 344.415 225.366 344.415 223.157V201.598ZM172.69 193.252C172.69 192.772 172.3 192.382 171.82 192.382H151.009C150.529 192.382 150.14 192.772 150.14 193.252C150.14 193.732 150.529 194.121 151.009 194.121H171.82C172.3 194.121 172.69 193.732 172.69 193.252Z" fill="#E8EBEF" fill-opacity="0.7"/>
<rect x="46" y="137.801" width="173.88" height="128.52" rx="6" fill="#F0F2F5" stroke="#E8EBEF"/>
<rect x="65.8203" y="153.422" width="172.88" height="125.84" stroke="#E8EBEF" stroke-dasharray="3 2"/>
<rect x="57.4199" y="146.701" width="172.04" height="125" rx="5.5" fill="white" stroke="#E8EBEF"/>
<mask id="mask0_3226_10086" style="mask-type:alpha" maskUnits="userSpaceOnUse" x="56" y="146" width="174" height="127">
<rect x="57.4199" y="146.701" width="172.04" height="125" fill="white" stroke="white"/>
</mask>
<g mask="url(#mask0_3226_10086)">
<rect x="67" y="154.77" width="152.645" height="86.939" fill="#C8D0D9" fill-opacity="0.5"/>
<path fill-rule="evenodd" clip-rule="evenodd" d="M198.575 175.908C197.157 174.49 196.36 172.567 196.36 170.562C196.36 168.557 197.157 166.634 198.575 165.216C199.992 163.798 201.915 163.002 203.92 163.002C205.925 163.002 207.848 163.798 209.266 165.216C210.684 166.634 211.48 168.557 211.48 170.562C211.48 172.567 210.684 174.49 209.266 175.908C207.848 177.325 205.925 178.122 203.92 178.122C201.915 178.122 199.992 177.325 198.575 175.908ZM210.279 209.962C210.516 210.274 210.64 210.625 210.64 210.983V233.562H75.4004V199.066C75.3999 198.775 75.4819 198.488 75.6411 198.222C75.8003 197.957 76.0331 197.719 76.3245 197.524L109.317 175.303C109.854 174.944 110.556 174.75 111.28 174.763C112.003 174.775 112.693 174.992 113.206 175.37L157.728 208.191C158.257 208.581 158.974 208.8 159.721 208.799C160.468 208.798 161.184 208.578 161.712 208.187L161.892 208.037L175.275 195.978C175.706 195.59 176.312 195.329 176.982 195.245C177.652 195.161 178.341 195.258 178.921 195.52L209.288 209.203C209.701 209.389 210.042 209.651 210.279 209.962Z" fill="white"/>
<rect x="66.3232" y="250.982" width="57.242" height="5.21634" fill="#A3B1BF" fill-opacity="0.4"/>
<rect x="66.3232" y="259.871" width="144.55" height="2.60817" fill="#E8EBEF"/>
</g>
</svg>
