<svg width="12" height="12" viewBox="0 0 12 12" fill="none" xmlns="http://www.w3.org/2000/svg">
<path d="M5.29449 6.70497C5.3884 6.79889 5.44481 6.92385 5.45315 7.0564C5.46148 7.18895 5.42116 7.31999 5.33976 7.42494L5.29449 7.47621L1.86264 10.9086L4.35089 10.9091C4.48449 10.9092 4.61343 10.9582 4.71326 11.047C4.81309 11.1358 4.87687 11.2581 4.89251 11.3908L4.89632 11.4546C4.89629 11.5882 4.84717 11.7173 4.75828 11.8171C4.6694 11.9169 4.54694 11.9807 4.41416 11.9962L4.35089 12H0.54543L0.504523 11.9984L0.435798 11.9891L0.375256 11.9727L0.314713 11.9487L0.261261 11.9204L0.2089 11.8838L0.159811 11.8402C0.140704 11.8211 0.12302 11.8007 0.106904 11.7791L0.0681787 11.7191L0.0387256 11.6569L0.0196353 11.5997L0.0032726 11.5178L0 11.454V7.63384C0.000291272 7.49486 0.0536202 7.36124 0.149097 7.26026C0.244574 7.15927 0.374998 7.09855 0.513736 7.09047C0.652475 7.0824 0.789063 7.12758 0.895611 7.21681C1.00216 7.30603 1.07063 7.43256 1.08704 7.57056L1.09086 7.63384L1.09031 10.1368L4.52325 6.70497C4.62553 6.60272 4.76424 6.54527 4.90887 6.54527C5.0535 6.54527 5.1922 6.60272 5.29449 6.70497ZM7.64856 0H11.454L11.4949 0.00163617L11.5637 0.0109086L11.6242 0.0272716L11.6847 0.0512703L11.7382 0.0796327L11.7906 0.116176L11.8396 0.159811C11.8593 0.178901 11.8767 0.199627 11.8926 0.220899L11.9313 0.280896L11.9607 0.343075L11.9798 0.400346L11.9962 0.48216L11.9995 0.54543V4.36562C11.9992 4.50459 11.9458 4.63821 11.8504 4.7392C11.7549 4.84018 11.6245 4.90091 11.4857 4.90899C11.347 4.91706 11.2104 4.87187 11.1038 4.78265C10.9973 4.69342 10.9288 4.56689 10.9124 4.42889L10.9086 4.36562V1.8621L7.47621 5.29449C7.37805 5.39231 7.24634 5.4491 7.10783 5.45333C6.96932 5.45756 6.83439 5.40891 6.73045 5.31726C6.62651 5.22561 6.56135 5.09783 6.54821 4.95988C6.53507 4.82193 6.57493 4.68415 6.6597 4.57452L6.70497 4.52325L10.1363 1.09086H7.64911C7.51542 1.09098 7.38634 1.04199 7.2864 0.953202C7.18645 0.864416 7.12259 0.742015 7.10695 0.609245L7.10313 0.54543C7.10317 0.411752 7.15229 0.282742 7.24117 0.182896C7.33006 0.0830511 7.45252 0.0193246 7.58529 0.00381799L7.64856 0Z" fill="#3758FF"/>
</svg>
