<svg width="56" height="34" viewBox="0 0 56 34" fill="none" xmlns="http://www.w3.org/2000/svg">
<path d="M27.5301 33.2969C42.7346 33.2969 55.0603 30.6207 55.0603 27.3194C55.0603 24.0181 42.7346 21.3419 27.5301 21.3419C12.3257 21.3419 0 24.0181 0 27.3194C0 30.6207 12.3257 33.2969 27.5301 33.2969Z" fill="#8A8FA8"/>
<path d="M38.1646 1.33949L38.1869 1.37504L38.2147 1.40639L46.8173 11.0862V18.2865H8.24268V11.0871L16.8452 1.4055L16.873 1.37428L16.8951 1.33888C17.252 0.769359 17.7231 0.5 18.1465 0.5H36.9134C37.3367 0.5 37.8078 0.769249 38.1646 1.33949Z" stroke="#A7ABC0"/>
<path d="M36.3002 13.604C36.3002 13.0192 36.4833 12.5024 36.758 12.1421C37.0324 11.7822 37.3756 11.6015 37.7164 11.6011H46.8173V26.5889C46.8173 27.3942 46.5644 28.1098 46.1776 28.6136C45.791 29.117 45.2923 29.3876 44.7793 29.3876H10.2806C9.76778 29.3876 9.26898 29.1169 8.88239 28.6133C8.49551 28.1093 8.24268 27.3938 8.24268 26.5889V11.6011H17.3438C17.6847 11.6011 18.0279 11.7815 18.3021 12.1407C18.5767 12.5003 18.7597 13.0167 18.7597 13.6014V13.6202C18.7597 15.143 19.7388 16.5975 21.1843 16.5975H33.8757C35.3234 16.5975 36.3002 15.1299 36.3002 13.61V13.604Z" fill="#9397AE" stroke="#A7ABC0"/>
</svg>
