<svg width="20" height="20" viewBox="0 0 20 20" fill="none" xmlns="http://www.w3.org/2000/svg">
<path d="M2.845 1.66667H5.83333C6.05435 1.66667 6.26631 1.57887 6.42259 1.42259C6.57887 1.26631 6.66667 1.05435 6.66667 0.833333C6.66667 0.61232 6.57887 0.400358 6.42259 0.244078C6.26631 0.0877975 6.05435 0 5.83333 0H0.833333C0.61232 0 0.400358 0.0877975 0.244078 0.244078C0.0877975 0.400358 0 0.61232 0 0.833333V5.83333C0 6.05435 0.0877975 6.26631 0.244078 6.42259C0.400358 6.57887 0.61232 6.66667 0.833333 6.66667C1.05435 6.66667 1.26631 6.57887 1.42259 6.42259C1.57887 6.26631 1.66667 6.05435 1.66667 5.83333V2.845L5.24375 6.42208C5.32065 6.50165 5.41263 6.5651 5.51431 6.60874C5.616 6.65238 5.72536 6.67532 5.83601 6.67625C5.94665 6.67717 6.05638 6.65605 6.15878 6.61411C6.26118 6.57217 6.3542 6.51026 6.43241 6.43199C6.51063 6.35372 6.57247 6.26065 6.61434 6.15823C6.6562 6.0558 6.67725 5.94606 6.67625 5.83541C6.67525 5.72476 6.65222 5.61542 6.60851 5.51376C6.5648 5.41211 6.50129 5.32018 6.42167 5.24333L2.845 1.66667ZM18.3333 2.845V5.83333C18.3333 6.05435 18.4211 6.26631 18.5774 6.42259C18.7337 6.57887 18.9457 6.66667 19.1667 6.66667C19.3877 6.66667 19.5996 6.57887 19.7559 6.42259C19.9122 6.26631 20 6.05435 20 5.83333V0.833333C20 0.61232 19.9122 0.400358 19.7559 0.244078C19.5996 0.0877975 19.3877 0 19.1667 0H14.1667C13.9457 0 13.7337 0.0877975 13.5774 0.244078C13.4211 0.400358 13.3333 0.61232 13.3333 0.833333C13.3333 1.05435 13.4211 1.26631 13.5774 1.42259C13.7337 1.57887 13.9457 1.66667 14.1667 1.66667H17.155L13.5779 5.24375C13.4984 5.32065 13.4349 5.41263 13.3913 5.51431C13.3476 5.616 13.3247 5.72536 13.3238 5.83601C13.3228 5.94665 13.344 6.05638 13.3859 6.15878C13.4278 6.26118 13.4897 6.3542 13.568 6.43241C13.6463 6.51063 13.7393 6.57247 13.8418 6.61434C13.9442 6.6562 14.0539 6.67725 14.1646 6.67625C14.2752 6.67525 14.3846 6.65222 14.4862 6.60851C14.5879 6.5648 14.6798 6.50129 14.7567 6.42167L18.3333 2.845ZM2.845 18.3333H5.83333C6.05435 18.3333 6.26631 18.4211 6.42259 18.5774C6.57887 18.7337 6.66667 18.9457 6.66667 19.1667C6.66667 19.3877 6.57887 19.5996 6.42259 19.7559C6.26631 19.9122 6.05435 20 5.83333 20H0.833333C0.61232 20 0.400358 19.9122 0.244078 19.7559C0.0877975 19.5996 0 19.3877 0 19.1667V14.1667C0 13.9457 0.0877975 13.7337 0.244078 13.5774C0.400358 13.4211 0.61232 13.3333 0.833333 13.3333C1.05435 13.3333 1.26631 13.4211 1.42259 13.5774C1.57887 13.7337 1.66667 13.9457 1.66667 14.1667V17.155L5.24375 13.5779C5.32065 13.4984 5.41263 13.4349 5.51431 13.3913C5.616 13.3476 5.72536 13.3247 5.83601 13.3238C5.94665 13.3228 6.05638 13.344 6.15878 13.3859C6.26118 13.4278 6.3542 13.4897 6.43241 13.568C6.51063 13.6463 6.57247 13.7393 6.61434 13.8418C6.6562 13.9442 6.67725 14.0539 6.67625 14.1646C6.67525 14.2752 6.65222 14.3846 6.60851 14.4862C6.5648 14.5879 6.50129 14.6798 6.42167 14.7567L2.845 18.3333ZM18.3333 17.155V14.1667C18.3333 13.9457 18.4211 13.7337 18.5774 13.5774C18.7337 13.4211 18.9457 13.3333 19.1667 13.3333C19.3877 13.3333 19.5996 13.4211 19.7559 13.5774C19.9122 13.7337 20 13.9457 20 14.1667V19.1667C20 19.3877 19.9122 19.5996 19.7559 19.7559C19.5996 19.9122 19.3877 20 19.1667 20H14.1667C13.9457 20 13.7337 19.9122 13.5774 19.7559C13.4211 19.5996 13.3333 19.3877 13.3333 19.1667C13.3333 18.9457 13.4211 18.7337 13.5774 18.5774C13.7337 18.4211 13.9457 18.3333 14.1667 18.3333H17.155L13.5779 14.7563C13.4984 14.6793 13.4349 14.5874 13.3913 14.4857C13.3476 14.384 13.3247 14.2746 13.3238 14.164C13.3228 14.0533 13.344 13.9436 13.3859 13.8412C13.4278 13.7388 13.4897 13.6458 13.568 13.5676C13.6463 13.4894 13.7393 13.4275 13.8418 13.3857C13.9442 13.3438 14.0539 13.3228 14.1646 13.3238C14.2752 13.3248 14.3846 13.3478 14.4862 13.3915C14.5879 13.4352 14.6798 13.4987 14.7567 13.5783L18.3333 17.155Z" fill="white"/>
</svg>
