<svg width="14" height="14" viewBox="0 0 14 14" fill="none" xmlns="http://www.w3.org/2000/svg">
<path d="M13.3728 6.58158C13.108 6.58158 12.8928 6.79678 12.8928 7.06158C12.8928 10.3112 10.2496 12.9544 7.00002 12.9544C3.75042 12.9544 1.10722 10.3112 1.10722 7.06158C1.10722 3.81198 3.75042 1.16878 7.00002 1.16878C8.68802 1.16878 10.2768 1.88958 11.3872 3.12798H9.57362C9.30882 3.12798 9.09362 3.34318 9.09362 3.60798C9.09362 3.87278 9.30882 4.08798 9.57362 4.08798H12.5152C12.78 4.08798 12.9952 3.87278 12.9952 3.60798V0.563984C12.9952 0.299184 12.78 0.0839844 12.5152 0.0839844C12.2504 0.0839844 12.0352 0.299184 12.0352 0.563984V2.41198C11.3937 1.71668 10.6151 1.16186 9.7485 0.782521C8.88187 0.403181 7.94603 0.207556 7.00002 0.207984C3.22162 0.207984 0.147217 3.28238 0.147217 7.06078C0.147217 10.8392 3.22162 13.9136 7.00002 13.9136C10.7784 13.9136 13.8528 10.8392 13.8528 7.06078C13.8528 6.79598 13.6376 6.58158 13.3728 6.58158Z" fill="white"/>
</svg>
