<svg width="24" height="24" viewBox="0 0 24 24" fill="none" xmlns="http://www.w3.org/2000/svg">
<path opacity="0.8" fill-rule="evenodd" clip-rule="evenodd" d="M1.84658 14.6643C3.09051 19.3742 7.38549 22.5 12.0744 22.5C12.9591 22.5 13.8582 22.3887 14.7533 22.1556C18.7269 21.1225 21.7616 17.8595 22.4843 13.843C22.5808 13.3078 22.2221 12.7967 21.6829 12.7011C21.1476 12.6045 20.6292 12.9615 20.533 13.4967C19.9455 16.7607 17.4799 19.4121 14.2509 20.2516C9.66945 21.4452 4.96553 18.7138 3.76404 14.1652C2.56333 9.61545 5.31414 4.9439 9.89594 3.75156C12.116 3.17378 14.4287 3.48886 16.409 4.63892C18.3897 5.78868 19.8009 7.63552 20.3827 9.83906C20.5217 10.3649 21.0647 10.6801 21.5929 10.5414C22.1223 10.4037 22.4392 9.8658 22.3004 9.33996C21.5845 6.62785 19.8474 4.35494 17.4095 2.93964C14.9723 1.52494 12.1253 1.13605 9.39325 1.84771C3.75417 3.31508 0.36873 9.06461 1.84658 14.6643ZM10.2334 12.9852L16.9685 12.9855C17.5157 12.9855 17.9597 12.5449 17.9597 12.0014C17.9597 11.4579 17.516 11.0173 16.9685 11.0173L10.2342 11.017L13.0841 8.18732C13.4713 7.80306 13.4713 7.17999 13.0841 6.79573C12.697 6.4113 12.0698 6.4113 11.6826 6.79573L7.17214 11.2742C7.16108 11.2843 7.15019 11.2946 7.13949 11.3052C6.94578 11.4975 6.84899 11.7496 6.84913 12.0017C6.84895 12.2537 6.94574 12.5059 7.13951 12.6982C7.14926 12.7079 7.15915 12.7173 7.1692 12.7265L11.6829 17.2076C11.8765 17.3996 12.1301 17.4957 12.3837 17.4957C12.6373 17.4957 12.8912 17.3996 13.0845 17.2074C13.4716 16.8232 13.4716 16.1999 13.0845 15.8156L10.2334 12.9852Z" fill="white"/>
</svg>
