<svg width="10" height="12" viewBox="0 0 10 12" fill="none" xmlns="http://www.w3.org/2000/svg">
<path d="M3.17969 6.11816V1.29395C3.17969 0.874625 3.5213 0.533009 3.94062 0.533009H5.98438C6.4037 0.533009 6.74531 0.874625 6.74531 1.29395V6.11816H8.825C9.02666 6.11816 9.22167 6.198 9.36506 6.34139C9.66189 6.63822 9.66191 7.11991 9.36511 7.41676C9.3651 7.41678 9.36508 7.4168 9.36506 7.41682L5.54011 11.2441L5.54006 11.2442C5.24323 11.541 4.76154 11.541 4.46468 11.2442C4.46467 11.2442 4.46465 11.2442 4.46463 11.2442L0.63734 7.41921L0.637286 7.41916C0.493896 7.27577 0.414062 7.08076 0.414062 6.8791C0.414062 6.45669 0.756426 6.11816 1.175 6.11816H3.17969Z" fill="#DC4239" fill-opacity="0.2" stroke="#DC4239" stroke-width="0.5"/>
</svg>
